<svg width="320" height="362" viewBox="0 0 320 362" fill="none" xmlns="http://www.w3.org/2000/svg">
<g clip-path="url(#clip0_11315_29311)">
<path d="M153.585 339.601L153.179 330.519C153.137 330.496 153.094 330.474 153.052 330.452C148.696 328.181 143.703 332.292 145.094 336.98C146.404 341.392 147.283 346.147 149.68 350.008C151.095 352.251 153.001 354.148 155.255 355.559C157.51 356.971 160.055 357.86 162.702 358.161L168.237 361.528C168.996 357.322 168.829 353.002 167.746 348.866C166.663 344.73 164.691 340.876 161.964 337.571C160.417 335.731 158.642 334.093 156.682 332.694C155.356 336.167 153.585 339.601 153.585 339.601Z" fill="#F2F2F2"/>
<path d="M104.033 247.433C93.3778 236.514 77.9363 230.253 61.6684 230.253L61.0409 230.255C50.3256 230.259 39.8015 227.435 30.545 222.072L29.5818 221.515L30.3576 220.72C34.5577 216.403 38.0647 211.47 40.7559 206.094C38.8446 207.864 36.5649 209.196 34.0783 209.994C31.5917 210.792 28.9589 211.037 26.3662 210.712C23.6291 210.388 21.0013 209.452 18.6801 207.975C16.3588 206.498 14.4044 204.518 12.9634 202.183C7.27758 193.017 0.5 180.012 0.5 170.104C0.508851 161.73 2.27372 153.449 5.68211 145.79C9.09051 138.131 14.0677 131.261 20.2963 125.619C24.2396 122.086 27.3893 117.767 29.54 112.944C31.6907 108.121 32.7941 102.902 32.7784 97.6268L32.7753 96.8761C32.7742 89.9309 33.6284 83.0117 35.3189 76.2727L35.4906 75.5922L36.1953 75.6167C40.7398 75.7703 45.2867 75.3918 49.7421 74.4891C45.5629 73.9798 41.4746 72.8995 37.5929 71.2787L36.8348 70.974L37.0921 70.2021C54.8279 59.2918 94.8626 64.9417 118.1 12.12C136.942 -30.7113 203.424 50.1413 203.424 96.8761C203.424 101.645 198.674 107.947 202.23 111.098C240.67 145.171 214.147 167.05 205.785 189.065C203.801 194.289 208.103 200.023 208.103 205.674C208.103 206.633 208.078 207.623 208.029 208.616L207.955 210.143L206.674 209.296C204.138 207.645 201.788 205.73 199.663 203.583C201.868 208.623 202.906 214.09 202.703 219.581C202.5 225.073 201.06 230.45 198.49 235.316C194.461 242.87 190.564 248.278 186.906 251.389C175.189 261.351 160.084 266.49 144.679 265.755C129.275 265.019 114.735 258.465 104.033 247.433Z" fill="#F4F4F4"/>
<path d="M168.39 361.081C168.652 361.08 168.905 360.986 169.103 360.816C169.3 360.645 169.43 360.409 169.466 360.151C169.513 359.829 174.044 327.363 169.974 284.215C166.216 244.367 154.148 186.971 117.997 139.833C117.91 139.72 117.802 139.625 117.678 139.554C117.555 139.482 117.418 139.435 117.276 139.416C117.134 139.397 116.99 139.406 116.852 139.442C116.714 139.478 116.584 139.541 116.47 139.628C116.356 139.714 116.26 139.821 116.189 139.944C116.117 140.067 116.07 140.203 116.051 140.344C116.032 140.485 116.041 140.628 116.077 140.766C116.114 140.903 116.178 141.032 116.265 141.145C152.104 187.876 164.075 244.85 167.806 284.417C171.852 327.314 167.357 359.526 167.311 359.847C167.289 360 167.3 360.156 167.345 360.305C167.389 360.454 167.465 360.591 167.567 360.708C167.669 360.825 167.796 360.919 167.938 360.983C168.08 361.048 168.234 361.081 168.39 361.081Z" fill="#C7C7C7"/>
<path d="M138.888 206.323C139.118 206.323 139.342 206.251 139.528 206.117C139.714 205.982 139.853 205.793 139.924 205.576C139.995 205.359 139.995 205.124 139.924 204.907C139.853 204.69 139.715 204.5 139.529 204.366C139.398 204.271 126.173 194.804 106.401 187.611C88.1236 180.963 60.3301 174.936 31.7172 183.983C31.5808 184.026 31.4542 184.096 31.3447 184.187C31.2352 184.279 31.1449 184.391 31.0791 184.517C31.0133 184.643 30.9731 184.781 30.961 184.923C30.9488 185.065 30.9649 185.207 31.0083 185.343C31.0517 185.478 31.1216 185.604 31.2139 185.713C31.3062 185.821 31.4192 185.911 31.5464 185.976C31.6735 186.041 31.8124 186.081 31.955 186.093C32.0977 186.104 32.2412 186.088 32.3775 186.045C60.4042 177.183 87.6938 183.111 105.652 189.643C125.142 196.733 138.12 206.023 138.249 206.116C138.434 206.251 138.658 206.323 138.888 206.323Z" fill="#C7C7C7"/>
<path d="M188.719 83.016C188.736 82.7881 188.68 82.5608 188.558 82.3666C188.437 82.1725 188.257 82.0215 188.044 81.9353C187.831 81.8492 187.596 81.8322 187.373 81.8869C187.149 81.9416 186.949 82.0652 186.801 82.2399C186.696 82.3631 176.24 94.7869 167.595 113.862C159.605 131.495 151.553 158.603 158.575 187.608C158.642 187.887 158.819 188.128 159.065 188.278C159.311 188.428 159.607 188.474 159.888 188.407C160.169 188.34 160.411 188.165 160.562 187.92C160.713 187.676 160.759 187.381 160.692 187.103C153.814 158.691 161.73 132.075 169.581 114.75C178.102 95.9474 188.363 83.7555 188.466 83.6345C188.614 83.4602 188.703 83.2436 188.719 83.016Z" fill="#C7C7C7"/>
<path d="M187.246 138.793C188.164 146.157 193.3 152.228 200.768 152.228C204.355 152.228 207.794 150.813 210.33 148.293C212.866 145.774 214.291 142.357 214.291 138.793C214.291 131.373 208.204 126.044 200.768 125.358C192.878 124.631 186.066 129.339 187.246 138.793Z" fill="#2F2E41"/>
<path d="M207.031 355.16L212.181 355.16L214.63 335.426L207.03 335.426L207.031 355.16Z" fill="#FFB6B6"/>
<path d="M206.85 360.499L222.686 360.499V360.3C222.685 358.676 222.036 357.118 220.88 355.97C219.724 354.822 218.157 354.176 216.522 354.176L213.629 351.996L208.232 354.177L206.85 354.177L206.85 360.499Z" fill="#2F2E41"/>
<path d="M186.748 355.16L191.897 355.16L194.347 335.426L186.747 335.426L186.748 355.16Z" fill="#FFB6B6"/>
<path d="M186.567 360.499L202.402 360.499V360.3C202.402 358.676 201.752 357.118 200.597 355.97C199.441 354.822 197.873 354.176 196.238 354.176L193.346 351.996L187.949 354.177L186.566 354.177L186.567 360.499Z" fill="#2F2E41"/>
<path d="M224.752 231.564L228.392 243.965L224.103 296.488C224.103 296.488 226.312 299.772 224.752 299.772C223.191 299.772 221.191 300.5 222.451 302.461C223.712 304.422 219.403 311.463 219.403 311.463L213.31 348.861L205.545 348.747C205.545 348.747 201.598 346.562 203.813 344.353C206.028 342.144 207.589 342.144 205.508 340.077C203.428 338.01 203.428 338.632 203.428 337.029C203.428 335.426 201.344 315.835 206.286 308.32L204.797 277.681L201.289 307.734L194.066 347.828L186.586 347.766C186.586 347.766 183.132 344.458 183.138 342.009C183.144 339.56 185.272 339.356 183.688 337.908C182.104 336.46 182.104 314.208 186.785 301.839C186.785 301.839 189.433 294.928 186.779 292.56C184.125 290.192 186.776 287.482 186.776 287.482C186.776 287.482 190.979 285.973 186.772 281.623C182.565 277.274 186.749 246.512 186.749 246.512C186.749 246.512 182.15 234.095 186.808 229.212C191.466 224.329 224.752 231.564 224.752 231.564Z" fill="#2F2E41"/>
<path d="M159.91 252.932L166.405 237.336L171.523 240.161L168.432 256.026C168.742 257.031 168.763 258.102 168.494 259.118C168.224 260.135 167.674 261.056 166.907 261.78C166.139 262.503 165.183 262.999 164.147 263.212C163.111 263.425 162.036 263.347 161.042 262.986C160.049 262.625 159.176 261.996 158.522 261.17C157.869 260.343 157.46 259.352 157.342 258.308C157.225 257.263 157.403 256.206 157.856 255.257C158.31 254.307 159.021 253.502 159.91 252.932Z" fill="#FFB6B6"/>
<path d="M268.907 129.605L259.024 143.333L254.684 139.43L261.312 124.673C261.24 123.624 261.463 122.576 261.958 121.647C262.452 120.718 263.197 119.944 264.11 119.412C265.023 118.881 266.067 118.613 267.124 118.638C268.182 118.664 269.211 118.982 270.097 119.557C270.983 120.132 271.689 120.941 272.137 121.894C272.585 122.846 272.757 123.903 272.634 124.947C272.51 125.991 272.096 126.98 271.438 127.803C270.779 128.626 269.903 129.25 268.907 129.605Z" fill="#FFB6B6"/>
<path d="M225.733 232.835C232.143 242.714 199.92 255.251 187.556 250.218C185.391 249.336 177.943 246.425 183.034 242.389C188.124 238.354 182.444 237.786 182.309 235.158C182.22 233.402 183.588 229.549 182.16 229.714C180.732 229.879 179.061 227.45 182.171 226.405C185.281 225.36 182.204 224.406 182.231 223.414C182.529 212.586 190.891 195.363 190.891 195.363L175.823 233.63C175.823 233.63 175.935 240.25 174.013 238.227C172.092 236.204 172.231 242.752 172.231 242.752C172.231 242.752 169.374 244.733 171.017 245.836C172.66 246.938 169.248 250.328 169.248 250.328L161.288 249.763C161.288 249.763 161.412 243.887 162.771 242.588C164.131 241.289 163.463 239.244 163.463 239.244C163.463 239.244 167.002 236.131 164.63 233.604C161.578 230.354 172.704 175.457 176.543 176C177.086 173.376 178.348 170.951 180.192 168.995C182.035 167.039 184.386 165.627 186.986 164.916L195.585 162.564L197.112 156.545H209.219L211.327 160.5L220.532 164.627C222.266 162.196 223.561 159.635 230.661 158.805C230.661 158.805 249.791 141.512 248.857 140.161C247.923 138.811 250.889 135.65 250.889 135.65C250.889 135.65 253.421 134.826 251.992 134.387C250.563 133.947 253.264 132.93 253.264 132.93C253.264 132.93 255.766 132.277 254.586 131.417C253.406 130.557 258.524 129.992 258.524 129.992L265.164 135.375L263.822 137.636C263.822 137.636 264.64 140.714 263.572 139.59C262.504 138.467 262.303 141.728 262.303 141.728C262.303 141.728 261.758 145.3 258.524 146.376C255.29 147.452 252.838 157.675 252.838 157.675C245.211 167.528 236.21 175.214 225.543 180.273C229.7 185.014 225.733 232.835 225.733 232.835Z" fill="#374EA9"/>
<path d="M202.263 153.026C208.886 153.026 214.254 147.692 214.254 141.113C214.254 134.533 208.886 129.199 202.263 129.199C195.641 129.199 190.272 134.533 190.272 141.113C190.272 147.692 195.641 153.026 202.263 153.026Z" fill="#FFB6B6"/>
<path d="M189.846 142.411C190.226 144.999 192.446 148.611 191.926 148.611C191.406 148.611 187.708 137.939 191.406 137.243C194.089 136.739 194.688 137.181 197.195 136.101L196.841 136.432C198.5 137.631 200.81 136.892 202.703 136.112C204.601 135.337 206.905 134.598 208.569 135.791C209.615 136.541 210.057 137.843 210.707 138.949C211.357 140.06 212.558 141.108 213.796 140.767C214.79 140.494 215.362 139.388 215.357 138.365C215.351 137.342 214.01 136.368 214.462 135.45C215.8 132.73 214.597 130.876 211.679 129.596C210.618 129.436 209.558 129.272 208.497 129.105C209.052 128.34 209.727 127.667 210.494 127.11C210.17 126.285 209.609 125.571 208.881 125.059C208.034 124.558 206.983 124.594 206 124.646C203.805 124.759 201.612 124.873 199.421 124.987C197.798 125.069 196.118 125.167 194.667 125.906C192.857 126.831 191.672 128.635 190.808 130.469C188.873 134.593 189.18 137.91 189.846 142.411Z" fill="#2F2E41"/>
<path d="M139.964 361.84L257.895 361.999C258.059 361.999 258.217 361.934 258.333 361.819C258.449 361.703 258.514 361.547 258.514 361.383C258.514 361.22 258.449 361.064 258.333 360.948C258.217 360.833 258.059 360.768 257.895 360.768L139.964 360.609C139.8 360.609 139.642 360.674 139.526 360.79C139.41 360.905 139.345 361.061 139.345 361.225C139.345 361.388 139.41 361.544 139.526 361.66C139.642 361.775 139.8 361.84 139.964 361.84Z" fill="#CACACA"/>
<path d="M97.3112 308.21C97.5286 306.725 95.9636 305.27 93.8157 304.96C91.6677 304.649 89.7502 305.601 89.5328 307.085C89.3154 308.57 90.8804 310.025 93.0284 310.336C95.1763 310.646 97.0938 309.694 97.3112 308.21Z" fill="#E6E6E6"/>
<path d="M122.885 305.729C123.102 304.245 121.537 302.79 119.389 302.479C117.241 302.169 115.324 303.12 115.107 304.605C114.889 306.09 116.454 307.545 118.602 307.855C120.75 308.166 122.668 307.214 122.885 305.729Z" fill="#C7C7C7"/>
<path d="M90.3083 287.639C90.5257 286.155 88.9607 284.7 86.8127 284.389C84.6648 284.079 82.7473 285.031 82.5299 286.515C82.3125 288 83.8775 289.455 86.0254 289.765C88.1734 290.076 90.0909 289.124 90.3083 287.639Z" fill="#FFD600"/>
<path d="M79.1962 279.214C79.2066 277.852 78.4414 276.741 77.4871 276.734C76.5328 276.727 75.7508 277.826 75.7405 279.189C75.7301 280.551 76.4953 281.662 77.4495 281.669C78.4038 281.676 79.1858 280.577 79.1962 279.214Z" fill="#E6E6E6"/>
<path d="M75.4276 263.519C75.438 262.156 74.6728 261.046 73.7186 261.038C72.7643 261.031 71.9823 262.13 71.9719 263.493C71.9615 264.856 72.7267 265.967 73.681 265.974C74.6353 265.981 75.4172 264.882 75.4276 263.519Z" fill="#C7C7C7"/>
<path d="M104.732 291.14C104.743 289.777 103.978 288.667 103.023 288.66C102.069 288.652 101.287 289.751 101.277 291.114C101.266 292.477 102.031 293.588 102.986 293.595C103.94 293.602 104.722 292.503 104.732 291.14Z" fill="#E6E6E6"/>
<path d="M92.3739 297.269C92.3843 295.906 91.6191 294.796 90.6648 294.788C89.7105 294.781 88.9286 295.88 88.9182 297.243C88.9078 298.606 89.673 299.717 90.6272 299.724C91.5815 299.731 92.3635 298.632 92.3739 297.269Z" fill="#FFD600"/>
<path d="M109.577 308.601C109.587 307.238 108.822 306.128 107.868 306.12C106.914 306.113 106.132 307.212 106.121 308.575C106.111 309.938 106.876 311.049 107.83 311.056C108.785 311.063 109.567 309.964 109.577 308.601Z" fill="#C7C7C7"/>
<path d="M293.906 228.632C294.123 227.147 292.558 225.692 290.41 225.381C288.262 225.071 286.345 226.023 286.128 227.507C285.91 228.992 287.475 230.447 289.623 230.758C291.771 231.068 293.689 230.116 293.906 228.632Z" fill="#E6E6E6"/>
<path d="M319.48 226.155C319.697 224.671 318.132 223.215 315.984 222.905C313.836 222.594 311.919 223.546 311.701 225.031C311.484 226.515 313.049 227.97 315.197 228.281C317.345 228.591 319.262 227.64 319.48 226.155Z" fill="#C7C7C7"/>
<path d="M286.903 208.061C287.12 206.577 285.555 205.122 283.407 204.811C281.26 204.501 279.342 205.452 279.125 206.937C278.907 208.422 280.472 209.877 282.62 210.187C284.768 210.498 286.686 209.546 286.903 208.061Z" fill="#FFD600"/>
<path d="M275.791 199.636C275.801 198.273 275.036 197.163 274.082 197.156C273.128 197.148 272.346 198.248 272.335 199.61C272.325 200.973 273.09 202.084 274.044 202.091C274.999 202.098 275.781 200.999 275.791 199.636Z" fill="#E6E6E6"/>
<path d="M272.022 183.945C272.033 182.582 271.268 181.471 270.313 181.464C269.359 181.457 268.577 182.556 268.567 183.919C268.556 185.282 269.321 186.393 270.276 186.4C271.23 186.407 272.012 185.308 272.022 183.945Z" fill="#C7C7C7"/>
<path d="M301.327 211.562C301.337 210.199 300.572 209.089 299.618 209.081C298.664 209.074 297.882 210.173 297.871 211.536C297.861 212.899 298.626 214.01 299.58 214.017C300.535 214.024 301.317 212.925 301.327 211.562Z" fill="#E6E6E6"/>
<path d="M288.969 217.695C288.979 216.332 288.214 215.221 287.26 215.214C286.305 215.207 285.523 216.306 285.513 217.669C285.503 219.032 286.268 220.143 287.222 220.15C288.176 220.157 288.958 219.058 288.969 217.695Z" fill="#FFD600"/>
<path d="M306.172 229.023C306.182 227.66 305.417 226.55 304.463 226.542C303.508 226.535 302.726 227.634 302.716 228.997C302.706 230.36 303.471 231.471 304.425 231.478C305.379 231.485 306.161 230.386 306.172 229.023Z" fill="#C7C7C7"/>
<path d="M198.729 81.366C198.947 79.8815 197.382 78.4263 195.234 78.1158C193.086 77.8053 191.168 78.7571 190.951 80.2416C190.733 81.7262 192.298 83.1814 194.446 83.4919C196.594 83.8024 198.512 82.8506 198.729 81.366Z" fill="white"/>
<path d="M224.303 78.8856C224.52 77.4011 222.955 75.9459 220.807 75.6354C218.659 75.3249 216.742 76.2766 216.525 77.7612C216.307 79.2458 217.872 80.7009 220.02 81.0114C222.168 81.3219 224.086 80.3702 224.303 78.8856Z" fill="#C7C7C7"/>
<path d="M191.726 60.7957C191.944 59.3112 190.379 57.856 188.231 57.5455C186.083 57.235 184.165 58.1868 183.948 59.6713C183.73 61.1559 185.295 62.6111 187.443 62.9216C189.591 63.2321 191.509 62.2803 191.726 60.7957Z" fill="#FFD600"/>
<path d="M180.614 52.3707C180.625 51.0078 179.859 49.8972 178.905 49.89C177.951 49.8828 177.169 50.9819 177.158 52.3448C177.148 53.7077 177.913 54.8183 178.867 54.8255C179.822 54.8327 180.604 53.7336 180.614 52.3707Z" fill="#E6E6E6"/>
<path d="M176.846 36.6754C176.856 35.3125 176.091 34.2019 175.137 34.1947C174.182 34.1875 173.4 35.2866 173.39 36.6495C173.38 38.0123 174.145 39.123 175.099 39.1302C176.053 39.1373 176.835 38.0383 176.846 36.6754Z" fill="#C7C7C7"/>
<path d="M206.15 64.2965C206.161 62.9336 205.395 61.823 204.441 61.8158C203.487 61.8086 202.705 62.9077 202.695 64.2706C202.684 65.6334 203.449 66.7441 204.404 66.7513C205.358 66.7584 206.14 65.6594 206.15 64.2965Z" fill="#E6E6E6"/>
<path d="M193.792 70.4254C193.802 69.0625 193.037 67.9519 192.083 67.9447C191.129 67.9376 190.347 69.0366 190.336 70.3995C190.326 71.7623 191.091 72.873 192.045 72.8802C193 72.8873 193.781 71.7883 193.792 70.4254Z" fill="#FFD600"/>
<path d="M210.995 81.7574C211.005 80.3946 210.24 79.2839 209.286 79.2768C208.332 79.2696 207.55 80.3686 207.539 81.7315C207.529 83.0944 208.294 84.205 209.248 84.2122C210.203 84.2194 210.985 83.1203 210.995 81.7574Z" fill="#C7C7C7"/>
</g>
<defs>
<clipPath id="clip0_11315_29311">
<rect width="319" height="362" fill="white" transform="translate(0.5)"/>
</clipPath>
</defs>
</svg>
