<svg width="319" height="363" viewBox="0 0 319 363" fill="none" xmlns="http://www.w3.org/2000/svg">
<g clip-path="url(#clip0_11315_29263)">
<path d="M153.086 340.101L152.679 331.019C152.637 330.996 152.595 330.974 152.553 330.952C148.196 328.681 143.203 332.792 144.595 337.48C145.904 341.892 146.784 346.647 149.18 350.508C150.596 352.751 152.502 354.648 154.756 356.059C157.01 357.471 159.555 358.36 162.202 358.661L167.737 362.028C168.496 357.822 168.329 353.502 167.246 349.366C166.163 345.23 164.191 341.376 161.465 338.071C159.917 336.231 158.142 334.593 156.182 333.194C154.857 336.667 153.086 340.101 153.086 340.101Z" fill="#F2F2F2"/>
<path d="M103.533 247.933C92.8778 237.014 77.4363 230.753 61.1684 230.753L60.5409 230.755C49.8256 230.759 39.3015 227.935 30.045 222.572L29.0818 222.015L29.8576 221.22C34.0577 216.903 37.5647 211.97 40.2559 206.594C38.3446 208.364 36.0649 209.696 33.5783 210.494C31.0917 211.292 28.4589 211.537 25.8662 211.212C23.1291 210.888 20.5013 209.952 18.1801 208.475C15.8588 206.998 13.9044 205.018 12.4634 202.683C6.77758 193.517 0 180.512 0 170.604C0.00885084 162.23 1.77372 153.949 5.18211 146.29C8.59051 138.631 13.5677 131.761 19.7963 126.119C23.7396 122.586 26.8893 118.267 29.04 113.444C31.1907 108.621 32.2941 103.402 32.2784 98.1268L32.2753 97.3761C32.2742 90.4309 33.1284 83.5117 34.8189 76.7727L34.9906 76.0922L35.6953 76.1167C40.2398 76.2703 44.7867 75.8918 49.2421 74.9891C45.0629 74.4798 40.9746 73.3995 37.0929 71.7787L36.3348 71.474L36.5921 70.7021C54.3279 59.7918 94.3626 65.4417 117.6 12.62C136.442 -30.2113 202.924 50.6413 202.924 97.3761C202.924 102.145 198.174 108.447 201.73 111.598C240.17 145.671 213.647 167.55 205.285 189.565C203.301 194.789 207.603 200.523 207.603 206.174C207.603 207.133 207.578 208.123 207.529 209.116L207.455 210.643L206.174 209.796C203.638 208.145 201.288 206.23 199.163 204.083C201.368 209.123 202.406 214.59 202.203 220.081C202 225.573 200.56 230.95 197.99 235.816C193.961 243.37 190.064 248.778 186.406 251.889C174.689 261.851 159.584 266.99 144.179 266.255C128.775 265.519 114.235 258.965 103.533 247.933Z" fill="#586FCB"/>
<path d="M167.89 361.581C168.152 361.58 168.405 361.486 168.603 361.316C168.8 361.145 168.93 360.909 168.966 360.651C169.013 360.329 173.544 327.863 169.474 284.715C165.716 244.867 153.648 187.471 117.497 140.333C117.41 140.22 117.302 140.125 117.178 140.054C117.055 139.982 116.918 139.935 116.776 139.916C116.634 139.897 116.49 139.906 116.352 139.942C116.214 139.978 116.084 140.041 115.97 140.128C115.856 140.214 115.76 140.321 115.689 140.444C115.617 140.567 115.57 140.703 115.551 140.844C115.532 140.985 115.541 141.128 115.577 141.266C115.614 141.403 115.678 141.532 115.765 141.645C151.604 188.376 163.575 245.35 167.306 284.917C171.352 327.814 166.857 360.026 166.811 360.347C166.789 360.5 166.8 360.656 166.845 360.805C166.889 360.954 166.965 361.091 167.067 361.208C167.169 361.325 167.296 361.419 167.438 361.483C167.58 361.548 167.734 361.581 167.89 361.581Z" fill="#7B92EB"/>
<path d="M138.388 206.823C138.618 206.823 138.842 206.751 139.028 206.617C139.214 206.482 139.353 206.293 139.424 206.076C139.495 205.859 139.495 205.624 139.424 205.407C139.353 205.19 139.215 205 139.029 204.866C138.898 204.771 125.673 195.304 105.901 188.111C87.6236 181.463 59.8301 175.436 31.2172 184.483C31.0808 184.526 30.9542 184.596 30.8447 184.687C30.7352 184.779 30.6449 184.891 30.5791 185.017C30.5133 185.143 30.4731 185.281 30.461 185.423C30.4488 185.565 30.4649 185.707 30.5083 185.843C30.5517 185.978 30.6216 186.104 30.7139 186.213C30.8062 186.321 30.9192 186.411 31.0464 186.476C31.1735 186.541 31.3124 186.581 31.455 186.593C31.5977 186.604 31.7412 186.588 31.8775 186.545C59.9042 177.683 87.1938 183.611 105.152 190.143C124.642 197.233 137.62 206.523 137.749 206.616C137.934 206.751 138.158 206.823 138.388 206.823Z" fill="#7B92EB"/>
<path d="M188.219 83.516C188.236 83.2881 188.18 83.0608 188.058 82.8666C187.937 82.6725 187.757 82.5215 187.544 82.4353C187.331 82.3492 187.096 82.3322 186.873 82.3869C186.649 82.4416 186.449 82.5652 186.301 82.7399C186.196 82.8631 175.74 95.2869 167.095 114.362C159.105 131.995 151.053 159.103 158.075 188.108C158.142 188.387 158.319 188.628 158.565 188.778C158.811 188.928 159.107 188.974 159.388 188.907C159.669 188.84 159.911 188.665 160.062 188.42C160.213 188.176 160.259 187.881 160.192 187.603C153.314 159.191 161.23 132.575 169.081 115.25C177.602 96.4474 187.863 84.2555 187.966 84.1345C188.114 83.9602 188.203 83.7436 188.219 83.516Z" fill="#7B92EB"/>
<path d="M186.746 139.293C187.664 146.657 192.8 152.728 200.268 152.728C203.855 152.728 207.294 151.313 209.83 148.793C212.366 146.274 213.791 142.857 213.791 139.293C213.791 131.873 207.704 126.544 200.268 125.858C192.378 125.131 185.566 129.839 186.746 139.293Z" fill="#2F2E41"/>
<path d="M206.531 355.66L211.681 355.66L214.13 335.926L206.53 335.926L206.531 355.66Z" fill="#FFB6B6"/>
<path d="M206.35 360.999L222.185 360.999V360.8C222.185 359.176 221.536 357.618 220.38 356.47C219.224 355.322 217.656 354.676 216.022 354.676L213.129 352.496L207.732 354.677L206.35 354.677L206.35 360.999Z" fill="#2F2E41"/>
<path d="M186.247 355.66L191.397 355.66L193.846 335.926L186.246 335.926L186.247 355.66Z" fill="#FFB6B6"/>
<path d="M186.067 360.999L201.902 360.999V360.8C201.902 359.176 201.252 357.618 200.097 356.47C198.941 355.322 197.373 354.676 195.738 354.676L192.846 352.496L187.449 354.677L186.066 354.677L186.067 360.999Z" fill="#2F2E41"/>
<path d="M224.252 232.064L227.892 244.465L223.603 296.988C223.603 296.988 225.812 300.272 224.252 300.272C222.691 300.272 220.691 301 221.951 302.961C223.212 304.922 218.903 311.963 218.903 311.963L212.81 349.361L205.045 349.247C205.045 349.247 201.098 347.062 203.313 344.853C205.528 342.644 207.089 342.644 205.008 340.577C202.928 338.51 202.928 339.132 202.928 337.529C202.928 335.926 200.844 316.335 205.786 308.82L204.297 278.181L200.789 308.234L193.566 348.328L186.086 348.266C186.086 348.266 182.632 344.958 182.638 342.509C182.644 340.06 184.772 339.856 183.188 338.408C181.604 336.96 181.604 314.708 186.285 302.339C186.285 302.339 188.933 295.428 186.279 293.06C183.625 290.692 186.276 287.982 186.276 287.982C186.276 287.982 190.479 286.473 186.272 282.123C182.065 277.774 186.249 247.012 186.249 247.012C186.249 247.012 181.65 234.595 186.308 229.712C190.966 224.829 224.252 232.064 224.252 232.064Z" fill="#2F2E41"/>
<path d="M159.409 253.432L165.905 237.836L171.022 240.661L167.932 256.526C168.241 257.531 168.263 258.602 167.993 259.618C167.724 260.635 167.174 261.556 166.406 262.28C165.638 263.003 164.683 263.499 163.647 263.712C162.611 263.925 161.536 263.847 160.542 263.486C159.548 263.125 158.676 262.496 158.022 261.67C157.368 260.843 156.96 259.852 156.842 258.808C156.724 257.763 156.902 256.706 157.356 255.757C157.809 254.807 158.52 254.002 159.409 253.432Z" fill="#FFB6B6"/>
<path d="M268.407 130.105L258.524 143.833L254.184 139.93L260.812 125.173C260.74 124.124 260.963 123.076 261.458 122.147C261.952 121.218 262.697 120.444 263.61 119.912C264.523 119.381 265.567 119.113 266.624 119.138C267.682 119.164 268.711 119.482 269.597 120.057C270.483 120.632 271.189 121.441 271.637 122.394C272.085 123.346 272.257 124.403 272.134 125.447C272.01 126.491 271.596 127.48 270.938 128.303C270.279 129.126 269.403 129.75 268.407 130.105Z" fill="#FFB6B6"/>
<path d="M225.232 233.335C231.643 243.214 199.419 255.751 187.055 250.718C184.89 249.836 177.443 246.925 182.533 242.889C187.624 238.854 181.943 238.286 181.809 235.658C181.719 233.902 183.088 230.049 181.66 230.214C180.232 230.379 178.56 227.95 181.67 226.905C184.781 225.86 181.704 224.906 181.731 223.914C182.028 213.086 190.39 195.863 190.39 195.863L175.323 234.13C175.323 234.13 175.434 240.75 173.513 238.727C171.591 236.704 171.731 243.252 171.731 243.252C171.731 243.252 168.874 245.233 170.517 246.336C172.16 247.438 168.748 250.828 168.748 250.828L160.787 250.263C160.787 250.263 160.912 244.387 162.271 243.088C163.63 241.789 162.963 239.744 162.963 239.744C162.963 239.744 166.502 236.631 164.129 234.104C161.078 230.854 172.203 175.957 176.042 176.5C176.585 173.876 177.848 171.451 179.691 169.495C181.534 167.539 183.886 166.127 186.486 165.416L195.084 163.064L196.611 157.045H208.718L210.827 161L220.031 165.127C221.765 162.696 223.061 160.135 230.16 159.305C230.16 159.305 249.291 142.012 248.357 140.661C247.423 139.311 250.388 136.15 250.388 136.15C250.388 136.15 252.921 135.326 251.492 134.887C250.063 134.447 252.764 133.43 252.764 133.43C252.764 133.43 255.266 132.777 254.086 131.917C252.906 131.057 258.023 130.492 258.023 130.492L264.664 135.875L263.321 138.136C263.321 138.136 264.14 141.214 263.072 140.09C262.004 138.967 261.803 142.228 261.803 142.228C261.803 142.228 261.258 145.8 258.023 146.876C254.789 147.952 252.337 158.175 252.337 158.175C244.71 168.028 235.709 175.714 225.043 180.773C229.2 185.514 225.232 233.335 225.232 233.335Z" fill="white"/>
<path d="M201.763 153.526C208.385 153.526 213.754 148.192 213.754 141.613C213.754 135.033 208.385 129.699 201.763 129.699C195.14 129.699 189.771 135.033 189.771 141.613C189.771 148.192 195.14 153.526 201.763 153.526Z" fill="#FFB6B6"/>
<path d="M189.346 142.911C189.726 145.499 191.946 149.111 191.426 149.111C190.906 149.111 187.208 138.439 190.906 137.743C193.589 137.239 194.188 137.681 196.695 136.601L196.341 136.932C198 138.131 200.31 137.392 202.203 136.612C204.101 135.837 206.405 135.098 208.069 136.291C209.115 137.041 209.557 138.343 210.207 139.449C210.857 140.56 212.058 141.608 213.296 141.267C214.29 140.994 214.862 139.888 214.857 138.865C214.851 137.842 213.51 136.868 213.962 135.95C215.3 133.23 214.097 131.376 211.179 130.096C210.118 129.936 209.058 129.772 207.997 129.605C208.552 128.84 209.227 128.167 209.994 127.61C209.67 126.785 209.109 126.071 208.381 125.559C207.534 125.058 206.483 125.094 205.5 125.146C203.305 125.259 201.112 125.373 198.921 125.487C197.298 125.569 195.618 125.667 194.167 126.406C192.357 127.331 191.172 129.135 190.308 130.969C188.373 135.093 188.68 138.41 189.346 142.911Z" fill="#2F2E41"/>
<path d="M139.464 362.34L257.395 362.499C257.559 362.499 257.717 362.434 257.833 362.319C257.949 362.203 258.014 362.047 258.014 361.883C258.014 361.72 257.949 361.564 257.833 361.448C257.717 361.333 257.559 361.268 257.395 361.268L139.464 361.109C139.3 361.109 139.142 361.174 139.026 361.29C138.91 361.405 138.845 361.561 138.845 361.725C138.845 361.888 138.91 362.044 139.026 362.16C139.142 362.275 139.3 362.34 139.464 362.34Z" fill="#CACACA"/>
<path d="M96.8117 308.71C97.0291 307.225 95.4641 305.77 93.3162 305.46C91.1682 305.149 89.2507 306.101 89.0333 307.585C88.8159 309.07 90.3809 310.525 92.5289 310.836C94.6768 311.146 96.5943 310.194 96.8117 308.71Z" fill="#E6E6E6"/>
<path d="M122.385 306.229C122.602 304.745 121.037 303.29 118.889 302.979C116.741 302.669 114.824 303.62 114.607 305.105C114.389 306.59 115.954 308.045 118.102 308.355C120.25 308.666 122.168 307.714 122.385 306.229Z" fill="#7B92EB"/>
<path d="M89.8088 288.139C90.0262 286.655 88.4612 285.2 86.3132 284.889C84.1653 284.579 82.2478 285.531 82.0304 287.015C81.813 288.5 83.378 289.955 85.5259 290.265C87.6739 290.576 89.5914 289.624 89.8088 288.139Z" fill="#FFD600"/>
<path d="M78.6962 279.714C78.7066 278.352 77.9414 277.241 76.9871 277.234C76.0328 277.227 75.2508 278.326 75.2405 279.689C75.2301 281.051 75.9953 282.162 76.9495 282.169C77.9038 282.176 78.6858 281.077 78.6962 279.714Z" fill="#E6E6E6"/>
<path d="M74.9276 264.019C74.938 262.656 74.1728 261.546 73.2186 261.538C72.2643 261.531 71.4823 262.63 71.4719 263.993C71.4615 265.356 72.2267 266.467 73.181 266.474C74.1353 266.481 74.9172 265.382 74.9276 264.019Z" fill="#7B92EB"/>
<path d="M104.232 291.64C104.243 290.277 103.478 289.167 102.523 289.16C101.569 289.152 100.787 290.251 100.777 291.614C100.766 292.977 101.531 294.088 102.486 294.095C103.44 294.102 104.222 293.003 104.232 291.64Z" fill="#E6E6E6"/>
<path d="M91.8739 297.769C91.8843 296.406 91.1191 295.296 90.1648 295.288C89.2105 295.281 88.4286 296.38 88.4182 297.743C88.4078 299.106 89.173 300.217 90.1272 300.224C91.0815 300.231 91.8635 299.132 91.8739 297.769Z" fill="#FFD600"/>
<path d="M109.077 309.101C109.087 307.738 108.322 306.628 107.368 306.62C106.414 306.613 105.632 307.712 105.621 309.075C105.611 310.438 106.376 311.549 107.33 311.556C108.285 311.563 109.067 310.464 109.077 309.101Z" fill="#7B92EB"/>
<path d="M293.406 229.132C293.624 227.647 292.059 226.192 289.911 225.881C287.763 225.571 285.845 226.523 285.628 228.007C285.411 229.492 286.976 230.947 289.124 231.258C291.272 231.568 293.189 230.616 293.406 229.132Z" fill="#E6E6E6"/>
<path d="M318.98 226.655C319.197 225.171 317.632 223.715 315.484 223.405C313.336 223.094 311.419 224.046 311.201 225.531C310.984 227.015 312.549 228.47 314.697 228.781C316.845 229.091 318.762 228.14 318.98 226.655Z" fill="#7B92EB"/>
<path d="M286.403 208.561C286.62 207.077 285.055 205.622 282.907 205.311C280.759 205.001 278.842 205.952 278.624 207.437C278.407 208.922 279.972 210.377 282.12 210.687C284.268 210.998 286.185 210.046 286.403 208.561Z" fill="#FFD600"/>
<path d="M275.291 200.136C275.301 198.773 274.536 197.663 273.582 197.656C272.628 197.648 271.846 198.748 271.835 200.11C271.825 201.473 272.59 202.584 273.544 202.591C274.499 202.598 275.281 201.499 275.291 200.136Z" fill="#E6E6E6"/>
<path d="M271.522 184.445C271.533 183.082 270.768 181.971 269.813 181.964C268.859 181.957 268.077 183.056 268.067 184.419C268.056 185.782 268.821 186.893 269.776 186.9C270.73 186.907 271.512 185.808 271.522 184.445Z" fill="#7B92EB"/>
<path d="M300.827 212.062C300.837 210.699 300.072 209.589 299.118 209.581C298.164 209.574 297.382 210.673 297.371 212.036C297.361 213.399 298.126 214.51 299.08 214.517C300.035 214.524 300.817 213.425 300.827 212.062Z" fill="#E6E6E6"/>
<path d="M288.469 218.195C288.479 216.832 287.714 215.721 286.76 215.714C285.805 215.707 285.023 216.806 285.013 218.169C285.003 219.532 285.768 220.643 286.722 220.65C287.676 220.657 288.458 219.558 288.469 218.195Z" fill="#FFD600"/>
<path d="M305.672 229.523C305.682 228.16 304.917 227.05 303.963 227.042C303.008 227.035 302.226 228.134 302.216 229.497C302.206 230.86 302.971 231.971 303.925 231.978C304.879 231.985 305.661 230.886 305.672 229.523Z" fill="#7B92EB"/>
<path d="M198.23 81.866C198.447 80.3815 196.882 78.9263 194.734 78.6158C192.586 78.3053 190.669 79.2571 190.451 80.7416C190.234 82.2262 191.799 83.6814 193.947 83.9919C196.095 84.3024 198.012 83.3506 198.23 81.866Z" fill="white"/>
<path d="M223.803 79.3856C224.02 77.9011 222.455 76.4459 220.307 76.1354C218.159 75.8249 216.242 76.7766 216.025 78.2612C215.807 79.7458 217.372 81.2009 219.52 81.5114C221.668 81.8219 223.586 80.8702 223.803 79.3856Z" fill="#7B92EB"/>
<path d="M191.227 61.2957C191.444 59.8112 189.879 58.356 187.731 58.0455C185.583 57.735 183.666 58.6868 183.448 60.1713C183.231 61.6559 184.796 63.1111 186.944 63.4216C189.092 63.7321 191.009 62.7803 191.227 61.2957Z" fill="#FFD600"/>
<path d="M180.114 52.8707C180.125 51.5078 179.359 50.3972 178.405 50.39C177.451 50.3828 176.669 51.4819 176.658 52.8448C176.648 54.2077 177.413 55.3183 178.367 55.3255C179.322 55.3327 180.104 54.2336 180.114 52.8707Z" fill="#E6E6E6"/>
<path d="M176.346 37.1754C176.356 35.8125 175.591 34.7019 174.637 34.6947C173.682 34.6875 172.9 35.7866 172.89 37.1495C172.88 38.5123 173.645 39.623 174.599 39.6302C175.553 39.6373 176.335 38.5383 176.346 37.1754Z" fill="#7B92EB"/>
<path d="M205.65 64.7965C205.661 63.4336 204.895 62.323 203.941 62.3158C202.987 62.3086 202.205 63.4077 202.195 64.7706C202.184 66.1334 202.949 67.2441 203.904 67.2513C204.858 67.2584 205.64 66.1594 205.65 64.7965Z" fill="#E6E6E6"/>
<path d="M193.292 70.9254C193.302 69.5625 192.537 68.4519 191.583 68.4447C190.629 68.4376 189.847 69.5366 189.836 70.8995C189.826 72.2623 190.591 73.373 191.545 73.3802C192.5 73.3873 193.281 72.2883 193.292 70.9254Z" fill="#FFD600"/>
<path d="M210.495 82.2574C210.505 80.8946 209.74 79.7839 208.786 79.7768C207.832 79.7696 207.05 80.8686 207.039 82.2315C207.029 83.5944 207.794 84.705 208.748 84.7122C209.703 84.7194 210.485 83.6203 210.495 82.2574Z" fill="#7B92EB"/>
</g>
<defs>
<clipPath id="clip0_11315_29263">
<rect width="319" height="362" fill="white" transform="translate(0 0.5)"/>
</clipPath>
</defs>
</svg>
