<svg width="180" height="180" viewBox="0 0 180 180" fill="none" xmlns="http://www.w3.org/2000/svg">
<rect width="180" height="180" rx="40" fill="url(#paint0_linear_9425_32251)"/>
<path d="M132.385 118.857C132.145 119.306 131.866 119.726 131.615 120.151C129.362 124.174 126.96 127.94 124.064 131.412C121.166 134.87 117.799 138.045 113.745 140.52C110.84 142.119 107.793 143.867 104.526 145.164C101.292 146.498 97.9111 147.585 94.6418 147.979C98.5209 147.625 102.404 146.634 106.055 145.042C109.72 143.472 113.197 141.41 116.427 138.99C119.657 136.563 122.586 133.728 125.297 130.669C126.68 129.16 127.909 127.507 129.171 125.867L130.937 123.313C131.537 122.459 132.036 121.544 132.6 120.656C132.645 121.613 132.633 122.658 132.442 123.719C132.215 124.756 131.846 125.829 131.287 126.895C128.194 131.742 124.53 135.913 120.476 139.442C120.241 139.153 119.78 138.59 119.547 138.307C116.996 141.064 114.001 143.241 110.859 145.019C107.666 146.725 104.294 147.965 100.849 148.812C99.9816 149.015 99.0968 149.152 98.2289 149.325L96.919 149.57L95.5876 149.713C94.7022 149.804 93.8225 149.933 92.9332 149.989C92.0417 150.024 91.1479 150.056 90.2512 150.087C86.6325 150.206 83.0905 149.883 79.4865 149.532C79.9461 149.849 79.5875 150.081 79.434 150.298C82.9516 151.011 86.5303 151.459 90.2015 151.345C91.1117 151.301 92.0123 151.254 92.9169 151.216C93.8225 151.161 94.7022 150.992 95.5955 150.888L96.9252 150.705C97.3769 150.641 97.806 150.52 98.2448 150.432L100.866 149.843C104.294 148.849 107.654 147.601 110.852 145.914C111.671 145.535 112.423 145.034 113.217 144.582C114.001 144.129 114.797 143.679 115.543 143.139C116.297 142.619 117.06 142.099 117.819 141.576C118.545 140.997 119.271 140.415 120.005 139.831C115.571 143.603 110.658 146.641 105.365 148.767C104.717 149.065 104.04 149.285 103.357 149.507L101.32 150.183C99.9562 150.584 98.5485 150.882 97.1567 151.216C95.7372 151.419 94.329 151.683 92.8937 151.807L90.734 151.93C90.0158 151.97 89.2993 152.008 88.5635 151.981C82.7518 151.871 77.3104 150.645 72.0435 148.655C69.4134 147.66 66.8404 146.436 64.3328 144.961C61.8258 143.491 59.3781 141.773 57.0547 139.704C54.4602 137.397 52.532 134.526 50.899 131.483C49.9866 129.785 47.1583 125.239 49.2362 123.825C50.3062 123.102 51.6116 122.295 52.6522 123.483C53.205 124.115 53.6618 126.397 54.5855 126.501C56.2777 126.69 55.3438 122.222 55.5686 121.377C55.9056 120.113 56.6199 119.237 57.3297 118.792C57.6995 118.525 58.0851 118.373 58.4826 118.343C58.6814 118.323 58.8841 118.354 59.0811 118.379C59.2805 118.396 59.4792 118.437 59.6785 118.49C60.4662 118.734 61.1686 119.252 61.9309 120.096C62.7304 121.078 63.5824 122.15 64.5886 123.327C65.5914 124.489 66.7517 125.743 68.13 126.942C70.8498 129.356 74.3923 131.57 78.1127 132.568C80.7767 133.38 83.5084 133.906 86.113 134.188C87.4275 134.326 88.6731 134.439 89.9181 134.45C90.5505 134.443 91.1812 134.462 91.8249 134.501C92.4635 134.483 93.0992 134.45 93.7604 134.46C93.9801 134.462 94.2076 134.474 94.4335 134.469L95.1116 134.391L96.4921 134.241C97.408 134.108 98.3232 133.823 99.2588 133.617C100.168 133.304 101.096 132.999 102.01 132.626L103.357 132C103.811 131.798 104.271 131.591 104.701 131.331C108.247 129.422 111.536 126.9 114.654 124.253C115.234 123.771 115.72 123.028 116.253 122.259C116.804 121.51 117.235 120.616 117.69 119.811C118.176 119.01 118.528 118.207 118.927 117.583C119.324 116.955 119.726 116.489 120.094 116.263C120.98 115.509 121.697 115.781 122.396 116.316C121.358 118.714 119.978 120.951 118.525 123.082C117.725 124.1 117.003 125.171 116.118 126.102C115.687 126.579 115.27 127.064 114.835 127.533L113.461 128.845C111.104 130.849 108.584 132.632 105.874 133.917C103.175 135.217 100.358 136.135 97.5339 136.595C100.338 136.294 103.167 135.44 105.884 134.136C108.608 132.822 111.136 130.974 113.461 128.845L114.881 127.586C115.332 127.141 115.765 126.669 116.208 126.221C117.134 125.33 117.9 124.298 118.744 123.32C120.293 121.272 121.783 119.117 122.951 116.771C123.535 117.268 124.143 117.791 124.915 117.795C124.915 117.795 125.086 117.401 125.3 116.905C125.406 116.662 125.528 116.389 125.63 116.121C125.723 115.853 125.809 115.603 125.877 115.394C127.265 114.098 128.514 113.771 129.532 114.107C130.551 114.444 131.342 115.471 131.862 116.747C132.029 117.362 132.228 118.069 132.385 118.857Z" fill="white"/>
<path d="M123.906 87.5361C123.906 82.5093 119.835 78.432 114.819 78.432C109.801 78.432 105.735 82.5093 105.735 87.5361C105.735 92.5686 109.801 96.6436 114.819 96.6436C119.835 96.6436 123.906 92.5686 123.906 87.5361Z" fill="white"/>
<path d="M96.2669 37.4334C96.2669 26.0335 78.7989 25.8614 78.7989 37.2596C78.7989 43.0911 78.7283 102.675 78.7283 105.884C78.7283 117.283 96.1964 117.457 96.1964 106.057C96.1964 100.109 96.2669 40.6046 96.2669 37.4334Z" fill="white"/>
<defs>
<linearGradient id="paint0_linear_9425_32251" x1="180" y1="180" x2="0" y2="0" gradientUnits="userSpaceOnUse">
<stop offset="0.370384" stop-color="#374EA9"/>
<stop offset="1" stop-color="#0D9DFF"/>
</linearGradient>
</defs>
</svg>
