<svg width="161" height="103" viewBox="0 0 161 103" fill="none" xmlns="http://www.w3.org/2000/svg">
<g clip-path="url(#clip0_14694_137869)">
<path d="M117.476 25.3404C117.476 35.1264 102.247 63.9861 93.5152 79.7288C92.923 80.797 92.0573 81.6868 91.0079 82.3063C89.9585 82.9257 88.7633 83.2524 87.5461 83.2524C86.3288 83.2524 85.1336 82.9257 84.0842 82.3063C83.0348 81.6868 82.1692 80.797 81.5769 79.7288C72.845 63.9861 57.6157 35.1264 57.6157 25.3404C57.6157 11.6214 71.016 0.5 87.5461 0.5C104.076 0.5 117.476 11.6214 117.476 25.3404Z" fill="#B5B9C5" style="fill:#B5B9C5;fill:color(display-p3 0.7098 0.7251 0.7708);fill-opacity:1;"/>
<path d="M87.6868 41.4297C96.6891 41.4297 103.987 34.0996 103.987 25.0576C103.987 16.0156 96.6891 8.68555 87.6868 8.68555C78.6845 8.68555 71.3867 16.0156 71.3867 25.0576C71.3867 34.0996 78.6845 41.4297 87.6868 41.4297Z" fill="white" style="fill:white;fill:white;fill-opacity:1;"/>
<path d="M19.6674 39.8722C25.0594 39.8722 29.4305 35.4818 29.4305 30.066C29.4305 24.6502 25.0594 20.2598 19.6674 20.2598C14.2754 20.2598 9.9043 24.6502 9.9043 30.066C9.9043 35.4818 14.2754 39.8722 19.6674 39.8722Z" fill="#FF6584" style="fill:#FF6584;fill:color(display-p3 1.0000 0.3961 0.5176);fill-opacity:1;"/>
<path d="M87.546 102.501C100.598 102.501 111.179 101.68 111.179 100.668C111.179 99.6563 100.598 98.8359 87.546 98.8359C74.4939 98.8359 63.9131 99.6563 63.9131 100.668C63.9131 101.68 74.4939 102.501 87.546 102.501Z" fill="#B5B9C5" style="fill:#B5B9C5;fill:color(display-p3 0.7098 0.7251 0.7708);fill-opacity:1;"/>
<path opacity="0.4" d="M17.6796 38.7855C18.1765 35.71 16.0971 32.8122 13.0351 32.3131C9.97306 31.814 7.08801 33.9026 6.59111 36.9781C6.09422 40.0537 8.17364 42.9515 11.2356 43.4506C14.2977 43.9496 17.1827 41.861 17.6796 38.7855Z" fill="#B5B9C5" style="fill:#B5B9C5;fill:color(display-p3 0.7098 0.7251 0.7708);fill-opacity:1;"/>
<path d="M143.545 66.9854C99.3127 50.3311 45.365 66.5677 14.2178 99.7804C14.0407 99.9667 13.8637 100.156 13.6922 100.345H13.2173C13.3803 100.156 13.5489 99.9667 13.7147 99.7804C45.5083 64.0413 98.7394 49.7976 143.545 66.9854Z" fill="#3F3D56" style="fill:#3F3D56;fill:color(display-p3 0.2471 0.2392 0.3373);fill-opacity:1;"/>
<path d="M155.632 72.5085C151.723 70.4142 147.685 68.5692 143.545 66.9844C147.696 68.5431 151.735 70.3889 155.632 72.5085Z" fill="#3F3D56" style="fill:#3F3D56;fill:color(display-p3 0.2471 0.2392 0.3373);fill-opacity:1;"/>
<path opacity="0.4" d="M131.424 55.8927C134.826 55.8927 137.584 53.1224 137.584 49.7051C137.584 46.2878 134.826 43.5176 131.424 43.5176C128.022 43.5176 125.264 46.2878 125.264 49.7051C125.264 53.1224 128.022 55.8927 131.424 55.8927Z" fill="#B5B9C5" style="fill:#B5B9C5;fill:color(display-p3 0.7098 0.7251 0.7708);fill-opacity:1;"/>
<path d="M132.11 97.2984C132.586 99.066 134.217 100.161 134.217 100.161C134.217 100.161 135.076 98.3896 134.599 96.6221C134.123 94.8545 132.493 93.7598 132.493 93.7598C132.493 93.7598 131.634 95.5309 132.11 97.2984Z" fill="#3F3D56" style="fill:#3F3D56;fill:color(display-p3 0.2471 0.2392 0.3373);fill-opacity:1;"/>
<path d="M132.81 96.9179C134.116 98.1951 134.276 100.159 134.276 100.159C134.276 100.159 132.317 100.051 131.011 98.7739C129.704 97.4967 129.545 95.5332 129.545 95.5332C129.545 95.5332 131.503 95.6406 132.81 96.9179Z" fill="#B5B9C5" style="fill:#B5B9C5;fill:color(display-p3 0.7098 0.7251 0.7708);fill-opacity:1;"/>
<path d="M0.944471 72.7216V75.4484L0.80957 75.5952V72.6934C0.854536 72.7018 0.899513 72.7131 0.944471 72.7216Z" fill="#3F3D56" style="fill:#3F3D56;fill:color(display-p3 0.2471 0.2392 0.3373);fill-opacity:1;"/>
<path d="M9.59476 99.7784C9.55542 99.8433 9.51326 99.9082 9.4711 99.9731H0.80957V72.8576L0.944471 72.7221L2.09391 74.0347V72.1152H5.74738V78.2068L9.43738 82.4155L9.4711 82.455C9.51607 82.5962 9.55822 82.7373 9.60038 82.8785C9.60067 82.8806 9.60166 82.8826 9.60319 82.8841C10.1566 84.6629 10.6107 86.4714 10.9634 88.301C11.7672 92.617 11.6463 96.5745 9.59476 99.7784Z" fill="#CCCCCC" style="fill:#CCCCCC;fill:color(display-p3 0.8000 0.8000 0.8000);fill-opacity:1;"/>
<path d="M3.85081 87.7109H1.52539V89.6573H3.85081V87.7109Z" fill="#3F3D56" style="fill:#3F3D56;fill:color(display-p3 0.2471 0.2392 0.3373);fill-opacity:1;"/>
<path d="M3.85081 91.2129H1.52539V93.1593H3.85081V91.2129Z" fill="#3F3D56" style="fill:#3F3D56;fill:color(display-p3 0.2471 0.2392 0.3373);fill-opacity:1;"/>
<path d="M75.483 84.0127L74.3203 82.0664L85.1722 72.7236C93.195 68.8449 102.866 69.964 113.077 72.7236V75.4484L103.001 86.3485L91.3733 88.6841L75.483 84.0127Z" fill="#3F3D56" style="fill:#3F3D56;fill:color(display-p3 0.2471 0.2392 0.3373);fill-opacity:1;"/>
<path d="M117.881 78.2059C119.808 76.0529 120.076 74.0056 117.881 72.1152H114.228V74.0359L113.078 72.7233L103.776 82.0661L102.225 83.6231L100.288 91.4089L103.776 99.9728H121.604V82.4553L117.881 78.2059Z" fill="#CCCCCC" style="fill:#CCCCCC;fill:color(display-p3 0.8000 0.8000 0.8000);fill-opacity:1;"/>
<path d="M74.3202 82.0664H103.776V99.9733H74.3202C70.7567 96.1009 72.6079 89.0428 74.3202 82.0664Z" fill="#F2F2F2" style="fill:#F2F2F2;fill:color(display-p3 0.9490 0.9490 0.9490);fill-opacity:1;"/>
<path d="M99.706 87.7109H93.5049V93.1609H99.706V87.7109Z" fill="#3F3D56" style="fill:#3F3D56;fill:color(display-p3 0.2471 0.2392 0.3373);fill-opacity:1;"/>
<path d="M90.9856 87.5156H85.5596V99.9726H90.9856V87.5156Z" fill="#CCCCCC" style="fill:#CCCCCC;fill:color(display-p3 0.8000 0.8000 0.8000);fill-opacity:1;"/>
<path d="M79.3585 89.4619V87.5156H77.0332V89.4619H79.1646H79.3585Z" fill="#3F3D56" style="fill:#3F3D56;fill:color(display-p3 0.2471 0.2392 0.3373);fill-opacity:1;"/>
<path d="M79.1646 91.0195H77.0332V92.9661H79.3585V91.0195H79.1646Z" fill="#3F3D56" style="fill:#3F3D56;fill:color(display-p3 0.2471 0.2392 0.3373);fill-opacity:1;"/>
<path d="M83.2341 87.5156H80.9087V89.462H83.2341V87.5156Z" fill="#3F3D56" style="fill:#3F3D56;fill:color(display-p3 0.2471 0.2392 0.3373);fill-opacity:1;"/>
<path d="M83.2341 91.0195H80.9087V92.9659H83.2341V91.0195Z" fill="#3F3D56" style="fill:#3F3D56;fill:color(display-p3 0.2471 0.2392 0.3373);fill-opacity:1;"/>
<path d="M112.108 89.6575V87.7109H109.783V89.6575H111.914H112.108Z" fill="#3F3D56" style="fill:#3F3D56;fill:color(display-p3 0.2471 0.2392 0.3373);fill-opacity:1;"/>
<path d="M111.914 91.2148H109.783V93.1611H112.108V91.2148H111.914Z" fill="#3F3D56" style="fill:#3F3D56;fill:color(display-p3 0.2471 0.2392 0.3373);fill-opacity:1;"/>
<path d="M115.984 87.7109H113.659V89.6573H115.984V87.7109Z" fill="#3F3D56" style="fill:#3F3D56;fill:color(display-p3 0.2471 0.2392 0.3373);fill-opacity:1;"/>
<path d="M115.984 91.2129H113.659V93.1593H115.984V91.2129Z" fill="#3F3D56" style="fill:#3F3D56;fill:color(display-p3 0.2471 0.2392 0.3373);fill-opacity:1;"/>
<path d="M23.0354 51.3128L21.0977 49.7555L31.9496 40.0234H59.4669V48.5877L41.6389 60.6556L23.0354 51.3128Z" fill="#3F3D56" style="fill:#3F3D56;fill:color(display-p3 0.2471 0.2392 0.3373);fill-opacity:1;"/>
<path d="M64.484 45.4827V40.2179H60.8305V41.5074L59.4669 40.0234L50.5527 49.7555L47.0648 52.0913L41.6562 91.7803L49.8128 99.9728H68.7686C71.6731 85.2979 73.9762 70.2224 68.7686 50.1448L64.484 45.4827Z" fill="#CCCCCC" style="fill:#CCCCCC;fill:color(display-p3 0.8000 0.8000 0.8000);fill-opacity:1;"/>
<path d="M21.0977 49.7559H50.553V99.9732H21.0977C17.8745 80.4641 16.3003 62.3723 21.0977 49.7559Z" fill="#F2F2F2" style="fill:#F2F2F2;fill:color(display-p3 0.9490 0.9490 0.9490);fill-opacity:1;"/>
<path d="M37.9567 87.7109H32.5308V99.9733H37.9567V87.7109Z" fill="#CCCCCC" style="fill:#CCCCCC;fill:color(display-p3 0.8000 0.8000 0.8000);fill-opacity:1;"/>
<path d="M26.7174 91.2139V89.2676H24.3921V91.2139H26.5237H26.7174Z" fill="#3F3D56" style="fill:#3F3D56;fill:color(display-p3 0.2471 0.2392 0.3373);fill-opacity:1;"/>
<path d="M26.5237 92.7715H24.3921V94.7181H26.7174V92.7715H26.5237Z" fill="#3F3D56" style="fill:#3F3D56;fill:color(display-p3 0.2471 0.2392 0.3373);fill-opacity:1;"/>
<path d="M30.593 89.2676H28.2676V91.214H30.593V89.2676Z" fill="#3F3D56" style="fill:#3F3D56;fill:color(display-p3 0.2471 0.2392 0.3373);fill-opacity:1;"/>
<path d="M42.4139 92.7715H40.2822V94.7181H42.6075V92.7715H42.4139Z" fill="#3F3D56" style="fill:#3F3D56;fill:color(display-p3 0.2471 0.2392 0.3373);fill-opacity:1;"/>
<path d="M46.4831 89.2676H44.1577V91.214H46.4831V89.2676Z" fill="#3F3D56" style="fill:#3F3D56;fill:color(display-p3 0.2471 0.2392 0.3373);fill-opacity:1;"/>
<path d="M46.4831 92.7715H44.1577V94.7179H46.4831V92.7715Z" fill="#3F3D56" style="fill:#3F3D56;fill:color(display-p3 0.2471 0.2392 0.3373);fill-opacity:1;"/>
<path d="M58.8854 52.2861V50.3398H56.5601V52.2861H58.6917H58.8854Z" fill="#3F3D56" style="fill:#3F3D56;fill:color(display-p3 0.2471 0.2392 0.3373);fill-opacity:1;"/>
<path d="M58.6917 53.8438H56.5601V55.7901H58.8854V53.8438H58.6917Z" fill="#3F3D56" style="fill:#3F3D56;fill:color(display-p3 0.2471 0.2392 0.3373);fill-opacity:1;"/>
<path d="M62.7614 50.3398H60.436V52.2863H62.7614V50.3398Z" fill="#3F3D56" style="fill:#3F3D56;fill:color(display-p3 0.2471 0.2392 0.3373);fill-opacity:1;"/>
<path d="M62.7614 53.8438H60.436V55.7902H62.7614V53.8438Z" fill="#3F3D56" style="fill:#3F3D56;fill:color(display-p3 0.2471 0.2392 0.3373);fill-opacity:1;"/>
<path d="M58.8854 63.1849V61.2383H56.5601V63.1849H58.6917H58.8854Z" fill="#3F3D56" style="fill:#3F3D56;fill:color(display-p3 0.2471 0.2392 0.3373);fill-opacity:1;"/>
<path d="M58.6917 64.7422H56.5601V66.6885H58.8854V64.7422H58.6917Z" fill="#3F3D56" style="fill:#3F3D56;fill:color(display-p3 0.2471 0.2392 0.3373);fill-opacity:1;"/>
<path d="M62.7614 61.2383H60.436V63.1847H62.7614V61.2383Z" fill="#3F3D56" style="fill:#3F3D56;fill:color(display-p3 0.2471 0.2392 0.3373);fill-opacity:1;"/>
<path d="M62.7614 64.7422H60.436V66.6886H62.7614V64.7422Z" fill="#3F3D56" style="fill:#3F3D56;fill:color(display-p3 0.2471 0.2392 0.3373);fill-opacity:1;"/>
<path d="M58.8854 74.0853V72.1387H56.5601V74.0853H58.6917H58.8854Z" fill="#3F3D56" style="fill:#3F3D56;fill:color(display-p3 0.2471 0.2392 0.3373);fill-opacity:1;"/>
<path d="M58.6917 75.6426H56.5601V77.5889H58.8854V75.6426H58.6917Z" fill="#3F3D56" style="fill:#3F3D56;fill:color(display-p3 0.2471 0.2392 0.3373);fill-opacity:1;"/>
<path d="M62.7614 72.1387H60.436V74.0851H62.7614V72.1387Z" fill="#3F3D56" style="fill:#3F3D56;fill:color(display-p3 0.2471 0.2392 0.3373);fill-opacity:1;"/>
<path d="M62.7614 75.6426H60.436V77.589H62.7614V75.6426Z" fill="#3F3D56" style="fill:#3F3D56;fill:color(display-p3 0.2471 0.2392 0.3373);fill-opacity:1;"/>
<path d="M58.8854 84.9856V83.0391H56.5601V84.9856H58.6917H58.8854Z" fill="#3F3D56" style="fill:#3F3D56;fill:color(display-p3 0.2471 0.2392 0.3373);fill-opacity:1;"/>
<path d="M58.6917 86.543H56.5601V88.4893H58.8854V86.543H58.6917Z" fill="#3F3D56" style="fill:#3F3D56;fill:color(display-p3 0.2471 0.2392 0.3373);fill-opacity:1;"/>
<path d="M62.7614 83.0391H60.436V84.9855H62.7614V83.0391Z" fill="#3F3D56" style="fill:#3F3D56;fill:color(display-p3 0.2471 0.2392 0.3373);fill-opacity:1;"/>
<path d="M62.7614 86.543H60.436V88.4894H62.7614V86.543Z" fill="#3F3D56" style="fill:#3F3D56;fill:color(display-p3 0.2471 0.2392 0.3373);fill-opacity:1;"/>
<path d="M24.3916 52.2852H46.8707V56.9565C39.6654 54.9592 32.1518 55.1025 24.3916 56.9565V52.2852Z" fill="#3F3D56" style="fill:#3F3D56;fill:color(display-p3 0.2471 0.2392 0.3373);fill-opacity:1;"/>
<path d="M24.3916 61.6289C31.4076 63.7051 38.9006 63.7051 46.8707 61.6289V66.3003H24.3916V61.6289Z" fill="#3F3D56" style="fill:#3F3D56;fill:color(display-p3 0.2471 0.2392 0.3373);fill-opacity:1;"/>
<path d="M24.3916 70.9707H46.8707V75.6421C39.2099 73.1851 31.7089 73.0693 24.3916 75.6421V70.9707Z" fill="#3F3D56" style="fill:#3F3D56;fill:color(display-p3 0.2471 0.2392 0.3373);fill-opacity:1;"/>
<path d="M24.3916 80.3145C31.7227 83.1524 39.2225 83.0342 46.8707 80.3145V84.9859H24.3916V80.3145Z" fill="#3F3D56" style="fill:#3F3D56;fill:color(display-p3 0.2471 0.2392 0.3373);fill-opacity:1;"/>
<path d="M145.206 72.1992H161V79.8432L159.589 80.2866L154.896 81.7578L147.533 80.0446L140.178 78.3327L136.294 77.429L134.355 76.7084C135.968 74.4852 138.902 72.7367 145.206 72.1992Z" fill="#3F3D56" style="fill:#3F3D56;fill:color(display-p3 0.2471 0.2392 0.3373);fill-opacity:1;"/>
<path d="M161 76.707V99.9725H134.355C134.347 99.9582 134.341 99.9451 134.333 99.9307V99.9294C134.326 99.9132 134.319 99.8974 134.31 99.8823C133.894 99.0414 133.521 98.2027 133.192 97.3661C130.395 90.2871 130.699 83.395 134.355 76.707H161Z" fill="#F2F2F2" style="fill:#F2F2F2;fill:color(display-p3 0.9490 0.9490 0.9490);fill-opacity:1;"/>
<path d="M151.215 87.7109H145.789V99.9733H151.215V87.7109Z" fill="#CCCCCC" style="fill:#CCCCCC;fill:color(display-p3 0.8000 0.8000 0.8000);fill-opacity:1;"/>
<path d="M139.975 91.2139V89.2676H137.649V91.2139H139.781H139.975Z" fill="#3F3D56" style="fill:#3F3D56;fill:color(display-p3 0.2471 0.2392 0.3373);fill-opacity:1;"/>
<path d="M139.781 92.7715H137.649V94.7181H139.975V92.7715H139.781Z" fill="#3F3D56" style="fill:#3F3D56;fill:color(display-p3 0.2471 0.2392 0.3373);fill-opacity:1;"/>
<path d="M143.85 89.2676H141.525V91.214H143.85V89.2676Z" fill="#3F3D56" style="fill:#3F3D56;fill:color(display-p3 0.2471 0.2392 0.3373);fill-opacity:1;"/>
<path d="M143.85 92.7715H141.525V94.7179H143.85V92.7715Z" fill="#3F3D56" style="fill:#3F3D56;fill:color(display-p3 0.2471 0.2392 0.3373);fill-opacity:1;"/>
<path d="M155.865 91.2139V89.2676H153.54V91.2139H155.672H155.865Z" fill="#3F3D56" style="fill:#3F3D56;fill:color(display-p3 0.2471 0.2392 0.3373);fill-opacity:1;"/>
<path d="M155.672 92.7715H153.54V94.7181H155.865V92.7715H155.672Z" fill="#3F3D56" style="fill:#3F3D56;fill:color(display-p3 0.2471 0.2392 0.3373);fill-opacity:1;"/>
<path d="M159.741 89.2676H157.416V91.214H159.741V89.2676Z" fill="#3F3D56" style="fill:#3F3D56;fill:color(display-p3 0.2471 0.2392 0.3373);fill-opacity:1;"/>
<path d="M159.741 92.7715H157.416V94.7179H159.741V92.7715Z" fill="#3F3D56" style="fill:#3F3D56;fill:color(display-p3 0.2471 0.2392 0.3373);fill-opacity:1;"/>
<path d="M140.179 63.166H143.519C146.814 63.166 149.973 64.4806 152.303 66.8205C154.633 69.1604 155.941 72.334 155.941 75.6431H140.179V63.166Z" fill="#3F3D56" style="fill:#3F3D56;fill:color(display-p3 0.2471 0.2392 0.3373);fill-opacity:1;"/>
<path d="M39.0059 29.293H42.3462C45.6408 29.293 48.8004 30.6075 51.1301 32.9474C53.4597 35.2873 54.7684 38.4609 54.7684 41.77H39.0059V29.293Z" fill="#3F3D56" style="fill:#3F3D56;fill:color(display-p3 0.2471 0.2392 0.3373);fill-opacity:1;"/>
<path d="M92.4023 60.625H95.7427C99.0373 60.625 102.197 61.9395 104.527 64.2794C106.856 66.6194 108.165 69.7929 108.165 73.1021H92.4023V60.625Z" fill="#3F3D56" style="fill:#3F3D56;fill:color(display-p3 0.2471 0.2392 0.3373);fill-opacity:1;"/>
<path d="M155.941 80.3145H140.179V84.9858H155.941V80.3145Z" fill="#3F3D56" style="fill:#3F3D56;fill:color(display-p3 0.2471 0.2392 0.3373);fill-opacity:1;"/>
<path d="M161 99.7793H0.80957V100.344H161V99.7793Z" fill="#3F3D56" style="fill:#3F3D56;fill:color(display-p3 0.2471 0.2392 0.3373);fill-opacity:1;"/>
<path d="M15.5836 77.4785H15.0215V99.7784H15.5836V77.4785Z" fill="#3F3D56" style="fill:#3F3D56;fill:color(display-p3 0.2471 0.2392 0.3373);fill-opacity:1;"/>
<path d="M20.7708 80.3201C20.8066 88.1179 15.3446 94.4646 15.3446 94.4646C15.3446 94.4646 8.3498 88.0337 9.78881 80.371C11.236 72.6646 15.7465 66.2593 15.215 66.2266C15.215 66.2266 20.735 72.5224 20.7708 80.3201Z" fill="#B5B9C5" style="fill:#B5B9C5;fill:color(display-p3 0.7098 0.7251 0.7708);fill-opacity:1;"/>
<path d="M71.7911 77.4785H71.229V99.7784H71.7911V77.4785Z" fill="#3F3D56" style="fill:#3F3D56;fill:color(display-p3 0.2471 0.2392 0.3373);fill-opacity:1;"/>
<path d="M76.9783 80.3201C77.4849 88.1013 71.552 94.4646 71.552 94.4646C71.552 94.4646 66.0321 88.1687 65.9963 80.371C65.9605 72.5733 71.4225 66.2266 71.4225 66.2266C70.89 68.3641 76.5683 74.0243 76.9783 80.3201Z" fill="#B5B9C5" style="fill:#B5B9C5;fill:color(display-p3 0.7098 0.7251 0.7708);fill-opacity:1;"/>
<path d="M35.2734 41.229L59.6882 40.0293L69.93 48.6159L68.1192 50.2579L51.9009 49.8912L35.2734 41.229Z" fill="#3F3D56" style="fill:#3F3D56;fill:color(display-p3 0.2471 0.2392 0.3373);fill-opacity:1;"/>
<path d="M10.9126 81.0771L9.59739 82.2711L9.4372 82.4151L9.10276 82.7199L0.809385 82.5336V72.6935C0.539591 72.6342 0.269795 72.5777 0 72.5241L0.67168 72.4902L0.809385 72.606L2.09372 73.6814L5.74719 76.747L9.82783 80.1682L10.9126 81.0771Z" fill="#3F3D56" style="fill:#3F3D56;fill:color(display-p3 0.2471 0.2392 0.3373);fill-opacity:1;"/>
<path d="M88.6704 73.6919L113.085 72.4922L123.327 81.0788L121.516 82.7208L105.298 82.3541L88.6704 73.6919Z" fill="#3F3D56" style="fill:#3F3D56;fill:color(display-p3 0.2471 0.2392 0.3373);fill-opacity:1;"/>
</g>
<defs>
<clipPath id="clip0_14694_137869">
<rect width="161" height="102" fill="white" style="fill:white;fill:white;fill-opacity:1;" transform="translate(0 0.5)"/>
</clipPath>
</defs>
</svg>
