<svg width="401" height="338" viewBox="0 0 401 338" fill="none" xmlns="http://www.w3.org/2000/svg">
<g clip-path="url(#clip0_7652_1298)">
<path d="M326.325 162.89C326.325 167.633 326.125 172.327 325.726 176.973C325.412 180.6 324.984 184.194 324.44 187.756C323.863 191.527 323.156 195.253 322.319 198.934V198.938C321.771 201.36 321.17 203.762 320.515 206.145C318.615 213.071 316.251 219.862 313.441 226.472C312.83 227.91 312.199 229.338 311.548 230.757C309.086 236.128 306.329 241.359 303.29 246.426C294.767 260.657 284.128 273.508 271.738 284.54C270.397 285.732 269.038 286.904 267.66 288.057C238.407 312.484 201.485 325.839 163.368 325.78C73.3678 325.78 0.410645 252.853 0.410645 162.89C0.410645 72.9274 73.3678 0.000201751 163.368 0.000201751C200.172 -0.0578071 235.903 12.3951 264.694 35.3142C266.043 36.3832 267.376 37.4762 268.691 38.5932C275.111 44.0355 281.102 49.9634 286.612 56.3245H286.617C312.28 85.8951 326.383 123.743 326.325 162.89Z" fill="#34427C"/>
<path d="M48.5146 191.028C32.991 181.792 21.2744 164.532 22.7955 146.539C36.9879 160.117 55.5274 168.239 75.134 169.469C82.6971 169.915 91.1557 169.625 96.7231 174.762C100.187 177.958 101.8 182.77 102.064 187.474C102.329 192.179 101.386 196.859 100.448 201.477L100.771 202.608C82.7059 202.676 64.0381 200.263 48.5146 191.028Z" fill="#E6E6E6"/>
<path d="M23.1742 146.52C29.3941 160.112 39.7403 171.4 52.7433 178.779C55.5387 180.343 58.5106 181.687 61.6687 182.31C64.7517 182.894 67.9348 182.642 70.8874 181.58C73.6602 180.645 76.3883 179.368 79.3402 179.123C82.4516 178.865 85.3321 180.065 87.5953 182.167C90.3644 184.738 92.044 188.151 93.5704 191.545C95.2653 195.314 96.9659 199.255 100.215 201.966C100.609 202.294 100.076 202.886 99.6833 202.558C94.0297 197.842 93.1069 189.946 88.5877 184.392C86.4789 181.801 83.5762 179.829 80.1278 179.881C77.1123 179.927 74.298 181.241 71.4986 182.212C68.5591 183.231 65.6145 183.71 62.5113 183.261C59.3368 182.803 56.3062 181.573 53.4831 180.087C47.1065 176.67 41.307 172.272 36.2971 167.054C30.5462 161.131 25.8514 154.268 22.4158 146.763C22.2033 146.298 22.9631 146.058 23.1742 146.52Z" fill="white"/>
<path d="M48.4178 176.648C46.883 178.661 44.6824 180.063 42.2091 180.603C39.7358 181.144 37.1508 180.788 34.9157 179.599C34.4643 179.357 34.8194 178.644 35.2714 178.887C37.3507 179.998 39.7587 180.329 42.0608 179.821C44.3629 179.313 46.4075 177.999 47.8256 176.116C48.1342 175.707 48.7247 176.242 48.4178 176.648Z" fill="white"/>
<path d="M69.5439 182.24C68.8979 177.107 66.3403 172.406 62.381 169.074C61.9885 168.745 62.5211 168.153 62.9132 168.482C67.0268 171.957 69.6785 176.854 70.339 182.197C70.4016 182.706 69.6062 182.746 69.5439 182.24Z" fill="white"/>
<path d="M31.534 160.758C32.2902 160.103 32.8718 159.271 33.2266 158.335C33.5813 157.4 33.6982 156.391 33.5666 155.4C33.4975 154.892 34.293 154.852 34.3616 155.357C34.5019 156.454 34.3715 157.567 33.9819 158.602C33.5922 159.636 32.9551 160.559 32.1262 161.29C32.0539 161.366 31.9555 161.411 31.8511 161.416C31.7467 161.422 31.644 161.387 31.5641 161.32C31.486 161.249 31.4391 161.15 31.4334 161.045C31.4278 160.94 31.464 160.837 31.534 160.758Z" fill="white"/>
<path d="M73.0451 111.681C73.0972 111.997 73.1494 112.313 73.2075 112.632C73.9304 116.879 74.9972 121.059 76.3974 125.133C76.5007 125.45 76.6101 125.769 76.7222 126.082C80.2003 135.861 85.4645 144.91 92.2471 152.768C94.9489 155.892 97.8847 158.806 101.029 161.485C105.371 165.185 110.374 168.851 113.158 173.628C113.454 174.124 113.719 174.637 113.952 175.164L102.127 202.128C102.07 202.176 102.018 202.226 101.96 202.275L101.537 203.373C101.366 203.246 101.19 203.111 101.018 202.984C100.918 202.911 100.821 202.831 100.721 202.758C100.655 202.708 100.589 202.657 100.527 202.615C100.505 202.598 100.483 202.581 100.467 202.567C100.405 202.525 100.352 202.479 100.296 202.44C99.3127 201.686 98.3334 200.925 97.3576 200.155C97.3515 200.152 97.3515 200.152 97.348 200.144C89.9282 194.259 82.9348 187.704 77.159 180.296C76.9853 180.073 76.8053 179.848 76.637 179.613C74.0521 176.259 71.7457 172.7 69.7409 168.971C68.6497 166.925 67.6628 164.826 66.7839 162.68C64.5238 157.133 63.1507 151.265 62.7149 145.291C61.8479 133.382 64.8009 121.328 72.4537 112.36C72.6496 112.131 72.843 111.907 73.0451 111.681Z" fill="#E6E6E6"/>
<path d="M73.3609 111.89C70.1404 126.486 71.6027 141.725 77.54 155.442C78.8298 158.373 80.3935 161.235 82.5398 163.633C84.6497 165.954 87.3431 167.669 90.3401 168.598C93.1171 169.52 96.0645 170.142 98.5689 171.724C101.209 173.39 102.786 176.082 103.327 179.122C103.989 182.841 103.275 186.577 102.449 190.206C101.532 194.235 100.516 198.406 101.478 202.525C101.595 203.024 100.813 203.176 100.697 202.677C99.0228 195.51 103.042 188.65 102.779 181.496C102.656 178.158 101.526 174.836 98.7413 172.803C96.3062 171.024 93.2673 170.38 90.4475 169.47C87.4866 168.515 84.8471 167.125 82.6395 164.9C80.3812 162.623 78.7023 159.817 77.3431 156.931C74.3097 150.366 72.3281 143.364 71.4706 136.183C70.4465 127.993 70.8316 119.688 72.6092 111.627C72.7194 111.128 73.4704 111.394 73.3609 111.89Z" fill="white"/>
<path d="M75.3684 151.137C72.9306 151.82 70.3293 151.615 68.0289 150.558C65.7285 149.501 63.8789 147.661 62.8103 145.367C62.5957 144.902 63.3084 144.547 63.5234 145.012C64.5145 147.15 66.2376 148.864 68.3817 149.844C70.5258 150.824 72.9497 151.005 75.2159 150.355C75.7085 150.215 75.8582 150.997 75.3684 151.137Z" fill="white"/>
<path d="M88.8708 168.315C91.4466 163.828 92.2359 158.535 91.0812 153.492C90.9664 152.993 91.748 152.841 91.8627 153.34C93.0544 158.59 92.2219 164.096 89.5311 168.759C89.2744 169.204 88.6154 168.757 88.8708 168.315Z" fill="white"/>
<path d="M71.4592 128.29C72.4575 128.222 73.4234 127.908 74.2699 127.374C75.1165 126.841 75.8173 126.106 76.3095 125.235C76.5605 124.788 77.2192 125.235 76.9698 125.68C76.4216 126.639 75.6466 127.45 74.7126 128.041C73.7786 128.633 72.7139 128.986 71.6117 129.071C71.5084 129.088 71.4027 129.065 71.316 129.006C71.2293 128.948 71.168 128.859 71.1447 128.757C71.1251 128.653 71.1471 128.546 71.206 128.459C71.2648 128.372 71.3559 128.311 71.4592 128.29Z" fill="white"/>
<path d="M113.292 37.7545L133.238 271.142L93.3472 274.14V40.7238C98.1005 37.5799 104.924 37.088 113.292 37.7545Z" fill="#6575B1"/>
<path d="M211.746 37.7545L191.8 271.142L231.691 274.14V40.7238C226.937 37.5799 220.114 37.088 211.746 37.7545Z" fill="#6575B1"/>
<path d="M225.718 283.785H98.8957C96.862 283.782 94.9124 282.974 93.4744 281.536C92.0365 280.099 91.2276 278.15 91.2253 276.117V44.1476C91.2277 42.1149 92.0365 40.1661 93.4745 38.7287C94.9124 37.2913 96.8621 36.4828 98.8957 36.4805H225.718C227.752 36.4828 229.701 37.2913 231.139 38.7287C232.577 40.1661 233.386 42.1149 233.388 44.1476V276.117C233.386 278.15 232.577 280.099 231.139 281.536C229.701 282.974 227.752 283.782 225.718 283.785ZM98.8957 39.0256C97.5371 39.0271 96.2347 39.5672 95.274 40.5275C94.3134 41.4877 93.773 42.7896 93.7715 44.1476V276.117C93.773 277.475 94.3134 278.777 95.274 279.738C96.2346 280.698 97.5371 281.238 98.8957 281.24H225.718C227.077 281.238 228.379 280.698 229.34 279.738C230.3 278.777 230.841 277.475 230.842 276.117V44.1476C230.841 42.7896 230.3 41.4877 229.34 40.5275C228.379 39.5673 227.077 39.0271 225.718 39.0256L98.8957 39.0256Z" fill="#6575B1"/>
<path d="M232.115 75.0801H92.4985V77.6252H232.115V75.0801Z" fill="#6575B1"/>
<path d="M232.115 117.5H92.4985V120.045H232.115V117.5Z" fill="#6575B1"/>
<path d="M137.805 37.752H135.259V153.556H137.805V37.752Z" fill="#6575B1"/>
<path d="M189.355 37.752H186.808V153.556H189.355V37.752Z" fill="#6575B1"/>
<path d="M248.029 290.784H80.8283C77.7894 290.784 74.8751 289.578 72.7263 287.43C70.5775 285.282 69.3704 282.369 69.3704 279.331C69.3704 276.294 70.5775 273.38 72.7263 271.233C74.8751 269.085 77.7894 267.878 80.8283 267.878H248.029C251.068 267.878 253.982 269.085 256.131 271.233C258.28 273.38 259.487 276.294 259.487 279.331C259.487 282.369 258.28 285.282 256.131 287.43C253.982 289.578 251.068 290.784 248.029 290.784Z" fill="#6575B1"/>
<path d="M232.115 147.618H93.3472V156.102H232.115V147.618Z" fill="#6575B1"/>
<path d="M138.201 174.62L138.025 174.535C128.565 169.967 116.177 169.972 97.8572 174.55L97.6616 174.599L97.6029 174.406C95.6649 168.054 93.4695 160.86 97.5938 157.32C97.6516 146.934 106.766 138.5 117.962 138.5C129.155 138.5 138.268 146.93 138.329 157.313C144.464 162.002 141.54 168.931 138.3 174.452L138.201 174.62Z" fill="#2F2E41"/>
<path d="M196.344 152.378C196.174 153.22 195.822 154.014 195.312 154.705C194.802 155.396 194.147 155.967 193.392 156.377C192.638 156.787 191.803 157.027 190.945 157.08C190.088 157.133 189.23 156.997 188.431 156.683L155 190.264L152.017 179.837L185.22 148.652C185.838 147.345 186.914 146.31 188.244 145.743C189.574 145.177 191.067 145.117 192.438 145.577C193.809 146.036 194.964 146.982 195.684 148.236C196.403 149.489 196.638 150.963 196.344 152.378Z" fill="#FFB6B6"/>
<path d="M113.719 184.706C113.719 184.706 110.686 191.577 118.17 195.814C125.654 200.051 151.811 194.197 156.055 193.38C160.3 192.563 176.151 168.85 176.151 168.85L173.91 157.221L152.887 175.463L113.719 184.706Z" fill="white"/>
<path d="M108.2 222.7L108.625 230.76C108.625 230.76 107.372 237.899 108.402 239.44C109.425 240.973 137.323 241.166 137.323 241.166C137.323 241.166 139.166 231.233 140.754 222.539L108.2 222.7Z" fill="#FFB6B6"/>
<path d="M188.412 329.267L194.244 328.09L192.575 304.541L183.967 306.279L188.412 329.267Z" fill="#FFB6B6"/>
<path d="M196.766 298.622L202.188 296.185L195.154 273.653L187.151 277.25L196.766 298.622Z" fill="#FFB6B6"/>
<path d="M201.489 285.927L191.279 291.706L166.101 251.263C148.425 263.166 131.141 268.866 113.717 271.908C107.826 272.957 101.819 272.425 100.688 266.432C100.635 266.152 100.593 265.87 100.562 265.586C99.8662 259.04 108.013 250.649 109.049 242.639L131.345 241.301L134.095 244.825L159.88 228.978C165.065 225.792 171.885 227.515 175.113 232.828C175.283 233.109 175.442 233.396 175.588 233.691L201.489 285.927Z" fill="#2F2E41"/>
<path d="M195.24 313.133L183.558 314.218L162.376 270.916C141.372 274.527 121.557 275.684 104.417 271.316C98.6138 269.857 95.0666 263.868 96.4939 257.938C96.5606 257.661 96.6378 257.386 96.7253 257.115C98.7766 250.859 104.146 246.433 108.377 239.552L139.278 240.021L135.826 251.925L165.845 248.042C171.881 247.261 177.395 251.629 178.159 257.798C178.199 258.123 178.225 258.45 178.238 258.779L195.24 313.133Z" fill="#2F2E41"/>
<path d="M120.265 168.463C127.195 168.463 132.812 162.847 132.812 155.92C132.812 148.993 127.195 143.378 120.265 143.378C113.335 143.378 107.717 148.993 107.717 155.92C107.717 162.847 113.335 168.463 120.265 168.463Z" fill="#FFB6B6"/>
<path d="M112.91 172.99L124.415 174.343C124.9 174.4 125.356 174.607 125.718 174.935C126.08 175.263 126.33 175.696 126.434 176.173L128.264 184.542L139.67 197.968C139.67 197.968 143.765 205.644 142.229 214.343C140.694 223.043 140.019 229.507 140.019 229.507C140.019 229.507 109.423 240.974 108.4 239.439C107.376 237.904 107.043 230.93 107.043 230.93L102.948 185.385C102.948 185.385 107.555 177.709 110.115 177.709C111.767 177.653 111.555 173.937 112.91 172.99Z" fill="white"/>
<path d="M140.328 232.31C141.942 232.31 143.25 230.741 143.25 228.806C143.25 226.871 141.942 225.302 140.328 225.302C138.715 225.302 137.407 226.871 137.407 228.806C137.407 230.741 138.715 232.31 140.328 232.31Z" fill="white"/>
<path d="M185.516 323.202L194.408 318.748L196.084 322.656L207.328 324.928C207.884 325.04 208.389 325.327 208.769 325.746C209.15 326.166 209.387 326.696 209.445 327.259C209.503 327.822 209.38 328.39 209.093 328.878C208.805 329.366 208.37 329.75 207.849 329.973L196.985 334.628L193.454 331.564L194.381 335.743L190.285 337.499L185.516 323.202Z" fill="#2F2E41"/>
<path d="M194.22 296.746L203.033 292.136L204.777 296.014L216.06 298.088C216.617 298.19 217.127 298.468 217.515 298.88C217.903 299.293 218.149 299.819 218.217 300.381C218.285 300.943 218.172 301.513 217.893 302.006C217.615 302.499 217.186 302.89 216.669 303.123L205.888 307.968L202.305 304.967L203.304 309.129L199.24 310.956L194.22 296.746Z" fill="#2F2E41"/>
<path d="M113.096 151.986C109.781 151.991 106.546 150.971 103.834 149.065L103.743 149.002V148.891C103.747 145.686 105.022 142.613 107.29 140.347C109.557 138.08 112.631 136.805 115.838 136.802H120.93C124.137 136.805 127.211 138.08 129.478 140.347C131.746 142.613 133.021 145.686 133.025 148.891C133.021 149.625 132.732 150.328 132.217 150.851C131.703 151.375 131.004 151.676 130.27 151.692L113.382 151.983C113.287 151.985 113.191 151.986 113.096 151.986Z" fill="#2F2E41"/>
<path d="M133.874 146.571C135.497 145.634 135.769 143.065 134.48 140.833C133.191 138.601 130.829 137.552 129.205 138.489C127.582 139.426 127.31 141.995 128.599 144.227C129.888 146.458 132.25 147.508 133.874 146.571Z" fill="#2F2E41"/>
<path d="M108.479 144.08C110.302 142.258 110.705 139.706 109.379 138.381C108.053 137.056 105.501 137.458 103.678 139.281C101.855 141.103 101.452 143.654 102.778 144.98C104.103 146.305 106.656 145.902 108.479 144.08Z" fill="#2F2E41"/>
<path d="M219.527 258.756H207.003C206.721 258.755 206.441 258.816 206.185 258.935C205.928 259.053 205.701 259.226 205.518 259.442C205.057 259.357 204.581 259.383 204.131 259.517C203.681 259.652 203.269 259.891 202.93 260.215C202.59 260.54 202.332 260.94 202.178 261.383C202.023 261.826 201.975 262.3 202.039 262.765C202.103 263.23 202.276 263.674 202.544 264.059C202.813 264.444 203.169 264.76 203.583 264.981C203.998 265.202 204.459 265.322 204.928 265.33C205.398 265.339 205.863 265.236 206.285 265.03L207.324 268.404C207.447 268.804 207.695 269.154 208.031 269.402C208.368 269.651 208.775 269.785 209.194 269.785H217.337C217.755 269.785 218.163 269.651 218.499 269.402C218.836 269.154 219.084 268.804 219.207 268.404L221.398 261.287C221.488 260.995 221.508 260.685 221.457 260.383C221.405 260.082 221.283 259.796 221.101 259.55C220.92 259.304 220.682 259.104 220.409 258.966C220.136 258.828 219.834 258.756 219.527 258.756ZM204.99 264.482C204.427 264.482 203.888 264.259 203.49 263.861C203.092 263.463 202.868 262.924 202.868 262.361C202.868 261.799 203.092 261.26 203.49 260.862C203.888 260.464 204.427 260.241 204.99 260.241C205.029 260.241 205.065 260.25 205.103 260.252C205.019 260.593 205.029 260.951 205.133 261.287L206.029 264.199C205.713 264.383 205.355 264.48 204.99 264.482Z" fill="#3F3D56"/>
<path d="M163.602 249.55C162.747 249.629 161.884 249.52 161.076 249.23C160.268 248.94 159.533 248.476 158.923 247.872C158.313 247.267 157.844 246.536 157.547 245.73C157.25 244.925 157.134 244.064 157.207 243.208L115.432 220.831L124.569 214.983L163.982 237.83C165.411 238.046 166.712 238.78 167.637 239.891C168.562 241.002 169.047 242.414 169 243.859C168.953 245.303 168.378 246.681 167.383 247.73C166.388 248.779 165.043 249.426 163.602 249.55Z" fill="#FFB6B6"/>
<path d="M108.915 179.708C108.915 179.708 101.46 178.775 99.5468 187.157C97.6335 195.539 110.748 218.906 112.749 222.735C114.75 226.565 142.023 234.941 142.023 234.941L152.525 229.458L129.011 214.561L108.915 179.708Z" fill="white"/>
<path d="M161.458 145.073H164.004C165.242 145.073 166.43 145.565 167.305 146.44C168.181 147.315 168.672 148.502 168.672 149.739H156.79C156.79 148.502 157.282 147.315 158.157 146.44C159.033 145.565 160.22 145.073 161.458 145.073Z" fill="#6575B1"/>
<path d="M80.7183 58.0136C94.6498 58.0136 105.944 46.7245 105.944 32.7988C105.944 18.873 94.6498 7.58398 80.7183 7.58398C66.7869 7.58398 55.4932 18.873 55.4932 32.7988C55.4932 46.7245 66.7869 58.0136 80.7183 58.0136Z" fill="#8E8E8E"/>
<path d="M157.952 31.4853C151.276 24.4851 143.523 18.099 134.344 14.7244C131.788 13.7804 129.137 13.1145 126.437 12.7382C126.416 12.7352 126.395 12.7396 126.373 12.7379C126.33 12.7266 126.285 12.7178 126.24 12.7117C122.465 12.2309 118.633 12.4622 114.942 13.3935C113.138 13.8461 111.377 14.4591 109.682 15.2252C107.981 16.0549 106.332 16.9887 104.746 18.0214C101.389 20.0303 97.6923 21.4087 93.8389 22.0888C91.9047 22.4368 89.9457 22.629 87.9807 22.6635C86.2757 22.6977 84.6678 22.7569 83.0524 23.3726C81.3268 24.0212 79.7768 25.064 78.526 26.4178C77.2753 27.7715 76.3583 29.3988 75.8484 31.1697C75.8091 31.3274 75.821 31.4935 75.8823 31.644C75.9435 31.7946 76.0511 31.9217 76.1894 32.0072C76.6264 32.32 77.0523 32.675 77.5115 32.9537C77.9199 33.1405 78.3561 33.2595 78.8029 33.3058C79.5328 33.4597 80.2637 33.6092 80.9955 33.7541C83.6914 34.2881 86.3985 34.7607 89.1168 35.1721C94.6172 36.0044 100.147 36.5907 105.707 36.9309C116.845 37.6053 128.021 37.2696 139.098 35.9278C145.324 35.1741 151.507 34.105 157.624 32.7248C157.748 32.6886 157.861 32.6211 157.951 32.5287C158.041 32.4363 158.105 32.3222 158.138 32.1975C158.171 32.0728 158.171 31.9417 158.139 31.8169C158.106 31.6921 158.042 31.5779 157.952 31.4853Z" fill="#E6E6E6"/>
<path d="M81.9158 48.3455C79.3591 47.4015 76.7082 46.7356 74.0088 46.3593C73.9871 46.3563 73.9665 46.3607 73.9449 46.359C73.901 46.3477 73.8565 46.3389 73.8116 46.3328C70.0362 45.852 66.2041 46.0833 62.514 47.0146C60.7095 47.4672 58.949 48.0802 57.2537 48.8463C55.5524 49.6759 53.904 50.6098 52.3178 51.6425C48.9604 53.6514 45.2638 55.0298 41.4105 55.7099C39.4763 56.0579 37.5172 56.2501 35.5523 56.2846C33.8473 56.3188 32.2393 56.378 30.624 56.9937C28.8984 57.6423 27.3484 58.6851 26.0976 60.0389C24.8468 61.3926 23.9299 63.0199 23.42 64.7908C23.3807 64.9485 23.3925 65.1146 23.4538 65.2651C23.5151 65.4156 23.6226 65.5428 23.7609 65.6283C24.1979 65.9411 24.6239 66.296 25.083 66.5747C25.4914 66.7616 25.9276 66.8805 26.3744 66.9268C27.1043 67.0808 27.8352 67.2302 28.567 67.3752C31.2629 67.9091 33.97 68.3818 36.6883 68.7931C42.1887 69.6254 47.7188 70.2117 53.2786 70.552C64.4166 71.2264 75.5927 70.8906 86.67 69.5488C92.8955 68.7951 99.0787 67.7261 105.196 66.3459C105.32 66.3097 105.432 66.2421 105.522 66.1497C105.612 66.0573 105.677 65.9432 105.71 65.8185C105.743 65.6938 105.743 65.5627 105.71 65.4379C105.677 65.3132 105.613 65.1989 105.523 65.1064C98.8475 58.1062 91.0942 51.7201 81.9158 48.3455Z" fill="#E6E6E6"/>
<path d="M263.826 236.317L244.427 210.844L229.121 219.495L261.556 257.995L263.826 236.317Z" fill="#3F3D56"/>
<path d="M308.51 194.907C308.94 205.582 310.595 216.173 313.441 226.471C312.83 227.909 312.199 229.337 311.548 230.756C309.086 236.127 306.329 241.358 303.29 246.425C294.767 260.656 284.128 273.507 271.738 284.539C270.397 285.731 269.038 286.903 267.66 288.056C259.805 277.23 255.566 265.285 253.889 252.992C253.677 251.431 253.503 249.853 253.372 248.283V248.275C253.05 244.46 252.946 240.631 253.062 236.805C253.066 236.499 253.075 236.19 253.087 235.88C253.236 231.791 253.605 227.693 254.161 223.633V223.629C254.225 223.163 254.288 222.696 254.36 222.229C254.564 220.83 254.793 219.43 255.044 218.038C256.501 210.014 258.535 202.105 261.129 194.373V194.368C261.201 194.144 261.273 193.923 261.354 193.702C261.634 192.863 261.918 192.031 262.211 191.2C262.229 191.135 262.252 191.071 262.279 191.009C262.657 189.923 263.043 188.845 263.438 187.776C263.544 187.48 263.654 187.183 263.769 186.886C264.214 185.694 264.668 184.51 265.131 183.344C265.275 182.97 265.424 182.597 265.572 182.228C265.687 181.944 265.797 181.66 265.916 181.38V181.375C266.591 179.708 267.274 178.074 267.966 176.472C269.905 171.967 271.899 167.729 273.843 163.822L273.847 163.818C281.915 147.644 289.248 137.141 289.248 137.141L316.785 146.049C313.5 151.873 310.958 160.463 309.566 170.597C308.494 178.651 308.14 186.786 308.51 194.903L308.51 194.907Z" fill="#3F3D56"/>
<path d="M262.742 192.317C262.58 191.94 262.398 191.571 262.211 191.202C261.243 189.328 259.997 187.612 258.515 186.111C258.294 185.887 258.065 185.662 257.827 185.45C255.271 183.096 252.163 181.425 248.79 180.59C245.416 179.755 241.887 179.784 238.527 180.673L238.51 180.682L238.383 180.716L238.413 180.86C238.54 181.532 238.725 182.192 238.964 182.832C239.028 183.006 239.1 183.172 239.172 183.337C239.202 183.414 239.24 183.481 239.274 183.558C239.274 183.558 239.27 183.562 239.278 183.562C239.278 183.566 239.283 183.571 239.283 183.575C239.363 183.732 239.44 183.893 239.525 184.046C239.351 183.88 239.185 183.711 239.024 183.537C238.867 183.375 238.722 183.206 238.578 183.036C238.084 182.46 237.637 181.844 237.241 181.195L237.174 181.081L237.055 181.127C235.453 181.682 233.926 182.43 232.505 183.354L232.353 183.456C231.268 184.168 230.047 184.643 228.766 184.852C227.486 185.061 226.176 184.999 224.922 184.669C222.944 184.16 220.882 184.066 218.867 184.396C216.851 184.725 214.926 185.47 213.214 186.582C212.08 187.322 211.054 188.215 210.167 189.238C210.09 189.327 210.014 189.42 209.938 189.509C209.776 189.704 209.624 189.904 209.475 190.107C207.88 192.239 206.901 194.767 206.645 197.416L206.636 197.514L206.717 197.569C208.153 198.553 209.777 199.229 211.487 199.554C210.412 199.704 209.325 199.731 208.244 199.635H208.24C207.75 199.594 207.263 199.526 206.78 199.431L206.691 199.414H206.687L206.577 199.393L206.594 199.597C206.72 202.188 207.536 204.7 208.957 206.871L209 206.931C209.015 206.953 209.03 206.975 209.042 206.999C209.644 207.919 210.145 208.902 210.536 209.93C211.528 212.484 211.747 215.274 211.164 217.951C210.505 220.815 210.724 223.811 211.793 226.549C212.862 229.286 214.731 231.638 217.156 233.299C219.287 234.764 221.77 235.635 224.349 235.823C224.701 235.852 225.058 235.869 225.414 235.869C227.455 235.876 229.474 235.455 231.343 234.635L231.411 234.609L231.428 234.533C231.787 233.374 232.292 232.265 232.93 231.233C232.721 232.046 232.615 232.883 232.616 233.723V234.003L232.858 233.863C233.066 233.74 233.278 233.608 233.469 233.485C234.615 232.737 235.653 231.835 236.554 230.804C236.906 230.397 237.263 230.003 237.636 229.608L237.64 229.604C238.366 228.832 239.134 228.077 239.932 227.356C241.629 225.832 243.446 224.446 245.364 223.211C247.281 221.981 249.285 220.892 251.36 219.954H251.364C251.598 219.843 251.835 219.737 252.069 219.635C253.102 219.186 254.097 218.652 255.044 218.04C255.078 218.019 255.107 218.002 255.137 217.981C259.239 215.296 262.255 211.243 263.648 206.543C265.04 201.844 264.719 196.803 262.742 192.317Z" fill="white"/>
<path opacity="0.15" d="M211.864 223.972C211.748 224.488 211.66 225.009 211.601 225.535C210.811 223.039 210.697 220.379 211.269 217.824C211.358 217.433 211.424 217.038 211.476 216.641C212.26 219.006 212.394 221.538 211.864 223.972Z" fill="black"/>
<path opacity="0.15" d="M212.184 205.571C210.927 205.745 209.652 205.751 208.394 205.589C208.064 204.968 207.779 204.323 207.542 203.661C208.944 204.607 210.523 205.256 212.184 205.571Z" fill="black"/>
<path opacity="0.15" d="M208.293 199.497C207.829 200.683 207.521 201.925 207.376 203.19C206.989 201.985 206.76 200.734 206.696 199.47L206.686 199.267L206.886 199.305C207.351 199.393 207.821 199.457 208.293 199.497Z" fill="black"/>
<path opacity="0.15" d="M213.323 186.453C215.033 185.339 216.957 184.593 218.972 184.264C220.987 183.934 223.048 184.027 225.025 184.538C226.28 184.869 227.59 184.933 228.871 184.724C230.152 184.516 231.375 184.039 232.459 183.327L232.613 183.226C234.032 182.299 235.558 181.549 237.159 180.993L237.282 180.951L237.348 181.062C237.982 182.108 238.748 183.067 239.63 183.914C239.094 182.917 238.72 181.842 238.519 180.729L238.49 180.582L238.635 180.543C241.786 179.71 245.089 179.633 248.275 180.318C251.461 181.004 254.441 182.433 256.969 184.488C259.498 186.544 261.505 189.168 262.826 192.146C264.147 195.124 264.745 198.373 264.571 201.626C263.902 198.973 262.714 196.48 261.075 194.29C259.435 192.1 257.377 190.257 255.02 188.868C252.663 187.479 250.054 186.571 247.343 186.198C244.633 185.824 241.875 185.992 239.229 186.691L239.085 186.729L239.114 186.876C239.314 187.99 239.689 189.065 240.225 190.062C239.343 189.214 238.576 188.255 237.943 187.209L237.876 187.099L237.754 187.141C236.153 187.697 234.626 188.447 233.207 189.373L233.054 189.474C231.97 190.187 230.747 190.663 229.466 190.872C228.185 191.081 226.874 191.017 225.619 190.686C222.334 189.834 218.855 190.147 215.775 191.572C212.695 192.998 210.205 195.447 208.73 198.502C208.073 198.186 207.436 197.831 206.823 197.437L206.74 197.384L206.75 197.287C206.961 195.103 207.661 192.996 208.799 191.12C209.937 189.245 211.484 187.65 213.323 186.453Z" fill="black"/>
<path d="M371.086 78.0666L370.683 77.7993L370.39 78.1811C368.124 81.0332 366.321 84.224 365.047 87.6364C365.223 83.7052 365.911 79.8137 367.093 76.0602L367.22 75.6657L366.855 75.4578C362.107 72.7703 357.048 70.6733 351.79 69.2137L351.217 69.061C347.188 67.9558 343.437 66.014 340.208 63.3623C336.98 60.7106 334.347 57.4085 332.482 53.6713C328.146 45.0944 321.297 38.0431 312.848 33.4584C304.399 28.8737 294.752 26.9737 285.194 28.0119H285.19C285.088 28.0204 284.982 28.0331 284.88 28.0458C284.706 28.0628 284.537 28.084 284.367 28.1052C284.019 28.1519 283.679 28.1985 283.34 28.2494C283.051 28.2918 282.758 28.3385 282.47 28.3894C282.317 28.4106 282.169 28.4361 282.02 28.4658C281.871 28.4912 281.719 28.5167 281.57 28.5464H281.566C278.717 29.0851 275.924 29.8874 273.223 30.943H273.219V30.9473L272.535 31.2145C271.831 31.503 271.132 31.8084 270.439 32.1308C270.282 32.2029 270.129 32.2792 269.972 32.3513C269.93 32.3726 269.883 32.3938 269.841 32.4192C269.395 32.6313 268.954 32.8519 268.517 33.0852C268.453 33.1149 268.389 33.1488 268.326 33.1828L267.918 33.3991C267.023 33.8827 266.143 34.396 265.279 34.9389C265.207 34.9813 265.139 35.0238 265.067 35.0704C264.99 35.1213 264.91 35.1722 264.833 35.2231C264.786 35.2486 264.74 35.2825 264.693 35.3122C264.562 35.3928 264.434 35.4776 264.307 35.5667C264.052 35.7322 263.798 35.9018 263.547 36.0758C263.288 36.2497 263.034 36.4321 262.779 36.6145L262.525 36.7969L262.571 37.1108C262.614 37.3695 262.652 37.6283 262.699 37.8828C262.741 38.1373 262.783 38.3876 262.83 38.6379C262.902 39.0578 262.983 39.4735 263.064 39.8765C263.119 40.1438 263.17 40.4068 263.229 40.6655C263.284 40.9328 263.344 41.2 263.407 41.4672C263.53 42.0187 263.662 42.5532 263.802 43.0792C263.87 43.3422 263.942 43.6052 264.018 43.8639C264.061 44.0209 264.103 44.1778 264.15 44.3305C264.184 44.4366 264.218 44.5426 264.252 44.6487C264.26 44.6826 264.269 44.7208 264.282 44.759C264.291 44.7949 264.302 44.8303 264.315 44.865C264.362 45.022 264.409 45.1747 264.455 45.3231C264.481 45.4037 264.506 45.4843 264.536 45.5607C264.596 45.7431 264.659 45.9297 264.723 46.1079C264.791 46.3115 264.863 46.5151 264.935 46.7145C264.952 46.7654 264.969 46.8121 264.986 46.863C264.999 46.9011 265.011 46.9393 265.028 46.9775C265.045 47.0199 265.062 47.0666 265.079 47.109C265.151 47.2999 265.224 47.495 265.3 47.6859C265.325 47.7538 265.351 47.8259 265.381 47.8938C266.069 49.6219 266.914 51.2832 267.906 52.8568C266.806 51.9151 265.748 50.9168 264.731 49.862C263.161 48.231 261.714 46.4856 260.403 44.6402C260.297 44.496 260.191 44.3475 260.093 44.199C259.894 43.9148 259.698 43.6306 259.507 43.3422C259.304 43.0452 259.108 42.7356 258.917 42.4302C258.79 42.2265 258.663 42.0187 258.54 41.8151C258.417 41.6199 258.302 41.4291 258.192 41.2339L257.861 40.6655H257.857V40.6698L257.39 41.1279C257.203 41.3103 257.016 41.4927 256.834 41.6751C251.13 47.4115 246.999 54.5183 244.837 62.312L244.773 62.5453L244.71 62.7871C244.587 63.2198 244.464 63.6398 244.332 64.0682V64.0724C244.205 64.4966 244.069 64.9208 243.925 65.3365C243.793 65.731 243.657 66.1213 243.513 66.5115C243.466 66.643 243.415 66.7745 243.36 66.906C243.271 67.1606 243.173 67.4108 243.076 67.6653C243.029 67.7799 242.983 67.8987 242.936 68.0132C242.821 68.2931 242.707 68.5731 242.592 68.8488C242.575 68.8913 242.554 68.9379 242.533 68.9803C242.499 69.0652 242.461 69.15 242.427 69.2306C242.338 69.4342 242.244 69.6421 242.155 69.8457C242.091 69.9772 242.032 70.1129 241.973 70.2444C241.947 70.3038 241.917 70.3632 241.892 70.4226C241.735 70.7619 241.574 71.0971 241.404 71.428C241.213 71.8182 241.018 72.2085 240.81 72.5902C240.627 72.9466 240.436 73.2944 240.237 73.6422C239.893 74.2573 239.532 74.8682 239.159 75.462C239.015 75.6911 238.87 75.9202 238.722 76.1492C238.688 76.2044 238.654 76.2595 238.62 76.3104C238.497 76.5098 238.37 76.7007 238.238 76.8958C238.149 77.0273 238.06 77.1588 237.971 77.286C237.822 77.5151 237.665 77.7357 237.504 77.952C237.462 78.0199 237.415 78.0835 237.368 78.1472C237.131 78.478 236.893 78.8004 236.651 79.1228C236.643 79.127 236.642 79.1313 236.638 79.1355C236.63 79.1355 236.63 79.1398 236.626 79.144C236.519 79.284 236.413 79.424 236.303 79.5597C236.159 79.7591 236.002 79.9542 235.845 80.1451C235.59 80.4675 235.323 80.7941 235.051 81.1123C235.043 81.1208 235.038 81.1292 235.03 81.1335C233.624 82.7849 232.101 84.3329 230.472 85.7657C230.443 85.7911 230.421 85.8166 230.392 85.8378C230.162 86.0371 229.933 86.2365 229.696 86.4316C229.598 86.5122 229.5 86.5928 229.403 86.6734C229.242 86.8092 229.076 86.9449 228.915 87.0679C228.896 87.0874 228.874 87.1045 228.851 87.1188C228.707 87.2376 228.567 87.3479 228.423 87.4582C228.249 87.5982 228.075 87.7297 227.896 87.8612C227.056 88.4975 226.193 89.0984 225.308 89.664C225.176 89.7531 225.036 89.8422 224.9 89.927C224.82 89.9779 224.739 90.0288 224.663 90.0712C224.34 90.2706 224.018 90.4657 223.695 90.6524C223.373 90.8432 223.042 91.0256 222.715 91.2038C222.015 91.5856 221.323 91.9843 220.648 92.4C220.309 92.6121 219.969 92.8242 219.634 93.0406C218.301 93.9059 217.018 94.8321 215.785 95.819C214.552 96.8066 213.369 97.8556 212.241 98.9623C212.101 99.098 211.961 99.238 211.821 99.3822C211.541 99.658 211.27 99.9379 211.011 100.218C210.595 100.646 210.196 101.087 209.801 101.533C207.72 103.893 205.878 106.454 204.301 109.177C203.51 110.537 202.79 111.937 202.146 113.372C201.658 114.445 201.212 115.544 200.809 116.655C200.542 117.398 200.291 118.147 200.058 118.904C199.943 119.281 199.833 119.663 199.727 120.045C199.366 121.338 199.065 122.645 198.819 123.956C198.619 125.008 198.458 126.061 198.335 127.116C198.271 127.646 198.22 128.176 198.174 128.702C198.064 129.995 198.009 131.289 198.006 132.585C197.999 136.471 198.471 140.343 199.413 144.113C199.621 144.945 199.851 145.772 200.104 146.595C200.232 147.006 200.368 147.414 200.503 147.821C200.847 148.839 201.228 149.847 201.645 150.845C201.895 151.443 202.158 152.037 202.434 152.627C204.187 156.375 206.424 159.878 209.088 163.045C209.525 163.567 209.977 164.08 210.442 164.585C210.446 164.585 210.442 164.589 210.442 164.589C211.597 165.848 212.819 167.043 214.104 168.169H214.109C214.622 168.623 215.144 169.063 215.675 169.489C215.679 169.484 215.679 169.489 215.679 169.489C216.213 169.921 216.752 170.337 217.304 170.74C217.58 170.939 217.86 171.139 218.144 171.338C218.7 171.732 219.267 172.113 219.846 172.479H219.85C220.427 172.852 221.013 173.209 221.607 173.548C222.8 174.231 224.022 174.872 225.278 175.453L225.49 175.55L225.707 175.453C227.721 174.547 229.797 173.785 231.919 173.175C232.386 173.039 232.857 172.916 233.324 172.797C234.504 172.505 235.692 172.258 236.889 172.059C235.723 172.644 234.597 173.306 233.519 174.04C232.683 174.604 231.86 175.219 231.032 175.898C230.757 176.123 230.481 176.356 230.205 176.594L229.517 177.188L230.379 177.472C230.693 177.574 231.007 177.675 231.321 177.769C231.75 177.905 232.174 178.028 232.59 178.142C233.498 178.397 234.412 178.621 235.331 178.817C235.556 178.863 235.777 178.91 236.002 178.956C236.439 179.041 236.88 179.126 237.322 179.203C237.34 179.207 237.358 179.21 237.377 179.211C237.835 179.287 238.298 179.359 238.756 179.423C239.609 179.546 240.462 179.644 241.315 179.716C241.408 179.729 241.502 179.733 241.599 179.737C241.807 179.754 242.011 179.771 242.219 179.784C242.677 179.813 243.14 179.835 243.602 179.852C243.636 179.852 243.666 179.856 243.7 179.856C243.933 179.864 244.167 179.873 244.4 179.877C244.4 179.877 244.4 179.881 244.404 179.877C244.638 179.881 244.871 179.885 245.104 179.885H246.394C246.636 179.885 246.878 179.89 247.124 179.89C247.464 179.89 247.808 179.894 248.147 179.898C248.236 179.898 248.33 179.902 248.423 179.902C248.966 179.911 249.509 179.924 250.053 179.936C250.086 179.936 250.12 179.941 250.154 179.941C250.698 179.958 251.241 179.975 251.784 180C251.903 180.004 252.022 180.008 252.145 180.017C252.667 180.038 253.189 180.064 253.711 180.093C253.859 180.102 254.012 180.115 254.165 180.123C254.559 180.144 254.958 180.17 255.353 180.199C255.586 180.212 255.815 180.229 256.049 180.25C256.991 180.322 257.929 180.403 258.871 180.496C259.185 180.522 259.499 180.556 259.813 180.59C260.653 180.679 261.496 180.776 262.342 180.882C262.72 180.925 263.098 180.976 263.475 181.027C263.518 181.031 263.56 181.035 263.603 181.044C264.069 181.107 264.532 181.171 264.999 181.239C265.304 181.281 265.61 181.328 265.915 181.374C266.229 181.421 266.543 181.468 266.857 181.523C267.027 181.548 267.197 181.578 267.371 181.608C267.778 181.671 268.19 181.739 268.602 181.816C268.639 181.819 268.675 181.825 268.712 181.833C269.586 181.985 270.465 182.146 271.339 182.32C271.852 182.418 272.361 182.52 272.871 182.626C273.27 182.706 273.669 182.791 274.067 182.876C274.135 182.889 274.203 182.906 274.271 182.923C274.286 182.927 274.302 182.93 274.318 182.931C274.92 183.063 275.527 183.198 276.13 183.343C278.222 183.826 280.311 184.364 282.398 184.955C282.877 185.086 283.357 185.226 283.836 185.366C284.04 185.425 284.24 185.485 284.439 185.544C284.855 185.667 285.266 185.79 285.682 185.922C286.047 186.032 286.417 186.147 286.781 186.265C287.011 186.337 287.24 186.41 287.469 186.486C287.825 186.596 288.182 186.711 288.534 186.834C288.835 186.927 289.132 187.025 289.43 187.131C289.854 187.271 290.283 187.415 290.707 187.568C290.83 187.61 290.957 187.652 291.08 187.699C291.598 187.877 292.116 188.06 292.633 188.251C293.138 188.433 293.643 188.62 294.144 188.806C294.492 188.938 294.84 189.065 295.184 189.201C295.57 189.349 295.956 189.498 296.338 189.65C296.89 189.867 297.446 190.087 297.997 190.312C298.507 190.516 299.012 190.724 299.521 190.94C299.614 190.978 299.712 191.016 299.805 191.059C300.247 191.241 300.688 191.432 301.125 191.623C301.409 191.742 301.689 191.865 301.97 191.988C303.192 192.522 304.413 193.075 305.632 193.646H305.636C306.4 194.007 307.177 194.35 307.957 194.677C308.14 194.753 308.322 194.83 308.509 194.902C308.819 195.033 309.133 195.156 309.447 195.284C309.651 195.364 309.854 195.445 310.062 195.521C310.364 195.64 310.669 195.755 310.975 195.865C311.297 195.984 311.615 196.102 311.942 196.213C312.057 196.255 312.171 196.293 312.29 196.336C312.668 196.463 313.046 196.59 313.428 196.713C313.466 196.726 313.504 196.739 313.546 196.751C313.945 196.879 314.344 197.006 314.747 197.125C314.779 197.136 314.812 197.146 314.845 197.154C315.278 197.286 315.719 197.413 316.156 197.536C316.801 197.714 317.451 197.884 318.1 198.041C318.219 198.071 318.337 198.1 318.456 198.126C318.804 198.211 319.148 198.291 319.496 198.368C319.865 198.452 320.239 198.529 320.608 198.605C320.981 198.681 321.355 198.758 321.724 198.826C321.923 198.864 322.123 198.902 322.318 198.936L322.84 199.025C323.201 199.089 323.561 199.144 323.926 199.203C323.936 199.203 323.946 199.204 323.956 199.207C324.368 199.271 324.775 199.33 325.187 199.381C325.581 199.437 325.976 199.483 326.371 199.53C326.451 199.538 326.536 199.547 326.621 199.555C326.948 199.593 327.275 199.632 327.601 199.661C327.695 199.67 327.788 199.678 327.881 199.687C328.204 199.716 328.526 199.746 328.849 199.767C328.914 199.776 328.979 199.78 329.044 199.78C329.333 199.806 329.621 199.827 329.91 199.839C330.114 199.856 330.313 199.865 330.517 199.878C330.623 199.882 330.725 199.886 330.831 199.89C331.111 199.907 331.391 199.916 331.675 199.924C332.019 199.937 332.363 199.946 332.702 199.954C333.114 199.962 333.53 199.967 333.941 199.967H333.95C334.353 199.967 334.76 199.963 335.164 199.954H335.316L335.762 199.941C335.991 199.937 336.22 199.929 336.445 199.92C336.878 199.903 337.307 199.882 337.735 199.856C337.905 199.848 338.079 199.835 338.249 199.827C338.325 199.823 338.406 199.814 338.482 199.81C338.75 199.793 339.013 199.776 339.28 199.755C339.556 199.733 339.836 199.708 340.112 199.678C340.468 199.644 340.825 199.606 341.181 199.568C341.461 199.538 341.741 199.504 342.017 199.47C342.054 199.467 342.091 199.462 342.128 199.453C342.395 199.424 342.662 199.39 342.925 199.352C343.239 199.309 343.549 199.263 343.859 199.216C343.893 199.212 343.923 199.207 343.957 199.203C344.491 199.118 345.03 199.034 345.569 198.936C346.134 198.834 346.698 198.724 347.258 198.609C347.466 198.567 347.67 198.52 347.878 198.478C347.992 198.452 348.111 198.431 348.221 198.406C348.395 198.368 348.565 198.329 348.735 198.287C348.765 198.283 348.799 198.274 348.828 198.27C349.066 198.219 349.299 198.16 349.537 198.1C350.012 197.986 350.479 197.867 350.946 197.74C351.154 197.689 351.362 197.634 351.561 197.579C351.621 197.562 351.68 197.545 351.735 197.528C352.597 197.286 353.451 197.03 354.298 196.76C354.672 196.641 355.041 196.518 355.41 196.387C356.204 196.115 356.99 195.829 357.77 195.53C357.978 195.453 358.186 195.369 358.394 195.288C358.699 195.165 359.005 195.042 359.306 194.919C359.577 194.804 359.849 194.69 360.125 194.571C360.261 194.516 360.397 194.457 360.532 194.397C360.94 194.219 361.347 194.037 361.75 193.854C362.022 193.727 362.289 193.604 362.557 193.477C362.981 193.273 363.401 193.065 363.821 192.857C363.927 192.802 364.029 192.747 364.131 192.696C364.398 192.56 364.666 192.42 364.937 192.285C365.366 192.056 365.794 191.827 366.219 191.589C366.363 191.513 366.503 191.432 366.647 191.351C367.114 191.088 367.577 190.821 368.035 190.55C369.049 189.943 370.049 189.31 371.035 188.649C371.282 188.488 371.528 188.318 371.77 188.153C372.228 187.839 372.678 187.517 373.128 187.194C373.174 187.16 373.217 187.126 373.263 187.097C373.488 186.931 373.713 186.766 373.938 186.596C374.405 186.244 374.867 185.888 375.33 185.523C375.338 185.519 375.351 185.506 375.364 185.498C375.572 185.332 375.78 185.167 375.984 185.001C376.616 184.488 377.24 183.966 377.851 183.428C378.152 183.169 378.449 182.902 378.742 182.634C378.963 182.435 379.183 182.236 379.4 182.032C379.837 181.62 380.265 181.213 380.69 180.798C380.902 180.594 381.11 180.382 381.322 180.17C381.53 179.958 381.742 179.746 381.95 179.529C382.022 179.457 382.094 179.381 382.167 179.304C382.379 179.08 382.591 178.85 382.803 178.626C382.986 178.431 383.164 178.227 383.346 178.023C383.652 177.684 383.962 177.345 384.263 177.001C384.279 176.982 384.296 176.963 384.314 176.946C384.331 176.925 384.348 176.908 384.361 176.891H384.356C390.525 169.761 395.108 161.403 397.802 152.369C400.497 143.336 401.242 133.834 399.987 124.491C398.733 115.149 395.508 106.179 390.525 98.1759C385.543 90.1727 378.917 83.3183 371.086 78.0666Z" fill="white"/>
<g opacity="0.15">
<path d="M285.192 28.0078C286.038 31.0452 287.311 33.9473 288.972 36.6274C286.191 34.239 283.706 31.5262 281.57 28.5468C282.77 28.32 283.977 28.1403 285.192 28.0078Z" fill="black"/>
<path d="M243.783 74.9809C240.642 76.6943 237.706 78.7578 235.029 81.1318C239.548 75.7903 242.851 69.5302 244.709 62.7857C244.731 62.7047 244.754 62.6231 244.776 62.542L244.839 62.3124C247.071 54.2627 251.402 46.9501 257.389 41.1225L257.86 40.6641L258.192 41.2306C260.027 44.35 262.223 47.2426 264.735 49.8487C260.886 60.7055 253.396 69.7413 243.783 74.9809Z" fill="black"/>
<path d="M265.904 46.0868L265.841 46.3164C265.819 46.3975 265.797 46.4791 265.774 46.5601C265.65 47.0065 265.518 47.4495 265.382 47.8906C264.04 44.4149 263.097 40.7979 262.572 37.1093L262.523 36.7963L262.78 36.6124C266.01 34.2929 269.517 32.3871 273.22 30.9395C269.895 35.5107 267.417 40.6411 265.904 46.0868Z" fill="black"/>
<path d="M222.717 91.2073C225.497 89.6865 228.098 87.861 230.474 85.7646C225.729 91.2871 222.327 97.8328 220.536 104.889C218.745 111.945 218.613 119.32 220.15 126.436C221.687 133.552 224.852 140.215 229.396 145.904C233.94 151.592 239.741 156.152 246.343 159.225L246.557 159.324L246.772 159.227C250.338 157.617 254.097 156.476 257.957 155.832C255.548 157.059 253.302 158.583 251.273 160.368L250.586 160.962L251.448 161.246C252.191 161.492 252.935 161.718 253.657 161.918C257.904 163.101 262.295 163.688 266.704 163.663C286.735 163.535 306.921 168.164 326.702 177.421C330.094 179.007 333.612 180.307 337.221 181.308C352.946 185.684 369.733 184.11 384.369 176.886C376.117 186.426 365.328 193.429 353.253 197.084C341.178 200.739 328.314 200.894 316.155 197.533C312.546 196.532 309.028 195.232 305.636 193.647C285.855 184.389 265.669 179.76 245.638 179.889C241.229 179.913 236.838 179.326 232.591 178.144C231.869 177.943 231.125 177.717 230.381 177.471L229.52 177.187L230.207 176.594C232.236 174.808 234.482 173.284 236.891 172.058C233.031 172.701 229.271 173.842 225.705 175.453L225.491 175.549L225.277 175.45C217.349 171.762 210.602 165.943 205.789 158.645C200.977 151.346 198.287 142.855 198.022 134.117C197.757 125.38 199.925 116.741 204.286 109.164C208.646 101.587 215.027 95.3702 222.717 91.2073Z" fill="black"/>
</g>
</g>
<defs>
<clipPath id="clip0_7652_1298">
<rect width="400.179" height="337.5" fill="white" transform="translate(0.410645)"/>
</clipPath>
</defs>
</svg>
