<svg width="207" height="154" viewBox="0 0 207 154" fill="none" xmlns="http://www.w3.org/2000/svg">
<g id="undraw_gift_re_qr17 2">
<path id="Path 438" d="M9.59492 143.353C10.4639 143.658 11.3969 143.735 12.3041 143.575C13.2113 143.415 14.062 143.025 14.7743 142.441C16.5884 140.92 17.1573 138.413 17.6199 136.092L18.9888 129.227L16.123 131.198C14.062 132.617 11.9547 134.08 10.5277 136.134C9.10084 138.188 8.47833 140.992 9.62446 143.215" fill="#E6E6E6" style="fill:#E6E6E6;fill:color(display-p3 0.9020 0.9020 0.9020);fill-opacity:1;"/>
<path id="Path 439" d="M10.0383 152.147C9.67764 149.521 9.30652 146.861 9.56014 144.207C9.7849 141.849 10.5046 139.547 11.9697 137.659C12.7475 136.659 13.6938 135.802 14.7662 135.127C15.0457 134.95 15.3031 135.393 15.0247 135.569C13.1692 136.741 11.7339 138.471 10.9259 140.511C10.0336 142.779 9.89027 145.251 10.044 147.661C10.1369 149.118 10.3343 150.565 10.5326 152.011C10.5482 152.076 10.5385 152.145 10.5052 152.203C10.472 152.262 10.4178 152.306 10.3536 152.326C10.2881 152.343 10.2183 152.334 10.1593 152.301C10.1003 152.267 10.0569 152.212 10.0385 152.147L10.0383 152.147Z" fill="#F2F2F2" style="fill:#F2F2F2;fill:color(display-p3 0.9490 0.9490 0.9490);fill-opacity:1;"/>
<path id="Path 442" d="M12.6348 147.932C13.0074 148.498 13.5197 148.959 14.1223 149.27C14.7248 149.58 15.3974 149.731 16.0751 149.707C17.8171 149.624 19.2687 148.41 20.5754 147.256L24.4411 143.845L21.8828 143.723C20.0429 143.635 18.1556 143.552 16.4031 144.12C14.6507 144.688 13.0346 146.052 12.7142 147.864" fill="#E6E6E6" style="fill:#E6E6E6;fill:color(display-p3 0.9020 0.9020 0.9020);fill-opacity:1;"/>
<path id="Path 443" d="M9.01807 153.655C10.7546 150.584 12.7687 147.172 16.3678 146.081C17.3684 145.779 18.4177 145.67 19.459 145.762C19.7873 145.79 19.7053 146.296 19.3777 146.268C17.6321 146.123 15.89 146.583 14.4444 147.572C13.0534 148.518 11.9703 149.834 11.0537 151.229C10.4921 152.083 9.98916 152.974 9.4862 153.863C9.32548 154.148 8.85549 153.942 9.01807 153.655Z" fill="#F2F2F2" style="fill:#F2F2F2;fill:color(display-p3 0.9490 0.9490 0.9490);fill-opacity:1;"/>
<path id="Vector" d="M130.213 88.832H54.0156V153.69H130.213V88.832Z" fill="white" style="fill:white;fill:white;fill-opacity:1;"/>
<path id="Vector_2" d="M130.436 153.91H53.7949V88.6094H130.436V153.91ZM54.2379 153.467H129.993V89.0521H54.2379V153.467Z" fill="#3F3D56" style="fill:#3F3D56;fill:color(display-p3 0.2471 0.2392 0.3373);fill-opacity:1;"/>
<path id="Vector_3" d="M101.639 101.449H82.5898V153.69H101.639V101.449Z" fill="#B5B9C5" style="fill:#B5B9C5;fill:color(display-p3 0.7098 0.7251 0.7708);fill-opacity:1;"/>
<path id="Vector_4" d="M101.639 101.449H82.5898V153.69H101.639V101.449Z" fill="#374EA9" style="fill:#374EA9;fill:color(display-p3 0.2157 0.3059 0.6627);fill-opacity:1;"/>
<path id="Vector_5" opacity="0.2" d="M54.2383 93.5898V104.113L130.215 108.974L129.991 95.9898L54.2383 93.5898Z" fill="black" style="fill:black;fill:black;fill-opacity:1;"/>
<path id="Vector_6" d="M134.644 82.8555H49.5859V101.449H134.644V82.8555Z" fill="white" style="fill:white;fill:white;fill-opacity:1;"/>
<path id="Vector_7" d="M134.866 101.67H49.3652V82.6328H134.866V101.67ZM49.8082 101.227H134.423V83.0755H49.8082V101.227Z" fill="#3F3D56" style="fill:#3F3D56;fill:color(display-p3 0.2471 0.2392 0.3373);fill-opacity:1;"/>
<path id="Vector_8" d="M101.639 81.0859H82.5898V101.229H101.639V81.0859Z" fill="#374EA9" style="fill:#374EA9;fill:color(display-p3 0.2157 0.3059 0.6627);fill-opacity:1;"/>
<path id="Vector_9" d="M90.0759 63.5222C95.1044 70.9712 90.3666 82.9519 90.3666 82.9519C90.3666 82.9519 77.4761 82.8553 72.4476 75.4063C67.4191 67.9573 72.1569 55.9766 72.1569 55.9766C72.1569 55.9766 85.0474 56.0731 90.0759 63.5222Z" fill="#374EA9" style="fill:#374EA9;fill:color(display-p3 0.2157 0.3059 0.6627);fill-opacity:1;"/>
<path id="Vector_10" d="M92.3831 63.5222C87.3547 70.9712 92.0924 82.9519 92.0924 82.9519C92.0924 82.9519 104.983 82.8553 110.011 75.4063C115.04 67.9573 110.302 55.9766 110.302 55.9766C110.302 55.9766 97.4116 56.0731 92.3831 63.5222Z" fill="#374EA9" style="fill:#374EA9;fill:color(display-p3 0.2157 0.3059 0.6627);fill-opacity:1;"/>
<path id="Vector_11" d="M78.8256 69.129C79.9266 69.129 80.8191 68.237 80.8191 67.1367C80.8191 66.0365 79.9266 65.1445 78.8256 65.1445C77.7246 65.1445 76.832 66.0365 76.832 67.1367C76.832 68.237 77.7246 69.129 78.8256 69.129Z" fill="#3F3D56" style="fill:#3F3D56;fill:color(display-p3 0.2471 0.2392 0.3373);fill-opacity:1;"/>
<path id="Vector_12" d="M90.7865 89.2735C91.8875 89.2735 92.7801 88.3815 92.7801 87.2813C92.7801 86.181 91.8875 85.2891 90.7865 85.2891C89.6855 85.2891 88.793 86.181 88.793 87.2813C88.793 88.3815 89.6855 89.2735 90.7865 89.2735Z" fill="#3F3D56" style="fill:#3F3D56;fill:color(display-p3 0.2471 0.2392 0.3373);fill-opacity:1;"/>
<path id="Vector_13" d="M90.7865 132.883C91.8875 132.883 92.7801 131.991 92.7801 130.891C92.7801 129.79 91.8875 128.898 90.7865 128.898C89.6855 128.898 88.793 129.79 88.793 130.891C88.793 131.991 89.6855 132.883 90.7865 132.883Z" fill="#3F3D56" style="fill:#3F3D56;fill:color(display-p3 0.2471 0.2392 0.3373);fill-opacity:1;"/>
<path id="Vector_14" d="M84.1415 75.7735C84.8755 75.7735 85.4706 75.1788 85.4706 74.4453C85.4706 73.7118 84.8755 73.1172 84.1415 73.1172C83.4075 73.1172 82.8125 73.7118 82.8125 74.4453C82.8125 75.1788 83.4075 75.7735 84.1415 75.7735Z" fill="#3F3D56" style="fill:#3F3D56;fill:color(display-p3 0.2471 0.2392 0.3373);fill-opacity:1;"/>
<path id="Vector_15" d="M104.077 64.4805C104.811 64.4805 105.406 63.8859 105.406 63.1524C105.406 62.4188 104.811 61.8242 104.077 61.8242C103.343 61.8242 102.748 62.4188 102.748 63.1524C102.748 63.8859 103.343 64.4805 104.077 64.4805Z" fill="#3F3D56" style="fill:#3F3D56;fill:color(display-p3 0.2471 0.2392 0.3373);fill-opacity:1;"/>
<path id="Vector_16" d="M95.4384 95.6954C96.1724 95.6954 96.7674 95.1007 96.7674 94.3672C96.7674 93.6337 96.1724 93.0391 95.4384 93.0391C94.7044 93.0391 94.1094 93.6337 94.1094 94.3672C94.1094 95.1007 94.7044 95.6954 95.4384 95.6954Z" fill="#3F3D56" style="fill:#3F3D56;fill:color(display-p3 0.2471 0.2392 0.3373);fill-opacity:1;"/>
<path id="Vector_17" d="M87.4638 112.961C88.1978 112.961 88.7928 112.366 88.7928 111.633C88.7928 110.899 88.1978 110.305 87.4638 110.305C86.7298 110.305 86.1348 110.899 86.1348 111.633C86.1348 112.366 86.7298 112.961 87.4638 112.961Z" fill="#3F3D56" style="fill:#3F3D56;fill:color(display-p3 0.2471 0.2392 0.3373);fill-opacity:1;"/>
<path id="Vector_18" d="M94.331 118.938C95.065 118.938 95.66 118.343 95.66 117.609C95.66 116.876 95.065 116.281 94.331 116.281C93.597 116.281 93.002 116.876 93.002 117.609C93.002 118.343 93.597 118.938 94.331 118.938Z" fill="#3F3D56" style="fill:#3F3D56;fill:color(display-p3 0.2471 0.2392 0.3373);fill-opacity:1;"/>
<path id="Vector_19" d="M92.7802 143.949C93.5142 143.949 94.1092 143.355 94.1092 142.621C94.1092 141.888 93.5142 141.293 92.7802 141.293C92.0462 141.293 91.4512 141.888 91.4512 142.621C91.4512 143.355 92.0462 143.949 92.7802 143.949Z" fill="#3F3D56" style="fill:#3F3D56;fill:color(display-p3 0.2471 0.2392 0.3373);fill-opacity:1;"/>
<path id="Vector_20" d="M174.743 151.244L172.313 151.244L171.156 141.875L174.744 141.875L174.743 151.244Z" fill="#FFB7B7" style="fill:#FFB7B7;fill:color(display-p3 1.0000 0.7176 0.7176);fill-opacity:1;"/>
<path id="Vector_21" d="M175.365 153.597L167.527 153.597V153.498C167.527 152.689 167.849 151.914 168.421 151.342C168.993 150.77 169.769 150.449 170.578 150.449L175.365 150.449L175.365 153.597Z" fill="#2F2E41" style="fill:#2F2E41;fill:color(display-p3 0.1843 0.1804 0.2549);fill-opacity:1;"/>
<path id="Vector_22" d="M180.68 151.244L183.111 151.244L184.267 141.875L180.68 141.875L180.68 151.244Z" fill="#FFB7B7" style="fill:#FFB7B7;fill:color(display-p3 1.0000 0.7176 0.7176);fill-opacity:1;"/>
<path id="Vector_23" d="M180.061 150.449L184.847 150.449C185.656 150.449 186.433 150.77 187.005 151.342C187.577 151.914 187.898 152.689 187.898 153.498V153.597L180.061 153.597L180.061 150.449Z" fill="#2F2E41" style="fill:#2F2E41;fill:color(display-p3 0.1843 0.1804 0.2549);fill-opacity:1;"/>
<path id="Vector_24" d="M174.205 78.0268C175.249 75.9269 174.392 73.3789 172.29 72.3356C170.189 71.2923 167.639 72.1488 166.595 74.2487C165.551 76.3485 166.408 78.8965 168.51 79.9398C170.611 80.9831 173.161 80.1266 174.205 78.0268Z" fill="#FFB7B7" style="fill:#FFB7B7;fill:color(display-p3 1.0000 0.7176 0.7176);fill-opacity:1;"/>
<path id="Vector_25" d="M167.271 105.345C167.271 105.345 165.929 110.932 166.6 113.613C167.271 116.294 169.283 134.617 169.283 134.617L170.625 149.142L175.991 149.588L175.32 132.606L175.991 117.859L179.792 132.159V149.192L185.484 149.416L185.606 127.243C185.606 127.243 186.053 109.814 183.146 107.58C180.239 105.345 179.792 104.898 179.792 104.898L167.271 105.345Z" fill="#2F2E41" style="fill:#2F2E41;fill:color(display-p3 0.1843 0.1804 0.2549);fill-opacity:1;"/>
<path id="Vector_26" d="M175.373 80.7656L180.464 83.447L181.135 106.686C181.135 106.686 178.228 104.898 173.756 107.133C169.284 109.367 166.377 107.803 166.377 107.803L169.06 97.7478L167.942 84.3408L169.541 82.8904L175.373 80.7656Z" fill="#CBCBCB" style="fill:#CBCBCB;fill:color(display-p3 0.7961 0.7961 0.7961);fill-opacity:1;"/>
<path id="Vector_27" d="M169.542 82.4673L168.613 83.2234C168.613 83.2234 162.8 86.1282 162.576 88.1393L166.601 99.0883C166.601 99.0883 167.719 101.546 166.825 102.44C165.93 103.334 165.036 105.568 165.259 106.686C165.483 107.803 163.918 112.495 165.707 112.495C167.495 112.495 171.744 101.77 171.52 97.5242C171.297 93.2786 171.142 82.158 169.542 82.4673Z" fill="#2F2E41" style="fill:#2F2E41;fill:color(display-p3 0.1843 0.1804 0.2549);fill-opacity:1;"/>
<path id="Vector_28" d="M173.45 81.0163L175.498 80.6758C175.498 80.6758 183.101 82.6868 184.219 86.0386L181.088 93.8593C181.088 93.8593 183.324 108.16 182.653 108.16H181.983C181.983 108.16 183.771 109.501 182.653 109.948C181.535 110.395 178.852 113.97 178.181 112.406C177.511 110.842 173.486 92.2952 173.933 88.2731C174.38 84.251 173.053 81.4377 173.45 81.0163Z" fill="#2F2E41" style="fill:#2F2E41;fill:color(display-p3 0.1843 0.1804 0.2549);fill-opacity:1;"/>
<path id="Vector_29" d="M174.339 71.9812L174.538 71.5809L173.537 71.0838C173.537 71.0838 172.432 69.2879 170.434 69.7926C168.435 70.2973 167.536 70.5993 167.536 70.5993L166.537 71.1015L167.038 71.5999L166.139 71.902L166.74 72.2002L166.041 72.6017L166.417 74.6599C166.417 74.6599 167.042 73.0988 168.244 73.6954C169.445 74.2919 171.643 73.387 171.643 73.387L173.552 77.0796C173.552 77.0796 173.946 75.7852 174.648 76.1303C174.648 76.1303 176.442 73.2749 174.339 71.9812Z" fill="#2F2E41" style="fill:#2F2E41;fill:color(display-p3 0.1843 0.1804 0.2549);fill-opacity:1;"/>
<path id="Vector_30" d="M180.557 111.191C180.446 110.922 180.396 110.631 180.411 110.341C180.425 110.05 180.502 109.765 180.638 109.508C180.774 109.25 180.965 109.025 181.197 108.849C181.429 108.673 181.697 108.55 181.982 108.489L182.843 101.461L185.647 103.845L184.4 110.153C184.471 110.638 184.362 111.132 184.093 111.543C183.824 111.953 183.414 112.25 182.94 112.378C182.466 112.506 181.962 112.456 181.523 112.237C181.084 112.019 180.74 111.646 180.557 111.191Z" fill="#FFB7B7" style="fill:#FFB7B7;fill:color(display-p3 1.0000 0.7176 0.7176);fill-opacity:1;"/>
<path id="Vector_31" d="M168.562 110.707C168.643 110.427 168.662 110.133 168.617 109.845C168.572 109.557 168.465 109.283 168.303 109.041C168.14 108.799 167.927 108.596 167.677 108.446C167.427 108.295 167.148 108.201 166.858 108.17L165.257 101.273L162.721 103.941L164.63 110.081C164.611 110.571 164.772 111.051 165.083 111.431C165.394 111.81 165.833 112.062 166.318 112.139C166.803 112.216 167.299 112.113 167.712 111.849C168.126 111.585 168.428 111.179 168.562 110.707Z" fill="#FFB7B7" style="fill:#FFB7B7;fill:color(display-p3 1.0000 0.7176 0.7176);fill-opacity:1;"/>
<path id="Vector_32" d="M180.666 84.2178C180.666 84.2178 183.573 83.1006 184.467 86.4523C185.362 89.8041 186.48 96.5076 186.48 96.5076C186.535 100.235 186.337 100.235 186.48 103.881L185.809 107.233L182.008 106.786L182.173 98.2539L180.219 89.5806L180.666 84.2178Z" fill="#2F2E41" style="fill:#2F2E41;fill:color(display-p3 0.1843 0.1804 0.2549);fill-opacity:1;"/>
<path id="Vector_33" d="M164.588 86.7969L163.209 86.9442C163.209 86.9442 161.904 87.9141 161.904 90.1486C161.904 92.3831 161.681 99.0866 161.681 99.0866C161.681 99.0866 161.554 99.2435 162.575 104.896C163.073 107.652 163.933 108.952 163.933 108.952L166.709 106.376L166.376 99.757L167.271 96.1818L164.588 86.7969Z" fill="#2F2E41" style="fill:#2F2E41;fill:color(display-p3 0.1843 0.1804 0.2549);fill-opacity:1;"/>
<path id="Vector_34" d="M206.278 153.911H0.721505C0.662758 153.911 0.606418 153.888 0.564877 153.847C0.523337 153.805 0.5 153.749 0.5 153.69C0.5 153.631 0.523337 153.575 0.564877 153.534C0.606418 153.492 0.662758 153.469 0.721505 153.469H206.278C206.337 153.469 206.394 153.492 206.435 153.534C206.477 153.575 206.5 153.631 206.5 153.69C206.5 153.749 206.477 153.805 206.435 153.847C206.394 153.888 206.337 153.911 206.278 153.911Z" fill="#3F3D56" style="fill:#3F3D56;fill:color(display-p3 0.2471 0.2392 0.3373);fill-opacity:1;"/>
<path id="Vector_35" d="M51.5902 88.1153C54.2849 88.1153 56.4695 85.9322 56.4695 83.2393C56.4695 80.5463 54.2849 78.3633 51.5902 78.3633C48.8955 78.3633 46.7109 80.5463 46.7109 83.2393C46.7109 85.9322 48.8955 88.1153 51.5902 88.1153Z" fill="#FFB8B8" style="fill:#FFB8B8;fill:color(display-p3 1.0000 0.7216 0.7216);fill-opacity:1;"/>
<path id="Vector_36" d="M49.8284 112.092C49.767 112.092 49.7052 112.09 49.6432 112.084C49.3364 112.059 49.0384 111.968 48.7688 111.82C48.4992 111.671 48.2641 111.467 48.0789 111.221C47.8936 110.975 47.7625 110.693 47.694 110.393C47.6255 110.093 47.6213 109.782 47.6815 109.48C47.6957 109.41 47.7136 109.341 47.7351 109.273L40.5337 100.761C40.2991 100.482 40.1609 100.134 40.1396 99.7698C40.1183 99.4055 40.2151 99.0441 40.4156 98.7393L40.4287 98.7234L46.9108 92.336C47.2647 91.9873 47.7427 91.7934 48.2396 91.7969C48.7366 91.8004 49.2118 92.0011 49.5607 92.3547C49.9096 92.7083 50.1036 93.186 50.1001 93.6826C50.0966 94.1792 49.8958 94.6541 49.542 95.0028C49.5338 95.0108 49.5256 95.0187 49.5174 95.0266L44.8226 99.4868L49.9622 107.73C50.0595 107.735 50.1564 107.747 50.2521 107.766C50.7837 107.872 51.257 108.172 51.5799 108.607C51.9029 109.042 52.0525 109.582 51.9997 110.121C51.9469 110.66 51.6954 111.16 51.2942 111.525C50.893 111.889 50.3705 112.091 49.8284 112.092Z" fill="#FFB8B8" style="fill:#FFB8B8;fill:color(display-p3 1.0000 0.7216 0.7216);fill-opacity:1;"/>
<path id="Vector_37" d="M59.6254 151.099H62.0611L63.2196 141.711L59.625 141.711L59.6254 151.099Z" fill="#FFB8B8" style="fill:#FFB8B8;fill:color(display-p3 1.0000 0.7216 0.7216);fill-opacity:1;"/>
<path id="Vector_38" d="M59.0039 150.305L63.8003 150.305C64.6109 150.305 65.3886 150.626 65.9618 151.199C66.5351 151.772 66.8571 152.549 66.8571 153.359V153.459L59.004 153.459L59.0039 150.305Z" fill="#2F2E41" style="fill:#2F2E41;fill:color(display-p3 0.1843 0.1804 0.2549);fill-opacity:1;"/>
<path id="Vector_39" d="M35.418 147.734L37.5108 148.98L43.3124 141.506L40.224 139.668L35.418 147.734Z" fill="#FFB8B8" style="fill:#FFB8B8;fill:color(display-p3 1.0000 0.7216 0.7216);fill-opacity:1;"/>
<path id="Vector_40" d="M35.2923 146.734L39.4135 149.186C40.11 149.601 40.6135 150.275 40.8127 151.06C41.012 151.846 40.891 152.678 40.4762 153.374L40.4254 153.459L33.6777 149.444L35.2923 146.734Z" fill="#2F2E41" style="fill:#2F2E41;fill:color(display-p3 0.1843 0.1804 0.2549);fill-opacity:1;"/>
<path id="Vector_41" d="M62.6362 147.787H59.909C59.6881 147.788 59.475 147.706 59.3108 147.559C59.1466 147.411 59.043 147.208 59.0201 146.988L56.2706 121.161C56.2637 121.096 56.2355 121.035 56.1905 120.987C56.1455 120.94 56.0861 120.909 56.0215 120.898C55.9569 120.888 55.8907 120.899 55.833 120.93C55.7754 120.961 55.7296 121.01 55.7027 121.07L50.7426 132.045L41.961 146.355C41.8474 146.539 41.6714 146.675 41.4653 146.739C41.2593 146.804 41.0369 146.792 40.8389 146.706L37.3308 145.163C37.2148 145.112 37.111 145.037 37.0262 144.943C36.9415 144.849 36.8777 144.738 36.8392 144.617C36.8007 144.496 36.7882 144.369 36.8028 144.243C36.8173 144.117 36.8584 143.996 36.9234 143.887L44.996 130.379L47.4718 118.998C46.6932 114.062 50.0313 106.725 50.0652 106.651L50.0817 106.615L59.2768 103.023L59.3229 103.08C62.9492 114.972 65.1589 127.77 63.5273 146.969C63.5072 147.191 63.4048 147.399 63.24 147.55C63.0753 147.701 62.86 147.786 62.6362 147.787Z" fill="#2F2E41" style="fill:#2F2E41;fill:color(display-p3 0.1843 0.1804 0.2549);fill-opacity:1;"/>
<path id="Vector_42" d="M49.7116 107.816L49.6688 107.726C49.6483 107.683 47.6037 103.373 46.0276 98.7673C45.7247 97.8767 45.6102 96.9328 45.6913 95.9956C45.7725 95.0584 46.0475 94.1483 46.499 93.3228C46.9563 92.4888 47.582 91.7588 48.3364 91.1791C49.0908 90.5994 49.9575 90.1826 50.8815 89.955C52.4856 89.5708 54.1745 89.7752 55.6404 90.5311C57.1063 91.287 58.2517 92.544 58.868 94.0731C60.1182 97.1974 59.7197 100.532 59.3448 103.155L59.3373 103.207L59.2895 103.23L49.7116 107.816Z" fill="#B5B9C5" style="fill:#B5B9C5;fill:color(display-p3 0.7098 0.7251 0.7708);fill-opacity:1;"/>
<path id="Vector_43" d="M57.5055 80.487H49.7578V77.1121C51.4583 76.4369 53.1224 75.8628 54.1283 77.1121C55.024 77.1121 55.883 77.4677 56.5163 78.1006C57.1497 78.7335 57.5055 79.5919 57.5055 80.487Z" fill="#2F2E41" style="fill:#2F2E41;fill:color(display-p3 0.1843 0.1804 0.2549);fill-opacity:1;"/>
<path id="Vector_44" d="M49.3285 76.5156C44.6968 76.5156 43.4004 82.3174 43.4004 85.5905C43.4004 87.4159 44.2265 88.0687 45.5245 88.2897L45.983 85.8464L47.0567 88.3948C47.4213 88.3966 47.8043 88.3896 48.2015 88.3822L48.5655 87.6331L49.3773 88.3688C52.6287 88.3736 55.2566 88.8472 55.2566 85.5905C55.2566 82.3174 54.1196 76.5156 49.3285 76.5156Z" fill="#2F2E41" style="fill:#2F2E41;fill:color(display-p3 0.1843 0.1804 0.2549);fill-opacity:1;"/>
<path id="Vector_45" d="M69.9169 83.0084C69.9464 83.0623 69.9736 83.1177 69.9985 83.1747C70.1232 83.4561 70.1869 83.7606 70.1856 84.0683C70.1842 84.3761 70.1178 84.68 69.9908 84.9603C69.8637 85.2406 69.6787 85.491 69.4481 85.6949C69.2175 85.8988 68.9463 86.0517 68.6524 86.1435C68.584 86.1647 68.5146 86.1822 68.4444 86.196L64.4226 96.5923C64.2896 96.9321 64.0506 97.22 63.7409 97.4132C63.4313 97.6065 63.0675 97.6949 62.7036 97.6652L62.6834 97.6614L53.9665 95.039C53.4911 94.8955 53.0922 94.5691 52.8574 94.1318C52.6226 93.6945 52.5712 93.1819 52.7143 92.7066C52.8575 92.2314 53.1837 91.8324 53.6211 91.5974C54.0585 91.3623 54.5714 91.3104 55.0471 91.453C55.0579 91.4563 55.0688 91.4597 55.0796 91.4631L61.2473 93.442L66.0223 84.9823C65.9801 84.8945 65.9441 84.8039 65.9146 84.711C65.7529 84.1939 65.7892 83.6352 66.0165 83.1434C66.2438 82.6516 66.6459 82.2617 67.1447 82.0495C67.6435 81.8373 68.2034 81.8179 68.7157 81.9951C69.228 82.1723 69.6561 82.5334 69.9169 83.0084Z" fill="#FFB8B8" style="fill:#FFB8B8;fill:color(display-p3 1.0000 0.7216 0.7216);fill-opacity:1;"/>
<path id="Vector_46" d="M147.407 56.6013C144.149 52.2434 138.185 51.1917 135.221 53.4048C132.257 55.6179 131.577 61.6317 134.835 65.9896C137.851 70.0234 143.316 71.1235 146.326 69.6122C146.316 69.6594 146.316 69.708 146.324 69.7554L146.494 70.5938C146.507 70.6577 146.536 70.7173 146.578 70.7668C146.621 70.8163 146.675 70.8542 146.737 70.8768C146.798 70.8994 146.864 70.906 146.928 70.896C146.993 70.8859 147.053 70.8596 147.105 70.8194L148.542 69.6975C148.593 69.6574 148.634 69.6048 148.659 69.5447C148.684 69.4846 148.694 69.4191 148.687 69.3542C148.68 69.2894 148.656 69.2275 148.618 69.1744C148.58 69.1212 148.53 69.0786 148.471 69.0506L147.698 68.6832C147.67 68.671 147.642 68.6621 147.613 68.6565C149.933 66.2054 150.43 60.6438 147.407 56.6013Z" fill="#CCCCCC" style="fill:#CCCCCC;fill:color(display-p3 0.8000 0.8000 0.8000);fill-opacity:1;"/>
<path id="Vector_47" d="M140.278 54.9565C141.872 55.2095 143.308 56.0645 144.289 57.3449C145.271 58.6253 145.723 60.2334 145.553 61.8373C145.517 62.2047 146.092 62.2023 146.127 61.8373C146.291 60.1086 145.795 58.3817 144.739 57.0029C143.682 55.6242 142.143 54.6955 140.431 54.4032C140.069 54.3418 139.914 54.8946 140.278 54.9565Z" fill="white" style="fill:white;fill:white;fill-opacity:1;"/>
<path id="Vector_48" d="M38.642 62.0664C41.4909 57.4307 40.2661 51.5036 37.1135 49.5687C33.9609 47.6338 28.1171 49.2227 25.2682 53.8585C22.6312 58.1494 23.6265 63.6307 26.1435 65.8678C26.0961 65.8762 26.0507 65.8936 26.0097 65.919L25.2928 66.3863C25.2381 66.4219 25.1935 66.4709 25.1631 66.5286C25.1327 66.5863 25.1176 66.6508 25.1192 66.716C25.1208 66.7812 25.139 66.8449 25.1722 66.901C25.2053 66.9572 25.2523 67.004 25.3086 67.0369L26.8826 67.957C26.9389 67.99 27.0027 68.0079 27.068 68.0093C27.1332 68.0106 27.1977 67.9953 27.2554 67.9648C27.313 67.9342 27.3619 67.8894 27.3973 67.8347C27.4328 67.7799 27.4536 67.717 27.4579 67.6519L27.514 66.7984C27.5153 66.7686 27.5131 66.7388 27.5074 66.7095C30.6437 67.9588 35.9992 66.3667 38.642 62.0664Z" fill="#CCCCCC" style="fill:#CCCCCC;fill:color(display-p3 0.8000 0.8000 0.8000);fill-opacity:1;"/>
<path id="Vector_49" d="M37.5405 54.8421C37.8939 56.4158 37.6293 58.0651 36.8011 59.4495C35.973 60.8339 34.6445 61.8478 33.0901 62.2817C32.7355 62.3849 32.9499 62.9175 33.3021 62.815C34.9704 62.3291 36.3931 61.2309 37.2851 59.7406C38.177 58.2503 38.4722 56.4781 38.1114 54.7795C38.035 54.4211 37.4635 54.4811 37.5405 54.8421Z" fill="white" style="fill:white;fill:white;fill-opacity:1;"/>
<path id="Vector_50" d="M181.086 28.5022C180.848 23.0672 176.511 18.8427 172.815 19.0045C169.119 19.1663 165.169 23.7536 165.407 29.1886C165.627 34.2193 169.524 38.2029 172.863 38.6472C172.828 38.6808 172.801 38.7206 172.781 38.7646L172.449 39.553C172.424 39.6131 172.414 39.6786 172.421 39.7435C172.428 39.8083 172.452 39.8702 172.49 39.9233C172.528 39.9764 172.579 40.0189 172.637 40.0469C172.696 40.0749 172.762 40.0873 172.827 40.0831L174.646 39.9643C174.711 39.9601 174.774 39.9393 174.829 39.9039C174.884 39.8685 174.929 39.8197 174.959 39.7621C174.99 39.7045 175.005 39.64 175.004 39.5748C175.003 39.5096 174.985 39.4459 174.952 39.3896L174.52 38.6511C174.504 38.6257 174.486 38.6022 174.465 38.5811C177.763 37.8605 181.307 33.5439 181.086 28.5022Z" fill="#B5B9C5" style="fill:#B5B9C5;fill:color(display-p3 0.7098 0.7251 0.7708);fill-opacity:1;"/>
<path id="Vector_51" d="M176.122 23.1326C177.296 24.2385 178.002 25.7529 178.092 27.3634C178.181 28.9738 177.649 30.5572 176.605 31.7868C176.369 32.0708 176.845 32.3919 177.079 32.1099C178.189 30.7735 178.752 29.0674 178.656 27.3336C178.559 25.5997 177.81 23.9664 176.559 22.7612C176.295 22.5071 175.855 22.8766 176.122 23.1326Z" fill="white" style="fill:white;fill:white;fill-opacity:1;"/>
<path id="Vector_52" d="M147.087 44.1938C145.663 44.1041 144.279 43.6782 143.051 42.9512C141.823 42.2241 140.785 41.2166 140.021 40.011C139.807 39.6693 139.528 39.2937 139.676 38.8731C139.728 38.7118 139.833 38.5728 139.973 38.4787C140.114 38.3847 140.283 38.3412 140.452 38.3553C140.888 38.4084 141.17 38.8353 141.224 39.2443C141.285 39.7082 140.958 40.0724 140.553 40.2448C139.565 40.666 138.568 40.0151 137.763 39.4955C135.929 38.3118 133.912 37.2412 131.69 37.1063C129.633 36.9815 127.429 37.7871 126.285 39.569C126.085 39.8808 126.582 40.1689 126.781 39.8586C127.915 38.0915 130.208 37.4568 132.202 37.7299C133.39 37.9173 134.537 38.3065 135.594 38.8807C136.141 39.1649 136.673 39.48 137.194 39.8111C137.689 40.1567 138.214 40.4575 138.763 40.7103C139.678 41.0859 140.89 41.0566 141.529 40.1916C142.125 39.3847 141.665 38.0413 140.667 37.8144C140.448 37.7713 140.222 37.7831 140.009 37.8488C139.796 37.9145 139.602 38.032 139.446 38.1909C139.29 38.3497 139.175 38.5448 139.112 38.7588C139.05 38.9727 139.042 39.1988 139.088 39.4168C139.188 39.892 139.546 40.357 139.823 40.7454C140.656 41.9161 141.741 42.8852 142.998 43.5813C144.255 44.2774 145.653 44.6828 147.087 44.7676C147.457 44.7858 147.456 44.212 147.087 44.1938Z" fill="#CCCCCC" style="fill:#CCCCCC;fill:color(display-p3 0.8000 0.8000 0.8000);fill-opacity:1;"/>
</g>
</svg>
