<svg width="113" height="106" viewBox="0 0 113 106" fill="none" xmlns="http://www.w3.org/2000/svg">
<g clip-path="url(#clip0_22883_14860)">
<path d="M104.457 81.0953L109.527 81.8899C111.243 79.8061 112.426 77.3338 112.973 74.6875C109.266 77.7307 103.629 76.1135 99.1343 77.7749C97.7364 78.3039 96.4751 79.1416 95.4439 80.2259C94.4126 81.3102 93.6379 82.6133 93.1771 84.0388L90.6997 86.712C92.9423 87.6025 95.3506 87.9947 97.7589 87.8617C100.167 87.7288 102.518 87.0737 104.65 85.9418C105.839 85.2949 106.943 84.5003 107.934 83.5768C106.16 82.4566 104.457 81.0953 104.457 81.0953Z" fill="#F2F2F2" style="fill:#F2F2F2;fill:color(display-p3 0.9490 0.9490 0.9490);fill-opacity:1;"/>
<path d="M102.658 72.962L107.548 71.4057C108.158 68.7731 108.117 66.0312 107.43 63.418C105.466 67.7997 99.7012 68.8737 96.4171 72.3712C95.4011 73.4699 94.6447 74.7839 94.2038 76.2156C93.763 77.6474 93.6491 79.1603 93.8705 80.6423L92.8418 84.1431C95.2449 83.937 97.5749 83.2108 99.6713 82.0145C101.768 80.8183 103.581 79.1805 104.985 77.2139C105.762 76.1028 106.396 74.898 106.873 73.628C104.788 73.4188 102.658 72.962 102.658 72.962Z" fill="#F2F2F2" style="fill:#F2F2F2;fill:color(display-p3 0.9490 0.9490 0.9490);fill-opacity:1;"/>
<path d="M113 88.3285C113 88.3547 112.995 88.3807 112.985 88.405C112.975 88.4292 112.96 88.4513 112.942 88.4698C112.923 88.4884 112.901 88.5031 112.877 88.5131C112.853 88.5231 112.827 88.5282 112.801 88.5281H0.199018C0.146235 88.5281 0.0956135 88.5071 0.0582905 88.4697C0.0209676 88.4322 0 88.3815 0 88.3285C0 88.2756 0.0209676 88.2248 0.0582905 88.1874C0.0956135 88.1499 0.146235 88.1289 0.199018 88.1289H112.801C112.827 88.1288 112.853 88.1339 112.877 88.1439C112.901 88.154 112.923 88.1686 112.942 88.1872C112.96 88.2057 112.975 88.2278 112.985 88.252C112.995 88.2763 113 88.3023 113 88.3285Z" fill="#CCCCCC" style="fill:#CCCCCC;fill:color(display-p3 0.8000 0.8000 0.8000);fill-opacity:1;"/>
<path d="M46.66 79.8177C66.5185 79.8177 82.6169 63.6717 82.6169 43.7546C82.6169 23.8374 66.5185 7.69141 46.66 7.69141C26.8016 7.69141 10.7031 23.8374 10.7031 43.7546C10.7031 63.6717 26.8016 79.8177 46.66 79.8177Z" fill="#E6E6E6" style="fill:#E6E6E6;fill:color(display-p3 0.9020 0.9020 0.9020);fill-opacity:1;"/>
<path d="M77.5995 43.7576C77.6031 48.5996 76.4754 53.3751 74.3067 57.7011C72.1381 62.027 68.9889 65.7831 65.1116 68.6681C64.8524 68.8626 64.5881 69.0522 64.3222 69.2367C59.1374 72.8514 52.9742 74.7887 46.6599 74.7887C40.3455 74.7887 34.1823 72.8514 28.9975 69.2367C28.7316 69.0522 28.4673 68.8626 28.2081 68.6681C24.3336 65.7806 21.1863 62.024 19.0179 57.6986C16.8495 53.3732 15.7202 48.599 15.7202 43.7576C15.7202 38.9163 16.8495 34.1421 19.0179 29.8167C21.1863 25.4913 24.3336 21.7347 28.2081 18.8472C28.4673 18.6527 28.7316 18.4631 28.9975 18.2786C34.1823 14.6639 40.3455 12.7266 46.6599 12.7266C52.9742 12.7266 59.1374 14.6639 64.3222 18.2786C64.5881 18.4631 64.8524 18.6527 65.1116 18.8472C68.9889 21.7322 72.1381 25.4883 74.3067 29.8142C76.4754 34.1402 77.6032 38.9157 77.5995 43.7576Z" fill="white" style="fill:white;fill:white;fill-opacity:1;"/>
<path d="M46.6598 72.1048C62.2695 72.1048 74.9236 59.4133 74.9236 43.7575C74.9236 28.1017 62.2695 15.4102 46.6598 15.4102C31.0501 15.4102 18.396 28.1017 18.396 43.7575C18.396 59.4133 31.0501 72.1048 46.6598 72.1048Z" fill="#797D88" style="fill:#797D88;fill:color(display-p3 0.4733 0.4883 0.5333);fill-opacity:1;"/>
<path opacity="0.2" d="M46.7337 15.4883C46.3053 15.4883 45.8795 15.4995 45.4557 15.5184C52.5992 16.148 59.237 19.4775 64.0243 24.8324C68.8116 30.1872 71.3903 37.167 71.2382 44.3576C71.086 51.5482 68.2142 58.4119 63.2047 63.5582C58.1952 68.7045 51.4225 71.7485 44.2588 72.0735C45.0746 72.1445 45.8996 72.1829 46.7337 72.1829C54.2298 72.1829 61.4188 69.1963 66.7193 63.8802C72.0198 58.564 74.9975 51.3538 74.9975 43.8356C74.9975 36.3174 72.0198 29.1072 66.7193 23.791C61.4188 18.4749 54.2298 15.4883 46.7337 15.4883Z" fill="black" style="fill:black;fill:black;fill-opacity:1;"/>
<path d="M46.7436 13.3945C46.4997 13.395 46.266 13.4923 46.0936 13.6652C45.9212 13.8381 45.8242 14.0725 45.8237 14.3171V18.3427C45.8237 18.5874 45.9206 18.8221 46.0931 18.9951C46.2656 19.1681 46.4996 19.2653 46.7436 19.2653C46.9875 19.2653 47.2215 19.1681 47.394 18.9951C47.5665 18.8221 47.6634 18.5874 47.6634 18.3427V14.3171C47.663 14.0725 47.5659 13.8381 47.3935 13.6652C47.2211 13.4923 46.9874 13.395 46.7436 13.3945Z" fill="white" style="fill:white;fill:white;fill-opacity:1;"/>
<path d="M65.1118 18.8479C64.8526 18.6533 64.5883 18.4638 64.3224 18.2793C64.1628 18.2689 64.0033 18.3004 63.8596 18.3707C63.7159 18.441 63.593 18.5477 63.5029 18.6802L61.2435 22.0064C61.1062 22.2086 61.0546 22.4572 61.1001 22.6975C61.1456 22.9378 61.2844 23.1502 61.486 23.2879C61.6876 23.4256 61.9355 23.4773 62.1751 23.4317C62.4147 23.3861 62.6264 23.2469 62.7637 23.0447L65.0231 19.7185C65.1091 19.5923 65.1623 19.4465 65.1777 19.2945C65.1932 19.1424 65.1705 18.9889 65.1118 18.8479Z" fill="white" style="fill:white;fill:white;fill-opacity:1;"/>
<path d="M75.3769 34.0121C75.3314 33.8999 75.2644 33.7978 75.1797 33.7117C75.0949 33.6255 74.994 33.557 74.8828 33.5099C74.7716 33.4629 74.6522 33.4383 74.5316 33.4375C74.4109 33.4368 74.2912 33.4599 74.1794 33.5055L70.46 35.0201C70.2342 35.1124 70.0542 35.2908 69.9595 35.5161C69.8647 35.7413 69.8631 35.9951 69.9548 36.2217C70.0466 36.4482 70.2243 36.6289 70.4488 36.7241C70.6734 36.8193 70.9264 36.8212 71.1524 36.7294L74.8718 35.2147C75.0975 35.122 75.2773 34.9434 75.372 34.718C75.4666 34.4926 75.4684 34.2388 75.3769 34.0121Z" fill="white" style="fill:white;fill:white;fill-opacity:1;"/>
<path d="M32.0767 22.0064L29.8172 18.6802C29.7272 18.5477 29.6043 18.441 29.4605 18.3707C29.3168 18.3004 29.1573 18.2689 28.9978 18.2793C28.7318 18.4638 28.4676 18.6533 28.2084 18.8479C28.1496 18.9889 28.1269 19.1424 28.1424 19.2945C28.1579 19.4465 28.211 19.5923 28.297 19.7185L30.5564 23.0447C30.6937 23.2469 30.9055 23.3861 31.1451 23.4317C31.3847 23.4773 31.6326 23.4256 31.8342 23.2879C32.0358 23.1502 32.1746 22.9378 32.22 22.6975C32.2655 22.4572 32.2139 22.2086 32.0767 22.0064Z" fill="white" style="fill:white;fill:white;fill-opacity:1;"/>
<path d="M22.8597 35.0199L19.1403 33.5053C18.9143 33.4132 18.6611 33.415 18.4364 33.5102C18.2118 33.6053 18.034 33.7861 17.9422 34.0127C17.8503 34.2394 17.8521 34.4933 17.9469 34.7187C18.0417 34.944 18.222 35.1224 18.4479 35.2145L22.1673 36.7291C22.3933 36.821 22.6463 36.8191 22.8709 36.7239C23.0954 36.6287 23.2731 36.4479 23.3649 36.2214C23.4566 35.9949 23.455 35.7411 23.3602 35.5158C23.2655 35.2905 23.0855 35.1122 22.8597 35.0199Z" fill="white" style="fill:white;fill:white;fill-opacity:1;"/>
<path d="M46.7436 68.2461C46.4997 68.2465 46.266 68.3439 46.0936 68.5168C45.9212 68.6897 45.8242 68.9241 45.8237 69.1686V73.1943C45.8237 73.439 45.9206 73.6736 46.0931 73.8466C46.2656 74.0196 46.4996 74.1168 46.7436 74.1168C46.9875 74.1168 47.2215 74.0196 47.394 73.8466C47.5665 73.6736 47.6634 73.439 47.6634 73.1943V69.1686C47.663 68.9241 47.5659 68.6897 47.3935 68.5168C47.2211 68.3439 46.9874 68.2465 46.7436 68.2461Z" fill="white" style="fill:white;fill:white;fill-opacity:1;"/>
<path d="M65.0231 67.7958L62.7637 64.4696C62.6957 64.3695 62.6088 64.2838 62.5078 64.2174C62.4068 64.151 62.2937 64.1052 62.1751 64.0826C62.0564 64.06 61.9345 64.0611 61.8163 64.0857C61.698 64.1104 61.5858 64.1582 61.486 64.2264C61.3862 64.2946 61.3007 64.3818 61.2345 64.4831C61.1683 64.5844 61.1226 64.6978 61.1001 64.8168C61.0776 64.9358 61.0787 65.058 61.1033 65.1766C61.1279 65.2952 61.1755 65.4078 61.2435 65.5079L63.5029 68.8341C63.593 68.9666 63.7159 69.0733 63.8596 69.1436C64.0033 69.2139 64.1628 69.2454 64.3224 69.235C64.5883 69.0505 64.8526 68.8609 65.1118 68.6663C65.1705 68.5253 65.1932 68.3718 65.1777 68.2198C65.1623 68.0677 65.1091 67.922 65.0231 67.7958Z" fill="white" style="fill:white;fill:white;fill-opacity:1;"/>
<path d="M74.8719 52.2973L71.1525 50.7826C70.9265 50.6906 70.6733 50.6923 70.4487 50.7875C70.224 50.8827 70.0462 51.0634 69.9544 51.2901C69.8626 51.5167 69.8643 51.7706 69.9591 51.996C70.0539 52.2214 70.2342 52.3997 70.4601 52.4918L74.1796 54.0065C74.4055 54.0983 74.6585 54.0964 74.8831 54.0012C75.1076 53.906 75.2853 53.7253 75.3771 53.4988C75.4688 53.2722 75.4672 53.0185 75.3724 52.7932C75.2777 52.5679 75.0977 52.3895 74.8719 52.2973Z" fill="white" style="fill:white;fill:white;fill-opacity:1;"/>
<path d="M31.8342 64.2263C31.6326 64.0887 31.3847 64.037 31.1451 64.0826C30.9055 64.1282 30.6938 64.2674 30.5565 64.4695L28.297 67.7957C28.211 67.9219 28.1579 68.0676 28.1424 68.2197C28.1269 68.3717 28.1496 68.5252 28.2084 68.6663C28.4676 68.8608 28.7318 69.0504 28.9978 69.2349C29.1573 69.2453 29.3168 69.2138 29.4605 69.1435C29.6043 69.0732 29.7272 68.9665 29.8172 68.834L32.0767 65.5078C32.1447 65.4077 32.1923 65.2951 32.2169 65.1765C32.2415 65.058 32.2426 64.9357 32.2201 64.8167C32.1976 64.6977 32.1519 64.5843 32.0857 64.483C32.0195 64.3817 31.934 64.2945 31.8342 64.2263Z" fill="white" style="fill:white;fill:white;fill-opacity:1;"/>
<path d="M23.3652 51.2894C23.3197 51.1773 23.2527 51.0752 23.1679 50.989C23.0832 50.9029 22.9823 50.8343 22.8711 50.7873C22.7599 50.7402 22.6405 50.7156 22.5198 50.7149C22.3991 50.7141 22.2795 50.7372 22.1677 50.7828L18.4483 52.2975C18.2225 52.3897 18.0425 52.5681 17.9477 52.7934C17.853 53.0187 17.8514 53.2725 17.9431 53.499C18.0349 53.7255 18.2126 53.9062 18.4371 54.0014C18.6617 54.0966 18.9147 54.0985 19.1406 54.0067L22.8601 52.4921C23.0857 52.3994 23.2656 52.2208 23.3603 51.9954C23.4549 51.7699 23.4567 51.5161 23.3652 51.2894Z" fill="white" style="fill:white;fill:white;fill-opacity:1;"/>
<path d="M47.9372 43.3005C48.0221 43.8048 47.9041 44.3222 47.6091 44.7394C47.3142 45.1565 46.8662 45.4393 46.3636 45.5256L30.0412 48.3102C29.7922 48.3527 29.5373 48.3456 29.2911 48.2892C29.0448 48.2329 28.812 48.1285 28.606 47.982C28.4 47.8354 28.2248 47.6496 28.0904 47.4351C27.956 47.2207 27.865 46.9818 27.8226 46.732C27.7803 46.4823 27.7874 46.2267 27.8436 45.9797C27.8997 45.7327 28.0038 45.4992 28.1499 45.2926C28.296 45.086 28.4813 44.9103 28.6951 44.7755C28.909 44.6407 29.1472 44.5494 29.3962 44.5069L45.7186 41.7223C46.2214 41.6371 46.7374 41.7554 47.1533 42.0513C47.5692 42.3472 47.8511 42.7964 47.9372 43.3005Z" fill="#3F3D56" style="fill:#3F3D56;fill:color(display-p3 0.2471 0.2392 0.3373);fill-opacity:1;"/>
<path d="M65.1162 61.4364C64.8817 61.6729 64.5632 61.8065 64.2307 61.8078C63.8981 61.8091 63.5786 61.6781 63.3423 61.4434L45.7714 43.9588C45.5356 43.7238 45.4025 43.4044 45.4014 43.071C45.4002 42.7375 45.5311 42.4173 45.7653 42.1806C45.9994 41.9439 46.3177 41.8101 46.6502 41.8086C46.9826 41.8071 47.3021 41.9381 47.5383 42.1727L65.1092 59.6573C65.345 59.8925 65.4782 60.2119 65.4795 60.5454C65.4808 60.879 65.3501 61.1994 65.1162 61.4364Z" fill="#3F3D56" style="fill:#3F3D56;fill:color(display-p3 0.2471 0.2392 0.3373);fill-opacity:1;"/>
<path d="M46.66 45.9353C47.8607 45.9353 48.8341 44.9591 48.8341 43.7548C48.8341 42.5505 47.8607 41.5742 46.66 41.5742C45.4592 41.5742 44.4858 42.5505 44.4858 43.7548C44.4858 44.9591 45.4592 45.9353 46.66 45.9353Z" fill="#CCCCCC" style="fill:#CCCCCC;fill:color(display-p3 0.8000 0.8000 0.8000);fill-opacity:1;"/>
<path d="M31.6846 5.94453C28.3474 11.2068 23.2554 14.6991 16.9758 16.9933C16.8517 17.0866 16.7105 17.1543 16.5603 17.1928C16.4101 17.2313 16.2538 17.2398 16.1004 17.2177C15.9469 17.1956 15.7993 17.1434 15.6659 17.0641C15.5326 16.9848 15.4161 16.8799 15.3232 16.7554C11.9121 12.1876 12.6824 5.6592 17.1842 2.16883C18.2726 1.32644 19.517 0.709287 20.8451 0.353188C22.1733 -0.00291089 23.5587 -0.0908592 24.921 0.0944514C26.2834 0.279762 27.5954 0.734639 28.781 1.43267C29.9666 2.13071 31.0021 3.058 31.8275 4.16071L31.9219 4.28705C32.0148 4.4115 32.0824 4.5531 32.1207 4.70375C32.1591 4.8544 32.1675 5.01115 32.1455 5.16506C32.1235 5.31898 32.0714 5.46703 31.9924 5.60077C31.9133 5.73451 31.8087 5.85132 31.6846 5.94453Z" fill="#E6E6E6" style="fill:#E6E6E6;fill:color(display-p3 0.9020 0.9020 0.9020);fill-opacity:1;"/>
<path d="M61.4926 4.16071C62.3179 3.058 63.3535 2.13071 64.5391 1.43267C65.7247 0.734637 67.0367 0.279763 68.399 0.0944521C69.7613 -0.0908585 71.1468 -0.00291273 72.4749 0.353186C73.8031 0.709285 75.0475 1.32644 76.1359 2.16883C80.6377 5.6592 81.4079 12.1876 77.9969 16.7554C77.904 16.8799 77.7875 16.9848 77.6542 17.0641C77.5208 17.1434 77.3732 17.1956 77.2197 17.2177C77.0663 17.2398 76.91 17.2313 76.7598 17.1928C76.6096 17.1543 76.4684 17.0866 76.3443 16.9933C70.5147 14.7549 65.7341 10.8812 61.6354 5.94453C61.3848 5.75628 61.2191 5.4759 61.1746 5.16506C61.1301 4.85422 61.2105 4.53839 61.3982 4.28704L61.4926 4.16071Z" fill="#E6E6E6" style="fill:#E6E6E6;fill:color(display-p3 0.9020 0.9020 0.9020);fill-opacity:1;"/>
<path d="M60.0296 74.9997C59.8171 75.1195 59.6605 75.3189 59.5942 75.5543C59.528 75.7896 59.5574 76.0417 59.6761 76.2553L64.9847 85.7697C65.1038 85.9831 65.3027 86.1404 65.5374 86.2069C65.7721 86.2733 66.0236 86.2435 66.2365 86.1241C66.4493 86.0046 66.6061 85.8052 66.6724 85.5698C66.7388 85.3344 66.7091 85.0822 66.5901 84.8687L61.2815 75.3543C61.1621 75.1411 60.9632 74.984 60.7286 74.9176C60.494 74.8511 60.2426 74.8807 60.0296 74.9997Z" fill="#E6E6E6" style="fill:#E6E6E6;fill:color(display-p3 0.9020 0.9020 0.9020);fill-opacity:1;"/>
<path d="M32.0384 75.355L26.7298 84.8694C26.6108 85.0829 26.5811 85.3351 26.6474 85.5706C26.7138 85.806 26.8706 86.0054 27.0834 86.1248C27.2963 86.2443 27.5477 86.2741 27.7825 86.2076C28.0172 86.1412 28.216 85.9839 28.3352 85.7705L33.6438 76.2561C33.7028 76.1503 33.7405 76.034 33.7546 75.9136C33.7688 75.7933 33.7592 75.6714 33.7264 75.5548C33.6936 75.4381 33.6382 75.3292 33.5634 75.234C33.4886 75.1389 33.3958 75.0595 33.2904 75.0003C33.1849 74.9411 33.0689 74.9034 32.9489 74.8892C32.829 74.875 32.7074 74.8846 32.5911 74.9176C32.4748 74.9505 32.3662 75.0061 32.2714 75.0812C32.1765 75.1562 32.0973 75.2493 32.0384 75.355Z" fill="#E6E6E6" style="fill:#E6E6E6;fill:color(display-p3 0.9020 0.9020 0.9020);fill-opacity:1;"/>
<path d="M66.0599 88.2069C67.6301 88.2069 68.903 86.9303 68.903 85.3554C68.903 83.7806 67.6301 82.5039 66.0599 82.5039C64.4897 82.5039 63.2168 83.7806 63.2168 85.3554C63.2168 86.9303 64.4897 88.2069 66.0599 88.2069Z" fill="#E6E6E6" style="fill:#E6E6E6;fill:color(display-p3 0.9020 0.9020 0.9020);fill-opacity:1;"/>
<path d="M68.0667 15.2421C69.6369 15.2421 70.9098 13.9654 70.9098 12.3906C70.9098 10.8157 69.6369 9.53906 68.0667 9.53906C66.4965 9.53906 65.2236 10.8157 65.2236 12.3906C65.2236 13.9654 66.4965 15.2421 68.0667 15.2421Z" fill="#E6E6E6" style="fill:#E6E6E6;fill:color(display-p3 0.9020 0.9020 0.9020);fill-opacity:1;"/>
<path d="M46.4925 8.53114C48.0627 8.53114 49.3356 7.25447 49.3356 5.67963C49.3356 4.10479 48.0627 2.82812 46.4925 2.82812C44.9223 2.82812 43.6494 4.10479 43.6494 5.67963C43.6494 7.25447 44.9223 8.53114 46.4925 8.53114Z" fill="#E6E6E6" style="fill:#E6E6E6;fill:color(display-p3 0.9020 0.9020 0.9020);fill-opacity:1;"/>
<path d="M25.9222 14.9061C27.4924 14.9061 28.7653 13.6295 28.7653 12.0546C28.7653 10.4798 27.4924 9.20312 25.9222 9.20312C24.352 9.20312 23.0791 10.4798 23.0791 12.0546C23.0791 13.6295 24.352 14.9061 25.9222 14.9061Z" fill="#E6E6E6" style="fill:#E6E6E6;fill:color(display-p3 0.9020 0.9020 0.9020);fill-opacity:1;"/>
<path d="M27.7616 88.2069C29.3318 88.2069 30.6047 86.9303 30.6047 85.3554C30.6047 83.7806 29.3318 82.5039 27.7616 82.5039C26.1914 82.5039 24.9185 83.7806 24.9185 85.3554C24.9185 86.9303 26.1914 88.2069 27.7616 88.2069Z" fill="#E6E6E6" style="fill:#E6E6E6;fill:color(display-p3 0.9020 0.9020 0.9020);fill-opacity:1;"/>
<path d="M63.8297 59.8342C63.9418 60.0103 64.091 60.1595 64.2668 60.2714C64.4426 60.3833 64.6407 60.4552 64.8472 60.482C65.0537 60.5088 65.2635 60.4899 65.4619 60.4266C65.6604 60.3633 65.8425 60.2571 65.9956 60.1155L70.4568 62.513L70.2176 59.8861L66.0178 58.0121C65.7636 57.7699 65.4297 57.6297 65.0794 57.618C64.729 57.6063 64.3865 57.7238 64.1168 57.9484C63.8471 58.173 63.6689 58.4891 63.616 58.8366C63.5631 59.1842 63.6391 59.5392 63.8297 59.8342Z" fill="#FFB7B7" style="fill:#FFB7B7;fill:color(display-p3 1.0000 0.7176 0.7176);fill-opacity:1;"/>
<path d="M67.0806 60.7485L68.8288 58.3281L77.2511 62.3213L87.7316 60.349C88.2496 60.2516 88.7827 60.2697 89.293 60.4021C89.8033 60.5345 90.2783 60.7779 90.6842 61.1151C91.0902 61.4523 91.4171 61.875 91.6418 62.3532C91.8666 62.8314 91.9836 63.3533 91.9846 63.882C91.9853 64.8368 91.6083 65.753 90.9364 66.4294C90.2645 67.1058 89.3524 67.4873 88.4004 67.4901L76.3897 67.5124L67.0806 60.7485Z" fill="#3F3D56" style="fill:#3F3D56;fill:color(display-p3 0.2471 0.2392 0.3373);fill-opacity:1;"/>
<path d="M64.3881 102.553L62.6191 101.704L65.049 94.2891L67.6595 95.5414L64.3881 102.553Z" fill="#FFB7B7" style="fill:#FFB7B7;fill:color(display-p3 1.0000 0.7176 0.7176);fill-opacity:1;"/>
<path d="M76.246 101.358C76.1174 101.439 75.9888 101.519 75.8588 101.598C75.6003 101.757 75.3391 101.913 75.078 102.067C74.9468 102.144 74.8142 102.221 74.683 102.297V102.3L74.6752 102.302L74.6726 102.303L74.4725 102.353L74.1854 101.592L74.0529 101.241L73.8658 100.745L73.5228 99.8363L71.7168 95.0539L74.5245 94.3594L74.6297 94.7907H74.631L74.683 95.0044L75.6639 98.9945L75.864 99.8102L75.8705 99.835L75.9913 100.322L76.0953 100.745L76.2109 101.216L76.246 101.358Z" fill="#FFB7B7" style="fill:#FFB7B7;fill:color(display-p3 1.0000 0.7176 0.7176);fill-opacity:1;"/>
<path d="M92.995 84.5652C92.817 84.8519 92.6351 85.1373 92.4519 85.42C92.1115 85.9465 91.762 86.4651 91.4034 86.9759C91.4034 86.9772 91.4021 86.9772 91.4008 86.9785C91.1916 87.1729 90.9605 87.3422 90.7122 87.4828C90.7018 87.4907 90.6901 87.4959 90.6797 87.5024C90.4969 87.6038 90.3023 87.6821 90.1003 87.7356C90.0275 87.7539 89.9535 87.7721 89.8807 87.7904C89.6183 87.8529 89.3584 87.9063 89.0998 87.9533C88.6399 88.0354 88.1852 88.094 87.733 88.1305C87.6967 88.1344 87.6603 88.137 87.6239 88.1396C85.7647 88.2764 83.9548 88.0562 82.0657 87.6952C81.1328 87.518 80.1805 87.3056 79.1943 87.0854C78.8721 87.0124 78.5486 86.9407 78.2212 86.8691C78.1965 86.8639 78.1705 86.8574 78.1445 86.8521C77.6768 86.7492 77.2013 86.6476 76.7141 86.5472C76.1008 86.4208 75.4681 86.2983 74.8107 86.1823L74.8574 87.1115C74.8964 87.8262 75.0445 88.5307 75.2966 89.2003C75.5772 90.0239 75.7994 90.6754 75.3304 92.0319L75.1043 92.6887C75.2215 93.0148 75.2617 93.3638 75.2218 93.7081C75.1819 94.0524 75.063 94.3828 74.8743 94.6733L74.8288 94.7424L76.7141 99.526L76.8362 99.8362H75.8708L74.6833 99.8375H72.6708L69.767 93.9944L69.6279 93.7155V93.7012L69.9281 82.4724C69.932 82.3734 69.9398 82.2731 69.9527 82.174C70.0057 81.7238 70.1475 81.2887 70.3699 80.894C70.5923 80.4994 70.8908 80.1531 71.2481 79.8754C71.5905 79.607 71.9826 79.4096 72.4017 79.2946C72.8208 79.1797 73.2585 79.1494 73.6894 79.2056L74.6833 79.3346L76.7141 79.5978L78.1445 79.7842L78.1731 79.7881L82.3918 80.3354L82.6945 79.0974L82.7504 79.0766L84.5265 78.4237L90.6693 76.1655L90.6849 76.1603L91.089 76.0117L91.1371 76.0899C91.1514 76.1134 91.1657 76.1368 91.1787 76.1603C91.578 76.8784 91.9032 77.6355 92.1492 78.4198C92.5628 79.7012 92.9033 81.0051 93.1691 82.3252C93.1808 82.3825 93.1912 82.4347 93.2003 82.4816L93.2042 82.4959C93.2081 82.5181 93.2107 82.5324 93.212 82.5363C93.3536 83.1279 93.2549 83.8498 92.995 84.5652Z" fill="#2F2E41" style="fill:#2F2E41;fill:color(display-p3 0.1843 0.1804 0.2549);fill-opacity:1;"/>
<path d="M93.2542 80.4241C93.2348 80.3407 93.2101 80.2559 93.1841 80.1738C92.9778 79.5521 92.7375 78.9422 92.4643 78.3469C92.1577 77.6693 91.79 76.9435 91.3521 76.1577C91.1404 75.7772 90.9126 75.3815 90.6687 74.9706C90.5466 74.7647 90.4197 74.5549 90.2881 74.3412C90.2829 74.3314 90.2773 74.3218 90.2712 74.3125L90.2335 74.25L84.1556 75.0657L81.8923 75.3694L81.7572 76.5004L81.7247 76.7806C81.7234 76.7806 81.7234 76.7806 81.7247 76.7819L81.6337 77.5455V77.5468L81.5129 78.5554L81.5025 78.5541L78.1439 78.1176L74.6827 77.668L72.8235 77.427C72.3926 77.3706 71.9549 77.4008 71.5357 77.5158C71.1166 77.6308 70.7245 77.8283 70.3822 78.0967C70.025 78.3745 69.7265 78.7208 69.5041 79.1154C69.2817 79.5101 69.1399 79.9452 69.0868 80.3954C69.0751 80.4866 69.0673 80.5804 69.0634 80.673L67.3095 84.8415C66.2599 87.3346 65.5915 89.9722 65.3268 92.6653L64.0405 96.7896L64.2237 96.8065L66.9496 97.0606L67.6693 97.1284L69.2544 94.8076C69.435 94.5431 69.6065 94.2707 69.7663 93.9919C70.0294 93.5364 70.2634 93.0646 70.4666 92.5793L73.8954 84.3959C74.1604 84.4415 74.4229 84.485 74.6827 84.5262C75.8845 84.7217 77.0383 84.8811 78.1439 85.0044C81.739 85.4071 84.852 85.4384 87.6233 85.097C88.4015 85.0018 89.1538 84.8767 89.8801 84.7217C90.1464 84.6656 90.4093 84.6053 90.6687 84.5405C90.7298 84.5262 90.7896 84.5119 90.8493 84.4962C91.3863 84.3573 91.8799 84.0856 92.2851 83.7059C92.6903 83.3261 92.994 82.8506 93.1685 82.3227C93.3768 81.7109 93.4066 81.0522 93.2542 80.4241Z" fill="#2F2E41" style="fill:#2F2E41;fill:color(display-p3 0.1843 0.1804 0.2549);fill-opacity:1;"/>
<path d="M64.9529 101.342L63.0391 100.422L62.739 100.277L62.2595 101.458L58.9127 102.197C58.7472 102.233 58.5976 102.322 58.4859 102.449C58.3741 102.577 58.306 102.737 58.2915 102.907C58.277 103.076 58.3168 103.245 58.4052 103.39C58.4936 103.535 58.6259 103.648 58.7827 103.712L62.053 105.051L63.0911 104.114L62.8364 105.371L64.0681 105.875L65.418 101.566L64.9529 101.342Z" fill="#2F2E41" style="fill:#2F2E41;fill:color(display-p3 0.1843 0.1804 0.2549);fill-opacity:1;"/>
<path d="M76.7139 99.5234L76.8361 99.8336H76.7139V99.5234Z" fill="#2F2E41" style="fill:#2F2E41;fill:color(display-p3 0.1843 0.1804 0.2549);fill-opacity:1;"/>
<path d="M76.0474 99.9033L74.0421 100.6L73.7273 100.709L74.2149 101.886L72.355 104.773C72.263 104.916 72.2188 105.084 72.229 105.254C72.2391 105.424 72.3031 105.586 72.4116 105.716C72.52 105.847 72.6673 105.939 72.8318 105.98C72.9963 106.02 73.1694 106.007 73.3259 105.942L76.5885 104.585L76.6689 103.187L77.3701 104.26L78.5991 103.749L76.5351 99.7344L76.0474 99.9033Z" fill="#2F2E41" style="fill:#2F2E41;fill:color(display-p3 0.1843 0.1804 0.2549);fill-opacity:1;"/>
<path d="M92.7545 82.3131C92.6354 82.3129 92.5182 82.2837 92.4128 82.2281L81.8307 76.6823L81.7085 76.1803L81.478 74.5915L81.4812 74.5766L82.4876 69.9231C82.4691 69.8831 82.4306 69.8176 82.3871 69.7436C81.9378 68.9801 80.5704 66.6564 83.18 63.4568L87.7617 58.0994L91.694 57.9297L91.7387 57.9864C92.7902 59.31 93.4993 60.8737 93.803 62.5384C94.1068 64.2031 93.9957 65.9173 93.4797 67.5286L93.0703 74.9453L93.5095 76.4432C93.7662 77.3234 93.7237 78.2642 93.3888 79.1176L93.4894 81.5429C93.4934 81.6423 93.4773 81.7415 93.4421 81.8345C93.407 81.9276 93.3536 82.0126 93.285 82.0845C93.2164 82.1563 93.1341 82.2136 93.0429 82.2529C92.9518 82.2922 92.8537 82.3127 92.7545 82.3131Z" fill="#3F3D56" style="fill:#3F3D56;fill:color(display-p3 0.2471 0.2392 0.3373);fill-opacity:1;"/>
<path d="M83.575 88.4323C83.7543 88.3261 83.9081 88.1817 84.0258 88.0094C84.1434 87.8371 84.222 87.641 84.2559 87.435C84.2898 87.2289 84.2782 87.0179 84.222 86.8169C84.1658 86.6158 84.0663 86.4295 83.9306 86.2712L86.4748 81.8828L83.8488 82.0313L81.8354 86.1757C81.5853 86.4221 81.4339 86.7519 81.4101 87.1027C81.3862 87.4534 81.4914 87.8008 81.7059 88.079C81.9203 88.3571 82.229 88.5467 82.5735 88.6118C82.918 88.677 83.2743 88.6131 83.575 88.4323Z" fill="#FFB7B7" style="fill:#FFB7B7;fill:color(display-p3 1.0000 0.7176 0.7176);fill-opacity:1;"/>
<path d="M84.6019 85.2031L82.251 83.3666L86.523 75.0634L84.9222 64.4897C84.8431 63.967 84.8797 63.4333 85.0294 62.9264C85.1791 62.4195 85.4382 61.9519 85.7883 61.5568C86.1384 61.1616 86.571 60.8486 87.0553 60.64C87.5396 60.4314 88.0638 60.3322 88.5906 60.3496C89.542 60.3821 90.4418 60.7918 91.0925 61.4888C91.7431 62.1859 92.0915 63.1133 92.0612 64.0677L91.6657 76.1073L84.6019 85.2031Z" fill="#3F3D56" style="fill:#3F3D56;fill:color(display-p3 0.2471 0.2392 0.3373);fill-opacity:1;"/>
<path d="M85.2393 55.8738V51.9711C85.2384 50.5842 85.7869 49.2537 86.7641 48.2723C87.7413 47.291 89.0671 46.7392 90.45 46.7383C91.8329 46.7374 93.1594 47.2875 94.1379 48.2676C95.1164 49.2477 95.6666 50.5775 95.6674 51.9644V51.9711C96.5864 53.8918 96.0115 54.805 95.6674 55.8738C95.6671 56.0599 95.5933 56.2384 95.462 56.37C95.3308 56.5016 95.1529 56.5757 94.9674 56.576H85.9397C85.754 56.5758 85.5761 56.5017 85.4448 56.3701C85.3135 56.2385 85.2396 56.06 85.2393 55.8738Z" fill="#2F2E41" style="fill:#2F2E41;fill:color(display-p3 0.1843 0.1804 0.2549);fill-opacity:1;"/>
<path d="M88.7438 56.3211C90.8993 56.3211 92.6467 54.5686 92.6467 52.4067C92.6467 50.2448 90.8993 48.4922 88.7438 48.4922C86.5882 48.4922 84.8408 50.2448 84.8408 52.4067C84.8408 54.5686 86.5882 56.3211 88.7438 56.3211Z" fill="#FFB7B7" style="fill:#FFB7B7;fill:color(display-p3 1.0000 0.7176 0.7176);fill-opacity:1;"/>
<path d="M92.8279 53.4343C92.7926 53.4287 92.7572 53.4212 92.7218 53.4156C92.113 53.3073 91.5042 53.2009 90.8973 53.0907L90.8414 51.7108L90.106 52.9469C88.4286 53.5052 86.8591 53.1897 85.3827 52.4932C84.8957 52.2613 84.4232 52 83.9678 51.7108C84.0918 50.9476 84.3844 50.2219 84.8241 49.5867C85.2638 48.9516 85.8395 48.423 86.5091 48.0397C86.565 48.008 86.6189 47.98 86.6748 47.952L86.6755 47.9518L86.6761 47.9514L86.6765 47.9508L86.6766 47.9501C86.7716 47.9053 86.8684 47.8623 86.9652 47.8231C87.7232 47.5261 88.5496 47.4508 89.3485 47.6062C90.1473 47.7615 90.8859 48.1411 91.4782 48.7007C92.6697 49.8417 93.2059 51.7257 92.8279 53.4343Z" fill="#2F2E41" style="fill:#2F2E41;fill:color(display-p3 0.1843 0.1804 0.2549);fill-opacity:1;"/>
</g>
<defs>
<clipPath id="clip0_22883_14860">
<rect width="113" height="106" fill="white" style="fill:white;fill:white;fill-opacity:1;"/>
</clipPath>
</defs>
</svg>
