<svg width="207" height="137" viewBox="0 0 207 137" fill="none" xmlns="http://www.w3.org/2000/svg">
<path d="M9.59492 125.353C10.4639 125.658 11.3969 125.735 12.3041 125.575C13.2113 125.415 14.062 125.025 14.7743 124.441C16.5884 122.92 17.1573 120.413 17.6199 118.092L18.9888 111.227L16.123 113.198C14.062 114.617 11.9547 116.08 10.5277 118.134C9.10084 120.188 8.47833 122.992 9.62446 125.215" fill="#E6E6E6" style="fill:#E6E6E6;fill:color(display-p3 0.9020 0.9020 0.9020);fill-opacity:1;"/>
<path d="M10.0383 134.147C9.67764 131.521 9.30652 128.861 9.56014 126.207C9.7849 123.849 10.5046 121.547 11.9697 119.659C12.7475 118.659 13.6938 117.802 14.7662 117.127C15.0457 116.95 15.3031 117.393 15.0247 117.569C13.1692 118.741 11.7339 120.471 10.9259 122.511C10.0336 124.779 9.89027 127.251 10.044 129.661C10.1369 131.118 10.3343 132.565 10.5326 134.011C10.5482 134.076 10.5385 134.145 10.5052 134.203C10.472 134.262 10.4178 134.306 10.3536 134.326C10.2881 134.343 10.2183 134.334 10.1593 134.301C10.1003 134.267 10.0569 134.212 10.0385 134.147L10.0383 134.147Z" fill="#F2F2F2" style="fill:#F2F2F2;fill:color(display-p3 0.9490 0.9490 0.9490);fill-opacity:1;"/>
<path d="M12.6348 129.932C13.0074 130.498 13.5197 130.959 14.1223 131.27C14.7248 131.58 15.3974 131.731 16.0751 131.707C17.8171 131.624 19.2687 130.41 20.5754 129.256L24.4411 125.845L21.8828 125.723C20.0429 125.635 18.1556 125.552 16.4031 126.12C14.6507 126.688 13.0346 128.052 12.7142 129.864" fill="#E6E6E6" style="fill:#E6E6E6;fill:color(display-p3 0.9020 0.9020 0.9020);fill-opacity:1;"/>
<path d="M9.01807 135.655C10.7546 132.584 12.7687 129.172 16.3678 128.081C17.3684 127.779 18.4177 127.67 19.459 127.762C19.7873 127.79 19.7053 128.296 19.3777 128.268C17.6321 128.123 15.89 128.583 14.4444 129.572C13.0534 130.518 11.9703 131.834 11.0537 133.229C10.4921 134.083 9.98916 134.974 9.4862 135.863C9.32548 136.148 8.85549 135.942 9.01807 135.655Z" fill="#F2F2F2" style="fill:#F2F2F2;fill:color(display-p3 0.9490 0.9490 0.9490);fill-opacity:1;"/>
<path d="M130.213 70.832H54.0156V135.69H130.213V70.832Z" fill="white" style="fill:white;fill:white;fill-opacity:1;"/>
<path d="M130.436 135.91H53.7949V70.6094H130.436V135.91ZM54.2379 135.467H129.993V71.0521H54.2379V135.467Z" fill="#3F3D56" style="fill:#3F3D56;fill:color(display-p3 0.2471 0.2392 0.3373);fill-opacity:1;"/>
<path d="M101.639 83.4492H82.5898V135.69H101.639V83.4492Z" fill="#B5B9C5" style="fill:#B5B9C5;fill:color(display-p3 0.7098 0.7251 0.7708);fill-opacity:1;"/>
<path d="M101.639 83.4492H82.5898V135.69H101.639V83.4492Z" fill="#B5B9C5" style="fill:#B5B9C5;fill:color(display-p3 0.7098 0.7251 0.7708);fill-opacity:1;"/>
<path opacity="0.2" d="M54.2383 75.5898V86.1127L130.215 90.9742L129.991 77.9898L54.2383 75.5898Z" fill="black" style="fill:black;fill:black;fill-opacity:1;"/>
<path d="M134.644 64.8555H49.5859V83.4495H134.644V64.8555Z" fill="white" style="fill:white;fill:white;fill-opacity:1;"/>
<path d="M134.866 83.6695H49.3652V64.6328H134.866V83.6695ZM49.8082 83.2268H134.423V65.0755H49.8082V83.2268Z" fill="#3F3D56" style="fill:#3F3D56;fill:color(display-p3 0.2471 0.2392 0.3373);fill-opacity:1;"/>
<path d="M101.639 63.0859H82.5898V83.2295H101.639V63.0859Z" fill="#B5B9C5" style="fill:#B5B9C5;fill:color(display-p3 0.7098 0.7251 0.7708);fill-opacity:1;"/>
<path d="M90.0759 45.5222C95.1044 52.9712 90.3666 64.9519 90.3666 64.9519C90.3666 64.9519 77.4761 64.8553 72.4476 57.4063C67.4191 49.9573 72.1569 37.9766 72.1569 37.9766C72.1569 37.9766 85.0474 38.0731 90.0759 45.5222Z" fill="#B5B9C5" style="fill:#B5B9C5;fill:color(display-p3 0.7098 0.7251 0.7708);fill-opacity:1;"/>
<path d="M92.3831 45.5222C87.3547 52.9712 92.0924 64.9519 92.0924 64.9519C92.0924 64.9519 104.983 64.8553 110.011 57.4063C115.04 49.9573 110.302 37.9766 110.302 37.9766C110.302 37.9766 97.4116 38.0731 92.3831 45.5222Z" fill="#B5B9C5" style="fill:#B5B9C5;fill:color(display-p3 0.7098 0.7251 0.7708);fill-opacity:1;"/>
<path d="M78.8256 51.129C79.9266 51.129 80.8191 50.237 80.8191 49.1367C80.8191 48.0365 79.9266 47.1445 78.8256 47.1445C77.7246 47.1445 76.832 48.0365 76.832 49.1367C76.832 50.237 77.7246 51.129 78.8256 51.129Z" fill="#3F3D56" style="fill:#3F3D56;fill:color(display-p3 0.2471 0.2392 0.3373);fill-opacity:1;"/>
<path d="M90.7865 71.2735C91.8875 71.2735 92.7801 70.3815 92.7801 69.2813C92.7801 68.181 91.8875 67.2891 90.7865 67.2891C89.6855 67.2891 88.793 68.181 88.793 69.2813C88.793 70.3815 89.6855 71.2735 90.7865 71.2735Z" fill="#3F3D56" style="fill:#3F3D56;fill:color(display-p3 0.2471 0.2392 0.3373);fill-opacity:1;"/>
<path d="M90.7865 114.883C91.8875 114.883 92.7801 113.991 92.7801 112.891C92.7801 111.79 91.8875 110.898 90.7865 110.898C89.6855 110.898 88.793 111.79 88.793 112.891C88.793 113.991 89.6855 114.883 90.7865 114.883Z" fill="#3F3D56" style="fill:#3F3D56;fill:color(display-p3 0.2471 0.2392 0.3373);fill-opacity:1;"/>
<path d="M84.1415 57.7735C84.8755 57.7735 85.4706 57.1788 85.4706 56.4453C85.4706 55.7118 84.8755 55.1172 84.1415 55.1172C83.4075 55.1172 82.8125 55.7118 82.8125 56.4453C82.8125 57.1788 83.4075 57.7735 84.1415 57.7735Z" fill="#3F3D56" style="fill:#3F3D56;fill:color(display-p3 0.2471 0.2392 0.3373);fill-opacity:1;"/>
<path d="M104.077 46.4805C104.811 46.4805 105.406 45.8859 105.406 45.1524C105.406 44.4188 104.811 43.8242 104.077 43.8242C103.343 43.8242 102.748 44.4188 102.748 45.1524C102.748 45.8859 103.343 46.4805 104.077 46.4805Z" fill="#3F3D56" style="fill:#3F3D56;fill:color(display-p3 0.2471 0.2392 0.3373);fill-opacity:1;"/>
<path d="M95.4384 77.6954C96.1724 77.6954 96.7674 77.1007 96.7674 76.3672C96.7674 75.6337 96.1724 75.0391 95.4384 75.0391C94.7044 75.0391 94.1094 75.6337 94.1094 76.3672C94.1094 77.1007 94.7044 77.6954 95.4384 77.6954Z" fill="#3F3D56" style="fill:#3F3D56;fill:color(display-p3 0.2471 0.2392 0.3373);fill-opacity:1;"/>
<path d="M87.4638 94.961C88.1978 94.961 88.7928 94.3663 88.7928 93.6328C88.7928 92.8993 88.1978 92.3047 87.4638 92.3047C86.7298 92.3047 86.1348 92.8993 86.1348 93.6328C86.1348 94.3663 86.7298 94.961 87.4638 94.961Z" fill="#3F3D56" style="fill:#3F3D56;fill:color(display-p3 0.2471 0.2392 0.3373);fill-opacity:1;"/>
<path d="M94.331 100.938C95.065 100.938 95.66 100.343 95.66 99.6094C95.66 98.8759 95.065 98.2812 94.331 98.2812C93.597 98.2812 93.002 98.8759 93.002 99.6094C93.002 100.343 93.597 100.938 94.331 100.938Z" fill="#3F3D56" style="fill:#3F3D56;fill:color(display-p3 0.2471 0.2392 0.3373);fill-opacity:1;"/>
<path d="M92.7802 125.949C93.5142 125.949 94.1092 125.355 94.1092 124.621C94.1092 123.888 93.5142 123.293 92.7802 123.293C92.0462 123.293 91.4512 123.888 91.4512 124.621C91.4512 125.355 92.0462 125.949 92.7802 125.949Z" fill="#3F3D56" style="fill:#3F3D56;fill:color(display-p3 0.2471 0.2392 0.3373);fill-opacity:1;"/>
<path d="M174.743 133.244L172.313 133.244L171.156 123.875L174.744 123.875L174.743 133.244Z" fill="#FFB7B7" style="fill:#FFB7B7;fill:color(display-p3 1.0000 0.7176 0.7176);fill-opacity:1;"/>
<path d="M175.365 135.597L167.527 135.597V135.498C167.527 134.689 167.849 133.914 168.421 133.342C168.993 132.77 169.769 132.449 170.578 132.449L175.365 132.449L175.365 135.597Z" fill="#2F2E41" style="fill:#2F2E41;fill:color(display-p3 0.1843 0.1804 0.2549);fill-opacity:1;"/>
<path d="M180.68 133.244L183.111 133.244L184.267 123.875L180.68 123.875L180.68 133.244Z" fill="#FFB7B7" style="fill:#FFB7B7;fill:color(display-p3 1.0000 0.7176 0.7176);fill-opacity:1;"/>
<path d="M180.061 132.449L184.847 132.449C185.656 132.449 186.433 132.77 187.005 133.342C187.577 133.914 187.898 134.689 187.898 135.498V135.597L180.061 135.597L180.061 132.449Z" fill="#2F2E41" style="fill:#2F2E41;fill:color(display-p3 0.1843 0.1804 0.2549);fill-opacity:1;"/>
<path d="M174.205 60.0268C175.249 57.9269 174.392 55.3789 172.29 54.3356C170.189 53.2923 167.639 54.1488 166.595 56.2487C165.551 58.3485 166.408 60.8965 168.51 61.9398C170.611 62.9831 173.161 62.1266 174.205 60.0268Z" fill="#FFB7B7" style="fill:#FFB7B7;fill:color(display-p3 1.0000 0.7176 0.7176);fill-opacity:1;"/>
<path d="M167.271 87.3453C167.271 87.3453 165.929 92.9316 166.6 95.613C167.271 98.2944 169.283 116.617 169.283 116.617L170.625 131.142L175.991 131.588L175.32 114.606L175.991 99.8586L179.792 114.159V131.192L185.484 131.416L185.606 109.243C185.606 109.243 186.053 91.8143 183.146 89.5798C180.239 87.3453 179.792 86.8984 179.792 86.8984L167.271 87.3453Z" fill="#2F2E41" style="fill:#2F2E41;fill:color(display-p3 0.1843 0.1804 0.2549);fill-opacity:1;"/>
<path d="M175.373 62.7656L180.464 65.447L181.135 88.6858C181.135 88.6858 178.228 86.8982 173.756 89.1327C169.284 91.3672 166.377 89.8031 166.377 89.8031L169.06 79.7478L167.942 66.3408L169.541 64.8904L175.373 62.7656Z" fill="#CBCBCB" style="fill:#CBCBCB;fill:color(display-p3 0.7961 0.7961 0.7961);fill-opacity:1;"/>
<path d="M169.542 64.4673L168.613 65.2234C168.613 65.2234 162.8 68.1282 162.576 70.1393L166.601 81.0883C166.601 81.0883 167.719 83.5463 166.825 84.4401C165.93 85.3339 165.036 87.5684 165.259 88.6856C165.483 89.8029 163.918 94.4953 165.707 94.4953C167.495 94.4953 171.744 83.7697 171.52 79.5242C171.297 75.2786 171.142 64.158 169.542 64.4673Z" fill="#2F2E41" style="fill:#2F2E41;fill:color(display-p3 0.1843 0.1804 0.2549);fill-opacity:1;"/>
<path d="M173.45 63.0163L175.498 62.6758C175.498 62.6758 183.101 64.6868 184.219 68.0386L181.088 75.8593C181.088 75.8593 183.324 90.1601 182.653 90.1601H181.983C181.983 90.1601 183.771 91.5009 182.653 91.9478C181.535 92.3947 178.852 95.9699 178.181 94.4057C177.511 92.8416 173.486 74.2952 173.933 70.2731C174.38 66.251 173.053 63.4377 173.45 63.0163Z" fill="#2F2E41" style="fill:#2F2E41;fill:color(display-p3 0.1843 0.1804 0.2549);fill-opacity:1;"/>
<path d="M174.339 53.9812L174.538 53.5809L173.537 53.0838C173.537 53.0838 172.432 51.2879 170.434 51.7926C168.435 52.2973 167.536 52.5993 167.536 52.5993L166.537 53.1015L167.038 53.5999L166.139 53.902L166.74 54.2002L166.041 54.6017L166.417 56.6599C166.417 56.6599 167.042 55.0988 168.244 55.6954C169.445 56.2919 171.643 55.387 171.643 55.387L173.552 59.0796C173.552 59.0796 173.946 57.7852 174.648 58.1303C174.648 58.1303 176.442 55.2749 174.339 53.9812Z" fill="#2F2E41" style="fill:#2F2E41;fill:color(display-p3 0.1843 0.1804 0.2549);fill-opacity:1;"/>
<path d="M180.557 93.1915C180.446 92.9219 180.396 92.6315 180.411 92.3405C180.425 92.0496 180.502 91.7653 180.638 91.5076C180.774 91.2499 180.965 91.0251 181.197 90.8491C181.429 90.673 181.697 90.55 181.982 90.4886L182.843 83.4609L185.647 85.8446L184.4 92.1528C184.471 92.6379 184.362 93.1324 184.093 93.5425C183.824 93.9526 183.414 94.2499 182.94 94.3779C182.466 94.5059 181.962 94.4559 181.523 94.2372C181.084 94.0185 180.74 93.6465 180.557 93.1915Z" fill="#FFB7B7" style="fill:#FFB7B7;fill:color(display-p3 1.0000 0.7176 0.7176);fill-opacity:1;"/>
<path d="M168.562 92.7069C168.643 92.4272 168.662 92.1331 168.617 91.8453C168.572 91.5575 168.465 91.283 168.303 91.0411C168.14 90.7993 167.927 90.596 167.677 90.4455C167.427 90.2951 167.148 90.2011 166.858 90.1703L165.257 83.2734L162.721 85.9408L164.63 92.0813C164.611 92.5713 164.772 93.0514 165.083 93.4307C165.394 93.81 165.833 94.0621 166.318 94.1392C166.803 94.2163 167.299 94.1131 167.712 93.8491C168.126 93.5852 168.428 93.1787 168.562 92.7069Z" fill="#FFB7B7" style="fill:#FFB7B7;fill:color(display-p3 1.0000 0.7176 0.7176);fill-opacity:1;"/>
<path d="M180.666 66.2178C180.666 66.2178 183.573 65.1006 184.467 68.4523C185.362 71.8041 186.48 78.5076 186.48 78.5076C186.535 82.2352 186.337 82.2352 186.48 85.8815L185.809 89.2332L182.008 88.7863L182.173 80.2539L180.219 71.5806L180.666 66.2178Z" fill="#2F2E41" style="fill:#2F2E41;fill:color(display-p3 0.1843 0.1804 0.2549);fill-opacity:1;"/>
<path d="M164.588 68.7969L163.209 68.9442C163.209 68.9442 161.904 69.9141 161.904 72.1486C161.904 74.3831 161.681 81.0866 161.681 81.0866C161.681 81.0866 161.554 81.2435 162.575 86.8963C163.073 89.6516 163.933 90.9518 163.933 90.9518L166.709 88.3761L166.376 81.757L167.271 78.1818L164.588 68.7969Z" fill="#2F2E41" style="fill:#2F2E41;fill:color(display-p3 0.1843 0.1804 0.2549);fill-opacity:1;"/>
<path d="M206.278 135.911H0.721505C0.662758 135.911 0.606418 135.888 0.564877 135.847C0.523337 135.805 0.5 135.749 0.5 135.69C0.5 135.631 0.523337 135.575 0.564877 135.534C0.606418 135.492 0.662758 135.469 0.721505 135.469H206.278C206.337 135.469 206.394 135.492 206.435 135.534C206.477 135.575 206.5 135.631 206.5 135.69C206.5 135.749 206.477 135.805 206.435 135.847C206.394 135.888 206.337 135.911 206.278 135.911Z" fill="#3F3D56" style="fill:#3F3D56;fill:color(display-p3 0.2471 0.2392 0.3373);fill-opacity:1;"/>
<path d="M51.5902 70.1153C54.2849 70.1153 56.4695 67.9322 56.4695 65.2393C56.4695 62.5463 54.2849 60.3633 51.5902 60.3633C48.8955 60.3633 46.7109 62.5463 46.7109 65.2393C46.7109 67.9322 48.8955 70.1153 51.5902 70.1153Z" fill="#FFB8B8" style="fill:#FFB8B8;fill:color(display-p3 1.0000 0.7216 0.7216);fill-opacity:1;"/>
<path d="M49.8284 94.0923C49.767 94.0923 49.7052 94.0896 49.6432 94.0841C49.3364 94.0585 49.0384 93.9684 48.7688 93.8197C48.4992 93.671 48.2641 93.467 48.0789 93.2212C47.8936 92.9753 47.7625 92.6932 47.694 92.3931C47.6255 92.0931 47.6213 91.782 47.6815 91.4802C47.6957 91.4101 47.7136 91.3408 47.7351 91.2726L40.5337 82.7612C40.2991 82.4817 40.1609 82.134 40.1396 81.7698C40.1183 81.4055 40.2151 81.0441 40.4156 80.7393L40.4287 80.7234L46.9108 74.336C47.2647 73.9873 47.7427 73.7934 48.2396 73.7969C48.7366 73.8004 49.2118 74.0011 49.5607 74.3547C49.9096 74.7083 50.1036 75.186 50.1001 75.6826C50.0966 76.1792 49.8958 76.6541 49.542 77.0028C49.5338 77.0108 49.5256 77.0187 49.5174 77.0266L44.8226 81.4868L49.9622 89.7303C50.0595 89.7354 50.1564 89.7473 50.2521 89.766C50.7837 89.872 51.257 90.1717 51.5799 90.6068C51.9029 91.042 52.0525 91.5816 51.9997 92.1207C51.9469 92.6599 51.6954 93.1603 51.2942 93.5246C50.893 93.8889 50.3705 94.0912 49.8284 94.0923Z" fill="#FFB8B8" style="fill:#FFB8B8;fill:color(display-p3 1.0000 0.7216 0.7216);fill-opacity:1;"/>
<path d="M59.6254 133.099H62.0611L63.2196 123.711L59.625 123.711L59.6254 133.099Z" fill="#FFB8B8" style="fill:#FFB8B8;fill:color(display-p3 1.0000 0.7216 0.7216);fill-opacity:1;"/>
<path d="M59.0039 132.305L63.8003 132.305C64.6109 132.305 65.3886 132.626 65.9618 133.199C66.5351 133.772 66.8571 134.549 66.8571 135.359V135.459L59.004 135.459L59.0039 132.305Z" fill="#2F2E41" style="fill:#2F2E41;fill:color(display-p3 0.1843 0.1804 0.2549);fill-opacity:1;"/>
<path d="M35.418 129.734L37.5108 130.98L43.3124 123.506L40.224 121.668L35.418 129.734Z" fill="#FFB8B8" style="fill:#FFB8B8;fill:color(display-p3 1.0000 0.7216 0.7216);fill-opacity:1;"/>
<path d="M35.2923 128.734L39.4135 131.186C40.11 131.601 40.6135 132.275 40.8127 133.06C41.012 133.846 40.891 134.678 40.4762 135.374L40.4254 135.459L33.6777 131.444L35.2923 128.734Z" fill="#2F2E41" style="fill:#2F2E41;fill:color(display-p3 0.1843 0.1804 0.2549);fill-opacity:1;"/>
<path d="M62.6362 129.787H59.909C59.6881 129.788 59.475 129.706 59.3108 129.559C59.1466 129.411 59.043 129.208 59.0201 128.988L56.2706 103.161C56.2637 103.096 56.2355 103.035 56.1905 102.987C56.1455 102.94 56.0861 102.909 56.0215 102.898C55.9569 102.888 55.8907 102.899 55.833 102.93C55.7754 102.961 55.7296 103.01 55.7027 103.07L50.7426 114.045L41.961 128.355C41.8474 128.539 41.6714 128.675 41.4653 128.739C41.2593 128.804 41.0369 128.792 40.8389 128.706L37.3308 127.163C37.2148 127.112 37.111 127.037 37.0262 126.943C36.9415 126.849 36.8777 126.738 36.8392 126.617C36.8007 126.496 36.7882 126.369 36.8028 126.243C36.8173 126.117 36.8584 125.996 36.9234 125.887L44.996 112.379L47.4718 100.998C46.6932 96.0624 50.0313 88.7245 50.0652 88.6508L50.0817 88.615L59.2768 85.0234L59.3229 85.0799C62.9492 96.972 65.1589 109.77 63.5273 128.969C63.5072 129.191 63.4048 129.399 63.24 129.55C63.0753 129.701 62.86 129.786 62.6362 129.787Z" fill="#2F2E41" style="fill:#2F2E41;fill:color(display-p3 0.1843 0.1804 0.2549);fill-opacity:1;"/>
<path d="M49.7116 89.8156L49.6688 89.7256C49.6483 89.6826 47.6037 85.3732 46.0276 80.7673C45.7247 79.8767 45.6102 78.9328 45.6913 77.9956C45.7725 77.0584 46.0475 76.1483 46.499 75.3228C46.9563 74.4888 47.582 73.7588 48.3364 73.1791C49.0908 72.5994 49.9575 72.1826 50.8815 71.955C52.4856 71.5708 54.1745 71.7752 55.6404 72.5311C57.1063 73.287 58.2517 74.544 58.868 76.0731C60.1182 79.1974 59.7197 82.5321 59.3448 85.1546L59.3373 85.2072L59.2895 85.2301L49.7116 89.8156Z" fill="#B5B9C5" style="fill:#B5B9C5;fill:color(display-p3 0.7098 0.7251 0.7708);fill-opacity:1;"/>
<path d="M57.5055 62.487H49.7578V59.1121C51.4583 58.4369 53.1224 57.8628 54.1283 59.1121C55.024 59.1121 55.883 59.4677 56.5163 60.1006C57.1497 60.7335 57.5055 61.5919 57.5055 62.487Z" fill="#2F2E41" style="fill:#2F2E41;fill:color(display-p3 0.1843 0.1804 0.2549);fill-opacity:1;"/>
<path d="M49.3285 58.5156C44.6968 58.5156 43.4004 64.3174 43.4004 67.5905C43.4004 69.4159 44.2265 70.0687 45.5245 70.2897L45.983 67.8464L47.0567 70.3948C47.4213 70.3966 47.8043 70.3896 48.2015 70.3822L48.5655 69.6331L49.3773 70.3688C52.6287 70.3736 55.2566 70.8472 55.2566 67.5905C55.2566 64.3174 54.1196 58.5156 49.3285 58.5156Z" fill="#2F2E41" style="fill:#2F2E41;fill:color(display-p3 0.1843 0.1804 0.2549);fill-opacity:1;"/>
<path d="M69.9169 65.0084C69.9464 65.0623 69.9736 65.1177 69.9985 65.1747C70.1232 65.4561 70.1869 65.7606 70.1856 66.0683C70.1842 66.3761 70.1178 66.68 69.9908 66.9603C69.8637 67.2406 69.6787 67.491 69.4481 67.6949C69.2175 67.8988 68.9463 68.0517 68.6524 68.1435C68.584 68.1647 68.5146 68.1822 68.4444 68.196L64.4226 78.5923C64.2896 78.9321 64.0506 79.22 63.7409 79.4132C63.4313 79.6065 63.0675 79.6949 62.7036 79.6652L62.6834 79.6614L53.9665 77.039C53.4911 76.8955 53.0922 76.5691 52.8574 76.1318C52.6226 75.6945 52.5712 75.1819 52.7143 74.7066C52.8575 74.2314 53.1837 73.8324 53.6211 73.5974C54.0585 73.3623 54.5714 73.3104 55.0471 73.453C55.0579 73.4563 55.0688 73.4597 55.0796 73.4631L61.2473 75.442L66.0223 66.9823C65.9801 66.8945 65.9441 66.8039 65.9146 66.711C65.7529 66.1939 65.7892 65.6352 66.0165 65.1434C66.2438 64.6516 66.6459 64.2617 67.1447 64.0495C67.6435 63.8373 68.2034 63.8179 68.7157 63.9951C69.228 64.1723 69.6561 64.5334 69.9169 65.0084Z" fill="#FFB8B8" style="fill:#FFB8B8;fill:color(display-p3 1.0000 0.7216 0.7216);fill-opacity:1;"/>
<path d="M147.407 38.6013C144.149 34.2434 138.185 33.1917 135.221 35.4048C132.257 37.6179 131.577 43.6317 134.835 47.9896C137.851 52.0234 143.316 53.1235 146.326 51.6122C146.316 51.6594 146.316 51.708 146.324 51.7554L146.494 52.5938C146.507 52.6577 146.536 52.7173 146.578 52.7668C146.621 52.8163 146.675 52.8542 146.737 52.8768C146.798 52.8994 146.864 52.906 146.928 52.896C146.993 52.8859 147.053 52.8596 147.105 52.8194L148.542 51.6975C148.593 51.6574 148.634 51.6048 148.659 51.5447C148.684 51.4846 148.694 51.4191 148.687 51.3542C148.68 51.2894 148.656 51.2275 148.618 51.1744C148.58 51.1212 148.53 51.0786 148.471 51.0506L147.698 50.6832C147.67 50.671 147.642 50.6621 147.613 50.6565C149.933 48.2054 150.43 42.6438 147.407 38.6013Z" fill="#CCCCCC" style="fill:#CCCCCC;fill:color(display-p3 0.8000 0.8000 0.8000);fill-opacity:1;"/>
<path d="M140.278 36.9565C141.872 37.2095 143.308 38.0645 144.289 39.3449C145.271 40.6253 145.723 42.2334 145.553 43.8373C145.517 44.2047 146.092 44.2023 146.127 43.8373C146.291 42.1086 145.795 40.3817 144.739 39.0029C143.682 37.6242 142.143 36.6955 140.431 36.4032C140.069 36.3418 139.914 36.8946 140.278 36.9565Z" fill="white" style="fill:white;fill:white;fill-opacity:1;"/>
<path d="M38.642 44.0664C41.4909 39.4307 40.2661 33.5036 37.1135 31.5687C33.9609 29.6338 28.1171 31.2227 25.2682 35.8585C22.6312 40.1494 23.6265 45.6307 26.1435 47.8678C26.0961 47.8762 26.0507 47.8936 26.0097 47.919L25.2928 48.3863C25.2381 48.4219 25.1935 48.4709 25.1631 48.5286C25.1327 48.5863 25.1176 48.6508 25.1192 48.716C25.1208 48.7812 25.139 48.8449 25.1722 48.901C25.2053 48.9572 25.2523 49.004 25.3086 49.0369L26.8826 49.957C26.9389 49.99 27.0027 50.0079 27.068 50.0093C27.1332 50.0106 27.1977 49.9953 27.2554 49.9648C27.313 49.9342 27.3619 49.8894 27.3973 49.8347C27.4328 49.7799 27.4536 49.717 27.4579 49.6519L27.514 48.7984C27.5153 48.7686 27.5131 48.7388 27.5074 48.7095C30.6437 49.9588 35.9992 48.3667 38.642 44.0664Z" fill="#CCCCCC" style="fill:#CCCCCC;fill:color(display-p3 0.8000 0.8000 0.8000);fill-opacity:1;"/>
<path d="M37.5405 36.8421C37.8939 38.4158 37.6293 40.0651 36.8011 41.4495C35.973 42.8339 34.6445 43.8478 33.0901 44.2817C32.7355 44.3849 32.9499 44.9175 33.3021 44.815C34.9704 44.3291 36.3931 43.2309 37.2851 41.7406C38.177 40.2503 38.4722 38.4781 38.1114 36.7795C38.035 36.4211 37.4635 36.4811 37.5405 36.8421Z" fill="white" style="fill:white;fill:white;fill-opacity:1;"/>
<path d="M181.086 10.5022C180.848 5.06723 176.511 0.842702 172.815 1.0045C169.119 1.16629 165.169 5.75358 165.407 11.1886C165.627 16.2193 169.524 20.2029 172.863 20.6472C172.828 20.6808 172.801 20.7206 172.781 20.7646L172.449 21.553C172.424 21.6131 172.414 21.6786 172.421 21.7435C172.428 21.8083 172.452 21.8702 172.49 21.9233C172.528 21.9764 172.579 22.0189 172.637 22.0469C172.696 22.0749 172.762 22.0873 172.827 22.0831L174.646 21.9643C174.711 21.9601 174.774 21.9393 174.829 21.9039C174.884 21.8685 174.929 21.8197 174.959 21.7621C174.99 21.7045 175.005 21.64 175.004 21.5748C175.003 21.5096 174.985 21.4459 174.952 21.3896L174.52 20.6511C174.504 20.6257 174.486 20.6022 174.465 20.5811C177.763 19.8605 181.307 15.5439 181.086 10.5022Z" fill="#B5B9C5" style="fill:#B5B9C5;fill:color(display-p3 0.7098 0.7251 0.7708);fill-opacity:1;"/>
<path d="M176.122 5.13259C177.296 6.23848 178.002 7.75294 178.092 9.36335C178.181 10.9738 177.649 12.5572 176.605 13.7868C176.369 14.0708 176.845 14.3919 177.079 14.1099C178.189 12.7735 178.752 11.0674 178.656 9.33355C178.559 7.59972 177.81 5.9664 176.559 4.76116C176.295 4.50708 175.855 4.87663 176.122 5.13259Z" fill="white" style="fill:white;fill:white;fill-opacity:1;"/>
<path d="M147.087 26.1938C145.663 26.1041 144.279 25.6782 143.051 24.9512C141.823 24.2241 140.785 23.2166 140.021 22.011C139.807 21.6693 139.528 21.2937 139.676 20.8731C139.728 20.7118 139.833 20.5728 139.973 20.4787C140.114 20.3847 140.283 20.3412 140.452 20.3553C140.888 20.4084 141.17 20.8353 141.224 21.2443C141.285 21.7082 140.958 22.0724 140.553 22.2448C139.565 22.666 138.568 22.0151 137.763 21.4955C135.929 20.3118 133.912 19.2412 131.69 19.1063C129.633 18.9815 127.429 19.7871 126.285 21.569C126.085 21.8808 126.582 22.1689 126.781 21.8586C127.915 20.0915 130.208 19.4568 132.202 19.7299C133.39 19.9173 134.537 20.3065 135.594 20.8807C136.141 21.1649 136.673 21.48 137.194 21.8111C137.689 22.1567 138.214 22.4575 138.763 22.7103C139.678 23.0859 140.89 23.0566 141.529 22.1916C142.125 21.3847 141.665 20.0413 140.667 19.8144C140.448 19.7713 140.222 19.7831 140.009 19.8488C139.796 19.9145 139.602 20.032 139.446 20.1909C139.29 20.3497 139.175 20.5448 139.112 20.7588C139.05 20.9727 139.042 21.1988 139.088 21.4168C139.188 21.892 139.546 22.357 139.823 22.7454C140.656 23.9161 141.741 24.8852 142.998 25.5813C144.255 26.2774 145.653 26.6828 147.087 26.7676C147.457 26.7858 147.456 26.212 147.087 26.1938Z" fill="#CCCCCC" style="fill:#CCCCCC;fill:color(display-p3 0.8000 0.8000 0.8000);fill-opacity:1;"/>
</svg>
