<svg width="249" height="291" viewBox="0 0 249 291" fill="none" xmlns="http://www.w3.org/2000/svg">
<path d="M66.6434 88.6722C64.8667 89.3533 63.0525 89.9306 61.2097 90.4014C58.7755 90.9984 57.4012 91.2751 55.0518 90.3575C54.9693 90.3253 54.8905 90.2935 54.8162 90.2621C50.363 88.3568 46.5563 85.1899 43.8594 81.1468C41.1626 77.1038 39.6919 72.359 39.6264 67.49C39.6146 67.323 39.6146 67.1474 39.6146 66.9761C39.6123 66.1509 39.6515 65.3261 39.732 64.5049C39.835 63.3863 40.0128 62.2759 40.2643 61.1814L40.2408 61.1771C38.3387 59.2198 37.6068 56.5387 37.8494 53.8448C38.0157 52.0184 38.5917 50.2538 39.5341 48.684C40.4764 47.1142 41.7606 45.7801 43.2898 44.7822C45.6863 43.266 48.3884 42.3062 51.1998 41.9726C51.9546 41.8851 52.7139 41.8407 53.4737 41.8399H60.6127C62.0871 41.4925 63.585 41.2549 65.0941 41.1289H65.1059C79.4738 39.9297 90.8045 49.5148 89.7478 61.1771C89.7399 61.1899 89.7282 61.2028 89.7204 61.2156C89.4151 61.7167 89.1451 62.1921 88.9063 62.6461C88.6754 63.0701 88.4797 63.477 88.3114 63.8624C87.0002 66.8433 93.2312 113.092 90.9963 113.794C89.7243 114.192 84.5971 79.7777 85.5168 86.3219C86.6754 94.5321 73.2626 86.21 66.6434 88.6722Z" fill="#2F2E41" style="fill:#2F2E41;fill:color(display-p3 0.1843 0.1804 0.2549);fill-opacity:1;"/>
<path d="M88.2879 172.276L108.205 214.973L31.5894 207.165L47.5824 166.176L88.2879 172.276Z" fill="#FFB6B6" style="fill:#FFB6B6;fill:color(display-p3 1.0000 0.7137 0.7137);fill-opacity:1;"/>
<path d="M128.269 257.883C114.946 262.346 100.906 264.238 86.8857 263.461L80.789 253.511C80.789 253.511 80.5337 257.217 80.1529 262.882C73.4788 262.103 66.8918 260.698 60.478 258.684C48.3148 254.857 36.9131 248.926 25.3557 243.458C23.0148 229.415 22.1364 207.762 35.0785 195.156L104.739 208.001C104.739 208.001 115.916 216.414 112.926 219.427C109.936 222.435 109.473 221.969 111.437 223.946C113.402 225.923 117.646 228.566 117.69 230.295C117.707 230.97 122.471 243.209 128.269 257.883Z" fill="#2F2E41" style="fill:#2F2E41;fill:color(display-p3 0.1843 0.1804 0.2549);fill-opacity:1;"/>
<path d="M76.1235 89.7695L59.2938 90.9511L48.416 101.528L44.6064 102.213C41.1821 102.827 38.1008 104.685 35.9469 107.433C33.793 110.181 32.7163 113.63 32.9208 117.124C33.7045 130.484 35.459 150.446 39.1261 156.922C44.8123 166.964 49.509 163.813 44.8123 166.964C40.1156 170.115 36.9624 167.639 39.1261 172.619C41.2898 177.598 36.2017 183.985 36.2017 183.985L34.1763 186.023L36.3245 186.909L104.776 195.872C104.776 195.872 98.8574 169.093 102.559 162.515C106.261 155.936 115.235 136.051 107.225 128.271L99.3937 100.537L85.9221 96.5386L76.1235 89.7695Z" fill="#374EA9" style="fill:#374EA9;fill:color(display-p3 0.2157 0.3059 0.6627);fill-opacity:1;"/>
<path d="M178.002 199.679C176.876 199.643 175.771 199.361 174.763 198.853C173.756 198.345 172.87 197.623 172.167 196.737C171.464 195.85 170.961 194.821 170.692 193.72C170.424 192.618 170.396 191.472 170.611 190.358L138.502 168.476L142.333 158.051L180.281 184.321C182.116 184.825 183.704 185.989 184.743 187.592C185.782 189.195 186.201 191.126 185.92 193.019C185.639 194.912 184.678 196.635 183.219 197.863C181.759 199.09 179.903 199.736 178.002 199.679Z" fill="#FFB6B6" style="fill:#FFB6B6;fill:color(display-p3 1.0000 0.7137 0.7137);fill-opacity:1;"/>
<path d="M87.3092 99.2253L82.6434 101.084L107.533 150.001L159.059 185.344L166.486 172.712L127.264 138.62L111.561 108.316C109.352 104.051 105.65 100.762 101.171 99.0827C96.6916 97.4038 91.7532 97.4546 87.3092 99.2253Z" fill="#374EA9" style="fill:#374EA9;fill:color(display-p3 0.2157 0.3059 0.6627);fill-opacity:1;"/>
<path d="M66.8329 85.4685C76.1662 85.4685 83.7324 77.8547 83.7324 68.4627C83.7324 59.0707 76.1662 51.457 66.8329 51.457C57.4996 51.457 49.9334 59.0707 49.9334 68.4627C49.9334 77.8547 57.4996 85.4685 66.8329 85.4685Z" fill="#FFB6B6" style="fill:#FFB6B6;fill:color(display-p3 1.0000 0.7137 0.7137);fill-opacity:1;"/>
<path d="M81.5286 61.269C81.2469 61.4187 80.969 61.5565 80.6871 61.6944C80.3936 61.8361 80.1001 61.9779 79.8026 62.1118C74.147 64.6916 69.5404 64.9791 66.7458 61.269C66.6694 59.3171 66.2327 57.3966 65.4582 55.6054C65.595 57.6071 65.0708 59.5982 63.967 61.269H58.3388C52.5423 65.1406 49.5677 68.697 53.5912 81.4066C53.8534 82.2416 55.6499 111.906 56.1626 114.187C47.3877 110.8 39.8182 74.8372 39.6264 65.3611C39.6146 65.2075 39.6146 65.046 39.6146 64.8885C39.6124 64.1294 39.6516 63.3707 39.7321 62.616C39.8354 61.5855 40.0133 60.5641 40.2644 59.5597L40.2409 59.5557C39.3481 58.6968 38.667 57.6399 38.2518 56.4693C37.8366 55.2987 37.6989 54.0467 37.8495 52.813C39.3215 50.8735 41.1432 49.2301 43.2194 47.9687C45.1072 47.0487 47.075 46.3052 49.098 45.7473C49.1489 45.7355 49.192 45.7237 49.2429 45.7119C49.8613 45.5425 50.4953 45.389 51.1294 45.255C52.436 44.9793 53.7571 44.7781 55.0863 44.6525C55.1842 44.6485 55.2781 44.6406 55.3642 44.6406C55.8959 44.641 56.4177 44.7852 56.875 45.0581C56.8789 45.0581 56.8789 45.0621 56.8867 45.0621C57.3261 45.3262 57.6905 45.6998 57.9448 46.1468C58.1991 46.5938 58.3348 47.0991 58.3388 47.6142H64.6088C64.8397 47.6142 65.0707 47.6221 65.3016 47.6339C74.0335 47.9844 81.0512 51.7418 81.5013 60.3789C81.5208 60.6782 81.5286 60.9697 81.5286 61.269Z" fill="#2F2E41" style="fill:#2F2E41;fill:color(display-p3 0.1843 0.1804 0.2549);fill-opacity:1;"/>
<path d="M44.4588 61.9538C50.6076 61.9538 55.5923 56.9378 55.5923 50.7503C55.5923 44.5628 50.6076 39.5469 44.4588 39.5469C38.3099 39.5469 33.3253 44.5628 33.3253 50.7503C33.3253 56.9378 38.3099 61.9538 44.4588 61.9538Z" fill="#2F2E41" style="fill:#2F2E41;fill:color(display-p3 0.1843 0.1804 0.2549);fill-opacity:1;"/>
<path d="M59.7438 45.5675C58.479 51.6227 52.2386 55.2442 46.2686 53.7627C43.4017 53.0513 40.933 51.223 39.4057 48.6801C37.8784 46.1371 37.4175 43.0877 38.1245 40.2028C39.5967 34.1952 46.842 35.9271 51.5998 32.0075C58.3302 26.4626 61.4496 37.4016 59.7438 45.5675Z" fill="#2F2E41" style="fill:#2F2E41;fill:color(display-p3 0.1843 0.1804 0.2549);fill-opacity:1;"/>
<path d="M35.0069 214.119C44.4958 175.181 63.297 141.712 94.4344 115.49C95.6395 113.495 97.5817 112.063 99.8349 111.507C102.088 110.952 104.469 111.318 106.454 112.526L180.475 157.689C182.458 158.902 183.881 160.856 184.433 163.124C184.985 165.391 184.621 167.786 183.421 169.784C171.536 209.739 153.735 244.41 123.993 268.413C122.788 270.408 120.846 271.84 118.593 272.396C116.34 272.952 113.959 272.585 111.974 271.377L37.9527 226.214C35.9702 225.001 34.5468 223.047 33.9945 220.78C33.4423 218.512 33.8064 216.117 35.0069 214.119Z" fill="#F2F2F2" style="fill:#F2F2F2;fill:color(display-p3 0.9490 0.9490 0.9490);fill-opacity:1;"/>
<path opacity="0.2" d="M48.1635 227.242C46.1811 226.03 44.7577 224.075 44.2054 221.808C43.6532 219.54 44.0173 217.145 45.2179 215.148C54.7067 176.209 73.508 142.74 104.645 116.518C105.443 115.213 106.569 114.142 107.91 113.415L106.454 112.526C104.469 111.318 102.088 110.952 99.835 111.507C97.5817 112.063 95.6395 113.495 94.4344 115.49C63.2971 141.712 44.4958 175.181 35.007 214.119C33.8064 216.117 33.4423 218.512 33.9946 220.78C34.5468 223.047 35.9703 225.001 37.9527 226.214L111.974 271.377C113.292 272.175 114.795 272.608 116.333 272.632C117.87 272.657 119.386 272.272 120.728 271.517L48.1635 227.242Z" fill="black" style="fill:black;fill:black;fill-opacity:1;"/>
<path d="M134.972 205.49L85.2852 175.363C84.4958 174.883 83.928 174.108 83.7065 173.207C83.485 172.306 83.628 171.353 84.104 170.558C84.58 169.763 85.3501 169.191 86.2452 168.967C87.1402 168.743 88.0871 168.885 88.8777 169.363L138.564 199.49C139.352 199.971 139.918 200.746 140.138 201.646C140.358 202.546 140.215 203.497 139.74 204.291C139.264 205.085 138.495 205.657 137.602 205.882C136.708 206.106 135.762 205.965 134.972 205.49Z" fill="white" style="fill:white;fill:white;fill-opacity:1;"/>
<path d="M106.067 165.538L95.1362 158.91C94.344 158.434 93.7726 157.66 93.5475 156.759C93.3225 155.858 93.4623 154.904 93.9362 154.107C94.4101 153.31 95.1793 152.734 96.0745 152.508C96.9698 152.282 97.9178 152.422 98.71 152.899L98.7288 152.911L109.66 159.538C110.447 160.019 111.014 160.795 111.234 161.695C111.454 162.595 111.311 163.546 110.836 164.34C110.36 165.135 109.591 165.707 108.697 165.931C107.804 166.156 106.858 166.014 106.067 165.538Z" fill="white" style="fill:white;fill:white;fill-opacity:1;"/>
<path d="M127.075 218.676L77.3882 188.55C76.5979 188.071 76.0289 187.296 75.8062 186.395C75.5835 185.494 75.7253 184.541 76.2005 183.745C76.6756 182.95 77.4453 182.376 78.3403 182.151C79.2353 181.926 80.1825 182.068 80.9737 182.545L80.9807 182.55L130.667 212.676C131.455 213.157 132.021 213.932 132.241 214.832C132.461 215.733 132.318 216.684 131.843 217.478C131.367 218.272 130.598 218.844 129.705 219.068C128.811 219.293 127.865 219.152 127.075 218.676Z" fill="white" style="fill:white;fill:white;fill-opacity:1;"/>
<path d="M141.282 148.684C149.297 148.684 155.794 142.146 155.794 134.08C155.794 126.015 149.297 119.477 141.282 119.477C133.267 119.477 126.769 126.015 126.769 134.08C126.769 142.146 133.267 148.684 141.282 148.684Z" fill="#3F3D56" style="fill:#3F3D56;fill:color(display-p3 0.2471 0.2392 0.3373);fill-opacity:1;"/>
<path d="M116.266 290.563C133.397 290.563 147.284 276.588 147.284 259.35C147.284 242.111 133.397 228.137 116.266 228.137C99.1351 228.137 85.2478 242.111 85.2478 259.35C85.2478 276.588 99.1351 290.563 116.266 290.563Z" fill="white" style="fill:white;fill:white;fill-opacity:1;"/>
<path d="M116.266 291C110.046 291 103.965 289.144 98.7928 285.667C93.6207 282.189 89.5896 277.246 87.2091 271.463C84.8287 265.68 84.2059 259.317 85.4194 253.177C86.6329 247.038 89.6283 241.399 94.0268 236.973C98.4252 232.547 104.029 229.532 110.13 228.311C116.231 227.09 122.555 227.717 128.302 230.112C134.048 232.508 138.96 236.564 142.416 241.769C145.872 246.973 147.717 253.092 147.717 259.352C147.707 267.742 144.391 275.787 138.495 281.72C132.599 287.653 124.604 290.991 116.266 291ZM116.266 228.574C110.217 228.574 104.303 230.379 99.2736 233.761C94.2438 237.143 90.3236 241.95 88.0086 247.574C85.6937 253.198 85.088 259.386 86.2682 265.356C87.4484 271.327 90.3613 276.811 94.6388 281.115C98.9163 285.419 104.366 288.351 110.299 289.538C116.232 290.726 122.382 290.116 127.971 287.787C133.559 285.457 138.336 281.512 141.697 276.451C145.058 271.389 146.852 265.439 146.851 259.352C146.842 251.192 143.617 243.369 137.883 237.599C132.149 231.829 124.375 228.583 116.266 228.574Z" fill="#3F3D56" style="fill:#3F3D56;fill:color(display-p3 0.2471 0.2392 0.3373);fill-opacity:1;"/>
<path d="M112.034 275.596C111.499 275.596 110.971 275.471 110.491 275.229C110.012 274.988 109.596 274.638 109.274 274.207L100.812 262.853C100.54 262.488 100.342 262.073 100.229 261.631C100.116 261.189 100.091 260.729 100.155 260.278C100.219 259.826 100.371 259.392 100.601 258.999C100.832 258.606 101.138 258.263 101.501 257.99C101.863 257.716 102.276 257.517 102.715 257.404C103.154 257.291 103.611 257.266 104.06 257.331C104.509 257.395 104.941 257.548 105.331 257.781C105.721 258.014 106.061 258.321 106.333 258.687L111.869 266.114L126.088 244.652C126.34 244.272 126.663 243.946 127.039 243.693C127.416 243.439 127.838 243.262 128.283 243.173C128.727 243.083 129.184 243.083 129.629 243.171C130.073 243.26 130.496 243.436 130.873 243.689C131.25 243.942 131.574 244.267 131.826 244.646C132.078 245.024 132.254 245.45 132.343 245.897C132.431 246.344 132.432 246.804 132.344 247.251C132.256 247.699 132.081 248.124 131.83 248.504L114.906 274.05C114.599 274.512 114.188 274.893 113.705 275.162C113.222 275.431 112.682 275.579 112.13 275.595C112.098 275.595 112.066 275.596 112.034 275.596Z" fill="#374EA9" style="fill:#374EA9;fill:color(display-p3 0.2157 0.3059 0.6627);fill-opacity:1;"/>
<path d="M216.44 101.179C217.672 101.073 218.612 100.287 218.539 99.4243C218.465 98.5615 217.407 97.948 216.174 98.0541C214.942 98.1601 214.002 98.9456 214.075 99.8084C214.148 100.671 215.207 101.285 216.44 101.179Z" fill="white" style="fill:white;fill:white;fill-opacity:1;"/>
<path d="M230.308 96.4443C231.541 96.3383 232.48 95.5528 232.407 94.69C232.334 93.8271 231.275 93.2136 230.042 93.3197C228.81 93.4257 227.87 94.2112 227.943 95.074C228.017 95.9369 229.075 96.5504 230.308 96.4443Z" fill="#3F3D56" style="fill:#3F3D56;fill:color(display-p3 0.2471 0.2392 0.3373);fill-opacity:1;"/>
<path d="M209.866 90.5302C211.098 90.4242 212.038 89.6388 211.965 88.7759C211.892 87.9131 210.833 87.2996 209.6 87.4056C208.368 87.5117 207.428 88.2971 207.501 89.16C207.575 90.0228 208.633 90.6363 209.866 90.5302Z" fill="#FF6584" style="fill:#FF6584;fill:color(display-p3 1.0000 0.3961 0.5176);fill-opacity:1;"/>
<path d="M204.049 87.0997C204.579 86.979 204.87 86.2592 204.697 85.4918C204.525 84.7244 203.955 84.2 203.425 84.3207C202.894 84.4413 202.604 85.1612 202.776 85.9286C202.948 86.696 203.518 87.2203 204.049 87.0997Z" fill="#E6E6E6" style="fill:#E6E6E6;fill:color(display-p3 0.9020 0.9020 0.9020);fill-opacity:1;"/>
<path d="M199.907 78.7715C200.437 78.6509 200.728 77.931 200.555 77.1636C200.383 76.3962 199.813 75.8719 199.283 75.9925C198.752 76.1132 198.462 76.833 198.634 77.6004C198.807 78.3678 199.376 78.8922 199.907 78.7715Z" fill="#3F3D56" style="fill:#3F3D56;fill:color(display-p3 0.2471 0.2392 0.3373);fill-opacity:1;"/>
<path d="M219.778 90.4668C220.309 90.3462 220.599 89.6263 220.427 88.8589C220.254 88.0915 219.685 87.5672 219.154 87.6878C218.624 87.8085 218.333 88.5283 218.506 89.2957C218.678 90.0631 219.248 90.5875 219.778 90.4668Z" fill="#E6E6E6" style="fill:#E6E6E6;fill:color(display-p3 0.9020 0.9020 0.9020);fill-opacity:1;"/>
<path d="M213.721 95.5254C214.251 95.4048 214.542 94.6849 214.369 93.9175C214.197 93.1501 213.627 92.6258 213.097 92.7464C212.566 92.8671 212.276 93.5869 212.448 94.3543C212.621 95.1217 213.19 95.6461 213.721 95.5254Z" fill="#FF6584" style="fill:#FF6584;fill:color(display-p3 1.0000 0.3961 0.5176);fill-opacity:1;"/>
<path d="M224.748 99.6504C225.279 99.5298 225.569 98.8099 225.397 98.0425C225.225 97.2751 224.655 96.7508 224.124 96.8714C223.594 96.9921 223.303 97.7119 223.476 98.4793C223.648 99.2467 224.218 99.7711 224.748 99.6504Z" fill="#3F3D56" style="fill:#3F3D56;fill:color(display-p3 0.2471 0.2392 0.3373);fill-opacity:1;"/>
<path d="M159.182 36.6578C159.394 35.8183 158.593 34.8899 157.394 34.5841C156.195 34.2783 155.051 34.7109 154.84 35.5504C154.628 36.3898 155.429 37.3182 156.628 37.624C157.827 37.9298 158.971 37.4972 159.182 36.6578Z" fill="white" style="fill:white;fill:white;fill-opacity:1;"/>
<path d="M144.538 36.564C144.749 35.7245 143.949 34.7961 142.75 34.4903C141.55 34.1845 140.407 34.6171 140.195 35.4566C139.984 36.296 140.785 37.2245 141.984 37.5303C143.183 37.8361 144.327 37.4035 144.538 36.564Z" fill="#3F3D56" style="fill:#3F3D56;fill:color(display-p3 0.2471 0.2392 0.3373);fill-opacity:1;"/>
<path d="M161.93 48.8843C162.142 48.0449 161.341 47.1165 160.142 46.8107C158.943 46.5049 157.799 46.9375 157.588 47.7769C157.376 48.6164 158.177 49.5448 159.376 49.8506C160.575 50.1564 161.719 49.7238 161.93 48.8843Z" fill="#FF6584" style="fill:#FF6584;fill:color(display-p3 1.0000 0.3961 0.5176);fill-opacity:1;"/>
<path d="M165.344 53.4958C165.431 52.7139 165.063 52.0308 164.522 51.97C163.982 51.9092 163.473 52.4938 163.387 53.2757C163.3 54.0576 163.668 54.7407 164.208 54.8015C164.749 54.8622 165.257 54.2777 165.344 53.4958Z" fill="#E6E6E6" style="fill:#E6E6E6;fill:color(display-p3 0.9020 0.9020 0.9020);fill-opacity:1;"/>
<path d="M166.548 62.7302C166.635 61.9483 166.267 61.2652 165.727 61.2044C165.186 61.1436 164.678 61.7282 164.591 62.5101C164.504 63.2919 164.872 63.9751 165.412 64.0358C165.953 64.0966 166.461 63.512 166.548 62.7302Z" fill="#3F3D56" style="fill:#3F3D56;fill:color(display-p3 0.2471 0.2392 0.3373);fill-opacity:1;"/>
<path d="M151.577 45.1325C151.663 44.3506 151.296 43.6675 150.755 43.6067C150.215 43.546 149.706 44.1305 149.619 44.9124C149.532 45.6943 149.9 46.3774 150.441 46.4382C150.981 46.4989 151.49 45.9144 151.577 45.1325Z" fill="#E6E6E6" style="fill:#E6E6E6;fill:color(display-p3 0.9020 0.9020 0.9020);fill-opacity:1;"/>
<path d="M158.946 42.3473C159.033 41.5655 158.665 40.8824 158.125 40.8216C157.584 40.7608 157.076 41.3454 156.989 42.1273C156.902 42.9091 157.27 43.5922 157.81 43.653C158.351 43.7138 158.859 43.1292 158.946 42.3473Z" fill="#FF6584" style="fill:#FF6584;fill:color(display-p3 1.0000 0.3961 0.5176);fill-opacity:1;"/>
<path d="M149.867 34.82C149.954 34.0381 149.586 33.355 149.046 33.2942C148.505 33.2335 147.997 33.818 147.91 34.5999C147.823 35.3818 148.191 36.0649 148.731 36.1257C149.272 36.1864 149.78 35.6019 149.867 34.82Z" fill="#3F3D56" style="fill:#3F3D56;fill:color(display-p3 0.2471 0.2392 0.3373);fill-opacity:1;"/>
<path d="M39.6224 214.534C38.5164 214.078 37.5221 213.386 36.7081 212.505C35.8941 211.624 35.28 210.576 34.9082 209.433C34.5364 208.29 34.4158 207.079 34.5548 205.884C34.6937 204.69 35.0888 203.54 35.7129 202.514L11.8687 168.786L19.5181 159.855L47.5471 200.123C49.1849 201.309 50.3337 203.057 50.7757 205.038C51.2178 207.019 50.9225 209.094 49.9457 210.871C48.9688 212.647 47.3784 214.001 45.4758 214.676C43.5732 215.351 41.4905 215.301 39.6224 214.534Z" fill="#FFB6B6" style="fill:#FFB6B6;fill:color(display-p3 1.0000 0.7137 0.7137);fill-opacity:1;"/>
<path d="M40.1703 107.65C38.964 106.936 37.5442 106.678 36.1658 106.922C34.7874 107.166 33.5406 107.897 32.6492 108.982L0.432678 154.322L30.289 196.994L41.972 184.366L23.7985 155.629L47.9512 132.488C49.9359 128.112 50.2391 123.152 48.8021 118.565C47.3651 113.978 44.2898 110.089 40.1703 107.65Z" fill="#374EA9" style="fill:#374EA9;fill:color(display-p3 0.2157 0.3059 0.6627);fill-opacity:1;"/>
</svg>
