<svg width="163" height="106" viewBox="0 0 163 106" fill="none" xmlns="http://www.w3.org/2000/svg">
<path d="M8.30951 97.315C8.98682 97.5529 9.71403 97.6125 10.4211 97.4881C11.1281 97.3636 11.7912 97.0593 12.3464 96.6044C13.7603 95.4183 14.2037 93.465 14.5643 91.6559L15.6312 86.3047L13.3976 87.8416C11.7912 88.9469 10.1487 90.0877 9.03656 91.6886C7.92442 93.2896 7.43922 95.4751 8.33253 97.2075" fill="#E6E6E6" style="fill:#E6E6E6;fill:color(display-p3 0.9020 0.9020 0.9020);fill-opacity:1;"/>
<path d="M8.65514 104.165C8.37401 102.118 8.08475 100.045 8.28243 97.976C8.4576 96.1387 9.01854 94.3445 10.1605 92.8727C10.7667 92.0931 11.5042 91.4252 12.3401 90.8989C12.558 90.7615 12.7586 91.1066 12.5416 91.2435C11.0953 92.1568 9.97668 93.5056 9.34692 95.0953C8.65141 96.863 8.53973 98.7901 8.65953 100.668C8.73195 101.804 8.88583 102.932 9.04037 104.059C9.05257 104.11 9.04495 104.163 9.01905 104.209C8.99316 104.254 8.95092 104.288 8.90087 104.304C8.84981 104.318 8.79539 104.311 8.74942 104.285C8.70344 104.259 8.66961 104.215 8.65528 104.165L8.65514 104.165Z" fill="#F2F2F2" style="fill:#F2F2F2;fill:color(display-p3 0.9490 0.9490 0.9490);fill-opacity:1;"/>
<path d="M10.6787 100.88C10.9692 101.321 11.3684 101.681 11.8381 101.923C12.3077 102.165 12.8319 102.283 13.3601 102.264C14.7179 102.199 15.8493 101.253 16.8677 100.354L19.8807 97.6952L17.8867 97.5998C16.4527 97.5312 14.9817 97.4668 13.6158 97.9092C12.25 98.3516 10.9903 99.4148 10.7406 100.828" fill="#E6E6E6" style="fill:#E6E6E6;fill:color(display-p3 0.9020 0.9020 0.9020);fill-opacity:1;"/>
<path d="M7.85976 105.34C9.21324 102.947 10.783 100.287 13.5882 99.4372C14.3681 99.2017 15.1859 99.1173 15.9975 99.1886C16.2534 99.2107 16.1895 99.6047 15.9342 99.5828C14.5737 99.4699 13.2158 99.8289 12.0891 100.599C11.0049 101.337 10.1607 102.362 9.44632 103.449C9.00865 104.115 8.61664 104.81 8.22462 105.503C8.09936 105.725 7.73304 105.565 7.85976 105.34Z" fill="#F2F2F2" style="fill:#F2F2F2;fill:color(display-p3 0.9490 0.9490 0.9490);fill-opacity:1;"/>
<path d="M102.321 54.8164H42.9316V105.367H102.321V54.8164Z" fill="white" style="fill:white;fill:white;fill-opacity:1;"/>
<path d="M102.494 105.54H42.7593V54.6445H102.494V105.54ZM43.1046 105.195H102.149V54.9896H43.1046V105.195Z" fill="#3F3D56" style="fill:#3F3D56;fill:color(display-p3 0.2471 0.2392 0.3373);fill-opacity:1;"/>
<path d="M80.05 64.6484H65.2026V105.365H80.05V64.6484Z" fill="#797D88" style="fill:#797D88;fill:color(display-p3 0.4733 0.4883 0.5333);fill-opacity:1;"/>
<path d="M80.05 64.6484H65.2026V105.365H80.05V64.6484Z" fill="#797D88" style="fill:#797D88;fill:color(display-p3 0.4733 0.4883 0.5333);fill-opacity:1;"/>
<path opacity="0.2" d="M43.105 58.5273V66.729L102.322 70.5181L102.147 60.3979L43.105 58.5273Z" fill="black" style="fill:black;fill:black;fill-opacity:1;"/>
<path d="M105.774 50.1562H39.479V64.6486H105.774V50.1562Z" fill="white" style="fill:white;fill:white;fill-opacity:1;"/>
<path d="M105.947 64.8218H39.3066V49.9844H105.947V64.8218ZM39.6519 64.4768H105.602V50.3294H39.6519V64.4768Z" fill="#3F3D56" style="fill:#3F3D56;fill:color(display-p3 0.2471 0.2392 0.3373);fill-opacity:1;"/>
<path d="M80.05 48.7812H65.2026V64.4813H80.05V48.7812Z" fill="#797D88" style="fill:#797D88;fill:color(display-p3 0.4733 0.4883 0.5333);fill-opacity:1;"/>
<path d="M71.0375 35.0921C74.9567 40.8979 71.2641 50.2358 71.2641 50.2358C71.2641 50.2358 61.217 50.1606 57.2978 44.3547C53.3785 38.5488 57.0712 29.2109 57.0712 29.2109C57.0712 29.2109 67.1182 29.2862 71.0375 35.0921Z" fill="#797D88" style="fill:#797D88;fill:color(display-p3 0.4733 0.4883 0.5333);fill-opacity:1;"/>
<path d="M72.8358 35.0921C68.9166 40.8979 72.6093 50.2358 72.6093 50.2358C72.6093 50.2358 82.6563 50.1606 86.5756 44.3547C90.4948 38.5488 86.8022 29.2109 86.8022 29.2109C86.8022 29.2109 76.7551 29.2862 72.8358 35.0921Z" fill="#797D88" style="fill:#797D88;fill:color(display-p3 0.4733 0.4883 0.5333);fill-opacity:1;"/>
<path d="M62.2686 39.461C63.1268 39.461 63.8224 38.7658 63.8224 37.9082C63.8224 37.0507 63.1268 36.3555 62.2686 36.3555C61.4105 36.3555 60.7148 37.0507 60.7148 37.9082C60.7148 38.7658 61.4105 39.461 62.2686 39.461Z" fill="#3F3D56" style="fill:#3F3D56;fill:color(display-p3 0.2471 0.2392 0.3373);fill-opacity:1;"/>
<path d="M71.5909 55.1602C72.449 55.1602 73.1447 54.465 73.1447 53.6074C73.1447 52.7499 72.449 52.0547 71.5909 52.0547C70.7328 52.0547 70.0371 52.7499 70.0371 53.6074C70.0371 54.465 70.7328 55.1602 71.5909 55.1602Z" fill="#3F3D56" style="fill:#3F3D56;fill:color(display-p3 0.2471 0.2392 0.3373);fill-opacity:1;"/>
<path d="M71.5909 89.1524C72.449 89.1524 73.1447 88.4572 73.1447 87.5996C73.1447 86.7421 72.449 86.0469 71.5909 86.0469C70.7328 86.0469 70.0371 86.7421 70.0371 87.5996C70.0371 88.4572 70.7328 89.1524 71.5909 89.1524Z" fill="#3F3D56" style="fill:#3F3D56;fill:color(display-p3 0.2471 0.2392 0.3373);fill-opacity:1;"/>
<path d="M66.4118 44.6407C66.9839 44.6407 67.4477 44.1772 67.4477 43.6055C67.4477 43.0338 66.9839 42.5703 66.4118 42.5703C65.8397 42.5703 65.376 43.0338 65.376 43.6055C65.376 44.1772 65.8397 44.6407 66.4118 44.6407Z" fill="#3F3D56" style="fill:#3F3D56;fill:color(display-p3 0.2471 0.2392 0.3373);fill-opacity:1;"/>
<path d="M81.9499 35.836C82.522 35.836 82.9858 35.3725 82.9858 34.8008C82.9858 34.2291 82.522 33.7656 81.9499 33.7656C81.3778 33.7656 80.9141 34.2291 80.9141 34.8008C80.9141 35.3725 81.3778 35.836 81.9499 35.836Z" fill="#3F3D56" style="fill:#3F3D56;fill:color(display-p3 0.2471 0.2392 0.3373);fill-opacity:1;"/>
<path d="M75.217 60.1641C75.7891 60.1641 76.2529 59.7006 76.2529 59.1289C76.2529 58.5572 75.7891 58.0938 75.217 58.0938C74.6449 58.0938 74.1812 58.5572 74.1812 59.1289C74.1812 59.7006 74.6449 60.1641 75.217 60.1641Z" fill="#3F3D56" style="fill:#3F3D56;fill:color(display-p3 0.2471 0.2392 0.3373);fill-opacity:1;"/>
<path d="M69.0012 73.625C69.5733 73.625 70.0371 73.1616 70.0371 72.5899C70.0371 72.0181 69.5733 71.5547 69.0012 71.5547C68.4291 71.5547 67.9653 72.0181 67.9653 72.5899C67.9653 73.1616 68.4291 73.625 69.0012 73.625Z" fill="#3F3D56" style="fill:#3F3D56;fill:color(display-p3 0.2471 0.2392 0.3373);fill-opacity:1;"/>
<path d="M74.3537 78.2813C74.9258 78.2813 75.3896 77.8178 75.3896 77.2461C75.3896 76.6744 74.9258 76.2109 74.3537 76.2109C73.7816 76.2109 73.3179 76.6744 73.3179 77.2461C73.3179 77.8178 73.7816 78.2813 74.3537 78.2813Z" fill="#3F3D56" style="fill:#3F3D56;fill:color(display-p3 0.2471 0.2392 0.3373);fill-opacity:1;"/>
<path d="M73.1452 97.7774C73.7173 97.7774 74.1811 97.3139 74.1811 96.7422C74.1811 96.1705 73.7173 95.707 73.1452 95.707C72.5731 95.707 72.1094 96.1705 72.1094 96.7422C72.1094 97.3139 72.5731 97.7774 73.1452 97.7774Z" fill="#3F3D56" style="fill:#3F3D56;fill:color(display-p3 0.2471 0.2392 0.3373);fill-opacity:1;"/>
<path d="M137.028 103.459L135.134 103.459L134.232 96.1562L137.029 96.1564L137.028 103.459Z" fill="#FFB7B7" style="fill:#FFB7B7;fill:color(display-p3 1.0000 0.7176 0.7176);fill-opacity:1;"/>
<path d="M137.512 105.297L131.404 105.297V105.22C131.404 104.59 131.654 103.985 132.1 103.54C132.546 103.094 133.151 102.844 133.781 102.844L137.513 102.844L137.512 105.297Z" fill="#2F2E41" style="fill:#2F2E41;fill:color(display-p3 0.1843 0.1804 0.2549);fill-opacity:1;"/>
<path d="M141.655 103.459L143.55 103.459L144.451 96.1562L141.655 96.1564L141.655 103.459Z" fill="#FFB7B7" style="fill:#FFB7B7;fill:color(display-p3 1.0000 0.7176 0.7176);fill-opacity:1;"/>
<path d="M141.172 102.844L144.903 102.844C145.534 102.844 146.139 103.094 146.585 103.54C147.031 103.985 147.281 104.59 147.281 105.22V105.297L141.172 105.297L141.172 102.844Z" fill="#2F2E41" style="fill:#2F2E41;fill:color(display-p3 0.1843 0.1804 0.2549);fill-opacity:1;"/>
<path d="M136.608 46.3954C137.422 44.7587 136.754 42.7727 135.116 41.9596C133.478 41.1464 131.491 41.814 130.677 43.4506C129.864 45.0873 130.532 47.0733 132.17 47.8864C133.807 48.6996 135.795 48.032 136.608 46.3954Z" fill="#FFB7B7" style="fill:#FFB7B7;fill:color(display-p3 1.0000 0.7176 0.7176);fill-opacity:1;"/>
<path d="M131.204 67.6882C131.204 67.6882 130.158 72.0422 130.681 74.1321C131.204 76.222 132.772 90.5031 132.772 90.5031L133.818 101.823L138.001 102.172L137.478 88.9357L138.001 77.4411L140.963 88.5873V101.863L145.399 102.037L145.495 84.7558C145.495 84.7558 145.843 71.1714 143.577 69.4298C141.312 67.6882 140.963 67.3398 140.963 67.3398L131.204 67.6882Z" fill="#2F2E41" style="fill:#2F2E41;fill:color(display-p3 0.1843 0.1804 0.2549);fill-opacity:1;"/>
<path d="M137.519 48.5312L141.487 50.6212L142.01 68.7338C142.01 68.7338 139.744 67.3405 136.258 69.0821C132.773 70.8237 130.507 69.6046 130.507 69.6046L132.599 61.7674L131.727 51.3178L132.974 50.1873L137.519 48.5312Z" fill="#CBCBCB" style="fill:#CBCBCB;fill:color(display-p3 0.7961 0.7961 0.7961);fill-opacity:1;"/>
<path d="M132.974 49.8565L132.25 50.4458C132.25 50.4458 127.719 52.7099 127.545 54.2773L130.682 62.8112C130.682 62.8112 131.553 64.7269 130.856 65.4235C130.159 66.1202 129.462 67.8618 129.636 68.7326C129.811 69.6034 128.591 73.2607 129.985 73.2607C131.379 73.2607 134.69 64.9011 134.516 61.592C134.342 58.283 134.221 49.6155 132.974 49.8565Z" fill="#2F2E41" style="fill:#2F2E41;fill:color(display-p3 0.1843 0.1804 0.2549);fill-opacity:1;"/>
<path d="M136.02 48.7264L137.616 48.4609C137.616 48.4609 143.542 50.0284 144.413 52.6408L141.973 58.7364C141.973 58.7364 143.716 69.8826 143.193 69.8826H142.67C142.67 69.8826 144.064 70.9275 143.193 71.2759C142.322 71.6242 140.23 74.4107 139.708 73.1916C139.185 71.9725 136.048 57.5172 136.396 54.3824C136.745 51.2475 135.711 49.0548 136.02 48.7264Z" fill="#2F2E41" style="fill:#2F2E41;fill:color(display-p3 0.1843 0.1804 0.2549);fill-opacity:1;"/>
<path d="M136.713 41.6818L136.868 41.3698L136.088 40.9824C136.088 40.9824 135.227 39.5826 133.669 39.976C132.111 40.3693 131.41 40.6048 131.41 40.6048L130.632 40.9962L131.023 41.3846L130.322 41.62L130.79 41.8525L130.245 42.1654L130.538 43.7696C130.538 43.7696 131.025 42.5529 131.962 43.0179C132.898 43.4828 134.611 42.7775 134.611 42.7775L136.099 45.6556C136.099 45.6556 136.406 44.6467 136.954 44.9157C136.954 44.9157 138.352 42.6902 136.713 41.6818Z" fill="#2F2E41" style="fill:#2F2E41;fill:color(display-p3 0.1843 0.1804 0.2549);fill-opacity:1;"/>
<path d="M141.559 72.2443C141.473 72.0342 141.434 71.8078 141.445 71.581C141.456 71.3543 141.517 71.1327 141.622 70.9318C141.728 70.731 141.877 70.5558 142.058 70.4185C142.239 70.2813 142.448 70.1854 142.67 70.1376L143.341 64.6602L145.527 66.518L144.555 71.4347C144.61 71.8128 144.525 72.1982 144.315 72.5179C144.106 72.8375 143.786 73.0692 143.417 73.169C143.048 73.2688 142.655 73.2297 142.312 73.0593C141.97 72.8889 141.702 72.5989 141.559 72.2443Z" fill="#FFB7B7" style="fill:#FFB7B7;fill:color(display-p3 1.0000 0.7176 0.7176);fill-opacity:1;"/>
<path d="M132.21 71.8682C132.273 71.6502 132.288 71.4209 132.253 71.1966C132.218 70.9723 132.134 70.7583 132.008 70.5699C131.881 70.3814 131.715 70.2229 131.52 70.1056C131.326 69.9884 131.108 69.9151 130.882 69.8911L129.634 64.5156L127.657 66.5946L129.146 71.3805C129.13 71.7625 129.256 72.1367 129.498 72.4323C129.741 72.7279 130.083 72.9244 130.461 72.9845C130.839 73.0446 131.225 72.9642 131.548 72.7584C131.87 72.5527 132.106 72.2359 132.21 71.8682Z" fill="#FFB7B7" style="fill:#FFB7B7;fill:color(display-p3 1.0000 0.7176 0.7176);fill-opacity:1;"/>
<path d="M141.644 51.2214C141.644 51.2214 143.91 50.3506 144.607 52.963C145.304 55.5754 146.176 60.8001 146.176 60.8001C146.219 63.7055 146.064 63.7055 146.176 66.5474L145.653 69.1598L142.69 68.8115L142.819 62.1612L141.296 55.4012L141.644 51.2214Z" fill="#2F2E41" style="fill:#2F2E41;fill:color(display-p3 0.1843 0.1804 0.2549);fill-opacity:1;"/>
<path d="M129.112 53.2344L128.038 53.3492C128.038 53.3492 127.021 54.1052 127.021 55.8468C127.021 57.5884 126.847 62.8132 126.847 62.8132C126.847 62.8132 126.748 62.9354 127.544 67.3413C127.932 69.4888 128.602 70.5022 128.602 70.5022L130.766 68.4947L130.506 63.3356L131.204 60.5491L129.112 53.2344Z" fill="#2F2E41" style="fill:#2F2E41;fill:color(display-p3 0.1843 0.1804 0.2549);fill-opacity:1;"/>
<path d="M161.607 105.54H1.39335C1.34756 105.54 1.30365 105.522 1.27127 105.49C1.23889 105.457 1.2207 105.414 1.2207 105.368C1.2207 105.322 1.23889 105.278 1.27127 105.246C1.30365 105.213 1.34756 105.195 1.39335 105.195H161.607C161.653 105.195 161.697 105.213 161.729 105.246C161.761 105.278 161.78 105.322 161.78 105.368C161.78 105.414 161.761 105.457 161.729 105.49C161.697 105.522 161.653 105.54 161.607 105.54Z" fill="#3F3D56" style="fill:#3F3D56;fill:color(display-p3 0.2471 0.2392 0.3373);fill-opacity:1;"/>
<path d="M41.0412 54.2571C43.1416 54.2571 44.8442 52.5556 44.8442 50.4567C44.8442 48.3578 43.1416 46.6562 41.0412 46.6562C38.9409 46.6562 37.2383 48.3578 37.2383 50.4567C37.2383 52.5556 38.9409 54.2571 41.0412 54.2571Z" fill="#FFB8B8" style="fill:#FFB8B8;fill:color(display-p3 1.0000 0.7216 0.7216);fill-opacity:1;"/>
<path d="M39.6681 72.9435C39.6202 72.9435 39.5721 72.9414 39.5238 72.9371C39.2846 72.9172 39.0523 72.8469 38.8422 72.731C38.6321 72.6151 38.4488 72.4561 38.3045 72.2645C38.1601 72.0729 38.0579 71.853 38.0045 71.6191C37.9511 71.3853 37.9478 71.1428 37.9947 70.9076C38.0058 70.853 38.0198 70.7989 38.0366 70.7458L32.4237 64.1119C32.2408 63.894 32.1331 63.623 32.1165 63.3392C32.0999 63.0553 32.1754 62.7736 32.3317 62.536L32.3418 62.5236L37.3941 57.5452C37.6699 57.2734 38.0424 57.1223 38.4298 57.125C38.8171 57.1278 39.1875 57.2842 39.4594 57.5598C39.7313 57.8354 39.8826 58.2077 39.8799 58.5948C39.8771 58.9818 39.7206 59.352 39.4448 59.6237C39.4385 59.63 39.4321 59.6361 39.4256 59.6423L35.7665 63.1186L39.7724 69.5437C39.8482 69.5477 39.9237 69.557 39.9983 69.5715C40.4127 69.6541 40.7815 69.8877 41.0332 70.2269C41.2849 70.566 41.4015 70.9866 41.3604 71.4068C41.3192 71.8271 41.1233 72.2171 40.8105 72.501C40.4978 72.785 40.0906 72.9427 39.6681 72.9435Z" fill="#FFB8B8" style="fill:#FFB8B8;fill:color(display-p3 1.0000 0.7216 0.7216);fill-opacity:1;"/>
<path d="M47.3041 103.348H49.2025L50.1054 96.0312L47.3037 96.0314L47.3041 103.348Z" fill="#FFB8B8" style="fill:#FFB8B8;fill:color(display-p3 1.0000 0.7216 0.7216);fill-opacity:1;"/>
<path d="M46.8193 102.731L50.5577 102.73C51.1895 102.73 51.7956 102.981 52.2424 103.428C52.6892 103.874 52.9402 104.48 52.9402 105.111V105.189L46.8194 105.189L46.8193 102.731Z" fill="#2F2E41" style="fill:#2F2E41;fill:color(display-p3 0.1843 0.1804 0.2549);fill-opacity:1;"/>
<path d="M28.4365 100.729L30.0677 101.699L34.5896 95.8737L32.1824 94.4414L28.4365 100.729Z" fill="#FFB8B8" style="fill:#FFB8B8;fill:color(display-p3 1.0000 0.7216 0.7216);fill-opacity:1;"/>
<path d="M28.3385 99.9453L31.5506 101.857C32.0935 102.18 32.4859 102.705 32.6412 103.317C32.7965 103.929 32.7022 104.578 32.3789 105.12L32.3393 105.187L27.0801 102.058L28.3385 99.9453Z" fill="#2F2E41" style="fill:#2F2E41;fill:color(display-p3 0.1843 0.1804 0.2549);fill-opacity:1;"/>
<path d="M49.6502 100.768H47.5246C47.3525 100.769 47.1864 100.705 47.0584 100.59C46.9304 100.475 46.8497 100.317 46.8318 100.146L44.6888 80.0153C44.6834 79.9646 44.6614 79.9171 44.6263 79.8802C44.5913 79.8432 44.545 79.8188 44.4946 79.8107C44.4443 79.8026 44.3927 79.8113 44.3478 79.8355C44.3029 79.8596 44.2671 79.8979 44.2461 79.9443L40.3802 88.4989L33.5358 99.6521C33.4472 99.7951 33.31 99.9014 33.1494 99.9516C32.9888 100.002 32.8155 99.9924 32.6612 99.9253L29.9269 98.7231C29.8365 98.6833 29.7555 98.6248 29.6895 98.5514C29.6234 98.478 29.5737 98.3914 29.5437 98.2974C29.5137 98.2033 29.504 98.104 29.5153 98.0059C29.5266 97.9078 29.5587 97.8133 29.6093 97.7285L35.9013 87.2003L37.8309 78.3297C37.224 74.4828 39.8258 68.7636 39.8522 68.7061L39.8651 68.6782L47.0319 65.8789L47.0678 65.9229C49.8942 75.1918 51.6164 85.1667 50.3448 100.13C50.3291 100.304 50.2493 100.465 50.1208 100.583C49.9924 100.701 49.8246 100.767 49.6502 100.768Z" fill="#2F2E41" style="fill:#2F2E41;fill:color(display-p3 0.1843 0.1804 0.2549);fill-opacity:1;"/>
<path d="M39.577 69.6152L39.5436 69.5451C39.5277 69.5116 37.9341 66.1528 36.7057 62.5629C36.4696 61.8687 36.3803 61.1331 36.4435 60.4026C36.5068 59.6721 36.7212 58.9627 37.0731 58.3194C37.4295 57.6694 37.9172 57.1004 38.5052 56.6486C39.0932 56.1967 39.7686 55.8718 40.4888 55.6945C41.7391 55.395 43.0554 55.5544 44.198 56.1435C45.3405 56.7326 46.2333 57.7124 46.7136 58.9042C47.688 61.3393 47.3775 63.9384 47.0852 65.9824L47.0794 66.0234L47.0421 66.0412L39.577 69.6152Z" fill="#797D88" style="fill:#797D88;fill:color(display-p3 0.4733 0.4883 0.5333);fill-opacity:1;"/>
<path d="M45.6514 48.3143H39.6128V45.6839C40.9382 45.1576 42.2352 44.7101 43.0192 45.6839C43.7173 45.6839 44.3868 45.961 44.8805 46.4543C45.3741 46.9476 45.6514 47.6167 45.6514 48.3143Z" fill="#2F2E41" style="fill:#2F2E41;fill:color(display-p3 0.1843 0.1804 0.2549);fill-opacity:1;"/>
<path d="M39.2782 45.2188C35.6682 45.2188 34.6577 49.7407 34.6577 52.2918C34.6577 53.7145 35.3016 54.2234 36.3133 54.3956L36.6706 52.4912L37.5075 54.4775C37.7916 54.4789 38.0902 54.4734 38.3997 54.4677L38.6835 53.8838L39.3162 54.4572C41.8504 54.461 43.8986 54.8302 43.8986 52.2918C43.8986 49.7407 43.0124 45.2188 39.2782 45.2188Z" fill="#2F2E41" style="fill:#2F2E41;fill:color(display-p3 0.1843 0.1804 0.2549);fill-opacity:1;"/>
<path d="M55.3249 50.2779C55.3478 50.3199 55.369 50.3631 55.3885 50.4075C55.4857 50.6268 55.5353 50.8642 55.5343 51.104C55.5332 51.3439 55.4815 51.5808 55.3824 51.7993C55.2834 52.0178 55.1393 52.2128 54.9595 52.3718C54.7797 52.5307 54.5684 52.6499 54.3393 52.7215C54.286 52.7379 54.2319 52.7516 54.1772 52.7624L51.0425 60.8654C50.9389 61.1302 50.7526 61.3546 50.5113 61.5052C50.2699 61.6559 49.9864 61.7247 49.7028 61.7016L49.687 61.6986L42.893 59.6547C42.5224 59.5428 42.2115 59.2885 42.0285 58.9476C41.8455 58.6068 41.8054 58.2072 41.917 57.8368C42.0286 57.4664 42.2828 57.1555 42.6237 56.9723C42.9646 56.7891 43.3644 56.7486 43.7352 56.8598C43.7436 56.8623 43.7521 56.8649 43.7605 56.8676L48.5677 58.41L52.2894 51.8164C52.2565 51.748 52.2284 51.6773 52.2055 51.605C52.0794 51.2019 52.1077 50.7665 52.2848 50.3832C52.462 49.9998 52.7754 49.696 53.1642 49.5306C53.5529 49.3652 53.9893 49.3501 54.3886 49.4882C54.7879 49.6263 55.1216 49.9077 55.3249 50.2779Z" fill="#FFB8B8" style="fill:#FFB8B8;fill:color(display-p3 1.0000 0.7216 0.7216);fill-opacity:1;"/>
<path d="M115.722 29.6952C113.182 26.2986 108.534 25.4789 106.224 27.2038C103.914 28.9288 103.383 33.616 105.923 37.0126C108.274 40.1565 112.533 41.014 114.879 39.8361C114.872 39.8729 114.871 39.9108 114.878 39.9477L115.01 40.6012C115.02 40.651 115.043 40.6974 115.076 40.736C115.109 40.7746 115.152 40.8041 115.199 40.8217C115.247 40.8393 115.298 40.8445 115.349 40.8367C115.399 40.8288 115.446 40.8083 115.486 40.777L116.606 39.9026C116.646 39.8713 116.678 39.8303 116.698 39.7835C116.717 39.7366 116.725 39.6855 116.719 39.635C116.714 39.5845 116.695 39.5362 116.666 39.4948C116.636 39.4534 116.597 39.4202 116.551 39.3984L115.948 39.112C115.927 39.1025 115.905 39.0955 115.882 39.0912C117.69 37.1808 118.078 32.846 115.722 29.6952Z" fill="#CCCCCC" style="fill:#CCCCCC;fill:color(display-p3 0.8000 0.8000 0.8000);fill-opacity:1;"/>
<path d="M110.165 28.4154C111.408 28.6126 112.527 29.279 113.292 30.277C114.057 31.2749 114.409 32.5283 114.276 33.7784C114.249 34.0648 114.697 34.0629 114.724 33.7784C114.852 32.431 114.466 31.085 113.642 30.0104C112.819 28.9358 111.619 28.212 110.284 27.9842C110.003 27.9363 109.881 28.3672 110.165 28.4154Z" fill="white" style="fill:white;fill:white;fill-opacity:1;"/>
<path d="M30.9489 33.9558C33.1694 30.3426 32.2148 25.723 29.7577 24.2149C27.3005 22.7068 22.7458 23.9453 20.5253 27.5584C18.4699 30.9028 19.2457 35.175 21.2075 36.9186C21.1705 36.9251 21.1351 36.9387 21.1032 36.9585L20.5444 37.3227C20.5018 37.3505 20.467 37.3887 20.4434 37.4336C20.4197 37.4786 20.4079 37.5289 20.4091 37.5797C20.4104 37.6305 20.4246 37.6802 20.4504 37.7239C20.4763 37.7677 20.5129 37.8041 20.5568 37.8298L21.7836 38.547C21.8275 38.5726 21.8772 38.5867 21.928 38.5877C21.9789 38.5888 22.0292 38.5768 22.0741 38.553C22.119 38.5292 22.1571 38.4943 22.1847 38.4516C22.2124 38.4089 22.2286 38.3599 22.2319 38.3092L22.2757 37.6439C22.2767 37.6207 22.275 37.5975 22.2706 37.5747C24.715 38.5484 28.8891 37.3075 30.9489 33.9558Z" fill="#CCCCCC" style="fill:#CCCCCC;fill:color(display-p3 0.8000 0.8000 0.8000);fill-opacity:1;"/>
<path d="M30.0904 28.3221C30.3659 29.5487 30.1596 30.8342 29.5142 31.9132C28.8687 32.9922 27.8333 33.7824 26.6217 34.1207C26.3453 34.2011 26.5124 34.6162 26.787 34.5363C28.0873 34.1576 29.1962 33.3016 29.8914 32.1401C30.5866 30.9785 30.8166 29.5973 30.5354 28.2733C30.4759 27.994 30.0305 28.0407 30.0904 28.3221Z" fill="white" style="fill:white;fill:white;fill-opacity:1;"/>
<path d="M141.972 7.79677C141.786 3.56067 138.406 0.268025 135.525 0.394129C132.645 0.520234 129.565 4.09562 129.751 8.33171C129.923 12.2527 132.96 15.3576 135.563 15.7039C135.536 15.73 135.514 15.7611 135.499 15.7954L135.24 16.4099C135.22 16.4567 135.213 16.5078 135.218 16.5583C135.224 16.6088 135.242 16.6571 135.272 16.6985C135.301 16.7399 135.341 16.773 135.387 16.7948C135.433 16.8166 135.484 16.8264 135.534 16.823L136.953 16.7305C137.003 16.7271 137.052 16.7109 137.095 16.6833C137.138 16.6557 137.173 16.6177 137.197 16.5728C137.22 16.5279 137.232 16.4777 137.231 16.4269C137.23 16.3761 137.216 16.3264 137.191 16.2825L136.854 15.7069C136.842 15.6871 136.828 15.6688 136.811 15.6524C139.382 15.0908 142.144 11.7263 141.972 7.79677Z" fill="#797D88" style="fill:#797D88;fill:color(display-p3 0.4733 0.4883 0.5333);fill-opacity:1;"/>
<path d="M138.102 3.60995C139.018 4.4719 139.568 5.65228 139.638 6.90746C139.708 8.16263 139.293 9.39678 138.479 10.3552C138.295 10.5765 138.666 10.8268 138.849 10.6069C139.714 9.56539 140.153 8.2356 140.077 6.88423C140.002 5.53286 139.419 4.25983 138.444 3.32045C138.238 3.12242 137.895 3.41045 138.102 3.60995Z" fill="white" style="fill:white;fill:white;fill-opacity:1;"/>
<path d="M115.473 20.026C114.362 19.9561 113.284 19.6242 112.327 19.0575C111.369 18.4909 110.56 17.7056 109.965 16.766C109.799 16.4996 109.581 16.2069 109.696 15.879C109.736 15.7533 109.818 15.6449 109.928 15.5716C110.038 15.4983 110.169 15.4644 110.301 15.4755C110.641 15.5169 110.861 15.8496 110.903 16.1683C110.95 16.5299 110.695 16.8138 110.38 16.9482C109.61 17.2765 108.833 16.7691 108.205 16.3642C106.776 15.4415 105.204 14.6071 103.471 14.502C101.869 14.4047 100.15 15.0326 99.259 16.4215C99.103 16.6644 99.4902 16.889 99.6454 16.6472C100.529 15.2698 102.317 14.7751 103.87 14.988C104.797 15.134 105.691 15.4374 106.514 15.885C106.941 16.1065 107.356 16.352 107.761 16.6102C108.148 16.8795 108.557 17.114 108.985 17.3109C109.698 17.6037 110.642 17.5809 111.14 16.9067C111.605 16.2778 111.246 15.2307 110.469 15.0539C110.298 15.0203 110.122 15.0295 109.956 15.0807C109.79 15.1319 109.639 15.2235 109.517 15.3473C109.395 15.4711 109.306 15.6232 109.257 15.7899C109.208 15.9567 109.202 16.1329 109.238 16.3028C109.316 16.6732 109.595 17.0356 109.811 17.3383C110.46 18.2508 111.305 19.0061 112.285 19.5486C113.265 20.0912 114.354 20.4071 115.473 20.4732C115.76 20.4875 115.76 20.0402 115.473 20.026Z" fill="#CCCCCC" style="fill:#CCCCCC;fill:color(display-p3 0.8000 0.8000 0.8000);fill-opacity:1;"/>
</svg>
