<svg width="424" height="320" viewBox="0 0 424 320" fill="none" xmlns="http://www.w3.org/2000/svg">
<g clip-path="url(#clip0_6416_27890)">
<path d="M244.332 15.5745C247.969 23.3124 240.264 25.5042 231.437 29.6517C222.611 33.7991 216.006 38.3317 212.37 30.5937C208.734 22.8558 205.784 7.49732 218.27 1.63003C231.186 -4.43938 240.696 7.83651 244.332 15.5745Z" fill="#2F2E41"/>
<path d="M226.325 30.7911C232.887 30.7911 238.206 25.4714 238.206 18.9092C238.206 12.347 232.887 7.02734 226.325 7.02734C219.762 7.02734 214.443 12.347 214.443 18.9092C214.443 25.4714 219.762 30.7911 226.325 30.7911Z" fill="#FFB8B8"/>
<path d="M285.19 71.6027C284.778 71.0657 284.367 70.5384 283.951 70.0256C283.414 69.358 282.874 68.7113 282.331 68.0857C276.172 60.9791 269.622 56.5042 262.409 56.0253H262.399L262.293 56.0156L247.92 70.0256L243.034 74.7859L243.14 75.0471L245.777 81.6118H291.972C289.891 78.1574 287.627 74.8163 285.19 71.6027Z" fill="#2F2E41"/>
<path d="M213.404 23.6943L217.657 21.6956L217.065 15.5598L219.909 20.6376L221.942 19.6823L221.596 16.1031L223.256 19.0651L238.361 11.9669C236.942 8.94778 234.382 6.61586 231.244 5.48418C228.106 4.3525 224.647 4.51376 221.628 5.93248L219.439 6.96121C216.419 8.37994 214.088 10.9399 212.956 14.078C211.824 17.216 211.985 20.6751 213.404 23.6943Z" fill="#2F2E41"/>
<path d="M311.845 239.37H63.7498C61.6335 239.368 59.6046 238.526 58.1081 237.03C56.6117 235.533 55.77 233.504 55.7676 231.388V82.3128C55.7693 80.7624 56.386 79.276 57.4822 78.1797C58.5785 77.0833 60.0649 76.4666 61.6153 76.4648H313.878C315.456 76.4666 316.968 77.094 318.083 78.2093C319.198 79.3246 319.826 80.8367 319.827 82.4139V231.388C319.825 233.504 318.983 235.533 317.487 237.03C315.99 238.526 313.962 239.368 311.845 239.37Z" fill="#F2F2F2"/>
<path d="M71.4901 231.388H304.105C306.158 231.388 308.127 230.573 309.578 229.121C311.03 227.67 311.845 225.701 311.845 223.648V97.1192C311.845 95.0664 311.03 93.0976 309.578 91.646C308.127 90.1944 306.158 89.3789 304.105 89.3789H71.4901C69.4372 89.3789 67.4684 90.1944 66.0168 91.646C64.5652 93.0976 63.7498 95.0664 63.7498 97.1192V223.648C63.7498 225.701 64.5652 227.67 66.0168 229.121C67.4684 230.573 69.4372 231.388 71.4901 231.388Z" fill="white"/>
<path d="M319.716 81.8553H55.6555V77.7914C55.6586 75.6681 56.5038 73.6327 58.0057 72.1318C59.5075 70.6308 61.5434 69.7869 63.6668 69.7852H311.705C313.828 69.7869 315.864 70.6308 317.366 72.1318C318.868 73.6327 319.713 75.6681 319.716 77.7914V81.8553Z" fill="#374EA9"/>
<path d="M70.2148 77.9022C71.3592 77.9022 72.2869 76.9744 72.2869 75.83C72.2869 74.6856 71.3592 73.7578 70.2148 73.7578C69.0703 73.7578 68.1426 74.6856 68.1426 75.83C68.1426 76.9744 69.0703 77.9022 70.2148 77.9022Z" fill="white"/>
<path d="M78.0802 77.9022C79.2247 77.9022 80.1524 76.9744 80.1524 75.83C80.1524 74.6856 79.2247 73.7578 78.0802 73.7578C76.9358 73.7578 76.0081 74.6856 76.0081 75.83C76.0081 76.9744 76.9358 77.9022 78.0802 77.9022Z" fill="white"/>
<path d="M85.9457 77.9022C87.0902 77.9022 88.0179 76.9744 88.0179 75.83C88.0179 74.6856 87.0902 73.7578 85.9457 73.7578C84.8013 73.7578 83.8735 74.6856 83.8735 75.83C83.8735 76.9744 84.8013 77.9022 85.9457 77.9022Z" fill="white"/>
<path d="M195.056 203.947H174.254C173.035 203.945 171.867 203.461 171.006 202.599C170.144 201.738 169.659 200.569 169.658 199.351V178.549C169.659 177.33 170.144 176.162 171.006 175.301C171.867 174.439 173.035 173.955 174.254 173.953H195.056C196.274 173.955 197.442 174.439 198.304 175.301C199.166 176.162 199.65 177.33 199.652 178.549V199.351C199.65 200.569 199.166 201.738 198.304 202.599C197.442 203.461 196.274 203.945 195.056 203.947ZM174.254 174.921C173.292 174.922 172.37 175.304 171.689 175.985C171.009 176.665 170.627 177.587 170.625 178.549V199.351C170.627 200.313 171.009 201.235 171.689 201.915C172.37 202.596 173.292 202.978 174.254 202.979H195.056C196.018 202.978 196.94 202.596 197.62 201.915C198.3 201.235 198.683 200.313 198.684 199.351V178.549C198.683 177.587 198.3 176.665 197.62 175.985C196.94 175.304 196.018 174.922 195.056 174.921H174.254Z" fill="#CCCCCC"/>
<path d="M190.944 198.141H178.366C177.981 198.141 177.612 197.988 177.34 197.715C177.068 197.443 176.915 197.075 176.915 196.69V181.209C176.915 180.824 177.068 180.455 177.34 180.183C177.612 179.911 177.981 179.758 178.366 179.758H187.48C187.81 179.758 188.131 179.871 188.389 180.078L191.853 182.861C192.022 182.997 192.159 183.169 192.253 183.365C192.347 183.561 192.396 183.775 192.395 183.993V196.69C192.395 197.075 192.242 197.443 191.97 197.715C191.698 197.988 191.329 198.141 190.944 198.141ZM178.366 180.725C178.238 180.726 178.115 180.777 178.024 180.867C177.933 180.958 177.882 181.081 177.882 181.209V196.69C177.882 196.818 177.933 196.941 178.024 197.032C178.115 197.122 178.238 197.173 178.366 197.173H190.944C191.072 197.173 191.195 197.122 191.286 197.032C191.376 196.941 191.427 196.818 191.428 196.69V183.993C191.428 183.92 191.412 183.849 191.38 183.784C191.349 183.718 191.303 183.661 191.247 183.616L187.783 180.832C187.697 180.763 187.59 180.725 187.48 180.725H178.366Z" fill="#CCCCCC"/>
<path d="M188.525 186.53H180.785C180.656 186.53 180.533 186.479 180.442 186.388C180.352 186.298 180.301 186.175 180.301 186.046C180.301 185.918 180.352 185.795 180.442 185.704C180.533 185.613 180.656 185.562 180.785 185.562H188.525C188.653 185.562 188.776 185.613 188.867 185.704C188.958 185.795 189.009 185.918 189.009 186.046C189.009 186.175 188.958 186.298 188.867 186.388C188.776 186.479 188.653 186.53 188.525 186.53Z" fill="#CCCCCC"/>
<path d="M188.525 189.432H180.785C180.656 189.432 180.533 189.381 180.442 189.291C180.352 189.2 180.301 189.077 180.301 188.949C180.301 188.82 180.352 188.697 180.442 188.607C180.533 188.516 180.656 188.465 180.785 188.465H188.525C188.653 188.465 188.776 188.516 188.867 188.607C188.958 188.697 189.009 188.82 189.009 188.949C189.009 189.077 188.958 189.2 188.867 189.291C188.776 189.381 188.653 189.432 188.525 189.432Z" fill="#CCCCCC"/>
<path d="M188.525 192.335H180.785C180.656 192.335 180.533 192.284 180.442 192.193C180.352 192.102 180.301 191.979 180.301 191.851C180.301 191.723 180.352 191.6 180.442 191.509C180.533 191.418 180.656 191.367 180.785 191.367H188.525C188.653 191.367 188.776 191.418 188.867 191.509C188.958 191.6 189.009 191.723 189.009 191.851C189.009 191.979 188.958 192.102 188.867 192.193C188.776 192.284 188.653 192.335 188.525 192.335Z" fill="#CCCCCC"/>
<path d="M244.4 203.947H223.598C222.38 203.945 221.212 203.461 220.35 202.599C219.488 201.738 219.004 200.569 219.002 199.351V178.549C219.004 177.33 219.488 176.162 220.35 175.301C221.212 174.439 222.38 173.955 223.598 173.953H244.4C245.619 173.955 246.787 174.439 247.649 175.301C248.51 176.162 248.995 177.33 248.996 178.549V199.351C248.995 200.569 248.51 201.738 247.649 202.599C246.787 203.461 245.619 203.945 244.4 203.947ZM223.598 174.921C222.636 174.922 221.714 175.304 221.034 175.985C220.354 176.665 219.971 177.587 219.97 178.549V199.351C219.971 200.313 220.354 201.235 221.034 201.915C221.714 202.596 222.636 202.978 223.598 202.979H244.4C245.362 202.978 246.285 202.596 246.965 201.915C247.645 201.235 248.028 200.313 248.029 199.351V178.549C248.028 177.587 247.645 176.665 246.965 175.985C246.285 175.304 245.362 174.922 244.4 174.921H223.598Z" fill="#CCCCCC"/>
<path d="M240.772 194.272H227.226C226.842 194.271 226.473 194.118 226.201 193.846C225.929 193.574 225.776 193.205 225.775 192.821V185.08C225.776 184.695 225.929 184.327 226.201 184.054C226.473 183.782 226.842 183.629 227.226 183.629H240.772C241.157 183.629 241.526 183.782 241.798 184.054C242.07 184.327 242.223 184.695 242.223 185.08V192.821C242.223 193.205 242.07 193.574 241.798 193.846C241.526 194.118 241.157 194.271 240.772 194.272ZM227.226 184.596C227.098 184.597 226.975 184.648 226.885 184.738C226.794 184.829 226.743 184.952 226.743 185.08V192.821C226.743 192.949 226.794 193.072 226.885 193.162C226.975 193.253 227.098 193.304 227.226 193.304H240.772C240.9 193.304 241.023 193.253 241.114 193.162C241.205 193.072 241.256 192.949 241.256 192.821V185.08C241.256 184.952 241.205 184.829 241.114 184.738C241.023 184.648 240.9 184.597 240.772 184.596H227.226Z" fill="#CCCCCC"/>
<path d="M233.999 190.227C233.727 190.228 233.461 190.152 233.23 190.009L226.002 185.491C225.894 185.423 225.817 185.315 225.788 185.19C225.759 185.065 225.781 184.934 225.849 184.825C225.917 184.716 226.026 184.639 226.15 184.61C226.275 184.581 226.407 184.603 226.515 184.671L233.743 189.188C233.82 189.236 233.909 189.261 233.999 189.261C234.09 189.261 234.179 189.236 234.256 189.188L241.483 184.671C241.592 184.603 241.723 184.581 241.848 184.61C241.973 184.639 242.081 184.716 242.149 184.825C242.217 184.934 242.239 185.065 242.21 185.19C242.182 185.315 242.105 185.423 241.996 185.491L234.769 190.009C234.538 190.152 234.271 190.228 233.999 190.227Z" fill="#CCCCCC"/>
<path d="M145.711 203.947H124.909C123.691 203.945 122.523 203.461 121.661 202.599C120.8 201.738 120.315 200.569 120.313 199.351V178.549C120.315 177.33 120.8 176.162 121.661 175.301C122.523 174.439 123.691 173.955 124.909 173.953H145.711C146.93 173.955 148.098 174.439 148.96 175.301C149.821 176.162 150.306 177.33 150.307 178.549V199.351C150.306 200.569 149.821 201.738 148.96 202.599C148.098 203.461 146.93 203.945 145.711 203.947ZM124.909 174.921C123.947 174.922 123.025 175.304 122.345 175.985C121.665 176.665 121.282 177.587 121.281 178.549V199.351C121.282 200.313 121.665 201.235 122.345 201.915C123.025 202.596 123.947 202.978 124.909 202.979H145.711C146.673 202.978 147.596 202.596 148.276 201.915C148.956 201.235 149.339 200.313 149.34 199.351V178.549C149.339 177.587 148.956 176.665 148.276 175.985C147.596 175.304 146.673 174.922 145.711 174.921H124.909Z" fill="#CCCCCC"/>
<path d="M142.083 194.272H128.537C128.153 194.271 127.784 194.118 127.512 193.846C127.24 193.574 127.087 193.205 127.086 192.821V185.08C127.087 184.695 127.24 184.327 127.512 184.054C127.784 183.782 128.153 183.629 128.537 183.629H142.083C142.468 183.629 142.837 183.782 143.109 184.054C143.381 184.327 143.534 184.695 143.534 185.08V192.821C143.534 193.205 143.381 193.574 143.109 193.846C142.837 194.118 142.468 194.271 142.083 194.272ZM128.537 184.596C128.409 184.597 128.286 184.648 128.196 184.738C128.105 184.829 128.054 184.952 128.054 185.08V192.821C128.054 192.949 128.105 193.072 128.196 193.162C128.286 193.253 128.409 193.304 128.537 193.304H142.083C142.211 193.304 142.334 193.253 142.425 193.162C142.516 193.072 142.567 192.949 142.567 192.821V185.08C142.567 184.952 142.516 184.829 142.425 184.738C142.334 184.648 142.211 184.597 142.083 184.596H128.537Z" fill="#CCCCCC"/>
<path d="M139.936 194.272H130.201C130.031 194.273 129.864 194.228 129.717 194.143C129.57 194.058 129.448 193.936 129.363 193.789C129.278 193.642 129.233 193.475 129.233 193.305C129.233 193.135 129.278 192.968 129.363 192.821L132.295 187.742C132.38 187.594 132.502 187.472 132.649 187.387C132.797 187.303 132.963 187.258 133.133 187.258C133.303 187.258 133.47 187.303 133.617 187.387C133.764 187.472 133.886 187.594 133.971 187.742L135.865 191.022L136.962 189.122C137.047 188.974 137.17 188.852 137.317 188.767C137.464 188.682 137.631 188.638 137.8 188.638C137.97 188.638 138.137 188.682 138.284 188.767C138.431 188.852 138.553 188.974 138.638 189.122L140.774 192.821C140.859 192.968 140.904 193.135 140.904 193.305C140.904 193.475 140.859 193.642 140.774 193.789C140.689 193.936 140.567 194.058 140.42 194.143C140.273 194.228 140.106 194.272 139.936 194.272ZM139.936 193.305L137.8 189.605L136.284 192.232C136.242 192.305 136.181 192.366 136.107 192.409C136.034 192.451 135.95 192.473 135.865 192.473C135.78 192.473 135.697 192.451 135.623 192.409C135.55 192.366 135.489 192.305 135.446 192.232L133.133 188.225L130.201 193.305H139.936Z" fill="#CCCCCC"/>
<path d="M140.632 187.498C141.166 187.498 141.599 187.064 141.599 186.53C141.599 185.996 141.166 185.562 140.632 185.562C140.097 185.562 139.664 185.996 139.664 186.53C139.664 187.064 140.097 187.498 140.632 187.498Z" fill="#CCCCCC"/>
<path d="M371.977 313.557L366.046 313.556L363.225 290.68L371.978 290.68L371.977 313.557Z" fill="#FFB8B8"/>
<path d="M373.49 319.303L354.366 319.302V319.061C354.366 318.083 354.558 317.115 354.933 316.212C355.307 315.309 355.855 314.488 356.546 313.797C357.237 313.106 358.058 312.558 358.961 312.184C359.864 311.81 360.832 311.617 361.809 311.617H361.81L373.49 311.618L373.49 319.303Z" fill="#2F2E41"/>
<path d="M396.166 313.557L390.235 313.556L387.414 290.68L396.167 290.68L396.166 313.557Z" fill="#FFB8B8"/>
<path d="M397.678 319.303L378.555 319.302V319.061C378.555 318.083 378.747 317.115 379.121 316.212C379.495 315.309 380.044 314.488 380.735 313.797C381.426 313.106 382.247 312.558 383.15 312.184C384.053 311.81 385.021 311.617 385.998 311.617H385.999L397.679 311.618L397.678 319.303Z" fill="#2F2E41"/>
<path d="M394.388 303.64L388.895 301.969C388.485 301.845 388.122 301.603 387.849 301.273C387.577 300.943 387.408 300.54 387.363 300.114L382.242 251.58C382.238 251.521 382.212 251.466 382.169 251.426C382.126 251.386 382.069 251.363 382.011 251.363C381.952 251.358 381.893 251.375 381.847 251.412C381.801 251.449 381.771 251.503 381.764 251.561L373.186 298.583C373.134 298.869 373.025 299.141 372.867 299.383C372.708 299.626 372.502 299.835 372.262 299.997C372.022 300.159 371.751 300.272 371.467 300.328C371.182 300.384 370.889 300.383 370.605 300.325L363.585 298.879C363.07 298.771 362.611 298.481 362.293 298.062C361.975 297.644 361.818 297.124 361.852 296.599L367.07 219.529L402.452 215.711L397.194 301.69C397.16 302.242 396.917 302.761 396.514 303.141C396.111 303.521 395.579 303.733 395.025 303.735C394.809 303.735 394.594 303.703 394.388 303.64Z" fill="#2F2E41"/>
<path d="M394.354 152.412C400.916 152.412 406.236 147.092 406.236 140.53C406.236 133.968 400.916 128.648 394.354 128.648C387.792 128.648 382.472 133.968 382.472 140.53C382.472 147.092 387.792 152.412 394.354 152.412Z" fill="#FFB8B8"/>
<path d="M367.016 219.98L374.687 171.676C375.095 169.107 376.045 166.655 377.475 164.483C378.904 162.31 380.78 160.467 382.977 159.076C385.174 157.685 387.642 156.777 390.217 156.414C392.792 156.051 395.415 156.24 397.911 156.969C402.275 158.232 406.012 161.076 408.392 164.946C410.771 168.816 411.623 173.434 410.78 177.898L402.753 221.037L367.016 219.98Z" fill="#374EA9"/>
<path d="M397.635 228.623C398.228 228.231 398.728 227.714 399.1 227.108C399.472 226.502 399.707 225.821 399.787 225.115C399.868 224.408 399.793 223.693 399.567 223.018C399.341 222.344 398.97 221.727 398.48 221.212L406.412 205.852L397.479 206.805L391.316 221.245C390.505 222.126 390.045 223.273 390.023 224.47C390.001 225.668 390.419 226.831 391.198 227.741C391.977 228.65 393.062 229.242 394.249 229.405C395.435 229.568 396.64 229.289 397.635 228.623Z" fill="#FFB8B8"/>
<path d="M399.333 218.501C398.894 218.439 398.485 218.245 398.159 217.944L395.124 215.14C394.797 214.836 394.57 214.438 394.476 214.001C394.381 213.563 394.423 213.108 394.596 212.695L400.661 198.318L399.801 169.911C399.925 168.998 400.227 168.118 400.691 167.322C401.155 166.526 401.771 165.829 402.505 165.271C403.238 164.713 404.074 164.305 404.966 164.071C405.857 163.836 406.785 163.78 407.698 163.904C408.611 164.029 409.491 164.332 410.287 164.797C411.083 165.261 411.779 165.878 412.336 166.612C412.893 167.346 413.3 168.183 413.534 169.074C413.768 169.965 413.824 170.894 413.698 171.807L415.169 189.664C415.617 195.084 414.08 200.481 410.846 204.853L401.387 217.64C401.205 217.886 400.973 218.091 400.707 218.241C400.441 218.391 400.146 218.484 399.841 218.513C399.672 218.529 399.501 218.525 399.333 218.501Z" fill="#374EA9"/>
<path d="M325.93 134.055C326.06 134.754 326.341 135.416 326.754 135.995C327.167 136.574 327.702 137.055 328.322 137.405C328.941 137.755 329.629 137.964 330.338 138.019C331.047 138.074 331.76 137.973 332.426 137.723L343.478 151.016L346.083 142.418L335.188 131.113C334.693 130.023 333.816 129.151 332.722 128.665C331.628 128.178 330.394 128.109 329.253 128.472C328.111 128.834 327.143 129.603 326.531 130.632C325.918 131.661 325.705 132.879 325.93 134.055Z" fill="#FFB8B8"/>
<path d="M334.588 139.565C334.816 139.185 335.154 138.884 335.558 138.701L339.324 137C339.732 136.817 340.186 136.763 340.626 136.847C341.065 136.93 341.469 137.147 341.781 137.467L352.655 148.658L379.15 158.941C379.942 159.411 380.635 160.032 381.187 160.77C381.74 161.508 382.142 162.347 382.37 163.24C382.598 164.133 382.647 165.062 382.516 165.974C382.384 166.887 382.074 167.764 381.604 168.556C381.133 169.349 380.511 170.04 379.772 170.592C379.034 171.144 378.194 171.545 377.301 171.771C376.408 171.998 375.478 172.047 374.566 171.914C373.654 171.782 372.777 171.471 371.985 170.999L354.968 165.392C349.803 163.69 345.432 160.171 342.667 155.488L334.58 141.792C334.424 141.529 334.326 141.236 334.292 140.932C334.257 140.628 334.287 140.32 334.379 140.029C334.43 139.867 334.5 139.711 334.588 139.565Z" fill="#374EA9"/>
<path opacity="0.1" d="M403.992 181.73L403.508 197.211L394.596 212.697L402.037 195.439L403.992 181.73Z" fill="black"/>
<path d="M392.993 142.763C392.247 142.86 391.49 142.683 390.865 142.265C390.239 141.846 389.787 141.215 389.592 140.488C389.403 139.652 388.991 138.883 388.398 138.263C387.806 137.643 387.056 137.196 386.229 136.97C384.049 136.472 381.386 137.498 379.788 135.846C379.446 135.469 379.199 135.016 379.067 134.525C378.934 134.034 378.92 133.518 379.026 133.02C379.32 131.415 380.468 130.203 381.718 129.233C384.347 127.202 387.528 126.013 390.844 125.822C392.561 125.773 394.279 125.858 395.982 126.078C397.766 126.19 399.53 126.513 401.238 127.038C403.184 127.773 404.913 128.986 406.266 130.565C407.619 132.145 408.552 134.04 408.979 136.075C409.37 138.117 409.31 140.219 408.803 142.236C408.297 144.252 407.357 146.133 406.049 147.749C404.483 149.699 402.463 151.237 400.166 152.228C399.619 152.486 398.992 152.518 398.421 152.316C396.991 151.748 397.225 149.975 397.877 148.793C398.575 147.528 399.649 146.304 399.088 144.764C398.806 144.05 398.266 143.469 397.575 143.136C396.153 142.41 394.562 142.582 393.033 142.759L392.993 142.763Z" fill="#2F2E41"/>
<path d="M321.96 149.472H174.894C172.778 149.469 170.749 148.628 169.252 147.131C167.756 145.635 166.914 143.606 166.912 141.49V110.045C166.914 107.928 167.756 105.9 169.252 104.403C170.749 102.907 172.778 102.065 174.894 102.062H321.96C324.076 102.065 326.105 102.907 327.601 104.403C329.098 105.9 329.939 107.928 329.942 110.045V141.49C329.939 143.606 329.098 145.635 327.601 147.131C326.105 148.628 324.076 149.469 321.96 149.472Z" fill="white"/>
<path d="M321.959 149.713H174.894C172.713 149.711 170.623 148.844 169.081 147.302C167.539 145.76 166.672 143.67 166.669 141.489V110.044C166.672 107.864 167.539 105.774 169.081 104.232C170.623 102.69 172.713 101.823 174.894 101.82H321.959C324.14 101.823 326.23 102.69 327.772 104.232C329.314 105.774 330.181 107.864 330.183 110.044V141.489C330.181 143.67 329.314 145.76 327.772 147.302C326.23 148.844 324.14 149.711 321.959 149.713ZM174.894 102.788C172.97 102.79 171.125 103.555 169.765 104.916C168.404 106.276 167.639 108.12 167.637 110.044V141.489C167.639 143.413 168.404 145.258 169.765 146.618C171.125 147.978 172.97 148.744 174.894 148.746H321.959C323.883 148.744 325.728 147.978 327.088 146.618C328.449 145.258 329.214 143.413 329.216 141.489V110.044C329.214 108.12 328.449 106.276 327.088 104.916C325.728 103.555 323.883 102.79 321.959 102.788H174.894Z" fill="#3F3D56"/>
<path d="M304.06 141.733H192.793C190.677 141.73 188.648 140.889 187.151 139.392C185.655 137.896 184.813 135.867 184.811 133.751V117.302C184.813 115.186 185.655 113.157 187.151 111.661C188.648 110.164 190.677 109.323 192.793 109.32H304.06C306.176 109.323 308.205 110.164 309.702 111.661C311.198 113.157 312.04 115.186 312.042 117.302V133.751C312.04 135.867 311.198 137.896 309.702 139.392C308.205 140.889 306.176 141.73 304.06 141.733Z" fill="#F2F2F2"/>
<path d="M216.737 132.865C222.009 132.865 226.283 128.591 226.283 123.319C226.283 118.047 222.009 113.773 216.737 113.773C211.465 113.773 207.191 118.047 207.191 123.319C207.191 128.591 211.465 132.865 216.737 132.865Z" fill="#FF6584"/>
<path d="M297.146 140.767L283.671 129.466L270.43 118.361C270.08 118.068 269.639 117.907 269.183 117.908C268.726 117.909 268.285 118.071 267.937 118.365L254.738 129.522L251.514 132.247L246.653 128.17L231.88 115.781C231.531 115.487 231.089 115.327 230.633 115.328C230.177 115.329 229.736 115.491 229.388 115.785L214.663 128.232L199.706 140.874C199.63 140.939 199.576 141.024 199.551 141.12C199.525 141.216 199.53 141.318 199.564 141.411C199.599 141.504 199.661 141.584 199.742 141.641C199.823 141.698 199.92 141.728 200.019 141.728L230.684 141.669L240.39 141.65L240.295 141.73L269.228 141.674L296.836 141.621C296.935 141.621 297.032 141.59 297.113 141.533C297.194 141.476 297.256 141.396 297.29 141.303C297.323 141.209 297.328 141.108 297.302 141.012C297.276 140.916 297.222 140.831 297.146 140.767Z" fill="#3F3D56"/>
<path d="M423.473 319.999H330.589C330.461 319.999 330.338 319.948 330.247 319.857C330.156 319.766 330.105 319.643 330.105 319.515C330.105 319.387 330.156 319.264 330.247 319.173C330.338 319.082 330.461 319.031 330.589 319.031H423.473C423.601 319.031 423.724 319.082 423.815 319.173C423.906 319.264 423.957 319.387 423.957 319.515C423.957 319.643 423.906 319.766 423.815 319.857C423.724 319.948 423.601 319.999 423.473 319.999Z" fill="#CCCCCC"/>
<path d="M292.267 63.8136C291.881 63.1857 291.371 62.6432 290.768 62.219C290.165 61.7948 289.481 61.4979 288.76 61.3464C288.496 61.2908 288.227 61.2568 287.957 61.2448L251.098 28.2904C250.374 27.5463 249.409 27.0849 248.375 26.9891C248.171 26.9657 247.965 26.9592 247.761 26.9698C246.91 27.0084 246.089 27.294 245.399 27.7916C244.708 28.2893 244.177 28.9774 243.871 29.7718C243.565 30.5663 243.498 31.4326 243.676 32.2649C243.855 33.0973 244.272 33.8595 244.877 34.4585L258.989 46.7607L282.161 66.9581C282.18 67.3385 282.237 67.7161 282.331 68.0853C282.608 69.1549 283.204 70.1148 284.039 70.838C284.875 71.5611 285.91 72.0133 287.009 72.1344C288.01 72.2514 289.025 72.0838 289.936 71.6507C290.658 71.3129 291.298 70.8228 291.813 70.2139C291.866 70.151 291.914 70.0929 291.963 70.0252C292.639 69.1437 293.031 68.0768 293.085 66.967C293.139 65.8572 292.854 64.7571 292.267 63.8136Z" fill="#FFB8B8"/>
<path d="M229.222 95.5741L228.879 81.6125L228.589 70.0263L228.39 61.9183L227.998 46.1136C227.921 45.2674 227.599 44.4621 227.071 43.7959C226.544 43.1298 225.833 42.6317 225.028 42.3623C224.222 42.093 223.355 42.0642 222.533 42.2793C221.711 42.4944 220.969 42.9442 220.398 43.5738C220.264 43.7176 220.143 43.8731 220.036 44.0382C219.44 44.8912 219.172 45.9304 219.281 46.965L220.142 70.0263L220.573 81.6125L221.124 96.3917C220.965 96.6088 220.821 96.8368 220.694 97.0738C220.35 97.7261 220.142 98.4416 220.083 99.1768C220.024 99.9119 220.115 100.651 220.35 101.35C220.596 102.083 220.994 102.756 221.519 103.324C222.043 103.892 222.682 104.342 223.393 104.645C224.104 104.948 224.872 105.097 225.645 105.082C226.418 105.067 227.179 104.888 227.877 104.558C228.689 104.174 229.394 103.596 229.929 102.875C230.465 102.154 230.814 101.313 230.947 100.425C231.08 99.5368 230.992 98.6297 230.692 97.7837C230.391 96.9377 229.886 96.1788 229.222 95.5741Z" fill="#FFB8B8"/>
<path d="M262.409 56.0254L258.989 46.7612L253.454 31.7547C253.055 30.6629 252.415 29.6749 251.582 28.8643C250.748 28.0536 249.743 27.441 248.641 27.0719C248.554 27.0428 248.462 27.0138 248.375 26.9896C247.307 26.6655 246.182 26.5763 245.076 26.7283C243.97 26.8803 242.911 27.2698 241.97 27.87L223.33 39.6934C221.623 40.7737 220.403 42.4753 219.927 44.4387C219.451 46.402 219.757 48.4735 220.781 50.2153C223.112 54.246 225.652 58.1521 228.39 61.9177C230.563 64.8735 234.607 65.188 235.308 70.0257H249.052L262.965 57.5348L262.409 56.0254Z" fill="#CCCCCC"/>
<path d="M48.9837 169.248C55.1746 169.248 60.1934 164.229 60.1934 158.038C60.1934 151.847 55.1746 146.828 48.9837 146.828C42.7927 146.828 37.7739 151.847 37.7739 158.038C37.7739 164.229 42.7927 169.248 48.9837 169.248Z" fill="#A0616A"/>
<path d="M76.5039 150.321C76.6143 150.409 76.7214 150.502 76.8251 150.601C77.34 151.086 77.7467 151.674 78.0184 152.327C78.2901 152.981 78.4207 153.684 78.4016 154.391C78.3826 155.098 78.2143 155.794 77.9078 156.431C77.6014 157.069 77.1636 157.635 76.6233 158.091C76.4973 158.197 76.3659 158.296 76.2296 158.388L76.9883 184.001C77.0099 184.84 76.7605 185.663 76.2773 186.348C75.7941 187.034 75.1027 187.545 74.3058 187.807L74.2595 187.817L53.463 190.032C52.8976 190.092 52.3258 190.039 51.7808 189.877C51.2358 189.715 50.7283 189.447 50.2876 189.087C49.8469 188.728 49.4818 188.285 49.2132 187.784C48.9447 187.283 48.7781 186.733 48.7231 186.167C48.6681 185.602 48.7257 185.03 48.8927 184.487C49.0596 183.943 49.3326 183.438 49.6958 183.001C50.0591 182.563 50.5054 182.202 51.0089 181.938C51.5125 181.674 52.0634 181.513 52.6298 181.463L67.4546 180.157L70.0184 157.976C69.8507 157.827 69.6936 157.667 69.5483 157.497C68.7445 156.545 68.3229 155.329 68.3654 154.084C68.4079 152.84 68.9115 151.655 69.7784 150.761C70.6453 149.867 71.8136 149.326 73.0564 149.245C74.2993 149.164 75.5279 149.547 76.5039 150.321Z" fill="#A0616A"/>
<path d="M67.446 314.051H73.0418L75.7035 292.469H67.4451L67.446 314.051Z" fill="#A0616A"/>
<path d="M66.019 312.223L77.0383 312.223C77.9605 312.223 78.8742 312.404 79.7262 312.757C80.5782 313.11 81.3523 313.627 82.0044 314.279C82.6565 314.931 83.1738 315.706 83.5267 316.558C83.8796 317.41 84.0612 318.323 84.0612 319.245V319.473L66.0194 319.474L66.019 312.223Z" fill="#2F2E41"/>
<path d="M11.8311 306.314L16.6388 309.176L29.968 291.994L22.8721 287.77L11.8311 306.314Z" fill="#A0616A"/>
<path d="M11.5392 304.016L21.0073 309.653C21.7997 310.125 22.4918 310.748 23.0433 311.487C23.5948 312.226 23.9953 313.067 24.222 313.961C24.4487 314.855 24.497 315.785 24.3644 316.697C24.2317 317.61 23.9205 318.487 23.4487 319.28L23.332 319.476L7.82983 310.246L11.5392 304.016Z" fill="#2F2E41"/>
<path d="M74.3619 306.426H68.0963C67.5889 306.427 67.0993 306.239 66.7221 305.9C66.3449 305.561 66.1069 305.094 66.0541 304.589L59.7374 245.212C59.7215 245.063 59.6568 244.923 59.5534 244.814C59.4499 244.705 59.3135 244.633 59.1651 244.609C59.0167 244.585 58.8645 244.611 58.7322 244.682C58.5998 244.753 58.4945 244.866 58.4326 245.003L47.0372 270.236L26.8623 303.133C26.6012 303.555 26.1969 303.869 25.7235 304.017C25.2501 304.165 24.7392 304.137 24.2844 303.939L16.2246 300.393C15.9581 300.276 15.7196 300.103 15.5249 299.887C15.3302 299.67 15.1838 299.415 15.0952 299.137C15.0067 298.86 14.9782 298.567 15.0116 298.278C15.0449 297.988 15.1394 297.709 15.2886 297.459L33.8349 266.405L39.5229 240.241C37.734 228.894 45.4032 212.024 45.4809 211.855L45.5189 211.772L66.6439 203.516L66.7499 203.645C75.0809 230.985 80.1575 260.407 76.4091 304.544C76.3629 305.056 76.1276 305.532 75.7491 305.88C75.3706 306.228 74.876 306.423 74.3619 306.426Z" fill="#2F2E41"/>
<path d="M44.668 214.539L44.5696 214.332C44.5226 214.233 39.8252 204.326 36.2042 193.738C35.5083 191.69 35.2453 189.52 35.4317 187.365C35.6181 185.211 36.2499 183.118 37.2872 181.221C38.3379 179.303 39.7754 177.625 41.5086 176.293C43.2418 174.96 45.2328 174.001 47.3557 173.478C51.041 172.595 54.9211 173.065 58.2889 174.803C61.6567 176.541 64.2882 179.43 65.704 182.946C68.5762 190.128 67.6608 197.795 66.7994 203.824L66.7822 203.945L66.6723 203.997L44.668 214.539Z" fill="#3F3D56"/>
<path d="M62.5754 151.707H44.7756V143.948C48.6825 142.396 52.5055 141.076 54.8165 143.948C56.8743 143.948 58.8478 144.766 60.3028 146.221C61.7579 147.676 62.5754 149.65 62.5754 151.707Z" fill="#2F2E41"/>
<path d="M43.7901 142.578C33.1491 142.578 30.1707 155.916 30.1707 163.441C30.1707 167.637 32.0685 169.138 35.0507 169.646L36.1039 164.029L38.5707 169.888C39.4084 169.892 40.2884 169.876 41.2008 169.859L42.0371 168.137L43.9022 169.828C51.372 169.839 57.4093 170.928 57.4093 163.441C57.4093 155.916 54.7973 142.578 43.7901 142.578Z" fill="#2F2E41"/>
<path d="M93.4109 319.999H0.527226C0.398923 319.999 0.275874 319.948 0.185149 319.857C0.0944251 319.766 0.043457 319.643 0.043457 319.515C0.043457 319.387 0.0944251 319.264 0.185149 319.173C0.275874 319.082 0.398923 319.031 0.527226 319.031H93.4109C93.5392 319.031 93.6623 319.082 93.753 319.173C93.8437 319.264 93.8947 319.387 93.8947 319.515C93.8947 319.643 93.8437 319.766 93.753 319.857C93.6623 319.948 93.5392 319.999 93.4109 319.999Z" fill="#CCCCCC"/>
<path d="M95.1574 160.841H74.3553C73.1369 160.84 71.9687 160.355 71.1071 159.494C70.2456 158.632 69.7609 157.464 69.7595 156.246V135.443C69.7609 134.225 70.2456 133.057 71.1071 132.195C71.9687 131.334 73.1369 130.849 74.3553 130.848H95.1574C96.3759 130.849 97.544 131.334 98.4056 132.195C99.2672 133.057 99.7518 134.225 99.7532 135.443V156.246C99.7518 157.464 99.2672 158.632 98.4056 159.494C97.544 160.355 96.3759 160.84 95.1574 160.841Z" fill="white"/>
<path d="M95.1574 160.841H74.3553C73.1369 160.84 71.9687 160.355 71.1071 159.494C70.2456 158.632 69.7609 157.464 69.7595 156.246V135.443C69.7609 134.225 70.2456 133.057 71.1071 132.195C71.9687 131.334 73.1369 130.849 74.3553 130.848H95.1574C96.3759 130.849 97.544 131.334 98.4056 132.195C99.2672 133.057 99.7518 134.225 99.7532 135.443V156.246C99.7518 157.464 99.2672 158.632 98.4056 159.494C97.544 160.355 96.3759 160.84 95.1574 160.841ZM74.3553 131.815C73.3934 131.816 72.4711 132.199 71.7909 132.879C71.1107 133.559 70.7281 134.482 70.7271 135.443V156.246C70.7281 157.207 71.1107 158.13 71.7909 158.81C72.4711 159.49 73.3934 159.873 74.3553 159.874H95.1574C96.1194 159.873 97.0416 159.49 97.7218 158.81C98.402 158.13 98.7846 157.207 98.7857 156.246V135.443C98.7846 134.482 98.402 133.559 97.7218 132.879C97.0416 132.199 96.1194 131.816 95.1574 131.815H74.3553Z" fill="#3F3D56"/>
<path d="M91.5291 152.374H77.9835C77.5988 152.374 77.2299 152.221 76.9578 151.949C76.6857 151.677 76.5326 151.308 76.5322 150.923V140.764C76.5326 140.379 76.6857 140.01 76.9578 139.738C77.2299 139.466 77.5988 139.313 77.9835 139.313H81.7968C82.0448 139.312 82.2889 139.375 82.5054 139.496C82.7219 139.617 82.9036 139.791 83.0329 140.003L84.0963 141.731H91.5291C91.9139 141.732 92.2828 141.885 92.5548 142.157C92.8269 142.429 92.98 142.798 92.9804 143.183V150.923C92.98 151.308 92.8269 151.677 92.5548 151.949C92.2828 152.221 91.9139 152.374 91.5291 152.374Z" fill="#374EA9"/>
<path d="M91.0887 157.508C91.1563 157.632 91.2189 157.759 91.2762 157.89C91.5626 158.537 91.709 159.237 91.706 159.945C91.7029 160.652 91.5504 161.351 91.2584 161.995C90.9664 162.64 90.5415 163.215 90.0117 163.684C89.4818 164.153 88.8588 164.504 88.1836 164.715C88.0265 164.764 87.8669 164.804 87.7056 164.836L78.4659 188.737C78.1604 189.518 77.6113 190.18 76.8999 190.624C76.1885 191.068 75.3528 191.272 74.5168 191.203L74.4703 191.195L54.4439 185.166C53.8994 185.002 53.3928 184.732 52.9533 184.371C52.5138 184.01 52.1502 183.566 51.8834 183.064C51.6166 182.561 51.4519 182.011 51.3989 181.445C51.3459 180.879 51.4055 180.308 51.5744 179.765C51.7433 179.222 52.0181 178.718 52.3829 178.282C52.7478 177.846 53.1954 177.486 53.7 177.224C54.2045 176.962 54.756 176.802 55.3227 176.754C55.8893 176.706 56.4597 176.771 57.0011 176.945L71.1709 181.494L82.1411 162.046C82.0441 161.844 81.9614 161.636 81.8937 161.422C81.5221 160.233 81.6055 158.949 82.1277 157.818C82.6499 156.688 83.5737 155.791 84.7196 155.304C85.8656 154.816 87.1519 154.771 88.3289 155.179C89.5059 155.586 90.4894 156.416 91.0887 157.508Z" fill="#A0616A"/>
</g>
<defs>
<clipPath id="clip0_6416_27890">
<rect width="423.913" height="320" fill="white" transform="translate(0.043457)"/>
</clipPath>
</defs>
</svg>
