<svg xmlns="http://www.w3.org/2000/svg" width="122" height="94" fill="none"><g clip-path="url(#a)"><path fill="#374EA9" d="M17.426 55.415c4.27 0 7.73-3.458 7.73-7.724s-3.46-7.724-7.73-7.724c-4.27 0-7.73 3.458-7.73 7.724s3.46 7.724 7.73 7.724Z" style="fill:#374ea9;fill:color(display-p3 .2157 .3059 .6627);fill-opacity:1"/><path fill="#F2F2F2" d="M33.26 91.32h-.009a1.028 1.028 0 0 1-1.026-1.026V30.069a1.026 1.026 0 0 1 1.026-1.026h50.733a1.029 1.029 0 0 1 1.027 1.026v46.828a1.027 1.027 0 0 1-1.019 1.026L33.259 91.32Z" style="fill:#f2f2f2;fill:color(display-p3 .949 .949 .949);fill-opacity:1"/><path fill="#3F3D56" d="M70.758 20.535H47.203V6.897A1.087 1.087 0 0 1 48.29 5.81h21.38a1.089 1.089 0 0 1 1.088 1.086v13.638Zm-23.313-.241h23.071V6.897a.846.846 0 0 0-.846-.845H48.29a.847.847 0 0 0-.845.845v13.396Z" style="fill:#3f3d56;fill:color(display-p3 .2471 .2392 .3373);fill-opacity:1"/><path fill="#E6E6E6" d="M53.908 11h10.146a.967.967 0 0 1 .967.966v14.482H52.94V11.966a.965.965 0 0 1 .967-.966Z" style="fill:#e6e6e6;fill:color(display-p3 .902 .902 .902);fill-opacity:1"/><path fill="#3F3D56" d="M55.9 6.052h-4.953V1.103A.603.603 0 0 1 51.551.5h3.745a.605.605 0 0 1 .604.603v4.949Zm-4.711-.242h4.47V1.103a.362.362 0 0 0-.363-.362H51.55a.363.363 0 0 0-.362.362V5.81ZM96.595 78.81c-.048 0-.095 0-.143-.002a12.27 12.27 0 0 1-8.325-3.383l-.037-.035V52.26l.011-.025c.08-.17.161-.337.243-.504 2.512-5.096 5.442-7.903 8.25-7.903 4.051 0 7.192 5.551 8.704 8.86 2.102 4.601 3.57 10.303 3.57 13.865 0 3.227-1.275 6.324-3.546 8.618a12.276 12.276 0 0 1-8.587 3.637l-.14.001Zm-8.264-3.524a12.028 12.028 0 0 0 8.125 3.28c.049.002.095 0 .142.002l.133-.001c6.56-.073 11.896-5.462 11.896-12.014 0-3.531-1.459-9.192-3.549-13.765-1.488-3.256-4.568-8.718-8.483-8.718-2.712 0-5.565 2.758-8.034 7.767-.077.158-.154.316-.23.476v22.973Z" style="fill:#3f3d56;fill:color(display-p3 .2471 .2392 .3373);fill-opacity:1"/><path fill="#CCC" d="M96.596 93.443a.14.14 0 0 1-.139-.138V64.958a.138.138 0 0 1 .086-.129.14.14 0 0 1 .182.076c.007.017.01.035.01.053v28.347a.14.14 0 0 1-.139.138ZM24.483 93.443a.139.139 0 0 1-.14-.138V64.958a.138.138 0 0 1 .14-.14.14.14 0 0 1 .128.087.14.14 0 0 1 .01.053v28.347a.139.139 0 0 1-.138.138Z" style="fill:#ccc;fill:color(display-p3 .8 .8 .8);fill-opacity:1"/><path fill="#CCC" d="M96.595 70.253a.137.137 0 0 1-.105-.048l-6.99-8.053a.138.138 0 0 1 .015-.196.139.139 0 0 1 .196.014l6.99 8.053a.14.14 0 0 1-.106.23ZM96.596 74.902a.14.14 0 0 1-.098-.237l3.971-3.968a.14.14 0 0 1 .197 0c.026.026.04.061.04.098a.138.138 0 0 1-.04.098l-3.972 3.968a.137.137 0 0 1-.098.041Z" style="fill:#ccc;fill:color(display-p3 .8 .8 .8);fill-opacity:1"/><path fill="#3F3D56" d="M109.453 93.5H99.064v-.12a5.185 5.185 0 0 1 3.206-4.797 5.2 5.2 0 0 1 6.789 2.81c.26.63.395 1.305.394 1.987v.12Zm-10.145-.24h9.902a4.945 4.945 0 0 0-1.492-3.422 4.955 4.955 0 0 0-8.41 3.421Z" style="fill:#3f3d56;fill:color(display-p3 .2471 .2392 .3373);fill-opacity:1"/><path fill="#3F3D56" d="M104.257 90.434a.134.134 0 0 0-.096.04.137.137 0 0 0-.041.097v1.455l-1.419-1.217a.136.136 0 0 0-.193.014.14.14 0 0 0-.027.047.159.159 0 0 0-.006.053.118.118 0 0 0 .015.052.13.13 0 0 0 .033.042l1.597 1.37v.855a.15.15 0 0 0 .04.097.138.138 0 0 0 .15.03.138.138 0 0 0 .045-.03.15.15 0 0 0 .04-.097v-2.671a.137.137 0 0 0-.041-.097.135.135 0 0 0-.097-.04ZM22.361 93.5H11.973v-.12a5.185 5.185 0 0 1 3.206-4.797 5.198 5.198 0 0 1 6.788 2.81c.26.63.395 1.305.394 1.987v.12Zm-10.145-.24h9.902a4.947 4.947 0 0 0-4.951-4.829 4.955 4.955 0 0 0-4.951 4.828Z" style="fill:#3f3d56;fill:color(display-p3 .2471 .2392 .3373);fill-opacity:1"/><path fill="#3F3D56" d="M17.168 90.434a.137.137 0 0 0-.137.137v1.455l-1.42-1.217a.136.136 0 0 0-.151-.018.139.139 0 0 0-.075.133.136.136 0 0 0 .048.093l1.598 1.37v.855a.135.135 0 0 0 .04.097.137.137 0 0 0 .194 0 .134.134 0 0 0 .04-.097v-2.671a.138.138 0 0 0-.137-.137ZM24.603 78.81c-.048 0-.095 0-.143-.002a12.275 12.275 0 0 1-8.585-3.638 12.255 12.255 0 0 1-3.547-8.617c0-3.562 1.469-9.264 3.57-13.865 1.513-3.309 4.654-8.86 8.705-8.86 1.668 0 3.349.95 4.994 2.824.081.093.163.188.244.285l.027.034v30.654l-.068.033c-.081.04-.164.076-.246.112a12.161 12.161 0 0 1-4.81 1.038l-.141.001Zm0-34.74c-3.916 0-6.996 5.462-8.484 8.718-2.09 4.573-3.55 10.234-3.55 13.765 0 6.55 5.337 11.94 11.895 12.014h.275a11.925 11.925 0 0 0 4.888-1.094V47.058c-.07-.084-.14-.166-.212-.246-1.597-1.82-3.216-2.742-4.812-2.742Z" style="fill:#3f3d56;fill:color(display-p3 .2471 .2392 .3373);fill-opacity:1"/><path fill="#CCC" d="M24.603 70.253a.137.137 0 0 1-.105-.048l-6.99-8.053a.138.138 0 0 1 .015-.196.14.14 0 0 1 .195.014l6.99 8.053a.138.138 0 0 1-.03.208.139.139 0 0 1-.075.022ZM24.604 74.902a.14.14 0 0 1-.098-.237l3.971-3.968a.139.139 0 0 1 .197.196l-3.972 3.968a.137.137 0 0 1-.098.041Z" style="fill:#ccc;fill:color(display-p3 .8 .8 .8);fill-opacity:1"/><path fill="#3F3D56" d="m35.517 21.5.09.176c.039.076.06.16.06.246v4.768h4.227v-4.768c0-.085.021-.17.06-.246l.09-.176h-4.527Zm4.136.422v4.526h-3.745v-4.526a.756.756 0 0 0-.022-.18h3.788a.75.75 0 0 0-.021.18Zm1.179-.422.089.176c.04.076.06.16.06.246v4.768h4.228v-4.768c0-.085.02-.17.06-.246l.09-.176h-4.527Zm4.136.422v4.526h-3.745v-4.526a.75.75 0 0 0-.022-.18h3.788a.761.761 0 0 0-.021.18Zm1.178-.422.09.176c.04.076.06.16.06.246v4.768h4.228v-4.768c0-.085.02-.17.06-.246l.09-.176h-4.527Zm4.136.422v4.526h-3.744v-4.526a.756.756 0 0 0-.022-.18h3.788a.75.75 0 0 0-.022.18Zm1.18-.422.089.176c.04.076.06.16.06.246v4.768h4.228v-4.768c0-.085.02-.17.06-.246l.09-.176H51.46Zm4.135.422v4.526h-3.744v-4.526a.75.75 0 0 0-.022-.18h3.788a.756.756 0 0 0-.022.18Zm1.18-.422.089.176c.04.076.06.16.06.246v4.768h4.228v-4.768c0-.085.02-.17.06-.246l.09-.176h-4.528Zm4.135.422v4.526h-3.744v-4.526a.761.761 0 0 0-.022-.18h3.788a.75.75 0 0 0-.022.18Zm1.179-.422.09.176c.039.076.06.16.06.246v4.768h4.228v-4.768c0-.085.02-.17.06-.246l.09-.176H62.09Zm4.136.422v4.526h-3.745v-4.526a.75.75 0 0 0-.021-.18h3.788a.756.756 0 0 0-.022.18Zm1.179-.422.09.176c.039.076.06.16.06.246v4.768h4.227v-4.768c0-.085.021-.17.06-.246l.09-.176h-4.527Zm4.136.422v4.526h-3.745v-4.526a.761.761 0 0 0-.022-.18h3.789a.75.75 0 0 0-.022.18Zm1.179-.422.09.176c.039.076.06.16.06.246v4.768h4.227v-4.768c0-.085.021-.17.06-.246l.09-.176h-4.527Zm4.136.422v4.526h-3.745v-4.526a.75.75 0 0 0-.022-.18h3.788a.756.756 0 0 0-.021.18Zm1.179-.422.089.176c.04.076.06.16.06.246v4.768h4.228v-4.768c0-.085.02-.17.06-.246l.09-.176h-4.527Zm4.135.422v4.526h-3.744v-4.526a.761.761 0 0 0-.022-.18h3.788a.756.756 0 0 0-.022.18Zm-4.135-.422.089.176c.04.076.06.16.06.246v4.768h4.228v-4.768c0-.085.02-.17.06-.246l.09-.176h-4.527Zm4.135.422v4.526h-3.744v-4.526a.761.761 0 0 0-.022-.18h3.788a.756.756 0 0 0-.022.18Zm-9.45-.422.09.176c.039.076.06.16.06.246v4.768h4.227v-4.768c0-.085.021-.17.06-.246l.09-.176h-4.527Zm4.136.422v4.526h-3.745v-4.526a.75.75 0 0 0-.022-.18h3.788a.756.756 0 0 0-.021.18Zm-9.451-.422.09.176c.039.076.06.16.06.246v4.768h4.227v-4.768c0-.085.021-.17.06-.246l.09-.176h-4.527Zm4.136.422v4.526h-3.745v-4.526a.761.761 0 0 0-.022-.18h3.789a.75.75 0 0 0-.022.18ZM62.09 21.5l.09.176c.039.076.06.16.06.246v4.768h4.228v-4.768c0-.085.02-.17.06-.246l.09-.176H62.09Zm4.136.422v4.526h-3.745v-4.526a.75.75 0 0 0-.021-.18h3.788a.756.756 0 0 0-.022.18Zm-9.45-.422.089.176c.04.076.06.16.06.246v4.768h4.228v-4.768c0-.085.02-.17.06-.246l.09-.176h-4.528Zm4.135.422v4.526h-3.744v-4.526a.761.761 0 0 0-.022-.18h3.788a.75.75 0 0 0-.022.18Zm-9.45-.422.089.176c.04.076.06.16.06.246v4.768h4.228v-4.768c0-.085.02-.17.06-.246l.09-.176H51.46Zm4.135.422v4.526h-3.744v-4.526a.75.75 0 0 0-.022-.18h3.788a.756.756 0 0 0-.022.18Zm-9.45-.422.089.176c.04.076.06.16.06.246v4.768h4.228v-4.768c0-.085.02-.17.06-.246l.09-.176h-4.527Zm4.135.422v4.526h-3.744v-4.526a.756.756 0 0 0-.022-.18h3.788a.75.75 0 0 0-.022.18Zm-9.45-.422.089.176c.04.076.06.16.06.246v4.768h4.228v-4.768c0-.085.02-.17.06-.246l.09-.176h-4.527Zm4.136.422v4.526h-3.745v-4.526a.75.75 0 0 0-.022-.18h3.788a.761.761 0 0 0-.021.18Zm-9.451-.422.09.176c.039.076.06.16.06.246v4.768h4.227v-4.768c0-.085.021-.17.06-.246l.09-.176h-4.527Zm4.136.422v4.526h-3.745v-4.526a.756.756 0 0 0-.022-.18h3.788a.75.75 0 0 0-.021.18Zm38.383-.422.089.176c.04.076.06.16.06.246v4.768h4.228v-4.768c0-.085.02-.17.06-.246l.09-.176h-4.527Zm4.135.422v4.526h-3.744v-4.526a.761.761 0 0 0-.022-.18h3.788a.756.756 0 0 0-.022.18Zm-9.45-.422.09.176c.039.076.06.16.06.246v4.768h4.227v-4.768c0-.085.021-.17.06-.246l.09-.176h-4.527Zm4.136.422v4.526h-3.745v-4.526a.75.75 0 0 0-.022-.18h3.788a.756.756 0 0 0-.021.18Zm-9.451-.422.09.176c.039.076.06.16.06.246v4.768h4.227v-4.768c0-.085.021-.17.06-.246l.09-.176h-4.527Zm4.136.422v4.526h-3.745v-4.526a.761.761 0 0 0-.022-.18h3.789a.75.75 0 0 0-.022.18ZM62.09 21.5l.09.176c.039.076.06.16.06.246v4.768h4.228v-4.768c0-.085.02-.17.06-.246l.09-.176H62.09Zm4.136.422v4.526h-3.745v-4.526a.75.75 0 0 0-.021-.18h3.788a.756.756 0 0 0-.022.18Zm-9.45-.422.089.176c.04.076.06.16.06.246v4.768h4.228v-4.768c0-.085.02-.17.06-.246l.09-.176h-4.528Zm4.135.422v4.526h-3.744v-4.526a.761.761 0 0 0-.022-.18h3.788a.75.75 0 0 0-.022.18Zm-9.45-.422.089.176c.04.076.06.16.06.246v4.768h4.228v-4.768c0-.085.02-.17.06-.246l.09-.176H51.46Zm4.135.422v4.526h-3.744v-4.526a.75.75 0 0 0-.022-.18h3.788a.756.756 0 0 0-.022.18Zm-9.45-.422.089.176c.04.076.06.16.06.246v4.768h4.228v-4.768c0-.085.02-.17.06-.246l.09-.176h-4.527Zm4.135.422v4.526h-3.744v-4.526a.756.756 0 0 0-.022-.18h3.788a.75.75 0 0 0-.022.18Zm-9.45-.422.089.176c.04.076.06.16.06.246v4.768h4.228v-4.768c0-.085.02-.17.06-.246l.09-.176h-4.527Zm4.136.422v4.526h-3.745v-4.526a.75.75 0 0 0-.022-.18h3.788a.761.761 0 0 0-.021.18Zm-9.451-.422.09.176c.039.076.06.16.06.246v4.768h4.227v-4.768c0-.085.021-.17.06-.246l.09-.176h-4.527Zm4.136.422v4.526h-3.745v-4.526a.756.756 0 0 0-.022-.18h3.788a.75.75 0 0 0-.021.18Zm38.383-.422.089.176c.04.076.06.16.06.246v4.768h4.228v-4.768c0-.085.02-.17.06-.246l.09-.176h-4.527Zm4.135.422v4.526h-3.744v-4.526a.761.761 0 0 0-.022-.18h3.788a.756.756 0 0 0-.022.18Zm-9.45-.422.09.176c.039.076.06.16.06.246v4.768h4.227v-4.768c0-.085.021-.17.06-.246l.09-.176h-4.527Zm4.136.422v4.526h-3.745v-4.526a.75.75 0 0 0-.022-.18h3.788a.756.756 0 0 0-.021.18Zm-9.451-.422.09.176c.039.076.06.16.06.246v4.768h4.227v-4.768c0-.085.021-.17.06-.246l.09-.176h-4.527Zm4.136.422v4.526h-3.745v-4.526a.761.761 0 0 0-.022-.18h3.789a.75.75 0 0 0-.022.18ZM62.09 21.5l.09.176c.039.076.06.16.06.246v4.768h4.228v-4.768c0-.085.02-.17.06-.246l.09-.176H62.09Zm4.136.422v4.526h-3.745v-4.526a.75.75 0 0 0-.021-.18h3.788a.756.756 0 0 0-.022.18Zm-9.45-.422.089.176c.04.076.06.16.06.246v4.768h4.228v-4.768c0-.085.02-.17.06-.246l.09-.176h-4.528Zm4.135.422v4.526h-3.744v-4.526a.761.761 0 0 0-.022-.18h3.788a.75.75 0 0 0-.022.18Zm-9.45-.422.089.176c.04.076.06.16.06.246v4.768h4.228v-4.768c0-.085.02-.17.06-.246l.09-.176H51.46Zm4.135.422v4.526h-3.744v-4.526a.75.75 0 0 0-.022-.18h3.788a.756.756 0 0 0-.022.18Zm-9.45-.422.089.176c.04.076.06.16.06.246v4.768h4.228v-4.768c0-.085.02-.17.06-.246l.09-.176h-4.527Zm4.135.422v4.526h-3.744v-4.526a.756.756 0 0 0-.022-.18h3.788a.75.75 0 0 0-.022.18Zm-9.45-.422.089.176c.04.076.06.16.06.246v4.768h4.228v-4.768c0-.085.02-.17.06-.246l.09-.176h-4.527Zm4.136.422v4.526h-3.745v-4.526a.75.75 0 0 0-.022-.18h3.788a.761.761 0 0 0-.021.18Zm-9.451-.422.09.176c.039.076.06.16.06.246v4.768h4.227v-4.768c0-.085.021-.17.06-.246l.09-.176h-4.527Zm4.136.422v4.526h-3.745v-4.526a.756.756 0 0 0-.022-.18h3.788a.75.75 0 0 0-.021.18Zm38.383-.422.089.176c.04.076.06.16.06.246v4.768h4.228v-4.768c0-.085.02-.17.06-.246l.09-.176h-4.527Zm4.135.422v4.526h-3.744v-4.526a.761.761 0 0 0-.022-.18h3.788a.756.756 0 0 0-.022.18Zm-9.45-.422.09.176c.039.076.06.16.06.246v4.768h4.227v-4.768c0-.085.021-.17.06-.246l.09-.176h-4.527Zm4.136.422v4.526h-3.745v-4.526a.75.75 0 0 0-.022-.18h3.788a.756.756 0 0 0-.021.18Zm-9.451-.422.09.176c.039.076.06.16.06.246v4.768h4.227v-4.768c0-.085.021-.17.06-.246l.09-.176h-4.527Zm4.136.422v4.526h-3.745v-4.526a.761.761 0 0 0-.022-.18h3.789a.75.75 0 0 0-.022.18ZM62.09 21.5l.09.176c.039.076.06.16.06.246v4.768h4.228v-4.768c0-.085.02-.17.06-.246l.09-.176H62.09Zm4.136.422v4.526h-3.745v-4.526a.75.75 0 0 0-.021-.18h3.788a.756.756 0 0 0-.022.18Zm-9.45-.422.089.176c.04.076.06.16.06.246v4.768h4.228v-4.768c0-.085.02-.17.06-.246l.09-.176h-4.528Zm4.135.422v4.526h-3.744v-4.526a.761.761 0 0 0-.022-.18h3.788a.75.75 0 0 0-.022.18Zm-9.45-.422.089.176c.04.076.06.16.06.246v4.768h4.228v-4.768c0-.085.02-.17.06-.246l.09-.176H51.46Zm4.135.422v4.526h-3.744v-4.526a.75.75 0 0 0-.022-.18h3.788a.756.756 0 0 0-.022.18Zm-9.45-.422.089.176c.04.076.06.16.06.246v4.768h4.228v-4.768c0-.085.02-.17.06-.246l.09-.176h-4.527Zm4.135.422v4.526h-3.744v-4.526a.756.756 0 0 0-.022-.18h3.788a.75.75 0 0 0-.022.18Zm-9.45-.422.089.176c.04.076.06.16.06.246v4.768h4.228v-4.768c0-.085.02-.17.06-.246l.09-.176h-4.527Zm4.136.422v4.526h-3.745v-4.526a.75.75 0 0 0-.022-.18h3.788a.761.761 0 0 0-.021.18Zm-9.451-.422.09.176c.039.076.06.16.06.246v4.768h4.227v-4.768c0-.085.021-.17.06-.246l.09-.176h-4.527Zm4.136.422v4.526h-3.745v-4.526a.756.756 0 0 0-.022-.18h3.788a.75.75 0 0 0-.021.18Zm38.383-.422.089.176c.04.076.06.16.06.246v4.768h4.228v-4.768c0-.085.02-.17.06-.246l.09-.176h-4.527Zm4.135.422v4.526h-3.744v-4.526a.761.761 0 0 0-.022-.18h3.788a.756.756 0 0 0-.022.18Zm-9.36-.246c.039.076.06.16.06.246v4.768h4.227v-4.768c0-.085.021-.17.06-.246l.09-.176h-4.527l.09.176Zm4.067.065a.756.756 0 0 0-.021.181v4.526h-3.745v-4.526a.75.75 0 0 0-.022-.18h3.788Zm-9.383-.065c.04.076.06.16.06.246v4.768h4.228v-4.768c0-.085.021-.17.06-.246l.09-.176h-4.527l.09.176Zm4.069.065a.75.75 0 0 0-.022.181v4.526h-3.745v-4.526a.761.761 0 0 0-.022-.18h3.789Zm-9.384-.065c.04.076.06.16.06.246v4.768h4.229v-4.768c0-.085.02-.17.06-.246l.09-.176H62.09l.09.176Zm4.069.065a.756.756 0 0 0-.022.181v4.526h-3.745v-4.526a.75.75 0 0 0-.021-.18h3.788Zm-9.383-.065c.04.076.06.16.06.246v4.768h4.228v-4.768c0-.085.02-.17.06-.246l.09-.176h-4.528l.09.176Zm4.068.065a.75.75 0 0 0-.022.181v4.526h-3.744v-4.526a.761.761 0 0 0-.022-.18h3.788Zm-9.383-.065c.04.076.06.16.06.246v4.768h4.228v-4.768c0-.085.02-.17.06-.246l.09-.176H51.46l.09.176Zm4.068.065a.756.756 0 0 0-.022.181v4.526h-3.744v-4.526a.75.75 0 0 0-.022-.18h3.788Zm-9.383-.065c.04.076.06.16.06.246v4.768h4.228v-4.768c0-.085.02-.17.06-.246l.09-.176h-4.527l.089.176Zm4.068.065a.75.75 0 0 0-.022.181v4.526h-3.744v-4.526a.756.756 0 0 0-.022-.18h3.788Zm-9.383-.065c.04.076.06.16.06.246v4.768h4.228v-4.768c0-.085.02-.17.06-.246l.09-.176h-4.527l.089.176Zm4.068.065a.761.761 0 0 0-.021.181v4.526h-3.745v-4.526a.75.75 0 0 0-.022-.18h3.788Zm-9.383-.065c.04.076.06.16.06.246v4.768h4.228v-4.768c0-.085.021-.17.06-.246l.09-.176h-4.527l.09.176Zm4.069.065a.75.75 0 0 0-.022.181v4.526h-3.745v-4.526a.756.756 0 0 0-.022-.18h3.788Zm38.45-.065c.04.076.06.16.06.246v4.768h4.228v-4.768c0-.085.02-.17.06-.246l.09-.176h-4.527l.089.176Zm4.068.065a.756.756 0 0 0-.022.181v4.526h-3.744v-4.526a.761.761 0 0 0-.022-.18h3.788Zm-9.383-.065c.04.076.06.16.06.246v4.768h4.228v-4.768c0-.085.021-.17.06-.246l.09-.176h-4.527l.09.176Zm4.068.065a.756.756 0 0 0-.021.181v4.526h-3.745v-4.526a.75.75 0 0 0-.022-.18h3.788Zm-9.383-.065c.04.076.06.16.06.246v4.768h4.228v-4.768c0-.085.021-.17.06-.246l.09-.176h-4.527l.09.176Zm4.069.065a.75.75 0 0 0-.022.181v4.526h-3.745v-4.526a.761.761 0 0 0-.022-.18h3.789Zm-9.384-.065c.04.076.06.16.06.246v4.768h4.229v-4.768c0-.085.02-.17.06-.246l.09-.176H62.09l.09.176Zm4.069.065a.756.756 0 0 0-.022.181v4.526h-3.745v-4.526a.75.75 0 0 0-.021-.18h3.788Zm-9.383-.065c.04.076.06.16.06.246v4.768h4.228v-4.768c0-.085.02-.17.06-.246l.09-.176h-4.528l.09.176Zm4.068.065a.75.75 0 0 0-.022.181v4.526h-3.744v-4.526a.761.761 0 0 0-.022-.18h3.788Zm-9.383-.065c.04.076.06.16.06.246v4.768h4.228v-4.768c0-.085.02-.17.06-.246l.09-.176H51.46l.09.176Zm4.068.065a.756.756 0 0 0-.022.181v4.526h-3.744v-4.526a.75.75 0 0 0-.022-.18h3.788Zm-9.383-.065c.04.076.06.16.06.246v4.768h4.228v-4.768c0-.085.02-.17.06-.246l.09-.176h-4.527l.089.176Zm4.068.065a.75.75 0 0 0-.022.181v4.526h-3.744v-4.526a.756.756 0 0 0-.022-.18h3.788Zm-9.383-.065c.04.076.06.16.06.246v4.768h4.228v-4.768c0-.085.02-.17.06-.246l.09-.176h-4.527l.089.176Zm4.068.065a.761.761 0 0 0-.021.181v4.526h-3.745v-4.526a.75.75 0 0 0-.022-.18h3.788Zm-9.383-.065c.04.076.06.16.06.246v4.768h4.228v-4.768c0-.085.021-.17.06-.246l.09-.176h-4.527l.09.176Zm4.069.065a.75.75 0 0 0-.022.181v4.526h-3.745v-4.526a.756.756 0 0 0-.022-.18h3.788Zm47.57 5.673h-1.44a1.332 1.332 0 0 0-1.278-.966h-.785v-4.526a.753.753 0 0 0-.055-.283.724.724 0 0 0-.368-1.346H34.761a.724.724 0 0 0-.369 1.346.755.755 0 0 0-.054.283v4.526h-.785a1.333 1.333 0 0 0-1.278.966h-1.56a1.09 1.09 0 0 0-1.088 1.086v63.725a1.088 1.088 0 0 0 1.087 1.086h56.53a1.09 1.09 0 0 0 1.088-1.086V28.5a1.087 1.087 0 0 0-1.087-1.086Zm.845 64.81a.845.845 0 0 1-.845.846h-56.53a.847.847 0 0 1-.846-.845V28.5a.846.846 0 0 1 .845-.845h1.754l.02-.096a1.09 1.09 0 0 1 1.065-.87h1.026v-4.767c0-.098.027-.194.078-.279l.075-.124-.137-.05a.481.481 0 0 1 .166-.935h48.558a.482.482 0 0 1 .165.934l-.136.051.075.125c.05.084.077.18.077.278v4.768h1.027a1.092 1.092 0 0 1 1.065.869l.02.096h1.633a.847.847 0 0 1 .845.845v63.725ZM35.517 21.5l.09.176c.039.076.06.16.06.246v4.768h4.227v-4.768c0-.085.021-.17.06-.246l.09-.176h-4.527Zm4.136.422v4.526h-3.745v-4.526a.756.756 0 0 0-.022-.18h3.788a.75.75 0 0 0-.021.18Zm1.179-.422.089.176c.04.076.06.16.06.246v4.768h4.228v-4.768c0-.085.02-.17.06-.246l.09-.176h-4.527Zm4.136.422v4.526h-3.745v-4.526a.75.75 0 0 0-.022-.18h3.788a.761.761 0 0 0-.021.18Zm1.178-.422.09.176c.04.076.06.16.06.246v4.768h4.228v-4.768c0-.085.02-.17.06-.246l.09-.176h-4.527Zm4.136.422v4.526h-3.744v-4.526a.756.756 0 0 0-.022-.18h3.788a.75.75 0 0 0-.022.18Zm1.18-.422.089.176c.04.076.06.16.06.246v4.768h4.228v-4.768c0-.085.02-.17.06-.246l.09-.176H51.46Zm4.135.422v4.526h-3.744v-4.526a.75.75 0 0 0-.022-.18h3.788a.756.756 0 0 0-.022.18Zm1.18-.422.089.176c.04.076.06.16.06.246v4.768h4.228v-4.768c0-.085.02-.17.06-.246l.09-.176h-4.528Zm4.135.422v4.526h-3.744v-4.526a.761.761 0 0 0-.022-.18h3.788a.75.75 0 0 0-.022.18Zm1.179-.422.09.176c.039.076.06.16.06.246v4.768h4.228v-4.768c0-.085.02-.17.06-.246l.09-.176H62.09Zm4.136.422v4.526h-3.745v-4.526a.75.75 0 0 0-.021-.18h3.788a.756.756 0 0 0-.022.18Zm1.179-.422.09.176c.039.076.06.16.06.246v4.768h4.227v-4.768c0-.085.021-.17.06-.246l.09-.176h-4.527Zm4.136.422v4.526h-3.745v-4.526a.761.761 0 0 0-.022-.18h3.789a.75.75 0 0 0-.022.18Zm1.179-.422.09.176c.039.076.06.16.06.246v4.768h4.227v-4.768c0-.085.021-.17.06-.246l.09-.176h-4.527Zm4.136.422v4.526h-3.745v-4.526a.75.75 0 0 0-.022-.18h3.788a.756.756 0 0 0-.021.18Zm1.179-.422.089.176c.04.076.06.16.06.246v4.768h4.228v-4.768c0-.085.02-.17.06-.246l.09-.176h-4.527Zm4.135.422v4.526h-3.744v-4.526a.761.761 0 0 0-.022-.18h3.788a.756.756 0 0 0-.022.18ZM35.517 21.5l.09.176c.039.076.06.16.06.246v4.768h4.227v-4.768c0-.085.021-.17.06-.246l.09-.176h-4.527Zm4.136.422v4.526h-3.745v-4.526a.756.756 0 0 0-.022-.18h3.788a.75.75 0 0 0-.021.18Zm1.179-.422.089.176c.04.076.06.16.06.246v4.768h4.228v-4.768c0-.085.02-.17.06-.246l.09-.176h-4.527Zm4.136.422v4.526h-3.745v-4.526a.75.75 0 0 0-.022-.18h3.788a.761.761 0 0 0-.021.18Zm1.178-.422.09.176c.04.076.06.16.06.246v4.768h4.228v-4.768c0-.085.02-.17.06-.246l.09-.176h-4.527Zm4.136.422v4.526h-3.744v-4.526a.756.756 0 0 0-.022-.18h3.788a.75.75 0 0 0-.022.18Zm1.18-.422.089.176c.04.076.06.16.06.246v4.768h4.228v-4.768c0-.085.02-.17.06-.246l.09-.176H51.46Zm4.135.422v4.526h-3.744v-4.526a.75.75 0 0 0-.022-.18h3.788a.756.756 0 0 0-.022.18Zm1.18-.422.089.176c.04.076.06.16.06.246v4.768h4.228v-4.768c0-.085.02-.17.06-.246l.09-.176h-4.528Zm4.135.422v4.526h-3.744v-4.526a.761.761 0 0 0-.022-.18h3.788a.75.75 0 0 0-.022.18Zm1.179-.422.09.176c.039.076.06.16.06.246v4.768h4.228v-4.768c0-.085.02-.17.06-.246l.09-.176H62.09Zm4.136.422v4.526h-3.745v-4.526a.75.75 0 0 0-.021-.18h3.788a.756.756 0 0 0-.022.18Zm1.179-.422.09.176c.039.076.06.16.06.246v4.768h4.227v-4.768c0-.085.021-.17.06-.246l.09-.176h-4.527Zm4.136.422v4.526h-3.745v-4.526a.761.761 0 0 0-.022-.18h3.789a.75.75 0 0 0-.022.18Zm1.179-.422.09.176c.039.076.06.16.06.246v4.768h4.227v-4.768c0-.085.021-.17.06-.246l.09-.176h-4.527Zm4.136.422v4.526h-3.745v-4.526a.75.75 0 0 0-.022-.18h3.788a.756.756 0 0 0-.021.18Zm1.179-.422.089.176c.04.076.06.16.06.246v4.768h4.228v-4.768c0-.085.02-.17.06-.246l.09-.176h-4.527Zm4.135.422v4.526h-3.744v-4.526a.761.761 0 0 0-.022-.18h3.788a.756.756 0 0 0-.022.18ZM35.517 21.5l.09.176c.039.076.06.16.06.246v4.768h4.227v-4.768c0-.085.021-.17.06-.246l.09-.176h-4.527Zm4.136.422v4.526h-3.745v-4.526a.756.756 0 0 0-.022-.18h3.788a.75.75 0 0 0-.021.18Zm1.179-.422.089.176c.04.076.06.16.06.246v4.768h4.228v-4.768c0-.085.02-.17.06-.246l.09-.176h-4.527Zm4.136.422v4.526h-3.745v-4.526a.75.75 0 0 0-.022-.18h3.788a.761.761 0 0 0-.021.18Zm1.178-.422.09.176c.04.076.06.16.06.246v4.768h4.228v-4.768c0-.085.02-.17.06-.246l.09-.176h-4.527Zm4.136.422v4.526h-3.744v-4.526a.756.756 0 0 0-.022-.18h3.788a.75.75 0 0 0-.022.18Zm1.18-.422.089.176c.04.076.06.16.06.246v4.768h4.228v-4.768c0-.085.02-.17.06-.246l.09-.176H51.46Zm4.135.422v4.526h-3.744v-4.526a.75.75 0 0 0-.022-.18h3.788a.756.756 0 0 0-.022.18Zm1.18-.422.089.176c.04.076.06.16.06.246v4.768h4.228v-4.768c0-.085.02-.17.06-.246l.09-.176h-4.528Zm4.135.422v4.526h-3.744v-4.526a.761.761 0 0 0-.022-.18h3.788a.75.75 0 0 0-.022.18Zm1.179-.422.09.176c.039.076.06.16.06.246v4.768h4.228v-4.768c0-.085.02-.17.06-.246l.09-.176H62.09Zm4.136.422v4.526h-3.745v-4.526a.75.75 0 0 0-.021-.18h3.788a.756.756 0 0 0-.022.18Zm1.179-.422.09.176c.039.076.06.16.06.246v4.768h4.227v-4.768c0-.085.021-.17.06-.246l.09-.176h-4.527Zm4.136.422v4.526h-3.745v-4.526a.761.761 0 0 0-.022-.18h3.789a.75.75 0 0 0-.022.18Zm1.179-.422.09.176c.039.076.06.16.06.246v4.768h4.227v-4.768c0-.085.021-.17.06-.246l.09-.176h-4.527Zm4.136.422v4.526h-3.745v-4.526a.75.75 0 0 0-.022-.18h3.788a.756.756 0 0 0-.021.18Zm1.179-.422.089.176c.04.076.06.16.06.246v4.768h4.228v-4.768c0-.085.02-.17.06-.246l.09-.176h-4.527Zm4.135.422v4.526h-3.744v-4.526a.761.761 0 0 0-.022-.18h3.788a.756.756 0 0 0-.022.18ZM35.517 21.5l.09.176c.039.076.06.16.06.246v4.768h4.227v-4.768c0-.085.021-.17.06-.246l.09-.176h-4.527Zm4.136.422v4.526h-3.745v-4.526a.756.756 0 0 0-.022-.18h3.788a.75.75 0 0 0-.021.18Zm1.179-.422.089.176c.04.076.06.16.06.246v4.768h4.228v-4.768c0-.085.02-.17.06-.246l.09-.176h-4.527Zm4.136.422v4.526h-3.745v-4.526a.75.75 0 0 0-.022-.18h3.788a.761.761 0 0 0-.021.18Zm1.178-.422.09.176c.04.076.06.16.06.246v4.768h4.228v-4.768c0-.085.02-.17.06-.246l.09-.176h-4.527Zm4.136.422v4.526h-3.744v-4.526a.756.756 0 0 0-.022-.18h3.788a.75.75 0 0 0-.022.18Zm1.18-.422.089.176c.04.076.06.16.06.246v4.768h4.228v-4.768c0-.085.02-.17.06-.246l.09-.176H51.46Zm4.135.422v4.526h-3.744v-4.526a.75.75 0 0 0-.022-.18h3.788a.756.756 0 0 0-.022.18Zm1.18-.422.089.176c.04.076.06.16.06.246v4.768h4.228v-4.768c0-.085.02-.17.06-.246l.09-.176h-4.528Zm4.135.422v4.526h-3.744v-4.526a.761.761 0 0 0-.022-.18h3.788a.75.75 0 0 0-.022.18Zm1.179-.422.09.176c.039.076.06.16.06.246v4.768h4.228v-4.768c0-.085.02-.17.06-.246l.09-.176H62.09Zm4.136.422v4.526h-3.745v-4.526a.75.75 0 0 0-.021-.18h3.788a.756.756 0 0 0-.022.18Zm1.179-.422.09.176c.039.076.06.16.06.246v4.768h4.227v-4.768c0-.085.021-.17.06-.246l.09-.176h-4.527Zm4.136.422v4.526h-3.745v-4.526a.761.761 0 0 0-.022-.18h3.789a.75.75 0 0 0-.022.18Zm1.179-.422.09.176c.039.076.06.16.06.246v4.768h4.227v-4.768c0-.085.021-.17.06-.246l.09-.176h-4.527Zm4.136.422v4.526h-3.745v-4.526a.75.75 0 0 0-.022-.18h3.788a.756.756 0 0 0-.021.18Zm1.179-.422.089.176c.04.076.06.16.06.246v4.768h4.228v-4.768c0-.085.02-.17.06-.246l.09-.176h-4.527Zm4.135.422v4.526h-3.744v-4.526a.761.761 0 0 0-.022-.18h3.788a.756.756 0 0 0-.022.18Z" style="fill:#3f3d56;fill:color(display-p3 .2471 .2392 .3373);fill-opacity:1"/><path fill="#374EA9" d="M49.877 42.622h-8.908a.708.708 0 0 1-.707-.707v-4.741a.708.708 0 0 1 .707-.707h8.908a.71.71 0 0 1 .707.707v4.741a.707.707 0 0 1-.707.707ZM63.434 42.622h-8.908a.708.708 0 0 1-.708-.707v-4.741a.707.707 0 0 1 .708-.707h8.908a.709.709 0 0 1 .707.707v4.741a.707.707 0 0 1-.707.707ZM76.988 42.622h-8.907a.709.709 0 0 1-.708-.707v-4.741a.708.708 0 0 1 .708-.707h8.907a.709.709 0 0 1 .708.707v4.741a.708.708 0 0 1-.708.707ZM49.877 58.433h-8.908a.709.709 0 0 1-.707-.707v-4.742a.708.708 0 0 1 .707-.707h8.908a.71.71 0 0 1 .707.707v4.742a.708.708 0 0 1-.707.707ZM63.434 58.433h-8.908a.709.709 0 0 1-.708-.707v-4.742a.707.707 0 0 1 .708-.707h8.908a.709.709 0 0 1 .707.707v4.742a.707.707 0 0 1-.707.707ZM76.988 58.433h-8.907a.71.71 0 0 1-.708-.707v-4.742a.708.708 0 0 1 .708-.707h8.907a.709.709 0 0 1 .708.707v4.742a.708.708 0 0 1-.708.707ZM49.877 74.241h-8.908a.709.709 0 0 1-.707-.707v-4.741a.708.708 0 0 1 .707-.707h8.908a.71.71 0 0 1 .707.707v4.741a.708.708 0 0 1-.707.707ZM63.434 74.241h-8.908a.709.709 0 0 1-.708-.707v-4.741a.708.708 0 0 1 .708-.707h8.908a.709.709 0 0 1 .707.707v4.741a.707.707 0 0 1-.707.707ZM76.988 74.241h-8.907a.71.71 0 0 1-.708-.707v-4.741a.708.708 0 0 1 .708-.707h8.907a.709.709 0 0 1 .708.707v4.741a.708.708 0 0 1-.708.707Z" style="fill:#374ea9;fill:color(display-p3 .2157 .3059 .6627);fill-opacity:1"/><path fill="#3F3D56" d="M48.435 43.23H38.116a.941.941 0 0 1-.94-.94v-5.493a.94.94 0 0 1 .94-.94h10.32a.942.942 0 0 1 .94.94v5.493a.94.94 0 0 1-.94.94Zm-10.319-7.131a.7.7 0 0 0-.699.698v5.493a.7.7 0 0 0 .7.698h10.318a.7.7 0 0 0 .7-.698v-5.493a.699.699 0 0 0-.7-.698H38.116ZM64.138 43.23H53.82a.941.941 0 0 1-.94-.94v-5.493a.94.94 0 0 1 .94-.94h10.32a.942.942 0 0 1 .94.94v5.493a.94.94 0 0 1-.94.94ZM53.82 36.098a.7.7 0 0 0-.699.698v5.493a.699.699 0 0 0 .7.698h10.318a.7.7 0 0 0 .7-.698v-5.493a.699.699 0 0 0-.7-.698H53.82ZM79.841 43.23H69.523a.942.942 0 0 1-.941-.94v-5.493a.94.94 0 0 1 .94-.94h10.32a.942.942 0 0 1 .94.94v5.493a.94.94 0 0 1-.94.94Zm-10.318-7.131a.7.7 0 0 0-.7.698v5.493a.699.699 0 0 0 .7.698h10.319a.7.7 0 0 0 .698-.698v-5.493a.699.699 0 0 0-.699-.698H69.523ZM48.435 59.04H38.116a.942.942 0 0 1-.94-.94v-5.492a.94.94 0 0 1 .94-.94h10.32a.942.942 0 0 1 .94.94V58.1a.94.94 0 0 1-.94.94Zm-10.319-7.13a.7.7 0 0 0-.699.698V58.1a.699.699 0 0 0 .7.698h10.318a.7.7 0 0 0 .7-.698v-5.492a.7.7 0 0 0-.7-.699H38.116ZM64.138 59.04H53.82a.942.942 0 0 1-.94-.94v-5.492a.94.94 0 0 1 .94-.94h10.32a.942.942 0 0 1 .94.94V58.1a.94.94 0 0 1-.94.94ZM53.82 51.91a.7.7 0 0 0-.699.698V58.1a.699.699 0 0 0 .7.698h10.318a.7.7 0 0 0 .7-.698v-5.492a.7.7 0 0 0-.7-.699H53.82ZM79.841 59.04H69.523a.942.942 0 0 1-.941-.94v-5.492a.94.94 0 0 1 .94-.94h10.32a.943.943 0 0 1 .94.94V58.1a.94.94 0 0 1-.94.94Zm-10.318-7.13a.7.7 0 0 0-.7.698V58.1a.698.698 0 0 0 .7.698h10.319a.7.7 0 0 0 .698-.698v-5.492a.7.7 0 0 0-.699-.699H69.523ZM48.435 74.85H38.116a.942.942 0 0 1-.94-.94v-5.492a.94.94 0 0 1 .94-.94h10.32a.942.942 0 0 1 .94.94v5.493a.94.94 0 0 1-.94.94Zm-10.319-7.13a.7.7 0 0 0-.699.698v5.493a.7.7 0 0 0 .7.698h10.318a.7.7 0 0 0 .7-.698v-5.493a.699.699 0 0 0-.7-.698H38.116ZM64.138 74.85H53.82a.941.941 0 0 1-.94-.94v-5.492a.94.94 0 0 1 .94-.94h10.32a.942.942 0 0 1 .94.94v5.493a.94.94 0 0 1-.94.94ZM53.82 67.72a.7.7 0 0 0-.699.698v5.493a.7.7 0 0 0 .7.698h10.318a.7.7 0 0 0 .7-.698v-5.493a.699.699 0 0 0-.7-.698H53.82ZM79.841 74.85H69.523a.942.942 0 0 1-.941-.94v-5.492a.94.94 0 0 1 .94-.94h10.32a.942.942 0 0 1 .94.94v5.493a.94.94 0 0 1-.94.94Zm-10.318-7.13a.7.7 0 0 0-.7.698v5.493a.699.699 0 0 0 .7.698h10.319a.7.7 0 0 0 .698-.698v-5.493a.699.699 0 0 0-.699-.698H69.523ZM121.879 93.491H.121a.12.12 0 1 1 0-.241h121.758c.032 0 .063.013.086.035a.123.123 0 0 1 .035.086.123.123 0 0 1-.035.085.123.123 0 0 1-.086.035ZM65.08 81.811a1.038 1.038 0 0 0-1.026-1.051H58.98V93.25h6.1v-11.44Z" style="fill:#3f3d56;fill:color(display-p3 .2471 .2392 .3373);fill-opacity:1"/><path fill="#3F3D56" d="M59.1 93.13h-6.342V81.846a1.148 1.148 0 0 1 1.147-1.147H59.1V93.13ZM53 92.89h5.858V80.941h-4.953a.908.908 0 0 0-.906.905v11.043Z" style="fill:#3f3d56;fill:color(display-p3 .2471 .2392 .3373);fill-opacity:1"/><path fill="#3F3D56" d="M53.544 87.76a.362.362 0 1 0 0-.725.362.362 0 0 0 0 .724Z" style="fill:#3f3d56;fill:color(display-p3 .2471 .2392 .3373);fill-opacity:1"/></g><defs><clipPath id="a"><path fill="#fff" d="M0 0h122v93H0z" style="fill:#fff;fill-opacity:1" transform="translate(0 .5)"/></clipPath></defs></svg>