<svg width="150" height="116" viewBox="0 0 150 116" fill="none" xmlns="http://www.w3.org/2000/svg">
<ellipse cx="72.0017" cy="56" rx="56" ry="56" fill="#F2F2F2" style="fill:#F2F2F2;fill:color(display-p3 0.9490 0.9490 0.9490);fill-opacity:1;"/>
<g clip-path="url(#clip0_24179_58908)">
<path d="M109.382 103.396L109.541 99.8317C111.199 98.9485 113.049 98.482 114.929 98.4727C112.341 100.581 112.665 104.644 110.91 107.479C110.356 108.359 109.611 109.104 108.729 109.658C107.847 110.212 106.851 110.561 105.815 110.679L103.649 112C103.352 110.349 103.418 108.654 103.841 107.031C104.265 105.408 105.037 103.896 106.103 102.599C106.709 101.877 107.404 101.234 108.17 100.685C108.689 102.048 109.382 103.396 109.382 103.396Z" fill="#F2F2F2" style="fill:#F2F2F2;fill:color(display-p3 0.9490 0.9490 0.9490);fill-opacity:1;"/>
<path d="M35.035 71.7139C34.8919 71.5837 34.7792 71.424 34.7048 71.2457C34.6304 71.0675 34.5961 70.8752 34.6044 70.6824C34.6126 70.4895 34.6632 70.3009 34.7526 70.1296C34.8419 69.9583 34.9679 69.8087 35.1215 69.6912L33.6379 65.2383L36.0011 65.8709L37.0477 70.0024C37.2287 70.2728 37.3038 70.5999 37.259 70.9217C37.2141 71.2436 37.0523 71.5379 36.8042 71.7489C36.5562 71.9598 36.239 72.0728 35.9129 72.0663C35.5869 72.0599 35.2745 71.9345 35.035 71.7139Z" fill="#A0616A" style="fill:#A0616A;fill:color(display-p3 0.6275 0.3804 0.4157);fill-opacity:1;"/>
<path d="M39.3176 47.5182C39.7097 47.7422 42.0297 47.1872 42.4827 47.3451C42.2326 48.8656 43.591 48.295 42.1159 50.2919C40.6408 52.2887 37.6697 58.2757 36.9948 60.5134C36.3198 62.751 36.9879 65.9044 36.8868 66.9649C36.8379 67.5794 36.841 68.1968 36.8959 68.8108C36.0989 68.8007 35.3133 68.9655 34.5039 68.8603C33.6407 66.4265 33.0603 62.9622 32.6662 61.0476C32.272 59.133 32.2576 59.9427 32.4384 58.9853C32.6191 58.028 32.6629 58.7237 32.473 57.8078C32.2831 56.8919 33.0511 55.7412 33.7606 55.0851C34.0665 54.2083 34.4619 53.3908 34.7648 52.5232C36.9843 50.594 37.1302 49.4795 39.3176 47.5182Z" fill="#374EA9" style="fill:#374EA9;fill:color(display-p3 0.2157 0.3059 0.6627);fill-opacity:1;"/>
<path d="M103.803 109.532H101.842L100.909 101.996H103.803L103.803 109.532Z" fill="#FFB6B6" style="fill:#FFB6B6;fill:color(display-p3 1.0000 0.7137 0.7137);fill-opacity:1;"/>
<path d="M104.302 111.425L97.979 111.424V111.345C97.979 110.694 98.2383 110.071 98.6999 109.611C99.1614 109.151 99.7873 108.893 100.44 108.893L101.595 108.02L103.75 108.893L104.302 108.893L104.302 111.425Z" fill="#2F2E41" style="fill:#2F2E41;fill:color(display-p3 0.1843 0.1804 0.2549);fill-opacity:1;"/>
<path d="M94.6934 109.532H92.7325L91.7997 101.996H94.6937L94.6934 109.532Z" fill="#FFB6B6" style="fill:#FFB6B6;fill:color(display-p3 1.0000 0.7137 0.7137);fill-opacity:1;"/>
<path d="M95.1936 111.425L88.8708 111.424V111.345C88.8709 110.694 89.1302 110.071 89.5917 109.611C90.0532 109.151 90.6792 108.893 91.3318 108.893L92.4869 108.02L94.6418 108.893L95.1937 108.893L95.1936 111.425Z" fill="#2F2E41" style="fill:#2F2E41;fill:color(display-p3 0.1843 0.1804 0.2549);fill-opacity:1;"/>
<path d="M93.8447 68.3281L106.599 68.6458C109.022 69.9568 109.058 72.7942 108.265 76.163C108.265 76.163 108.533 78.1653 107.997 78.6993C107.461 79.2333 107.193 79.2332 107.461 80.1677C107.729 81.1021 106.313 82.6283 106.485 82.7996C106.657 82.9709 107.059 83.9053 107.059 83.9053L105.719 91.5141C105.719 91.5141 104.781 104.729 104.513 104.996C104.246 105.263 103.978 104.996 104.246 105.664C104.513 106.331 104.781 106.064 104.513 106.331C104.276 106.586 104.053 106.854 103.844 107.132H100.605C100.605 107.132 100.36 105.797 100.36 105.664C100.36 105.53 100.092 104.729 100.092 104.596C100.092 104.462 100.329 104.226 100.329 104.226C100.411 103.955 100.466 103.677 100.494 103.395C100.494 103.128 101.298 92.849 101.298 92.849L99.6905 79.5002L95.8054 92.582C95.8054 92.582 95.8054 104.062 95.5375 104.329C95.2695 104.596 95.2695 104.462 95.4035 104.996C95.5375 105.53 96.0734 105.397 95.6714 105.797C95.2695 106.198 95.1356 105.53 95.2695 106.198L95.4035 106.865L91.3844 106.923C91.3844 106.923 90.8485 105.797 91.1165 105.397C91.3844 104.996 91.3683 105.106 91.0414 104.45C90.7146 103.795 90.5806 103.662 90.7146 103.528C90.8485 103.395 90.8485 102.685 90.8485 102.685L91.5184 89.9123C91.5184 89.9123 91.6524 76.43 91.6524 76.0295C91.6625 75.8235 91.6244 75.6179 91.5411 75.429V74.8854L92.0543 72.9593L93.8447 68.3281Z" fill="#2F2E41" style="fill:#2F2E41;fill:color(display-p3 0.1843 0.1804 0.2549);fill-opacity:1;"/>
<path d="M101.505 41.9012C103.694 41.9012 105.468 40.1333 105.468 37.9525C105.468 35.7718 103.694 34.0039 101.505 34.0039C99.3165 34.0039 97.5422 35.7718 97.5422 37.9525C97.5422 40.1333 99.3165 41.9012 101.505 41.9012Z" fill="#FFB6B6" style="fill:#FFB6B6;fill:color(display-p3 1.0000 0.7137 0.7137);fill-opacity:1;"/>
<path d="M99.5243 44.5129C98.6705 45.0186 98.1598 45.9479 97.8667 46.8934C97.3239 48.644 96.9972 50.454 96.8937 52.2833L96.5841 57.76L92.749 69.4214C96.0727 72.2236 108.566 70.0582 108.566 70.0582C108.566 70.0582 108.95 69.9309 108.566 69.5487C108.183 69.1666 107.809 69.5051 108.193 69.123C108.576 68.7409 108.312 69.1666 108.184 68.7845C108.056 68.4023 108.184 68.6571 108.312 68.5297C108.44 68.4023 107.322 67.256 107.322 67.256L108.345 60.5622L109.623 47.0604C108.089 45.1498 105.004 44.0235 105.004 44.0235L104.207 42.5938L100.221 42.9115L99.5243 44.5129Z" fill="#3F3D56" style="fill:#3F3D56;fill:color(display-p3 0.2471 0.2392 0.3373);fill-opacity:1;"/>
<path d="M98.9809 35.6376C99.1342 35.6388 99.2868 35.6588 99.4353 35.697C99.728 35.7671 100.025 35.8168 100.325 35.8456C101.242 35.9316 102.104 36.3215 102.773 36.9529C103.442 37.5843 103.879 38.4209 104.015 39.329C104.246 39.129 104.77 38.761 105.199 39.103C105.206 39.1084 105.209 39.1112 105.224 39.1041C105.51 38.9693 106.016 37.3098 106.031 35.8487C106.039 35.0731 105.917 34.0828 105.287 33.7692L105.254 33.7527L105.246 33.7168C105.204 33.5424 104.734 33.2446 103.917 33.0128C102.433 32.5916 100.264 32.5307 99.0187 33.7382C98.9245 34.1453 98.5741 34.2568 98.2642 34.3556C97.9212 34.4649 97.6249 34.5592 97.5782 34.9785C97.5392 35.5753 97.542 36.174 97.5867 36.7703C97.7029 36.4054 97.9311 36.086 98.2391 35.8571C98.4581 35.7102 98.7169 35.6336 98.9809 35.6376Z" fill="#2F2E41" style="fill:#2F2E41;fill:color(display-p3 0.1843 0.1804 0.2549);fill-opacity:1;"/>
<path d="M91.605 57.4572L98.0784 53.3264L94.818 49.0078L91.5985 52.9538L81.5673 53.5669C81.3034 53.307 80.9694 53.1292 80.6059 53.0552C80.2424 52.9813 79.8652 53.0142 79.5202 53.1502C79.1752 53.2861 78.8774 53.5192 78.663 53.8209C78.4486 54.1226 78.327 54.4799 78.3129 54.8493C78.2988 55.2187 78.3929 55.5842 78.5837 55.9012C78.7745 56.2182 79.0537 56.4731 79.3874 56.6347C79.721 56.7963 80.0946 56.8578 80.4627 56.8115C80.8308 56.7652 81.1774 56.6132 81.4602 56.374L91.605 57.4572Z" fill="#FFB6B6" style="fill:#FFB6B6;fill:color(display-p3 1.0000 0.7137 0.7137);fill-opacity:1;"/>
<path d="M104.088 47.5585C104.463 49.8241 97.3683 54.1504 97.3683 54.1504C97.3681 53.6186 93.1335 57.6331 92.9423 57.1921C92.3991 55.9386 92.0171 52.9698 91.258 52.4946C90.8239 52.2229 93.8726 49.67 93.8726 49.67C93.8726 49.67 95.4684 48.0681 97.5626 46.0476C98.144 45.4654 98.8638 45.0392 99.655 44.8088C100.446 44.5784 101.283 44.5511 102.088 44.7296C102.088 44.7296 103.712 45.2929 104.088 47.5585Z" fill="#3F3D56" style="fill:#3F3D56;fill:color(display-p3 0.2471 0.2392 0.3373);fill-opacity:1;"/>
<path d="M96.8738 73.5734C96.8766 75.9979 96.4691 78.4055 95.6685 80.695C95.6318 80.8014 95.5935 80.9063 95.5553 81.0127C93.9164 85.4476 90.868 89.2275 86.8742 91.7769C86.6016 91.9517 86.3258 92.1185 86.0452 92.2805C82.8544 94.1235 79.2424 95.1201 75.5546 95.1749C75.4334 95.1765 75.3123 95.1781 75.1911 95.1781C75.0349 95.1781 74.8802 95.1765 74.7256 95.1733C71.0328 95.1001 67.4207 94.0838 64.235 92.2217C63.9544 92.0581 63.678 91.8881 63.4059 91.7118C58.9719 88.8478 55.7389 84.4703 54.3132 79.4004C52.8876 74.3304 53.3673 68.9164 55.6624 64.1738C55.7134 64.0674 55.766 63.9625 55.8202 63.8561C57.6278 60.2818 60.3959 57.2779 63.8161 55.179C67.2363 53.0801 71.1743 51.9688 75.1911 51.9688C79.2079 51.9688 83.1459 53.0801 86.5661 55.179C89.9863 57.2779 92.7544 60.2818 94.562 63.8561C94.6162 63.9625 94.6688 64.0674 94.7198 64.1738C96.1423 67.1043 96.8788 70.3182 96.8738 73.5734Z" fill="#B5B9C5" style="fill:#B5B9C5;fill:color(display-p3 0.7098 0.7251 0.7708);fill-opacity:1;"/>
<path d="M90.1649 80.6953V81.013H92.1068V80.6953H90.1649ZM86.2811 80.6953V81.013H88.223V80.6953H86.2811ZM82.3974 80.6953V81.013H84.3393V80.6953H82.3974ZM78.5137 80.6953V81.013H80.4555V80.6953H78.5137ZM74.6299 80.6953V81.013H76.5718V80.6953H74.6299ZM70.7462 80.6953V81.013H72.688V80.6953H70.7462ZM66.8624 80.6953V81.013H68.8043V80.6953H66.8624ZM62.9803 80.6953V81.013H64.9205V80.6953H62.9803ZM59.0965 80.6953V81.013H61.0384V80.6953H59.0965ZM55.2128 80.6953V81.013H57.1546V80.6953H55.2128ZM95.6685 80.6953H94.0486V81.013H95.5553L95.6685 80.6953Z" fill="#E6E6E6" style="fill:#E6E6E6;fill:color(display-p3 0.9020 0.9020 0.9020);fill-opacity:1;"/>
<path d="M94.0479 78.4688V78.7865H95.9898V78.4688H94.0479ZM90.1642 78.4688V78.7865H92.106V78.4688H90.1642ZM86.2804 78.4688V78.7865H88.2223V78.4688H86.2804ZM82.3967 78.4688V78.7865H84.3386V78.4688H82.3967ZM78.5129 78.4688V78.7865H80.4548V78.4688H78.5129ZM74.6292 78.4688V78.7865H76.5711V78.4688H74.6292ZM70.7454 78.4688V78.7865H72.6873V78.4688H70.7454ZM66.8617 78.4688V78.7865H68.8036V78.4688H66.8617ZM62.9795 78.4688V78.7865H64.9198V78.4688H62.9795ZM59.0958 78.4688V78.7865H61.0377V78.4688H59.0958ZM55.212 78.4688V78.7865H57.1539V78.4688H55.212Z" fill="#E6E6E6" style="fill:#E6E6E6;fill:color(display-p3 0.9020 0.9020 0.9020);fill-opacity:1;"/>
<path d="M94.0479 73.8633V74.181H95.9898V73.8633H94.0479ZM90.1642 73.8633V74.181H92.106V73.8633H90.1642ZM86.2804 73.8633V74.181H88.2223V73.8633H86.2804ZM82.3967 73.8633V74.181H84.3386V73.8633H82.3967ZM78.5129 73.8633V74.181H80.4548V73.8633H78.5129ZM74.6292 73.8633V74.181H76.5711V73.8633H74.6292ZM70.7454 73.8633V74.181H72.6873V73.8633H70.7454ZM66.8617 73.8633V74.181H68.8036V73.8633H66.8617ZM62.9795 73.8633V74.181H64.9198V73.8633H62.9795ZM59.0958 73.8633V74.181H61.0377V73.8633H59.0958ZM55.212 73.8633V74.181H57.1539V73.8633H55.212Z" fill="#E6E6E6" style="fill:#E6E6E6;fill:color(display-p3 0.9020 0.9020 0.9020);fill-opacity:1;"/>
<path d="M94.0487 70.6836V71.0013H95.9905V70.6836H94.0487ZM90.1649 70.6836V71.0013H92.1068V70.6836H90.1649ZM86.2812 70.6836V71.0013H88.223V70.6836H86.2812ZM82.3974 70.6836V71.0013H84.3393V70.6836H82.3974ZM78.5137 70.6836V71.0013H80.4555V70.6836H78.5137ZM74.6299 70.6836V71.0013H76.5718V70.6836H74.6299ZM70.7462 70.6836V71.0013H72.688V70.6836H70.7462ZM66.8624 70.6836V71.0013H68.8043V70.6836H66.8624ZM62.9803 70.6836V71.0013H64.9205V70.6836H62.9803ZM59.0965 70.6836V71.0013H61.0384V70.6836H59.0965ZM55.2128 70.6836V71.0013H57.1546V70.6836H55.2128Z" fill="#E6E6E6" style="fill:#E6E6E6;fill:color(display-p3 0.9020 0.9020 0.9020);fill-opacity:1;"/>
<path d="M94.562 63.8555H94.0486V64.1732H94.7198C94.6688 64.0668 94.6162 63.9619 94.562 63.8555ZM90.1649 63.8555V64.1732H92.1068V63.8555H90.1649ZM86.2811 63.8555V64.1732H88.223V63.8555H86.2811ZM82.3974 63.8555V64.1732H84.3393V63.8555H82.3974ZM78.5136 63.8555V64.1732H80.4555V63.8555H78.5136ZM74.6299 63.8555V64.1732H76.5718V63.8555H74.6299ZM70.7461 63.8555V64.1732H72.688V63.8555H70.7461ZM66.8624 63.8555V64.1732H68.8043V63.8555H66.8624ZM62.9803 63.8555V64.1732H64.9205V63.8555H62.9803ZM59.0965 63.8555V64.1732H61.0384V63.8555H59.0965ZM55.8202 63.8555C55.766 63.9619 55.7134 64.0667 55.6624 64.1732H57.1546V63.8555H55.8202Z" fill="#E6E6E6" style="fill:#E6E6E6;fill:color(display-p3 0.9020 0.9020 0.9020);fill-opacity:1;"/>
<path d="M86.8741 64.9258V91.7759C86.6015 91.9507 86.3256 92.1175 86.045 92.2795V64.9258H86.8741Z" fill="#3F3D56" style="fill:#3F3D56;fill:color(display-p3 0.2471 0.2392 0.3373);fill-opacity:1;"/>
<path d="M75.5541 73.8203V95.1724C75.433 95.174 75.3118 95.1756 75.1906 95.1756C75.0344 95.1756 74.8797 95.174 74.7251 95.1708V73.8203H75.5541Z" fill="#3F3D56" style="fill:#3F3D56;fill:color(display-p3 0.2471 0.2392 0.3373);fill-opacity:1;"/>
<path d="M64.2342 64.9258V92.2207C63.9536 92.0571 63.6772 91.8871 63.4052 91.7108V64.9258H64.2342Z" fill="#3F3D56" style="fill:#3F3D56;fill:color(display-p3 0.2471 0.2392 0.3373);fill-opacity:1;"/>
<path d="M23.611 101.473L23.2947 97.0899C21.2232 96.0581 18.9301 95.5457 16.6147 95.5973C19.8722 98.1061 19.6113 103.12 21.8672 106.552C22.5791 107.617 23.5223 108.509 24.627 109.161C25.7317 109.813 26.9696 110.21 28.2489 110.32L30.9599 111.874C31.27 109.832 31.1321 107.747 30.5556 105.763C29.9791 103.779 28.9778 101.943 27.6207 100.382C26.8506 99.5133 25.9739 98.745 25.0112 98.0949C24.4186 99.7901 23.611 101.473 23.611 101.473Z" fill="#F2F2F2" style="fill:#F2F2F2;fill:color(display-p3 0.9490 0.9490 0.9490);fill-opacity:1;"/>
<path d="M86.3506 67.0561C88.0236 67.0561 89.3798 65.7048 89.3798 64.0378C89.3798 62.3709 88.0236 61.0195 86.3506 61.0195C84.6776 61.0195 83.3214 62.3709 83.3214 64.0378C83.3214 65.7048 84.6776 67.0561 86.3506 67.0561Z" fill="#374EA9" style="fill:#374EA9;fill:color(display-p3 0.2157 0.3059 0.6627);fill-opacity:1;"/>
<path d="M87.9058 62.7823C87.8602 62.739 87.7997 62.7148 87.7367 62.7148C87.6737 62.7148 87.6131 62.739 87.5676 62.7823C86.9248 63.2931 86.3475 63.8807 85.8486 64.5318C85.7261 64.2957 85.6037 64.0595 85.4812 63.8234C85.3398 63.5509 84.9269 63.7916 85.0682 64.0639C85.2473 64.4093 85.4265 64.7547 85.6056 65.1001C85.6272 65.1353 85.6576 65.1645 85.6937 65.1847C85.7299 65.2049 85.7706 65.2155 85.8121 65.2155C85.8536 65.2155 85.8943 65.2049 85.9305 65.1847C85.9667 65.1645 85.997 65.1353 86.0186 65.1001C86.5502 64.354 87.1857 63.6871 87.9058 63.1193C87.9503 63.0744 87.9752 63.0139 87.9752 62.9508C87.9752 62.8877 87.9503 62.8272 87.9058 62.7823Z" fill="white" style="fill:white;fill:white;fill-opacity:1;"/>
<path d="M75.1894 75.9546C76.8623 75.9546 78.2185 74.6032 78.2185 72.9363C78.2185 71.2693 76.8623 69.918 75.1894 69.918C73.5164 69.918 72.1602 71.2693 72.1602 72.9363C72.1602 74.6032 73.5164 75.9546 75.1894 75.9546Z" fill="#374EA9" style="fill:#374EA9;fill:color(display-p3 0.2157 0.3059 0.6627);fill-opacity:1;"/>
<path d="M76.7467 71.6769C76.7012 71.6335 76.6406 71.6094 76.5776 71.6094C76.5146 71.6094 76.4541 71.6335 76.4085 71.6769C75.7658 72.1876 75.1884 72.7752 74.6896 73.4263C74.5671 73.1902 74.4446 72.9541 74.3221 72.7179C74.1808 72.4454 73.7679 72.6862 73.9091 72.9585C74.0883 73.3039 74.2674 73.6492 74.4466 73.9946C74.4682 74.0299 74.4985 74.059 74.5347 74.0792C74.5708 74.0994 74.6116 74.11 74.6531 74.11C74.6945 74.11 74.7353 74.0994 74.7715 74.0792C74.8076 74.059 74.8379 74.0299 74.8596 73.9946C75.3912 73.2485 76.0266 72.5816 76.7467 72.0138C76.7912 71.969 76.8162 71.9084 76.8162 71.8453C76.8162 71.7823 76.7912 71.7217 76.7467 71.6769Z" fill="white" style="fill:white;fill:white;fill-opacity:1;"/>
<path d="M63.8707 67.6928C65.5437 67.6928 66.8999 66.3415 66.8999 64.6745C66.8999 63.0076 65.5437 61.6562 63.8707 61.6562C62.1978 61.6562 60.8416 63.0076 60.8416 64.6745C60.8416 66.3415 62.1978 67.6928 63.8707 67.6928Z" fill="#374EA9" style="fill:#374EA9;fill:color(display-p3 0.2157 0.3059 0.6627);fill-opacity:1;"/>
<path d="M65.426 63.4151C65.3805 63.3718 65.3199 63.3477 65.2569 63.3477C65.194 63.3477 65.1334 63.3718 65.0878 63.4151C64.4451 63.9259 63.8678 64.5135 63.3689 65.1646C63.2464 64.9285 63.1239 64.6924 63.0015 64.4562C62.8601 64.1837 62.4472 64.4244 62.5885 64.6968C62.7676 65.0421 62.9467 65.3875 63.1259 65.7329C63.1475 65.7681 63.1778 65.7973 63.214 65.8175C63.2502 65.8377 63.2909 65.8483 63.3324 65.8483C63.3738 65.8483 63.4146 65.8377 63.4508 65.8175C63.4869 65.7973 63.5173 65.7681 63.5389 65.7329C64.0705 64.9868 64.7059 64.3199 65.426 63.7521C65.4705 63.7073 65.4955 63.6467 65.4955 63.5836C65.4955 63.5205 65.4705 63.46 65.426 63.4151Z" fill="white" style="fill:white;fill:white;fill-opacity:1;"/>
<path d="M107.313 62.5313L109.307 55.1341L103.978 54.1289L104.264 59.2063L97.2624 66.39C96.8917 66.3749 96.5247 66.4676 96.2059 66.6568C95.8872 66.846 95.6306 67.1235 95.4674 67.4554C95.3043 67.7874 95.2416 68.1595 95.287 68.5264C95.3324 68.8933 95.4839 69.2391 95.7231 69.5216C95.9624 69.8042 96.2789 70.0112 96.6342 70.1176C96.9895 70.224 97.3682 70.2251 97.7241 70.1207C98.08 70.0163 98.3977 69.811 98.6386 69.5298C98.8794 69.2487 99.0329 68.9037 99.0804 68.5371L107.313 62.5313Z" fill="#FFB6B6" style="fill:#FFB6B6;fill:color(display-p3 1.0000 0.7137 0.7137);fill-opacity:1;"/>
<path d="M109.852 46.8384C111.66 48.2613 109.339 56.2201 109.339 56.2201C108.979 55.827 108.562 61.6362 108.122 61.4384C106.874 60.8763 104.585 58.9377 103.702 59.0957C103.198 59.186 103.727 55.2532 103.727 55.2532C103.727 55.2532 103.824 52.9982 104.006 50.0993C104.043 49.2788 104.287 48.4808 104.716 47.7796C105.145 47.0784 105.746 46.4968 106.461 46.0889C106.461 46.0889 108.043 45.4155 109.852 46.8384Z" fill="#3F3D56" style="fill:#3F3D56;fill:color(display-p3 0.2471 0.2392 0.3373);fill-opacity:1;"/>
<path d="M47.3745 63.4463L49.5668 73.1947L35.5181 72.324L39.3384 62.75L47.3745 63.4463Z" fill="#A0616A" style="fill:#A0616A;fill:color(display-p3 0.6275 0.3804 0.4157);fill-opacity:1;"/>
<path d="M45.0347 108.44L46.6128 108.44L47.3636 102.375H45.0344L45.0347 108.44Z" fill="#A0616A" style="fill:#A0616A;fill:color(display-p3 0.6275 0.3804 0.4157);fill-opacity:1;"/>
<path d="M44.5011 107.664L46.9958 107.516V108.581L49.3675 110.213C49.4847 110.293 49.5729 110.409 49.6193 110.543C49.6657 110.677 49.6679 110.823 49.6256 110.958C49.5832 111.094 49.4985 111.212 49.3838 111.296C49.2691 111.38 49.1305 111.425 48.9881 111.425H46.0181L45.5062 110.372L45.3063 111.425H44.1865L44.5011 107.664Z" fill="#2F2E41" style="fill:#2F2E41;fill:color(display-p3 0.1843 0.1804 0.2549);fill-opacity:1;"/>
<path d="M30.1194 107.658L31.6617 107.991L33.6859 102.222L31.4097 101.73L30.1194 107.658Z" fill="#A0616A" style="fill:#A0616A;fill:color(display-p3 0.6275 0.3804 0.4157);fill-opacity:1;"/>
<path d="M29.763 106.785L32.2325 107.167L32.0059 108.208L33.9765 110.304C34.0738 110.407 34.1354 110.539 34.1523 110.68C34.1691 110.821 34.1403 110.964 34.0701 111.087C33.9999 111.21 33.8919 111.308 33.7619 111.366C33.632 111.424 33.4869 111.439 33.3477 111.409L30.4453 110.782L30.1691 109.644L29.7496 110.631L28.6553 110.395L29.763 106.785Z" fill="#2F2E41" style="fill:#2F2E41;fill:color(display-p3 0.1843 0.1804 0.2549);fill-opacity:1;"/>
<path d="M49.9249 81.3453C48.8174 87.4102 48.5405 90.0288 48.5405 90.0288C48.5405 90.0288 49.3712 90.9937 48.8174 91.5454C48.2636 92.0972 48.8174 93.1992 48.8174 93.1992L47.5722 106.57L46.5699 106.408L44.1553 106.021L43.2844 105.881L43.8382 93.3379C43.8382 93.3379 43.2844 92.2344 43.5613 91.9585C43.8382 91.6826 43.2844 90.0288 43.2844 90.0288L42.593 76.9342L38.3036 91.2695C38.3036 91.2695 38.7197 91.8213 38.3036 92.2344C37.889 92.6474 37.0599 94.7158 37.0599 94.7158L34.5092 103.609L34.2926 104.364L32.9624 104.116L31.5145 103.845L31.2485 103.795L30.7751 103.706L30.4704 103.649L30.3668 103.631L29.8656 103.536L30.0172 102.866L30.0961 102.513L32.2539 92.9634L32.3034 92.743L32.356 92.5103C32.356 92.5103 32.0791 91.8213 32.4937 91.4067C32.615 91.2804 32.7035 91.1265 32.7518 90.9584C32.8 90.7903 32.8065 90.613 32.7706 90.4419C32.757 90.4275 32.7446 90.412 32.7334 90.3957C32.6845 90.3287 32.6507 90.2519 32.6344 90.1706C32.5973 89.998 32.6298 89.756 32.9098 89.4771C32.9886 89.3936 33.0548 89.2991 33.1062 89.1965C33.527 88.4028 33.7389 86.7213 33.7389 86.7213C33.7389 86.7213 34.1132 73.4032 35.3383 71.3687C35.4033 71.2623 36.7038 69.2207 36.7719 69.1791C38.1547 68.353 48.9286 69.494 48.9286 69.494C48.9286 69.494 49.5811 71.2408 49.6105 71.4226C49.7698 72.4445 50.8639 76.2006 49.9249 81.3453Z" fill="#2F2E41" style="fill:#2F2E41;fill:color(display-p3 0.1843 0.1804 0.2549);fill-opacity:1;"/>
<path d="M46.6522 49.2686C46.6522 49.2686 46.8853 48.0629 44.6452 45.8308C43.4593 45.4369 41.4045 45.6665 40.6921 45.8308C37.3978 50.1636 37.9876 49.3991 37.1301 51.82C36.9078 52.4478 36.7966 53.0509 36.8954 53.5433C37.2907 55.5127 37.9325 65.6224 37.8007 66.1476C37.669 66.6728 36.7466 67.3292 37.669 67.3292C38.5914 67.3292 50.4865 67.1218 50.2229 66.7279C49.9594 66.334 46.6522 49.2686 46.6522 49.2686Z" fill="#374EA9" style="fill:#374EA9;fill:color(display-p3 0.2157 0.3059 0.6627);fill-opacity:1;"/>
<path d="M60.7787 65.2847C60.5981 65.3544 60.4043 65.3837 60.211 65.3707C60.0177 65.3578 59.8297 65.3027 59.6601 65.2094C59.4905 65.1162 59.3434 64.987 59.2294 64.831C59.1153 64.675 59.0369 64.496 58.9998 64.3066L54.3378 63.6467L55.9588 61.8203L60.1374 62.7269C60.4609 62.6858 60.7883 62.7644 61.0576 62.9478C61.3268 63.1312 61.5192 63.4067 61.5983 63.7219C61.6773 64.0372 61.6376 64.3704 61.4865 64.6585C61.3355 64.9465 61.0836 65.1693 60.7787 65.2847Z" fill="#A0616A" style="fill:#A0616A;fill:color(display-p3 0.6275 0.3804 0.4157);fill-opacity:1;"/>
<path d="M41.0554 48.4904C41.4313 48.2404 41.8583 48.1229 42.2019 47.7891C43.4568 48.6894 43.5492 47.2235 44.6864 49.4288C45.8236 51.6342 49.88 56.9514 51.59 58.5501C53.3 60.1489 56.4311 60.9575 57.339 61.5201C57.8694 61.8373 58.4256 62.1096 59.0017 62.3341C58.6377 63.0406 58.4359 63.8148 57.9807 64.4901C55.4093 64.1761 52.038 63.1509 50.1421 62.6497C48.2461 62.1485 48.9673 62.522 48.1875 61.9343C47.4078 61.3467 48.0524 61.6175 47.1449 61.3789C46.2373 61.1404 45.5454 59.9428 45.2718 59.0176C44.6203 58.3541 44.0618 57.6373 43.4171 56.9806C42.6722 54.1414 41.8435 51.3154 41.0554 48.4904Z" fill="#374EA9" style="fill:#374EA9;fill:color(display-p3 0.2157 0.3059 0.6627);fill-opacity:1;"/>
<path d="M43.999 44.1468C46.1063 44.1468 47.8146 42.4446 47.8146 40.3449C47.8146 38.2451 46.1063 36.543 43.999 36.543C41.8917 36.543 40.1833 38.2451 40.1833 40.3449C40.1833 42.4446 41.8917 44.1468 43.999 44.1468Z" fill="#A0616A" style="fill:#A0616A;fill:color(display-p3 0.6275 0.3804 0.4157);fill-opacity:1;"/>
<path d="M46.5479 47.2971C46.367 47.0397 45.0148 44.488 44.6129 43.523C44.5715 43.7319 44.5455 43.9436 44.5348 44.1563L44.5308 44.2356L44.4518 44.2458C44.333 44.2609 41.5267 44.6003 40.0662 42.9502C39.2009 41.9728 39.0046 40.5067 39.4821 38.5918C39.3953 38.5749 39.3121 38.5429 39.2362 38.4975C39.1099 38.4104 39.0042 38.2969 38.9265 38.1649C38.8487 38.0329 38.8008 37.8856 38.7861 37.7333L38.7052 37.7549C36.1069 36.4951 38.3454 32.8098 40.7187 34.642C40.9268 34.5957 41.1438 34.6081 41.3453 34.6779C41.5396 34.7567 41.7089 34.8864 41.8353 35.0532C41.9616 35.2201 42.0403 35.4179 42.0629 35.6257C43.2892 34.983 44.912 35.0876 45.7513 35.5698C46.1028 35.7717 46.3046 36.026 46.3404 36.3097C47.3318 36.3648 48.398 37.327 48.398 38.6903V38.7852H48.3027C47.9039 38.7937 47.5149 38.9101 47.1773 39.1219C46.8398 39.3338 46.5664 39.6331 46.3865 39.9879C46.1427 40.4268 46.0221 40.923 46.0372 41.4244C46.0524 41.9258 46.2028 42.4138 46.4727 42.8373C46.7664 43.2864 46.967 43.7896 47.0625 44.3172C47.1581 44.8448 47.1467 45.386 47.0291 45.9092L46.6711 47.4723L46.5479 47.2971Z" fill="#2F2E41" style="fill:#2F2E41;fill:color(display-p3 0.1843 0.1804 0.2549);fill-opacity:1;"/>
<path d="M57.6208 111.455C57.6208 111.48 57.616 111.504 57.6065 111.527C57.597 111.55 57.583 111.571 57.5654 111.589C57.5477 111.606 57.5268 111.62 57.5037 111.629C57.4807 111.639 57.456 111.644 57.431 111.644H12.744C12.6937 111.644 12.6455 111.624 12.6099 111.588C12.5743 111.553 12.5543 111.505 12.5543 111.455C12.5543 111.405 12.5743 111.356 12.6099 111.321C12.6455 111.286 12.6937 111.266 12.744 111.266H57.4311C57.456 111.266 57.4807 111.27 57.5037 111.28C57.5268 111.289 57.5477 111.303 57.5654 111.321C57.583 111.338 57.597 111.359 57.6065 111.382C57.616 111.405 57.6208 111.43 57.6208 111.455Z" fill="#CCCCCC" style="fill:#CCCCCC;fill:color(display-p3 0.8000 0.8000 0.8000);fill-opacity:1;"/>
<path d="M118.524 111.455C118.524 111.48 118.519 111.504 118.51 111.527C118.5 111.55 118.486 111.571 118.469 111.589C118.451 111.606 118.43 111.62 118.407 111.629C118.384 111.639 118.359 111.644 118.334 111.644H73.6474C73.597 111.644 73.5488 111.624 73.5132 111.588C73.4776 111.553 73.4576 111.505 73.4576 111.455C73.4576 111.405 73.4776 111.356 73.5132 111.321C73.5488 111.286 73.597 111.266 73.6474 111.266H118.334C118.359 111.266 118.384 111.27 118.407 111.28C118.43 111.289 118.451 111.303 118.469 111.321C118.486 111.338 118.5 111.359 118.51 111.382C118.519 111.405 118.524 111.43 118.524 111.455Z" fill="#CCCCCC" style="fill:#CCCCCC;fill:color(display-p3 0.8000 0.8000 0.8000);fill-opacity:1;"/>
<path d="M63.7768 97.8335C64.7094 97.8335 65.4653 97.0803 65.4653 96.1511C65.4653 95.222 64.7094 94.4688 63.7768 94.4688C62.8443 94.4688 62.0884 95.222 62.0884 96.1511C62.0884 97.0803 62.8443 97.8335 63.7768 97.8335Z" fill="#E6E6E6" style="fill:#E6E6E6;fill:color(display-p3 0.9020 0.9020 0.9020);fill-opacity:1;"/>
<path d="M75.0968 99.5757C76.0293 99.5757 76.7853 98.8225 76.7853 97.8933C76.7853 96.9642 76.0293 96.2109 75.0968 96.2109C74.1643 96.2109 73.4083 96.9642 73.4083 97.8933C73.4083 98.8225 74.1643 99.5757 75.0968 99.5757Z" fill="#E6E6E6" style="fill:#E6E6E6;fill:color(display-p3 0.9020 0.9020 0.9020);fill-opacity:1;"/>
<path d="M86.4167 97.5132C87.3492 97.5132 88.1052 96.76 88.1052 95.8308C88.1052 94.9017 87.3492 94.1484 86.4167 94.1484C85.4842 94.1484 84.7283 94.9017 84.7283 95.8308C84.7283 96.76 85.4842 97.5132 86.4167 97.5132Z" fill="#E6E6E6" style="fill:#E6E6E6;fill:color(display-p3 0.9020 0.9020 0.9020);fill-opacity:1;"/>
</g>
<g clip-path="url(#clip1_24179_58908)">
<path d="M72.4986 40.1201C80.7014 40.1201 87.3512 33.3994 87.3512 25.1089C87.3512 16.8184 80.7014 10.0977 72.4986 10.0977C64.2957 10.0977 57.646 16.8184 57.646 25.1089C57.646 33.3994 64.2957 40.1201 72.4986 40.1201Z" fill="#E6E6E6" style="fill:#E6E6E6;fill:color(display-p3 0.9020 0.9020 0.9020);fill-opacity:1;"/>
<path d="M85.2786 25.1081C85.2801 27.1235 84.8143 29.1113 83.9185 30.912C83.0227 32.7127 81.7219 34.2761 80.1203 35.477C80.0132 35.558 79.9041 35.6369 79.7942 35.7137C77.6526 37.2183 75.1068 38.0247 72.4985 38.0247C69.8903 38.0247 67.3444 37.2183 65.2028 35.7137C65.0929 35.6369 64.9838 35.558 64.8767 35.477C63.2763 34.2751 61.9762 32.7114 61.0806 30.911C60.1849 29.1105 59.7184 27.1233 59.7184 25.1081C59.7184 23.0929 60.1849 21.1056 61.0806 19.3052C61.9762 17.5047 63.2763 15.941 64.8767 14.7391C64.9838 14.6581 65.0929 14.5792 65.2028 14.5024C67.3444 12.9978 69.8903 12.1914 72.4985 12.1914C75.1068 12.1914 77.6526 12.9978 79.7942 14.5024C79.9041 14.5792 80.0132 14.6581 80.1203 14.7391C81.7219 15.94 83.0227 17.5034 83.9185 19.3041C84.8143 21.1048 85.2801 23.0926 85.2786 25.1081Z" fill="white" style="fill:white;fill:white;fill-opacity:1;"/>
<path d="M72.4977 36.9077C78.9455 36.9077 84.1725 31.6248 84.1725 25.1081C84.1725 18.5914 78.9455 13.3086 72.4977 13.3086C66.0499 13.3086 60.8229 18.5914 60.8229 25.1081C60.8229 31.6248 66.0499 36.9077 72.4977 36.9077Z" fill="#797D88" style="fill:#797D88;fill:color(display-p3 0.4733 0.4883 0.5333);fill-opacity:1;"/>
<path opacity="0.2" d="M72.5289 13.3438C72.3519 13.3438 72.176 13.3484 72.001 13.3563C74.9517 13.6184 77.6936 15.0043 79.671 17.2332C81.6485 19.4622 82.7137 22.3675 82.6509 25.3606C82.588 28.3537 81.4018 31.2107 79.3325 33.3528C77.2633 35.495 74.4657 36.762 71.5066 36.8973C71.8436 36.9269 72.1844 36.9428 72.5289 36.9428C75.6253 36.9428 78.5948 35.6997 80.7843 33.4868C82.9737 31.274 84.2037 28.2727 84.2037 25.1433C84.2037 22.0139 82.9737 19.0126 80.7843 16.7998C78.5948 14.5869 75.6253 13.3438 72.5289 13.3438Z" fill="black" style="fill:black;fill:black;fill-opacity:1;"/>
<path d="M72.5328 12.4727C72.4321 12.4728 72.3355 12.5134 72.2643 12.5853C72.1931 12.6573 72.153 12.7549 72.1528 12.8567V14.5323C72.1528 14.6342 72.1929 14.7319 72.2641 14.8039C72.3354 14.8759 72.432 14.9163 72.5328 14.9163C72.6336 14.9163 72.7302 14.8759 72.8014 14.8039C72.8727 14.7319 72.9127 14.6342 72.9127 14.5323V12.8567C72.9126 12.7549 72.8725 12.6573 72.8012 12.5853C72.73 12.5134 72.6335 12.4728 72.5328 12.4727Z" fill="white" style="fill:white;fill:white;fill-opacity:1;"/>
<path d="M80.1203 14.7375C80.0132 14.6565 79.9041 14.5776 79.7942 14.5008C79.7283 14.4965 79.6624 14.5096 79.6031 14.5388C79.5437 14.5681 79.4929 14.6125 79.4557 14.6677L78.5224 16.0522C78.4657 16.1364 78.4444 16.2398 78.4632 16.3399C78.482 16.4399 78.5393 16.5283 78.6226 16.5856C78.7059 16.6429 78.8083 16.6645 78.9072 16.6455C79.0062 16.6265 79.0937 16.5686 79.1504 16.4844L80.0837 15.0999C80.1192 15.0473 80.1411 14.9867 80.1475 14.9234C80.1539 14.8601 80.1446 14.7962 80.1203 14.7375Z" fill="white" style="fill:white;fill:white;fill-opacity:1;"/>
<path d="M84.36 21.0517C84.3412 21.005 84.3136 20.9625 84.2785 20.9266C84.2435 20.8908 84.2019 20.8622 84.1559 20.8426C84.11 20.8231 84.0607 20.8128 84.0108 20.8125C83.961 20.8122 83.9115 20.8218 83.8654 20.8408L82.329 21.4713C82.2357 21.5097 82.1614 21.5839 82.1223 21.6777C82.0831 21.7715 82.0824 21.8771 82.1203 21.9714C82.1583 22.0657 82.2316 22.1409 82.3244 22.1805C82.4171 22.2202 82.5217 22.221 82.615 22.1827L84.1514 21.5523C84.2446 21.5137 84.3189 21.4393 84.358 21.3455C84.3971 21.2517 84.3978 21.146 84.36 21.0517Z" fill="white" style="fill:white;fill:white;fill-opacity:1;"/>
<path d="M66.474 16.0522L65.5407 14.6677C65.5035 14.6125 65.4527 14.5681 65.3933 14.5388C65.334 14.5096 65.2681 14.4965 65.2022 14.5008C65.0923 14.5776 64.9832 14.6565 64.8761 14.7375C64.8518 14.7962 64.8425 14.8601 64.8489 14.9234C64.8553 14.9867 64.8772 15.0473 64.9127 15.0999L65.846 16.4844C65.9027 16.5686 65.9902 16.6265 66.0892 16.6455C66.1882 16.6645 66.2905 16.6429 66.3738 16.5856C66.4571 16.5283 66.5144 16.4399 66.5332 16.3399C66.552 16.2399 66.5307 16.1364 66.474 16.0522Z" fill="white" style="fill:white;fill:white;fill-opacity:1;"/>
<path d="M62.6663 21.4712L61.1299 20.8407C61.0366 20.8024 60.932 20.8031 60.8392 20.8427C60.7464 20.8824 60.6729 20.9576 60.635 21.0519C60.5971 21.1463 60.5978 21.252 60.637 21.3458C60.6761 21.4396 60.7506 21.5138 60.8439 21.5522L62.3803 22.1826C62.4736 22.2209 62.5781 22.2201 62.6709 22.1804C62.7636 22.1408 62.837 22.0656 62.8749 21.9713C62.9128 21.877 62.9121 21.7714 62.873 21.6776C62.8339 21.5838 62.7595 21.5096 62.6663 21.4712Z" fill="white" style="fill:white;fill:white;fill-opacity:1;"/>
<path d="M72.5328 35.3008C72.4321 35.301 72.3355 35.3415 72.2643 35.4135C72.1931 35.4854 72.153 35.583 72.1528 35.6848V37.3605C72.1528 37.4623 72.1929 37.56 72.2641 37.632C72.3354 37.704 72.432 37.7445 72.5328 37.7445C72.6336 37.7445 72.7302 37.704 72.8014 37.632C72.8727 37.56 72.9127 37.4623 72.9127 37.3605V35.6848C72.9126 35.583 72.8725 35.4854 72.8012 35.4135C72.73 35.3415 72.6335 35.301 72.5328 35.3008Z" fill="white" style="fill:white;fill:white;fill-opacity:1;"/>
<path d="M80.0837 35.1149L79.1504 33.7303C79.1223 33.6887 79.0864 33.653 79.0447 33.6253C79.0029 33.5977 78.9562 33.5786 78.9072 33.5692C78.8582 33.5598 78.8079 33.5603 78.759 33.5705C78.7102 33.5808 78.6638 33.6007 78.6226 33.6291C78.5814 33.6575 78.5461 33.6938 78.5187 33.7359C78.4914 33.7781 78.4725 33.8253 78.4632 33.8748C78.4539 33.9244 78.4543 33.9753 78.4645 34.0246C78.4747 34.074 78.4944 34.1208 78.5224 34.1625L79.4557 35.547C79.4929 35.6022 79.5437 35.6466 79.6031 35.6759C79.6624 35.7051 79.7283 35.7183 79.7942 35.7139C79.9041 35.6371 80.0132 35.5582 80.1203 35.4772C80.1446 35.4185 80.1539 35.3546 80.1475 35.2913C80.1411 35.228 80.1192 35.1674 80.0837 35.1149Z" fill="white" style="fill:white;fill:white;fill-opacity:1;"/>
<path d="M84.1516 28.6626L82.6153 28.0321C82.5219 27.9938 82.4173 27.9945 82.3245 28.0342C82.2317 28.0738 82.1583 28.149 82.1203 28.2433C82.0824 28.3377 82.0831 28.4434 82.1223 28.5372C82.1615 28.631 82.2359 28.7052 82.3293 28.7436L83.8656 29.3741C83.959 29.4123 84.0635 29.4115 84.1562 29.3719C84.249 29.3322 84.3224 29.257 84.3603 29.1627C84.3982 29.0684 84.3975 28.9628 84.3584 28.869C84.3193 28.7752 84.2449 28.701 84.1516 28.6626Z" fill="white" style="fill:white;fill:white;fill-opacity:1;"/>
<path d="M66.3738 33.6291C66.2905 33.5718 66.1882 33.5503 66.0892 33.5692C65.9902 33.5882 65.9028 33.6462 65.846 33.7303L64.9127 35.1148C64.8772 35.1673 64.8553 35.228 64.8489 35.2913C64.8425 35.3546 64.8518 35.4185 64.8761 35.4772C64.9832 35.5582 65.0923 35.6371 65.2022 35.7139C65.2681 35.7182 65.334 35.7051 65.3933 35.6758C65.4527 35.6466 65.5035 35.6022 65.5407 35.547L66.474 34.1625C66.5021 34.1208 66.5217 34.074 66.5319 34.0246C66.5421 33.9752 66.5425 33.9243 66.5332 33.8748C66.5239 33.8253 66.505 33.7781 66.4777 33.7359C66.4503 33.6937 66.415 33.6574 66.3738 33.6291Z" fill="white" style="fill:white;fill:white;fill-opacity:1;"/>
<path d="M62.8754 28.2431C62.8566 28.1964 62.8289 28.1539 62.7939 28.118C62.7589 28.0822 62.7172 28.0536 62.6713 28.0341C62.6254 28.0145 62.5761 28.0042 62.5262 28.0039C62.4764 28.0036 62.4269 28.0132 62.3808 28.0322L60.8444 28.6627C60.7511 28.7011 60.6768 28.7753 60.6376 28.8691C60.5985 28.9629 60.5978 29.0685 60.6357 29.1628C60.6736 29.2571 60.747 29.3323 60.8398 29.372C60.9325 29.4116 61.0371 29.4124 61.1304 29.3741L62.6668 28.7437C62.76 28.7051 62.8343 28.6307 62.8734 28.5369C62.9125 28.4431 62.9132 28.3374 62.8754 28.2431Z" fill="white" style="fill:white;fill:white;fill-opacity:1;"/>
<path d="M73.0259 24.9181C73.061 25.1281 73.0123 25.3434 72.8904 25.5171C72.7686 25.6907 72.5836 25.8084 72.376 25.8443L65.6337 27.0034C65.5309 27.0211 65.4256 27.0182 65.3239 26.9947C65.2221 26.9713 65.126 26.9278 65.0409 26.8668C64.9558 26.8058 64.8834 26.7285 64.8279 26.6392C64.7724 26.5499 64.7348 26.4505 64.7173 26.3465C64.6998 26.2426 64.7027 26.1362 64.7259 26.0334C64.7491 25.9306 64.7921 25.8334 64.8525 25.7474C64.9129 25.6614 64.9894 25.5882 65.0777 25.5321C65.166 25.476 65.2644 25.438 65.3673 25.4203L72.1095 24.2612C72.3172 24.2258 72.5303 24.275 72.7021 24.3982C72.8739 24.5213 72.9904 24.7083 73.0259 24.9181Z" fill="#3F3D56" style="fill:#3F3D56;fill:color(display-p3 0.2471 0.2392 0.3373);fill-opacity:1;"/>
<path d="M80.1213 32.4669C80.0244 32.5654 79.8929 32.621 79.7555 32.6215C79.6182 32.6221 79.4862 32.5675 79.3886 32.4699L72.1306 25.1919C72.0332 25.0941 71.9783 24.9611 71.9778 24.8223C71.9773 24.6835 72.0314 24.5502 72.1281 24.4517C72.2248 24.3532 72.3563 24.2975 72.4936 24.2969C72.6309 24.2963 72.7629 24.3508 72.8605 24.4485L80.1184 31.7264C80.2158 31.8243 80.2708 31.9572 80.2714 32.0961C80.2719 32.2349 80.2179 32.3683 80.1213 32.4669Z" fill="#3F3D56" style="fill:#3F3D56;fill:color(display-p3 0.2471 0.2392 0.3373);fill-opacity:1;"/>
<path d="M72.4977 26.0145C72.9937 26.0145 73.3957 25.6082 73.3957 25.1069C73.3957 24.6056 72.9937 24.1992 72.4977 24.1992C72.0017 24.1992 71.5996 24.6056 71.5996 25.1069C71.5996 25.6082 72.0017 26.0145 72.4977 26.0145Z" fill="#CCCCCC" style="fill:#CCCCCC;fill:color(display-p3 0.8000 0.8000 0.8000);fill-opacity:1;"/>
<path d="M66.3126 9.36894C64.934 11.5594 62.8307 13.013 60.2368 13.968C60.1856 14.0068 60.1273 14.035 60.0652 14.051C60.0032 14.067 59.9386 14.0706 59.8752 14.0614C59.8118 14.0522 59.7509 14.0304 59.6958 13.9974C59.6407 13.9644 59.5926 13.9208 59.5542 13.869C58.1452 11.9676 58.4634 9.25017 60.3229 7.7973C60.7725 7.44666 61.2865 7.18977 61.8351 7.04155C62.3837 6.89332 62.956 6.85671 63.5188 6.93385C64.0815 7.01098 64.6234 7.20032 65.1132 7.49088C65.6029 7.78144 66.0306 8.16742 66.3716 8.62642L66.4105 8.67901C66.4489 8.73081 66.4769 8.78975 66.4927 8.85246C66.5086 8.91517 66.512 8.98042 66.5029 9.04448C66.4938 9.10855 66.4723 9.17018 66.4397 9.22585C66.407 9.28152 66.3638 9.33014 66.3126 9.36894Z" fill="#E6E6E6" style="fill:#E6E6E6;fill:color(display-p3 0.9020 0.9020 0.9020);fill-opacity:1;"/>
<path d="M78.6243 8.62642C78.9653 8.16742 79.393 7.78144 79.8827 7.49088C80.3725 7.20032 80.9144 7.01098 81.4772 6.93385C82.0399 6.85671 82.6122 6.89332 83.1608 7.04154C83.7094 7.18977 84.2234 7.44666 84.673 7.7973C86.5326 9.25017 86.8507 11.9676 85.4417 13.869C85.4033 13.9208 85.3552 13.9644 85.3001 13.9974C85.2451 14.0304 85.1841 14.0522 85.1207 14.0614C85.0573 14.0706 84.9927 14.067 84.9307 14.051C84.8687 14.035 84.8103 14.0068 84.7591 13.968C82.3511 13.0362 80.3764 11.4238 78.6834 9.36894C78.5798 9.29058 78.5114 9.17387 78.493 9.04448C78.4746 8.91509 78.5078 8.78363 78.5854 8.67901L78.6243 8.62642Z" fill="#E6E6E6" style="fill:#E6E6E6;fill:color(display-p3 0.9020 0.9020 0.9020);fill-opacity:1;"/>
<path d="M78.0209 38.1151C77.9331 38.1649 77.8685 38.2479 77.8411 38.3459C77.8137 38.4439 77.8259 38.5488 77.8749 38.6377L80.0677 42.5981C80.1169 42.6869 80.1991 42.7524 80.296 42.78C80.393 42.8077 80.4969 42.7953 80.5848 42.7456C80.6727 42.6958 80.7375 42.6128 80.7649 42.5149C80.7923 42.4169 80.78 42.3119 80.7308 42.223L78.5381 38.2626C78.4887 38.1739 78.4066 38.1085 78.3097 38.0809C78.2127 38.0532 78.1089 38.0655 78.0209 38.1151Z" fill="#E6E6E6" style="fill:#E6E6E6;fill:color(display-p3 0.9020 0.9020 0.9020);fill-opacity:1;"/>
<path d="M66.4576 38.263L64.2648 42.2233C64.2156 42.3122 64.2034 42.4172 64.2307 42.5152C64.2581 42.6132 64.3229 42.6962 64.4108 42.7459C64.4988 42.7956 64.6026 42.808 64.6996 42.7803C64.7966 42.7527 64.8787 42.6872 64.9279 42.5984L67.1207 38.638C67.1451 38.594 67.1606 38.5456 67.1665 38.4955C67.1723 38.4454 67.1684 38.3946 67.1548 38.3461C67.1413 38.2976 67.1184 38.2522 67.0875 38.2126C67.0566 38.173 67.0183 38.1399 66.9747 38.1153C66.9312 38.0907 66.8832 38.075 66.8337 38.0691C66.7841 38.0631 66.7339 38.0672 66.6859 38.0809C66.6378 38.0946 66.593 38.1177 66.5538 38.149C66.5146 38.1802 66.4819 38.2189 66.4576 38.263Z" fill="#E6E6E6" style="fill:#E6E6E6;fill:color(display-p3 0.9020 0.9020 0.9020);fill-opacity:1;"/>
<path d="M80.5117 43.6122C81.1603 43.6122 81.6861 43.0807 81.6861 42.4252C81.6861 41.7697 81.1603 41.2383 80.5117 41.2383C79.8631 41.2383 79.3373 41.7697 79.3373 42.4252C79.3373 43.0807 79.8631 43.6122 80.5117 43.6122Z" fill="#E6E6E6" style="fill:#E6E6E6;fill:color(display-p3 0.9020 0.9020 0.9020);fill-opacity:1;"/>
<path d="M81.3409 13.2372C81.9895 13.2372 82.5153 12.7057 82.5153 12.0502C82.5153 11.3947 81.9895 10.8633 81.3409 10.8633C80.6923 10.8633 80.1665 11.3947 80.1665 12.0502C80.1665 12.7057 80.6923 13.2372 81.3409 13.2372Z" fill="#E6E6E6" style="fill:#E6E6E6;fill:color(display-p3 0.9020 0.9020 0.9020);fill-opacity:1;"/>
<path d="M72.4294 10.4442C73.078 10.4442 73.6038 9.91278 73.6038 9.25725C73.6038 8.60172 73.078 8.07031 72.4294 8.07031C71.7808 8.07031 71.255 8.60172 71.255 9.25725C71.255 9.91278 71.7808 10.4442 72.4294 10.4442Z" fill="#E6E6E6" style="fill:#E6E6E6;fill:color(display-p3 0.9020 0.9020 0.9020);fill-opacity:1;"/>
<path d="M63.9317 13.0965C64.5803 13.0965 65.1061 12.5651 65.1061 11.9096C65.1061 11.2541 64.5803 10.7227 63.9317 10.7227C63.2831 10.7227 62.7573 11.2541 62.7573 11.9096C62.7573 12.5651 63.2831 13.0965 63.9317 13.0965Z" fill="#E6E6E6" style="fill:#E6E6E6;fill:color(display-p3 0.9020 0.9020 0.9020);fill-opacity:1;"/>
<path d="M64.6923 43.6122C65.3409 43.6122 65.8667 43.0807 65.8667 42.4252C65.8667 41.7697 65.3409 41.2383 64.6923 41.2383C64.0437 41.2383 63.5179 41.7697 63.5179 42.4252C63.5179 43.0807 64.0437 43.6122 64.6923 43.6122Z" fill="#E6E6E6" style="fill:#E6E6E6;fill:color(display-p3 0.9020 0.9020 0.9020);fill-opacity:1;"/>
</g>
<defs>
<clipPath id="clip0_24179_58908">
<rect width="105.969" height="79.2616" fill="white" style="fill:white;fill:white;fill-opacity:1;" transform="translate(12.5546 32.7383)"/>
</clipPath>
<clipPath id="clip1_24179_58908">
<rect width="30.1539" height="37.0462" fill="white" style="fill:white;fill:white;fill-opacity:1;" transform="translate(57.354 6.89453)"/>
</clipPath>
</defs>
</svg>
