<svg width="101" height="69" viewBox="0 0 101 69" fill="none" xmlns="http://www.w3.org/2000/svg">
<g clip-path="url(#clip0_20119_62228)">
<path d="M35.0749 66.0949C34.9946 66.0986 34.9151 66.0775 34.8472 66.0345C34.7792 65.9915 34.7262 65.9286 34.6952 65.8544C34.6641 65.7803 34.6567 65.6983 34.6738 65.6198C34.6909 65.5412 34.7317 65.4698 34.7907 65.4152L34.8176 65.3084C34.8141 65.2998 34.8105 65.2913 34.8069 65.2827C34.726 65.0916 34.5904 64.9287 34.4172 64.8144C34.244 64.7001 34.0409 64.6395 33.8333 64.6403C33.6258 64.641 33.4231 64.7031 33.2507 64.8187C33.0784 64.9343 32.944 65.0983 32.8645 65.29C32.5468 66.0551 32.1423 66.8216 32.0427 67.6306C31.9989 67.9882 32.0174 68.3508 32.0974 68.702C31.3512 67.0743 30.9638 65.3052 30.9613 63.5146C30.9611 63.0653 30.9861 62.6163 31.036 62.1698C31.0773 61.8037 31.1346 61.4402 31.2079 61.0794C31.6079 59.1214 32.4665 57.2862 33.7135 55.7246C34.317 55.3953 34.805 54.8889 35.1119 54.2737C35.223 54.0525 35.3016 53.8165 35.3451 53.5728C35.277 53.5817 35.0884 52.5449 35.1398 52.4813C35.0449 52.3373 34.8751 52.2658 34.7715 52.1253C34.2561 51.4266 33.5462 51.5486 33.1755 52.498C32.3837 52.8977 32.3761 53.5604 32.8619 54.1978C33.171 54.6033 33.2135 55.152 33.4847 55.5861C33.4568 55.6219 33.4277 55.6565 33.3998 55.6922C32.8898 56.348 32.4453 57.0523 32.0726 57.7949C32.1632 56.963 32.0551 56.1214 31.757 55.3395C31.4549 54.6108 30.8887 53.9971 30.3901 53.3671C29.7912 52.6104 28.5631 52.9406 28.4576 53.8998C28.4566 53.9091 28.4556 53.9184 28.4546 53.9277C28.5287 53.9695 28.6012 54.0138 28.6721 54.0607C28.7612 54.1203 28.8303 54.2053 28.8702 54.3048C28.9101 54.4042 28.9191 54.5134 28.8959 54.6181C28.8727 54.7227 28.8185 54.8179 28.7403 54.8911C28.6621 54.9644 28.5636 55.0124 28.4576 55.0287L28.4468 55.0304C28.4732 55.2973 28.5198 55.5618 28.5863 55.8217C27.9467 58.2953 29.3276 59.1963 31.2994 59.2368C31.343 59.2591 31.3854 59.2814 31.4289 59.3026C31.0545 60.3637 30.8196 61.4689 30.7302 62.5905C30.6796 63.2522 30.6826 63.917 30.7392 64.5782L30.7358 64.5548C30.593 63.8195 30.2007 63.156 29.6253 62.6765C28.7708 61.9745 27.5634 61.716 26.6415 61.1517C26.5435 61.0888 26.4296 61.0552 26.3131 61.0549C26.1967 61.0546 26.0826 61.0876 25.9843 61.1501C25.8861 61.2125 25.8077 61.3017 25.7584 61.4072C25.7092 61.5128 25.6912 61.6302 25.7065 61.7456C25.7077 61.7538 25.709 61.762 25.7102 61.7702C25.8477 61.8262 25.9815 61.8907 26.1109 61.9633C26.185 62.0051 26.2574 62.0494 26.3284 62.0963C26.4175 62.1559 26.4865 62.2409 26.5265 62.3404C26.5664 62.4398 26.5754 62.549 26.5522 62.6537C26.529 62.7583 26.4748 62.8535 26.3966 62.9267C26.3184 63 26.2198 63.048 26.1139 63.0643L26.1031 63.066C26.0953 63.0671 26.0886 63.0682 26.0808 63.0693C26.3156 63.63 26.6452 64.1461 27.0551 64.595C27.455 66.7544 29.1728 66.9593 31.0104 66.3304H31.0115C31.2131 67.2065 31.5052 68.0593 31.8831 68.875H34.9969C35.0081 68.8404 35.0181 68.8047 35.0282 68.7701C34.74 68.7882 34.4506 68.771 34.1666 68.7188C34.3976 68.4353 34.6286 68.1496 34.8596 67.8661C34.8648 67.8608 34.8696 67.8552 34.8742 67.8494C34.9913 67.7043 35.1096 67.5603 35.2268 67.4152L35.2269 67.4151C35.2331 66.9703 35.182 66.5266 35.0749 66.0949Z" fill="#F2F2F2" style="fill:#F2F2F2;fill:color(display-p3 0.9490 0.9490 0.9490);fill-opacity:1;"/>
<path d="M11.125 61.3858L11.9842 62.2938L15.9735 59.3382L14.7055 57.998L11.125 61.3858Z" fill="#A0616A" style="fill:#A0616A;fill:color(display-p3 0.6275 0.3804 0.4157);fill-opacity:1;"/>
<path d="M12.5314 61.8875L11.5588 60.9738L11.3199 60.75L8.84375 62.7297L9.48788 63.4105L10.2461 62.9243L9.89776 63.8438L11.6056 65.6488C11.6874 65.7354 11.7947 65.7935 11.912 65.8148C12.0292 65.836 12.1501 65.8192 12.2571 65.7669C12.3641 65.7145 12.4516 65.6294 12.5068 65.5238C12.5619 65.4182 12.5819 65.2978 12.5638 65.18L12.1952 62.7955L12.8447 62.1813L12.5314 61.8875Z" fill="#2F2E41" style="fill:#2F2E41;fill:color(display-p3 0.1843 0.1804 0.2549);fill-opacity:1;"/>
<path d="M30.0065 28.3239L29.7341 31.2976C29.7341 31.2976 29.2586 33.5381 29.5878 33.3565C29.917 33.1749 29.3268 33.9922 29.4822 34.701C29.6377 35.4097 28.1543 40.6951 28.8262 40.1475C29.498 39.6 28.4379 43.3825 27.7674 45.2485C27.5621 45.8254 27.3512 46.4093 27.1388 46.9889C27.097 47.1063 27.055 47.2221 27.0118 47.3395C26.7366 48.0938 26.4614 48.8368 26.1975 49.538C26.1597 49.6358 26.1234 49.7335 26.0871 49.83C26.0857 49.8327 26.0857 49.8355 26.0843 49.8355C25.2155 52.122 24.471 53.921 24.1735 54.2186C24.0185 54.3736 21.5588 56.1503 19.0795 57.9298C16.4774 59.7973 13.8542 61.6689 13.8542 61.6689L11.4043 59.0989C11.4043 59.0989 11.4629 59.0821 11.5733 59.0486C11.7772 58.9899 12.1544 58.8796 12.6488 58.7329C14.7104 58.1253 12.0915 57.1797 13.9632 56.5037C14.4912 56.3137 14.8432 56.1657 14.9227 56.0875C15.3879 55.6335 16.0123 54.551 16.307 55.005C16.6017 55.4589 17.9384 52.0857 18.3239 51.7519C18.5306 51.5717 19.2053 50.7295 19.7835 49.9892C20.2807 49.3522 20.7081 48.7894 20.7081 48.7894C20.7081 48.7894 20.7165 48.4876 20.7291 48.0071C20.7473 47.2962 20.7738 46.1914 20.8018 45.0851C20.8004 45.0837 20.8004 45.0837 20.8018 45.0837C20.8115 44.6675 20.8213 44.2512 20.8311 43.8559C20.8381 43.55 20.845 43.2553 20.8521 42.9829C20.8702 42.1673 20.8827 41.5499 20.8827 41.3962C20.8827 40.892 20.8827 41.2845 21.2808 40.98C21.3403 40.9333 21.3967 40.8829 21.4499 40.8291C21.535 40.7525 21.6135 40.6689 21.6845 40.5791C21.7139 40.5163 21.5309 40.6015 21.2934 40.554C21.1648 40.5282 21.0459 40.4673 20.9498 40.378C20.4497 39.9283 20.9889 38.5455 20.9889 38.5455C19.8519 36.2715 19.9344 34.4068 20.4665 32.9695C20.8644 31.9382 21.496 31.0131 22.3116 30.2668C22.6221 29.971 22.9603 29.7058 23.3216 29.4748L23.3565 29.2863L23.7406 27.2065C23.9449 27.0943 24.1573 26.9977 24.3761 26.9174C25.0583 26.6726 25.7904 26.5997 26.5075 26.7051C27.2202 26.8082 27.9103 27.0316 28.5482 27.3658C29.0697 27.6277 29.559 27.9493 30.0065 28.3239Z" fill="#2F2E41" style="fill:#2F2E41;fill:color(display-p3 0.1843 0.1804 0.2549);fill-opacity:1;"/>
<path d="M19.2773 66.0193L20.522 66.1351L21.5708 61.2822L19.7337 61.1113L19.2773 66.0193Z" fill="#A0616A" style="fill:#A0616A;fill:color(display-p3 0.6275 0.3804 0.4157);fill-opacity:1;"/>
<path d="M22.8622 67.9207L21.0128 66.3717L21.0966 65.4806L20.6665 65.4666L19.334 65.4233H19.3325L19.0057 65.4121L18.4512 68.5325L19.3856 68.6191L19.6328 67.7531L19.9779 68.675L20.4723 68.7211L22.4515 68.9055C22.4683 68.9068 22.4864 68.9082 22.5032 68.9082C22.5819 68.9083 22.6597 68.8917 22.7315 68.8594C22.8032 68.8272 22.8673 68.78 22.9195 68.7211C23.0005 68.6324 23.05 68.5195 23.0605 68.3998C23.0687 68.3099 23.0549 68.2193 23.0204 68.1358C22.9858 68.0524 22.9315 67.9785 22.8622 67.9207Z" fill="#2F2E41" style="fill:#2F2E41;fill:color(display-p3 0.1843 0.1804 0.2549);fill-opacity:1;"/>
<path d="M26.196 49.5375C25.7225 52.1146 23.7181 58.157 22.5058 61.6936C21.954 63.3097 21.5685 64.4034 21.5685 64.4034L20.94 64.205H20.9386L19.8756 63.8697L19.4887 63.7468H19.4873L19.018 63.5974C19.018 63.5974 19.0725 60.7117 19.0781 57.9293C19.0823 56.763 19.0767 55.6135 19.0544 54.7028C19.0292 53.7097 18.9859 52.9988 18.9147 52.8576C18.6199 52.2794 19.113 52.2179 19.634 52.0727C20.1564 51.926 19.7485 51.7053 19.546 51.236C19.4091 50.9231 19.6787 50.5055 19.8701 50.268C19.9229 50.2012 19.9793 50.1373 20.0391 50.0767C20.0391 50.0767 19.9469 50.0445 19.7821 49.9887C20.2793 49.3518 20.7067 48.7889 20.7067 48.7889C20.7067 48.7889 20.7151 48.4872 20.7276 48.0067C20.7458 47.2957 20.7724 46.1909 20.8003 45.0847C20.7989 45.0832 20.7989 45.0832 20.8003 45.0832C20.8101 44.667 20.8198 44.2508 20.8297 43.8555C21.6286 44.4687 22.4052 45.0693 23.1092 45.6252C23.11 45.6259 23.1107 45.6267 23.1112 45.6277C23.1117 45.6287 23.1119 45.6297 23.112 45.6308C24.8034 46.9675 26.0731 48.0402 26.2519 48.381C26.3329 48.5346 26.3049 48.9453 26.196 49.5375Z" fill="#2F2E41" style="fill:#2F2E41;fill:color(display-p3 0.1843 0.1804 0.2549);fill-opacity:1;"/>
<path d="M67.8388 4.03515C68.0717 4.01338 68.3038 4.08332 68.4859 4.23009C68.668 4.37687 68.7856 4.5889 68.8137 4.82106C68.8187 4.86834 68.8197 4.91595 68.8168 4.96341L71.6972 6.19343L71.5873 7.8746L67.8237 5.76301C67.6278 5.73583 67.4465 5.64457 67.308 5.50349C67.1695 5.36241 67.0815 5.17943 67.0579 4.98312C67.0456 4.87129 67.0553 4.75812 67.0867 4.65007C67.1181 4.54202 67.1705 4.44121 67.2408 4.35339C67.3111 4.26557 67.3981 4.19247 67.4967 4.13825C67.5953 4.08404 67.7036 4.04978 67.8154 4.03742C67.8232 4.03656 67.831 4.0358 67.8388 4.03515Z" fill="#FFB6B6" style="fill:#FFB6B6;fill:color(display-p3 1.0000 0.7137 0.7137);fill-opacity:1;"/>
<path d="M87.4363 14.4123C87.3652 14.0864 87.233 13.7769 87.0466 13.5002C86.9948 13.4214 86.9384 13.3459 86.8776 13.2739C86.6514 13.0044 86.4404 12.7571 86.2449 12.5364C86.1262 12.3981 86.0102 12.2696 85.9013 12.151C85.2686 11.4567 84.8537 11.0894 84.6638 11.0586C84.5716 11.0433 84.4808 11.0321 84.3927 11.0209C83.9417 10.9651 83.6148 10.9246 83.605 10.4482C83.604 10.38 83.6087 10.3118 83.6189 10.2443C83.6359 10.131 83.6606 10.019 83.693 9.9091C83.7116 9.8468 83.726 9.78335 83.7363 9.71916C83.7503 9.63677 83.7447 9.57525 83.6999 9.53753C83.6441 9.4915 83.5505 9.49846 83.3745 9.56829C83.3466 9.57948 83.3145 9.59203 83.2809 9.60737C83.2697 9.6116 83.2586 9.61719 83.246 9.62279C83.2237 9.63254 83.1985 9.64372 83.1734 9.65627C82.9625 9.75687 82.637 9.76942 82.2655 9.7317C81.1691 9.61999 79.6857 9.06687 79.6675 9.05985L70.3259 5.42969L70.2394 5.56936L70.034 5.90178L69.9628 6.01629L69.8818 6.14758L69.5284 6.71747L69.3496 7.00521L72.3666 9.28054L72.6948 9.52777L72.977 9.74151L78.7373 14.0868L80.8855 15.5045L81.3646 15.8202L83.4067 17.1667C83.7002 17.3606 84.0296 17.4938 84.3754 17.5583C84.7212 17.6229 85.0765 17.6175 85.4202 17.5425C85.7639 17.4675 86.0891 17.3245 86.3766 17.1217C86.6641 16.919 86.9081 16.6607 87.0941 16.3622C87.4567 15.7812 87.5794 15.082 87.4363 14.4123Z" fill="#E6E6E6" style="fill:#E6E6E6;fill:color(display-p3 0.9020 0.9020 0.9020);fill-opacity:1;"/>
<path d="M100.809 69.0001H0.139677C0.102632 69.0001 0.0671047 68.9853 0.0409102 68.9591C0.0147158 68.9329 0 68.8974 0 68.8604C0 68.8233 0.0147158 68.7878 0.0409102 68.7616C0.0671047 68.7354 0.102632 68.7207 0.139677 68.7207H100.809C100.846 68.7207 100.881 68.7354 100.908 68.7616C100.934 68.7878 100.949 68.8233 100.949 68.8604C100.949 68.8974 100.934 68.9329 100.908 68.9591C100.881 68.9853 100.846 69.0001 100.809 69.0001Z" fill="#E6E6E6" style="fill:#E6E6E6;fill:color(display-p3 0.9020 0.9020 0.9020);fill-opacity:1;"/>
<path d="M23.0352 23.2969L23.2969 25.7247L23.143 28.9082L30.1946 28.0706L30.8571 23.2969L30.0128 23.3053L23.0352 23.2969Z" fill="#FFB6B6" style="fill:#FFB6B6;fill:color(display-p3 1.0000 0.7137 0.7137);fill-opacity:1;"/>
<path d="M29.0331 15.4554L26.3792 13.3603L24.9861 13.2793L22.919 14.6035L22.4128 17.1858L21.2157 20.0936L22.9715 27.9409C22.9715 27.9409 23.1362 28.504 22.7047 28.5716C22.2731 28.6393 22.3249 29.4693 22.3249 29.4693C22.3249 29.4693 22.4128 30.1887 21.9937 30.2521C21.5747 30.3154 20.4574 30.3154 21.4351 31.5725C22.4128 32.8296 30.1461 28.0751 30.1461 28.0751L31.2693 22.1815C31.2693 22.1815 33.4476 19.2558 31.1018 17.5802L29.0331 15.4554Z" fill="#E6E6E6" style="fill:#E6E6E6;fill:color(display-p3 0.9020 0.9020 0.9020);fill-opacity:1;"/>
<path d="M17.447 33.2722C17.33 33.1263 17.2465 32.9565 17.2023 32.7748C17.1581 32.5931 17.1542 32.4039 17.191 32.2206C17.2278 32.0373 17.3044 31.8642 17.4153 31.7137C17.5262 31.5631 17.6688 31.4387 17.833 31.3492L21.1711 20.1465L23.2584 21.1974L19.6231 31.9351C19.7552 32.2209 19.7778 32.5452 19.6867 32.8465C19.5956 33.1479 19.3972 33.4054 19.1289 33.5702C18.8607 33.735 18.5413 33.7957 18.2313 33.7408C17.9213 33.6859 17.6423 33.5191 17.447 33.2722Z" fill="#A0616A" style="fill:#A0616A;fill:color(display-p3 0.6275 0.3804 0.4157);fill-opacity:1;"/>
<path d="M23.3982 14.5004C23.3982 14.5004 22.8015 14.1833 22.3934 15.5556C22.0666 16.6541 19.4154 23.1977 19.3816 24.7886C19.1634 24.8348 18.9668 24.9523 18.8227 25.1226C18.6787 25.2929 18.5954 25.5063 18.5859 25.7291L21.864 26.1684C22.4368 25.6852 22.5871 25.0327 22.3654 24.8391L23.0772 22.8952L26.0465 16.7104L23.8336 14.722L23.3982 14.5004Z" fill="#E6E6E6" style="fill:#E6E6E6;fill:color(display-p3 0.9020 0.9020 0.9020);fill-opacity:1;"/>
<path d="M40.9147 29.5899C40.9571 29.4078 40.9589 29.2186 40.9202 29.0356C40.8815 28.8527 40.8032 28.6804 40.6907 28.531C40.5783 28.3816 40.4344 28.2587 40.2693 28.1709C40.1042 28.0832 39.9219 28.0326 39.7351 28.023L32.0775 19.2773L30.4531 21.2156L38.3744 29.3253C38.3789 29.6401 38.4987 29.9423 38.7112 30.1747C38.9236 30.407 39.2139 30.5534 39.527 30.586C39.8402 30.6186 40.1544 30.5352 40.4101 30.3516C40.6659 30.168 40.8454 29.897 40.9147 29.5899Z" fill="#A0616A" style="fill:#A0616A;fill:color(display-p3 0.6275 0.3804 0.4157);fill-opacity:1;"/>
<path d="M27.4303 15.2371C27.4303 15.2371 27.8311 14.6931 28.7925 15.7539C29.5622 16.6032 34.7825 21.3567 35.5009 22.7766C35.7176 22.7239 35.9457 22.7448 36.1492 22.8361C36.3528 22.9273 36.5201 23.0837 36.625 23.2805L33.8593 25.0942C33.1339 24.9063 32.7162 24.3829 32.8323 24.1124L31.3499 22.6675L25.998 18.3749L27.1335 15.6251L27.4303 15.2371Z" fill="#E6E6E6" style="fill:#E6E6E6;fill:color(display-p3 0.9020 0.9020 0.9020);fill-opacity:1;"/>
<path d="M55.9864 39.2481C66.7862 39.2481 75.5411 30.4932 75.5411 19.6934C75.5411 8.89363 66.7862 0.138672 55.9864 0.138672C45.1866 0.138672 36.4316 8.89363 36.4316 19.6934C36.4316 30.4932 45.1866 39.2481 55.9864 39.2481Z" fill="#374EA9" style="fill:#374EA9;fill:color(display-p3 0.2157 0.3059 0.6627);fill-opacity:1;"/>
<path opacity="0.2" d="M55.0618 26.6147C54.166 27.5105 52.951 28.0138 51.6841 28.0138C50.4173 28.0138 49.2023 27.5105 48.3065 26.6147C47.5366 25.8446 47.053 24.8346 46.9356 23.7521C46.8182 22.6695 47.0741 21.5793 47.6609 20.6621L46.61 21.7343C45.7142 22.6301 45.2109 23.8451 45.2109 25.112C45.2109 26.3789 45.7142 27.5938 46.61 28.4897C47.5058 29.3855 48.7208 29.8888 49.9877 29.8888C51.2546 29.8888 52.4696 29.3855 53.3654 28.4897L55.6943 26.0715L55.7297 25.9212L55.0618 26.6147Z" fill="black" style="fill:black;fill-opacity:1;"/>
<path opacity="0.2" d="M57.2796 11.675C58.3267 10.9619 59.6142 10.6939 60.8588 10.93C62.1035 11.1661 63.2034 11.887 63.9166 12.9341C64.5294 13.8342 64.8163 14.9166 64.7299 16.0021C64.6435 17.0875 64.1888 18.1109 63.4413 18.9027L64.6737 18.0452C65.7207 17.332 66.4417 16.2321 66.6778 14.9874C66.9139 13.7428 66.6459 12.4553 65.9328 11.4082C65.2196 10.3611 64.1197 9.64016 62.875 9.40404C61.6303 9.16791 60.3428 9.4359 59.2957 10.1491L56.557 12.0908L56.4941 12.2319L57.2796 11.675Z" fill="black" style="fill:black;fill-opacity:1;"/>
<path d="M49.9869 30.487C48.9592 30.487 47.9547 30.1823 47.1002 29.6114C46.2458 29.0404 45.5798 28.229 45.1865 27.2795C44.7933 26.3301 44.6904 25.2854 44.8909 24.2775C45.0913 23.2696 45.5862 22.3438 46.3129 21.6172L50.7222 17.1185C51.2046 16.6354 51.7774 16.2521 52.4079 15.9905C53.0385 15.7288 53.7144 15.594 54.3971 15.5938C55.0797 15.5935 55.7558 15.7277 56.3865 15.9889C57.0173 16.25 57.5904 16.6329 58.0731 17.1156C58.1517 17.1942 58.1958 17.3007 58.1958 17.4119C58.1958 17.523 58.1517 17.6296 58.0731 17.7081C57.9946 17.7867 57.888 17.8308 57.7769 17.8308C57.6657 17.8308 57.5592 17.7867 57.4806 17.7081C56.6633 16.8909 55.5549 16.4318 54.3992 16.4318C53.2434 16.4318 52.135 16.8909 51.3178 17.7081C50.6702 19.9913 49.2708 21.5579 46.9084 22.2068C46.5031 22.6111 46.1814 23.0914 45.9618 23.6201C45.7421 24.1489 45.6288 24.7157 45.6283 25.2883C45.6279 25.8608 45.7402 26.4278 45.959 26.9569C46.1777 27.486 46.4986 27.9668 46.9032 28.3719C47.3079 28.7769 47.7884 29.0983 48.3173 29.3175C48.8462 29.5368 49.4131 29.6497 49.9856 29.6497C50.5582 29.6498 51.1251 29.5371 51.6541 29.3179C52.183 29.0988 52.6636 28.7776 53.0683 28.3726C52.9728 27.4359 53.2465 26.5554 55.3917 25.9601C55.4298 25.9202 55.4754 25.8883 55.5259 25.8662C55.5764 25.844 55.6307 25.8321 55.6858 25.831C55.7409 25.8298 55.7957 25.8396 55.8471 25.8597C55.8984 25.8798 55.9452 25.9099 55.9849 25.9481C56.0246 25.9863 56.0564 26.032 56.0784 26.0826C56.1004 26.1331 56.1122 26.1875 56.1132 26.2426C56.1142 26.2977 56.1042 26.3525 56.084 26.4037C56.0637 26.455 56.0336 26.5018 55.9952 26.5414L53.6664 28.9595C53.1847 29.445 52.6114 29.83 51.9798 30.0922C51.3482 30.3544 50.6708 30.4886 49.9869 30.487Z" fill="white" style="fill:white;fill-opacity:1;"/>
<path d="M57.1463 24.1237C56.4637 24.1255 55.7875 23.992 55.1569 23.7307C54.5262 23.4695 53.9537 23.0858 53.4723 22.6018C53.3937 22.5232 53.3496 22.4166 53.3496 22.3054C53.3496 22.1943 53.3938 22.0877 53.4724 22.0092C53.551 21.9306 53.6576 21.8864 53.7687 21.8865C53.8798 21.8865 53.9864 21.9306 54.065 22.0092C54.4696 22.4139 54.95 22.7349 55.4787 22.9539C56.0074 23.1729 56.5741 23.2856 57.1463 23.2856C57.7186 23.2856 58.2853 23.1729 58.814 22.9539C59.3427 22.7349 59.8231 22.4139 60.2277 22.0092C60.7861 18.6452 63.0629 18.1704 65.0419 17.1952C65.4466 16.7905 65.7676 16.3101 65.9866 15.7814C66.2056 15.2527 66.3183 14.686 66.3183 14.1137C66.3183 13.5415 66.2055 12.9748 65.9865 12.4461C65.7675 11.9174 65.4465 11.437 65.0419 11.0323C64.6372 10.6276 64.1568 10.3067 63.6281 10.0877C63.0994 9.86866 62.5327 9.75595 61.9604 9.75595C61.3882 9.75596 60.8215 9.86868 60.2928 10.0877C59.7641 10.3067 59.2837 10.6277 58.879 11.0323C58.3285 12.6206 57.788 14.2276 56.1484 13.763C56.1095 13.8019 56.0633 13.8328 56.0124 13.8538C55.9616 13.8749 55.9071 13.8857 55.8521 13.8857C55.741 13.8857 55.6344 13.8416 55.5558 13.763C55.4772 13.6844 55.4331 13.5778 55.4331 13.4667C55.4331 13.3556 55.4772 13.249 55.5558 13.1704L58.2865 10.4398C58.7689 9.95732 59.3417 9.5746 59.9721 9.31348C60.6025 9.05237 61.2781 8.91797 61.9604 8.91797C62.6427 8.91797 63.3184 9.05236 63.9487 9.31347C64.5791 9.57457 65.1519 9.95729 65.6344 10.4398C66.1169 10.9222 66.4996 11.495 66.7607 12.1254C67.0218 12.7558 67.1562 13.4314 67.1562 14.1137C67.1562 14.796 67.0218 15.4717 66.7607 16.1021C66.4996 16.7324 66.1169 17.3052 65.6344 17.7877L60.8203 22.6018C60.3389 23.0858 59.7664 23.4695 59.1357 23.7308C58.5051 23.992 57.8289 24.1255 57.1463 24.1237Z" fill="white" style="fill:white;fill-opacity:1;"/>
<path d="M72.9757 9.74246C72.1544 8.34768 71.1661 7.05824 70.0327 5.90272C69.7799 5.64573 69.5187 5.39427 69.2519 5.14984C69.1039 5.01439 68.9544 4.88167 68.8021 4.75175C68.513 4.50315 68.2155 4.26288 67.9124 4.03106C64.4884 1.41199 60.2963 -0.00486022 55.9854 1.25266e-05C45.1269 1.25266e-05 36.291 8.83456 36.291 19.6944C36.2905 20.8919 36.3994 22.0869 36.6164 23.2645C36.6168 23.2711 36.6177 23.2777 36.6193 23.2841C36.7184 23.8246 36.8413 24.3582 36.9838 24.882C37.9931 28.579 40.0591 31.9013 42.9287 34.4415C45.7982 36.9817 49.3466 38.6293 53.1388 39.1826C56.9311 39.7358 60.8023 39.1705 64.278 37.556C67.7536 35.9415 70.6827 33.348 72.7061 30.0933C72.9784 29.6547 73.2345 29.2049 73.4743 28.744C75.0038 25.7927 75.7603 22.5019 75.6731 19.179C75.5859 15.8561 74.6579 12.6095 72.9757 9.74246ZM55.9854 39.1095C53.4356 39.1104 50.9105 38.6088 48.5546 37.6334C46.1986 36.658 44.058 35.2279 42.255 33.4249C40.4519 31.6219 39.0219 29.4812 38.0465 27.1253C37.0711 24.7693 36.5695 22.2443 36.5704 19.6944C36.5704 8.98815 45.2806 0.279366 55.9854 0.279366C58.576 0.280834 61.14 0.800893 63.5264 1.80889C65.9128 2.81689 68.0733 4.29242 69.8805 6.14851C70.3518 6.62964 70.7966 7.13604 71.213 7.66545C71.6252 8.1835 72.0099 8.72293 72.3653 9.28149C73.847 11.6092 74.8153 14.2262 75.2055 16.9578C75.5957 19.6894 75.3988 22.4728 74.628 25.1222C74.4562 25.7144 74.2551 26.2941 74.0288 26.8626C73.8012 27.4325 73.5483 27.9912 73.269 28.5331C71.6354 31.7118 69.1589 34.3798 66.1105 36.2452C63.0621 38.1107 59.5593 39.1016 55.9854 39.1095Z" fill="#3F3D56" style="fill:#3F3D56;fill:color(display-p3 0.2471 0.2392 0.3373);fill-opacity:1;"/>
<path d="M82.7779 66.0626L81.4941 66.0517L80.9258 60.9844L82.8206 61.0004L82.7779 66.0626Z" fill="#FFB6B6" style="fill:#FFB6B6;fill:color(display-p3 1.0000 0.7137 0.7137);fill-opacity:1;"/>
<path d="M83.117 65.4714L82.7818 65.4491L81.4144 65.3555L80.9743 65.3262L80.966 66.2438L78.9155 67.635C78.8143 67.7038 78.7376 67.8032 78.6969 67.9186C78.6561 68.034 78.6533 68.1595 78.6888 68.2766C78.7244 68.3938 78.7965 68.4965 78.8945 68.5698C78.9926 68.6431 79.1116 68.6831 79.234 68.6839L81.7859 68.705L82.2329 67.7998L82.3963 68.7105L83.36 68.7189L83.117 65.4714Z" fill="#2F2E41" style="fill:#2F2E41;fill:color(display-p3 0.1843 0.1804 0.2549);fill-opacity:1;"/>
<path d="M96.2946 65.124L95.0675 65.5012L92.9961 60.8419L94.8073 60.2852L96.2946 65.124Z" fill="#FFB6B6" style="fill:#FFB6B6;fill:color(display-p3 1.0000 0.7137 0.7137);fill-opacity:1;"/>
<path d="M96.44 64.457L96.1132 64.5367L94.7822 64.8594L94.3533 64.9641L94.6228 65.8427L93.0878 67.787C93.0211 67.8717 92.9797 67.9735 92.9681 68.0807C92.9566 68.1879 92.9754 68.2962 93.0225 68.3932C93.0695 68.4902 93.1429 68.572 93.2342 68.6293C93.3256 68.6866 93.4312 68.717 93.539 68.7172C93.5958 68.717 93.6523 68.7086 93.7066 68.6921L96.1467 67.942L96.299 66.9433L96.7305 67.7618L97.6511 67.4783L96.44 64.457Z" fill="#2F2E41" style="fill:#2F2E41;fill:color(display-p3 0.1843 0.1804 0.2549);fill-opacity:1;"/>
<path d="M80.1945 23.4531L77.7445 30.573L77.6636 31.1427C77.0463 31.7289 77.8218 31.922 77.531 32.0765C77.2403 32.2311 77.0447 32.6644 77.4366 32.7418C77.8284 32.8192 79.0918 60.5896 80.7582 61.6678C82.4246 62.7461 83.4387 63.526 83.1327 61.9472C83.0094 61.3111 83.1838 57.9005 83.436 54.0544C83.4646 53.6185 83.9163 53.1571 83.5245 52.7333C83.1327 52.3095 83.5728 52.0306 83.5974 51.6789C83.9489 46.6566 84.3547 41.6982 84.3547 41.6982C84.3547 41.6982 86.9519 50.6176 87.6263 49.9271C88.3007 49.2366 88.0338 50.9366 88.2399 51.4446C88.4121 51.8691 87.6773 52.7029 88.7572 52.7157C89.8372 52.7285 92.3734 61.3983 92.6307 61.3885C93.1404 61.369 94.5733 61.4239 95.4242 61.2488C95.8444 61.1623 93.9792 54.5984 92.4217 48.9303C92.2975 48.4783 91.6215 48.4678 92.0563 47.5951C92.491 46.7224 90.3278 41.0758 90.5135 40.8147C91.0062 40.1215 91.1938 39.8202 90.7079 39.7748C90.222 39.7294 90.0784 39.996 90.0522 39.3235C90.0259 38.6511 89.9421 36.993 89.9421 36.993C89.9421 36.993 89.5901 30.4354 87.1253 26.8123L86.9151 24.6597L80.1945 23.4531Z" fill="#2F2E41" style="fill:#2F2E41;fill:color(display-p3 0.1843 0.1804 0.2549);fill-opacity:1;"/>
<path d="M86.3161 9.85938L83.0672 10.322L82.8711 12.6746L81.2679 15.1825C81.2679 15.1825 77.7042 17.6904 80.1896 21.6521C79.2438 25.0648 78.3034 28.3377 77.4069 30.5198C76.7085 34.8498 82.9651 35.2648 90.1175 33.7323C90.1175 33.7323 90.0189 31.8809 89.3698 30.9908C88.7207 30.1007 89.074 29.9064 89.074 29.9064L88.6205 28.2435C88.8772 25.8399 88.0106 25.6242 87.6033 24.5137L88.8398 12.9911L86.3161 9.85938Z" fill="#E6E6E6" style="fill:#E6E6E6;fill:color(display-p3 0.9020 0.9020 0.9020);fill-opacity:1;"/>
<path d="M70.7197 30.0012C70.7542 29.7699 70.8775 29.5612 71.0635 29.4194C71.2495 29.2777 71.4834 29.2141 71.7156 29.2422C71.7627 29.2486 71.8092 29.259 71.8546 29.2731L73.7365 26.7695L75.3429 27.2775L72.394 30.4284C72.3209 30.612 72.189 30.7664 72.0189 30.8672C71.8488 30.9681 71.6502 31.0098 71.4539 30.9859C71.3423 30.9712 71.2348 30.9346 71.1373 30.8784C71.0399 30.8221 70.9545 30.7472 70.886 30.658C70.8175 30.5687 70.7673 30.4668 70.7382 30.3581C70.7091 30.2494 70.7016 30.1361 70.7163 30.0245C70.7173 30.0168 70.7185 30.009 70.7197 30.0012Z" fill="#FFB6B6" style="fill:#FFB6B6;fill:color(display-p3 1.0000 0.7137 0.7137);fill-opacity:1;"/>
<path d="M87.436 14.4136C87.3899 14.3563 87.3396 14.3005 87.2866 14.246C86.9176 13.8657 86.4425 13.6058 85.9234 13.5001C85.4042 13.3945 84.8653 13.448 84.3771 13.6538C84.3296 13.6733 84.2821 13.6956 84.236 13.718C82.5669 14.5379 81.666 15.084 81.557 15.3396C81.5193 15.4263 81.4872 15.5114 81.4551 15.5938C81.4243 15.6749 81.395 15.7517 81.3643 15.8215C81.2358 16.1204 81.0877 16.3062 80.7106 16.2224C80.5855 16.1918 80.4649 16.1453 80.3516 16.0841C80.2999 16.059 80.2524 16.0324 80.2077 16.0073C80.0457 15.9179 79.9284 15.8537 79.8488 15.9123C79.772 15.9696 79.7692 16.1148 79.839 16.4515C79.8621 16.592 79.8583 16.7356 79.8278 16.8747C79.7355 17.2804 79.5909 17.6724 79.3976 18.041C79.1081 18.6187 78.7824 19.1775 78.4227 19.7143L75.0998 24.4521L74.8749 24.772L74.629 25.1226L72.668 27.9189L72.7839 28.0376L73.27 28.5335L73.3775 28.6438L73.4753 28.7444L73.7282 29.0028L73.9656 29.2444L79.2635 24.9284L79.8544 24.4465L80.9131 23.5834L83.0823 21.8165L87.1874 18.0172C87.4465 17.7793 87.6549 17.4915 87.8001 17.1711C87.9453 16.8507 88.0243 16.5042 88.0324 16.1525C88.0324 16.1288 88.0338 16.1064 88.0338 16.0827C88.0354 15.4736 87.8239 14.8832 87.436 14.4136Z" fill="#E6E6E6" style="fill:#E6E6E6;fill:color(display-p3 0.9020 0.9020 0.9020);fill-opacity:1;"/>
<path d="M84.3648 9.77458C86.3699 9.77458 87.9953 8.14917 87.9953 6.14412C87.9953 4.13908 86.3699 2.51367 84.3648 2.51367C82.3598 2.51367 80.7344 4.13908 80.7344 6.14412C80.7344 8.14917 82.3598 9.77458 84.3648 9.77458Z" fill="#FFB6B6" style="fill:#FFB6B6;fill:color(display-p3 1.0000 0.7137 0.7137);fill-opacity:1;"/>
<path d="M89.1756 11.178C89.6629 11.8753 89.9888 12.6723 90.1298 13.5113C89.7371 13.7625 89.28 13.8944 88.8139 13.8911C88.7981 13.8301 88.7822 13.769 88.7642 13.708C88.6291 13.2353 88.4282 12.7839 88.1673 12.3672C88.203 12.8165 88.1421 13.2683 87.9886 13.6921C87.7423 13.5802 87.4784 13.5121 87.2086 13.4909C86.9889 13.4909 86.7722 13.542 86.5756 13.6401C86.3472 12.8827 86.1369 12.1863 85.9877 11.6867C85.9832 12.9392 84.1473 14.0313 82.1441 13.873C82.0717 13.8278 82.7975 11.7681 82.7274 11.7206C82.5669 11.6143 82.4109 11.499 82.2549 11.386C82.9106 10.3731 83.6227 9.2878 83.5007 9.12503C83.5097 9.32625 82.7907 10.2939 82.0084 11.2073C81.5743 10.8886 84.041 5.70194 82.8224 5.28141C82.802 5.46455 82.533 5.46455 82.2051 5.42612C82.1187 5.12395 81.99 4.83547 81.8231 4.5692C81.8448 4.83742 81.8125 5.10727 81.7281 5.3628C81.4044 5.36289 81.0815 5.39699 80.7649 5.46454C80.6917 5.34928 80.6109 5.239 80.523 5.13444C80.5317 5.26187 80.5279 5.38984 80.5117 5.51654C80.1884 5.58663 79.9216 5.66802 79.8832 5.7336C79.6299 5.64089 80.0618 5.22262 79.9035 5.00556C79.5011 4.46294 80.098 3.67161 80.4755 3.11089C81.251 1.96233 82.9535 1.5644 84.1586 2.25399C84.2129 2.06633 84.491 1.94198 84.8482 1.85832C84.9996 1.82495 85.1545 1.81052 85.3094 1.81537C86.8469 1.8425 88.9812 3.11089 89.0649 4.64608C89.0717 4.79982 89.083 4.96713 89.0943 5.14574C89.2028 6.86407 89.0694 8.449 90.2428 9.70608C90.6679 10.1605 90.6724 12.313 90.5096 13.4208C90.0868 12.9754 89.7861 11.2435 89.1756 11.178Z" fill="#2F2E41" style="fill:#2F2E41;fill:color(display-p3 0.1843 0.1804 0.2549);fill-opacity:1;"/>
<path d="M49.1925 20.1838C49.4239 20.1838 49.6115 19.9962 49.6115 19.7647C49.6115 19.5333 49.4239 19.3457 49.1925 19.3457C48.961 19.3457 48.7734 19.5333 48.7734 19.7647C48.7734 19.9962 48.961 20.1838 49.1925 20.1838Z" fill="#374EA9" style="fill:#374EA9;fill:color(display-p3 0.2157 0.3059 0.6627);fill-opacity:1;"/>
<path d="M62.462 19.9045C62.6934 19.9045 62.881 19.7169 62.881 19.4854C62.881 19.254 62.6934 19.0664 62.462 19.0664C62.2306 19.0664 62.043 19.254 62.043 19.4854C62.043 19.7169 62.2306 19.9045 62.462 19.9045Z" fill="#374EA9" style="fill:#374EA9;fill:color(display-p3 0.2157 0.3059 0.6627);fill-opacity:1;"/>
<path d="M22.5728 7.65285C22.2539 8.44706 21.3543 10.0089 21.2324 10.861L21.2873 10.807C21.3919 10.9857 21.5108 11.1557 21.6428 11.3153C21.8794 11.0669 22.1651 10.8704 22.4818 10.7384C22.3089 11.0933 22.2087 11.4791 22.1872 11.8733C22.5268 12.9375 24.0963 12.4636 25.016 12.3474C25.9343 13.3979 27.1561 13.672 28.7561 13.068C29.2036 13.1141 29.7045 13.1421 30.0181 12.8777C30.3316 12.6132 30.1449 12.1236 30.3136 11.7532C31.5153 9.11516 30.4063 8.16336 29.4641 6.96716C29.2567 6.70392 29.2576 6.31109 29.0053 6.05993C28.6552 5.71179 28.1185 5.60471 27.6238 5.51893C27.7523 5.5257 27.8804 5.49928 27.9958 5.4422C28.1111 5.38511 28.2098 5.2993 28.2824 5.19301C28.3461 5.08593 28.3789 4.96334 28.3774 4.83877C28.3758 4.7142 28.3398 4.59249 28.2735 4.48706C28.0965 4.1937 27.7288 4.02312 27.3741 3.9805C27.0246 3.95677 26.6736 3.98695 26.3333 4.06997C26.1128 4.09897 25.8993 4.1672 25.703 4.27143C25.6103 4.32087 25.5349 4.39741 25.487 4.49083C25.439 4.58425 25.4206 4.69009 25.4344 4.79421C25.464 4.89035 25.5149 4.97859 25.5833 5.05232C25.6517 5.12606 25.7359 5.1834 25.8295 5.22007C25.9723 5.28045 26.1226 5.32157 26.2762 5.34235C25.5705 5.25076 24.8535 5.37625 24.2208 5.70211C23.4279 6.12507 22.8928 6.85905 22.5728 7.65285Z" fill="#2F2E41" style="fill:#2F2E41;fill:color(display-p3 0.1843 0.1804 0.2549);fill-opacity:1;"/>
<path d="M26.8676 12.1064C28.433 12.1064 29.7021 10.8373 29.7021 9.27193C29.7021 7.70652 28.433 6.4375 26.8676 6.4375C25.3022 6.4375 24.0332 7.70652 24.0332 9.27193C24.0332 10.8373 25.3022 12.1064 26.8676 12.1064Z" fill="#A0616A" style="fill:#A0616A;fill:color(display-p3 0.6275 0.3804 0.4157);fill-opacity:1;"/>
<path d="M24.1396 7.75301C24.304 8.2497 24.7736 8.40975 25.2077 8.50957C25.3446 8.54147 25.4823 8.57119 25.6213 8.59765C25.6725 8.53354 25.7271 8.47071 25.784 8.41132C26.0206 8.16285 26.3064 7.96638 26.623 7.83442C26.4861 8.11471 26.3951 8.41518 26.3535 8.72434C26.6159 8.76242 26.8798 8.79353 27.1451 8.81769C27.3696 8.86547 27.6038 8.82518 27.7995 8.70515C27.9951 8.58512 28.1371 8.39453 28.1962 8.17275C28.4378 8.56774 28.7234 8.93972 29.1139 9.09663C29.3373 9.17688 29.5804 9.18348 29.8078 9.11545C30.0352 9.04743 30.2348 8.90837 30.3774 8.71865C30.6026 8.40917 30.7587 8.05495 30.8352 7.67994C30.9461 7.24009 31.0076 6.73341 30.79 6.45435C30.6157 6.22849 30.3149 6.22444 30.0374 6.24448C29.425 6.29146 28.819 6.40132 28.229 6.57233L28.1791 6.68463C28.2805 6.07553 28.0606 5.48949 27.6536 5.28107C27.3792 5.14172 27.049 5.16508 26.7281 5.19335C26.316 5.21174 25.9088 5.29049 25.5195 5.42708C25.073 5.59885 24.6904 5.9044 24.4242 6.30193C24.1394 6.73433 23.9979 7.32406 24.1396 7.75301Z" fill="#2F2E41" style="fill:#2F2E41;fill:color(display-p3 0.1843 0.1804 0.2549);fill-opacity:1;"/>
<path d="M28.1797 5.1025C28.1518 5.09424 28.2242 5.10485 28.1991 5.10552C28.2116 5.1048 28.224 5.10306 28.2362 5.10033C28.2383 5.09991 28.2665 5.09091 28.2477 5.09754C28.2898 5.08495 28.3274 5.06044 28.3559 5.02697C28.4224 4.94464 28.4747 4.85168 28.5104 4.75199C28.5554 4.62025 28.6278 4.49952 28.7228 4.39774C28.7498 4.37065 28.7828 4.35031 28.8191 4.33836C28.8554 4.32641 28.894 4.32319 28.9317 4.32895C28.9695 4.33472 29.0054 4.34932 29.0365 4.37155C29.0676 4.39379 29.093 4.42304 29.1106 4.45693C29.1465 4.58768 29.1342 4.72696 29.076 4.84942C29.0354 4.97403 28.9749 5.09127 28.897 5.19663C28.7663 5.3689 28.5884 5.49945 28.3848 5.57236C28.1492 5.65793 27.8923 5.66528 27.6522 5.5933C27.6205 5.58014 27.5932 5.55804 27.5739 5.52969C27.5545 5.50133 27.5438 5.46796 27.543 5.43362C27.5423 5.39929 27.5515 5.36548 27.5696 5.33631C27.5878 5.30714 27.614 5.28387 27.6451 5.26934L28.0456 5.10542C28.0666 5.09615 28.0893 5.09112 28.1124 5.09061C28.1354 5.09011 28.1583 5.09415 28.1797 5.1025C28.2012 5.11085 28.2208 5.12334 28.2375 5.13926C28.2541 5.15519 28.2674 5.17423 28.2767 5.19531C28.286 5.21639 28.291 5.23909 28.2915 5.26212C28.292 5.28514 28.288 5.30804 28.2796 5.3295C28.2713 5.35097 28.2588 5.37058 28.2429 5.38721C28.2269 5.40385 28.2079 5.41718 28.1868 5.42646L27.7864 5.59037L27.7793 5.26641C27.8293 5.28084 27.8807 5.28963 27.9326 5.29262C27.988 5.29817 28.0439 5.29581 28.0986 5.28562C28.151 5.27875 28.2025 5.26619 28.2522 5.24816C28.2841 5.23653 28.3153 5.2233 28.3458 5.20851C28.3569 5.20313 28.3678 5.19755 28.3787 5.19176C28.3779 5.19218 28.4245 5.16505 28.4041 5.17779C28.4559 5.1447 28.5045 5.10684 28.5492 5.06473C28.565 5.04979 28.5796 5.03359 28.5928 5.01628C28.6156 4.98825 28.6367 4.95892 28.6561 4.92842C28.6956 4.86385 28.7268 4.79461 28.7491 4.7223C28.7593 4.69192 28.7679 4.66102 28.7749 4.62974C28.7768 4.61257 28.7799 4.59555 28.7842 4.5788C28.799 4.5389 28.7814 4.6021 28.7985 4.6194L28.8723 4.67379C28.8861 4.67792 28.9007 4.67888 28.915 4.67659C28.9293 4.6743 28.9429 4.66883 28.9548 4.66058C28.9635 4.64827 28.9616 4.65032 28.949 4.66671C28.9344 4.68599 28.921 4.70619 28.909 4.72717C28.8825 4.77657 28.8586 4.82728 28.8373 4.8791C28.7932 4.98932 28.7375 5.09452 28.6711 5.19291C28.606 5.29242 28.5112 5.36886 28.4002 5.41133C28.2891 5.45379 28.1675 5.46011 28.0526 5.42939C28.0095 5.41223 27.9749 5.37881 27.9562 5.33634C27.9375 5.29388 27.9363 5.24576 27.9527 5.20239C27.9703 5.15964 28.0038 5.12537 28.0461 5.10675C28.0884 5.08813 28.1363 5.08661 28.1797 5.1025Z" fill="#2F2E41" style="fill:#2F2E41;fill:color(display-p3 0.1843 0.1804 0.2549);fill-opacity:1;"/>
</g>
<defs>
<clipPath id="clip0_20119_62228">
<rect width="100.949" height="69" fill="white" style="fill:white;fill-opacity:1;"/>
</clipPath>
</defs>
</svg>
