<svg width="14" height="14" viewBox="0 0 14 14" fill="none" xmlns="http://www.w3.org/2000/svg">
<path fill-rule="evenodd" clip-rule="evenodd" d="M6.97787 1.10528C6.64067 1.18868 6.40857 1.28996 6.08021 1.49709C5.83369 1.65263 5.76089 1.67196 5.30279 1.70372C4.34804 1.76989 3.50367 2.02556 2.8284 2.453C0.704522 3.79736 -0.087222 6.45738 0.959174 8.73311C1.04319 8.91584 1.2472 9.28136 1.4125 9.54539C1.57775 9.80943 1.7752 10.2058 1.8513 10.4262C1.97631 10.7885 1.99246 10.9189 2.02 11.786C2.04687 12.6337 2.0617 12.7575 2.1472 12.8505C2.23879 12.9501 2.2936 12.9558 3.17022 12.9558C4.43196 12.9558 4.33188 13.0593 4.35195 11.7331L4.36754 10.7017H5.09747H5.82744L5.84385 11.7331C5.86503 13.0592 5.76506 12.9558 7.02542 12.9558C7.92694 12.9558 7.95355 12.9528 8.0612 12.8399C8.14735 12.7494 8.17163 12.6625 8.17163 12.4445C8.17163 11.9626 8.27277 11.15 8.40723 10.5514C8.56923 9.83012 8.80417 9.20407 9.22123 8.38211C9.47812 7.87593 9.56513 7.7457 9.63386 7.76478C9.68177 7.77805 9.8874 7.81527 10.0908 7.84748C10.5866 7.92603 10.8899 8.12434 11.0798 8.49407C11.2021 8.73205 11.2195 8.82352 11.2195 9.22616C11.2195 9.61582 11.2034 9.70654 11.1142 9.81829C10.9854 9.97979 10.7452 9.99356 10.5592 9.8501C10.2945 9.64598 10.1884 9.69787 9.50941 10.3635C8.73976 11.1181 8.70608 11.2012 9.04201 11.5178C9.81095 12.2425 11.0579 12.4102 12.0031 11.9161C12.4047 11.7061 12.9514 11.134 13.1682 10.6968C13.5131 10.0012 13.5135 9.99662 13.4926 7.13262C13.4749 4.70137 13.4684 4.54949 13.3697 4.26487C13.1524 3.63852 12.8553 3.15263 12.438 2.74112C11.7734 2.08582 10.9977 1.76529 9.92611 1.70327C9.51896 1.67968 9.3306 1.64707 9.2384 1.5841C8.99401 1.41735 8.47464 1.18247 8.18672 1.10853C7.84104 1.01977 7.32924 1.01837 6.97787 1.10528ZM7.13626 1.83792C6.55868 1.98083 5.8282 2.59025 5.66361 3.06657C5.53697 3.43309 5.55582 3.97278 5.71126 4.43137C5.86691 4.89036 6.0316 5.1857 6.65779 6.12863L7.13037 6.84029L7.38431 6.64823C7.9692 6.20592 8.17163 5.69469 8.17163 4.66004C8.17163 4.16533 8.17646 4.14319 8.30548 4.04311C8.47972 3.90796 8.59102 3.91207 8.76567 4.06004C8.90318 4.1766 8.90877 4.19995 8.92467 4.72376C8.9553 5.73431 8.71533 6.41671 8.12485 6.99863C7.75 7.368 7.22373 7.69615 7.00616 7.69615C6.92697 7.69615 6.81643 7.65673 6.76055 7.60849C6.61756 7.48507 5.47769 5.74032 5.25972 5.31123C4.76595 4.33925 4.66466 3.43404 4.97275 2.74724C5.02853 2.62296 5.06348 2.5107 5.05043 2.49783C5.00293 2.45099 4.3266 2.60287 3.94475 2.74613C3.52693 2.90287 2.94646 3.26023 2.60184 3.5729C1.68783 4.40217 1.19554 5.65712 1.28052 6.94097C1.33193 7.71714 1.54945 8.33377 2.05256 9.12973C2.58655 9.97463 2.78517 10.6543 2.78634 11.6409L2.787 12.2044H3.16799H3.54898L3.55142 11.8663C3.5633 10.1983 3.563 10.2016 3.71692 10.0712C3.80846 9.99352 3.9226 9.95029 4.03603 9.95029C4.56799 9.95029 5.00618 9.51068 5.09559 8.88724C5.13074 8.64219 5.29868 8.44753 5.47485 8.44753C5.59839 8.44753 5.78406 8.59115 5.83653 8.72729C5.9139 8.92786 5.79046 9.42252 5.54078 9.91272C5.53027 9.93335 5.70517 9.95029 5.92944 9.95029C6.28716 9.95029 6.35473 9.96511 6.47974 10.0711L6.62228 10.1919L6.63793 11.1981L6.65362 12.2044H7.02664H7.3997L7.4316 11.8913C7.59852 10.2537 7.86506 9.35389 8.6306 7.84413C8.92594 7.26161 9.05827 7.05067 9.15585 7.00684C9.34004 6.92409 10.5652 7.13738 10.9377 7.31711C11.2756 7.48011 11.6434 7.86391 11.8185 8.23624C11.9332 8.47999 11.9562 8.60677 11.9729 9.08695C11.9969 9.77727 11.9713 9.92269 11.7747 10.2154C11.5735 10.515 11.209 10.7017 10.8252 10.7017C10.6752 10.7017 10.5114 10.68 10.4612 10.6535C10.3869 10.6143 10.317 10.6569 10.0871 10.8818L9.80449 11.1583L9.96167 11.2526C10.3748 11.5003 11.1083 11.511 11.5783 11.2761C11.9498 11.0905 12.2978 10.7189 12.5254 10.265L12.7181 9.88056L12.7331 7.4486C12.746 5.36218 12.7365 4.96525 12.6666 4.65533C12.5442 4.11279 12.3214 3.71646 11.909 3.30756C11.3182 2.72184 10.768 2.50339 9.75446 2.45224C9.13076 2.42074 9.12598 2.41958 8.81469 2.21977C8.64263 2.10932 8.38844 1.97592 8.24986 1.92338C7.95233 1.81057 7.41382 1.76919 7.13626 1.83792ZM10.6862 4.7473C10.4324 4.88716 10.3818 5.15405 10.5751 5.33312C10.913 5.64605 11.4288 5.19612 11.1306 4.84859C11.0197 4.7193 10.8196 4.67372 10.6862 4.7473Z" fill="white" style="fill:white;fill:white;fill-opacity:1;"/>
</svg>
