<svg width="14" height="14" viewBox="0 0 14 14" fill="none" xmlns="http://www.w3.org/2000/svg">
<path fill-rule="evenodd" clip-rule="evenodd" d="M5.48456 0.624926C5.37541 0.734026 5.35963 0.795394 5.35963 1.11063C5.35963 1.42587 5.37541 1.48724 5.48456 1.59634C5.56328 1.67512 5.6676 1.72127 5.76672 1.72127C5.86585 1.72127 5.97017 1.67512 6.04889 1.59634C6.15804 1.48724 6.17381 1.42587 6.17381 1.11063C6.17381 0.795394 6.15804 0.734026 6.04889 0.624926C5.97017 0.546154 5.86585 0.5 5.76672 0.5C5.6676 0.5 5.56328 0.546154 5.48456 0.624926ZM3.44911 1.43911C3.22872 1.65944 3.27523 1.84192 3.64645 2.21319C4.01771 2.5844 4.20019 2.63091 4.42053 2.41052C4.64092 2.19019 4.59441 2.00771 4.22319 1.63644C3.85193 1.26523 3.66945 1.21872 3.44911 1.43911ZM7.31025 1.63644C6.93904 2.00771 6.89253 2.19019 7.11292 2.41052C7.33325 2.63091 7.51573 2.5844 7.887 2.21319C8.25821 1.84192 8.30472 1.65944 8.08433 1.43911C7.864 1.21872 7.68152 1.26523 7.31025 1.63644ZM5.35963 2.19487C5.10988 2.27359 4.68392 2.71467 4.60733 2.97388C4.57329 3.08909 4.54545 3.31151 4.54545 3.46814V3.75295L2.7681 3.76756C1.06433 3.78155 0.984895 3.78649 0.850301 3.88709C0.773055 3.94479 0.662632 4.05522 0.604927 4.13251C0.50117 4.27148 0.5 4.31484 0.5 8.03116C0.5 11.7475 0.50117 11.7908 0.604927 11.9298C0.834628 12.2375 0.943168 12.2788 1.57039 12.2972L2.15029 12.3143L2.27267 12.5815C2.42324 12.9104 2.68404 13.1776 3.03327 13.3608C3.262 13.4808 3.35858 13.5 3.73127 13.5C4.10396 13.5 4.20055 13.4808 4.42928 13.3608C4.77984 13.1769 5.03941 12.9102 5.19186 12.5771L5.31623 12.3056H6.98799H8.65976L8.78412 12.5771C8.93658 12.9102 9.19615 13.1769 9.5467 13.3608C9.77544 13.4808 9.87202 13.5 10.2447 13.5C10.6174 13.5 10.714 13.4808 10.9427 13.3608C11.2919 13.1776 11.5527 12.9104 11.7033 12.5815L11.8257 12.3143L12.4056 12.2972C13.0329 12.2788 13.1415 12.2374 13.3711 11.9297C13.4711 11.7956 13.476 11.7238 13.476 10.3808V8.97255L13.3149 8.63263C13.2264 8.44573 13.0604 8.1913 12.9462 8.06734C12.7168 7.81845 12.2491 7.54586 11.9434 7.48271L11.7459 7.4419L11.1348 6.07474C10.4855 4.62229 10.3193 4.35982 9.86754 4.07389C9.44345 3.80547 9.16053 3.75672 8.02663 3.75672H6.98799V3.47002C6.98799 3.02833 6.8965 2.7967 6.60807 2.50828C6.24999 2.15024 5.83323 2.04562 5.35963 2.19487ZM5.48456 3.06746C5.38197 3.17 5.35963 3.24277 5.35963 3.47455V3.75672H5.76672H6.17381V3.47455C6.17381 3.13499 6.02655 2.94254 5.76672 2.94254C5.6676 2.94254 5.56328 2.98869 5.48456 3.06746ZM1.28874 6.80989V9.04888H6.93711C10.0437 9.04888 12.5855 9.03631 12.5855 9.0209C12.5855 8.92716 12.4063 8.67787 12.231 8.52786C11.9114 8.25429 11.7787 8.2347 10.2447 8.2347C9.30403 8.2347 8.78967 8.21476 8.6477 8.17283C8.36818 8.09024 7.94664 7.6687 7.86405 7.38918C7.82253 7.24863 7.80217 6.75071 7.80217 5.87531V4.5709H4.54545H1.28874V6.80989ZM8.61635 5.86371V7.17072L8.74128 7.2956C8.86513 7.41951 8.87419 7.42052 9.83533 7.42052C10.3684 7.42052 10.8045 7.40332 10.8046 7.38236C10.8047 7.36139 10.5832 6.84551 10.3123 6.23605C9.69519 4.84746 9.52558 4.65048 8.89047 4.58494L8.61635 4.55665V5.86371ZM4.26329 5.51C4.14808 5.62516 4.13836 5.67274 4.13836 6.12064V6.60634H3.65266C3.20475 6.60634 3.15718 6.61606 3.04202 6.73127C2.87674 6.8965 2.87674 7.13037 3.04202 7.2956C3.15718 7.4108 3.20475 7.42052 3.65266 7.42052H4.13836V7.90623C4.13836 8.35413 4.14808 8.40171 4.26329 8.51687C4.34201 8.59564 4.44633 8.64179 4.54545 8.64179C4.64458 8.64179 4.7489 8.59564 4.82762 8.51687C4.94282 8.40171 4.95254 8.35413 4.95254 7.90623V7.42052H5.43825C5.88615 7.42052 5.93373 7.4108 6.04889 7.2956C6.12766 7.21688 6.17381 7.11256 6.17381 7.01343C6.17381 6.91431 6.12766 6.80999 6.04889 6.73127C5.93373 6.61606 5.88615 6.60634 5.43825 6.60634H4.95254V6.12064C4.95254 5.67274 4.94282 5.62516 4.82762 5.51C4.7489 5.43123 4.64458 5.38508 4.54545 5.38508C4.44633 5.38508 4.34201 5.43123 4.26329 5.51ZM1.28874 10.6772V11.4914H1.71755H2.14632L2.27069 11.2199C2.42314 10.8868 2.68271 10.6201 3.03327 10.4362C3.262 10.3163 3.35858 10.297 3.73127 10.297C4.10396 10.297 4.20055 10.3163 4.42928 10.4362C4.77984 10.6201 5.03941 10.8868 5.19186 11.2199L5.31623 11.4914H6.98799H8.65976L8.78412 11.2199C8.93658 10.8868 9.19615 10.6201 9.5467 10.4362C9.77544 10.3163 9.87202 10.297 10.2447 10.297C10.6174 10.297 10.714 10.3163 10.9427 10.4362C11.2933 10.6201 11.5528 10.8868 11.7053 11.2199L11.8297 11.4914H12.2584H12.6872V10.6772V9.86306H6.98799H1.28874V10.6772ZM3.39797 11.1559C2.87806 11.3824 2.76103 12.0736 3.1758 12.4681C3.51821 12.7939 3.96891 12.7923 4.29703 12.4643C4.92858 11.8327 4.21805 10.7987 3.39797 11.1559ZM9.9114 11.1559C9.3915 11.3824 9.27446 12.0736 9.68923 12.4681C10.0316 12.7939 10.4823 12.7923 10.8105 12.4643C11.442 11.8327 10.7315 10.7987 9.9114 11.1559Z" fill="white" style="fill:white;fill:white;fill-opacity:1;"/>
</svg>
