<svg width="14" height="14" viewBox="0 0 14 14" fill="none" xmlns="http://www.w3.org/2000/svg">
<path fill-rule="evenodd" clip-rule="evenodd" d="M2.02344 2.72141V3.58797H1.26172H0.5V7.92074V12.2535H7H13.5V7.92074V3.58797H12.7383H11.9766V2.72141C11.9766 1.92963 11.9689 1.85476 11.8877 1.85352C11.8388 1.85283 10.7191 1.96835 9.39941 2.11032L7 2.36845L4.60059 2.11032C3.28093 1.96835 2.16116 1.85283 2.1123 1.85352C2.03111 1.85476 2.02344 1.92963 2.02344 2.72141ZM2.78516 6.24581V9.82266L2.9502 9.84949C3.20684 9.89124 6.33644 10.2233 6.47294 10.2233H6.59441L6.58141 6.64651L6.56836 3.06972L4.67676 2.86932L2.78516 2.66897V6.24581ZM9.31055 2.86996L7.43164 3.06808L7.41859 6.64567L7.40559 10.2233L7.54554 10.2222C7.76588 10.2205 11.1655 9.84227 11.1919 9.81657C11.2049 9.80389 11.2097 8.19116 11.2025 6.23269L11.1895 2.67189L9.31055 2.86996ZM1.26172 7.92074V11.5108H7H12.7383V7.92074V4.33073H12.3574H11.9766V7.41858V10.5064L11.504 10.5588C11.2442 10.5876 10.1237 10.707 9.01393 10.8241L6.99634 11.0371L5.00501 10.8267C3.90976 10.7109 2.79084 10.5916 2.51855 10.5614L2.02344 10.5064V7.41858V4.33073H1.64258H1.26172V7.92074Z" fill="white" style="fill:white;fill:white;fill-opacity:1;"/>
</svg>
