<svg width="14" height="14" viewBox="0 0 14 14" fill="none" xmlns="http://www.w3.org/2000/svg">
<path fill-rule="evenodd" clip-rule="evenodd" d="M11.1549 1.36348L11.2059 1.3125H12.4804L12.5314 1.36348H12.5824L12.6843 1.46544V1.51642L12.7353 1.5674V2.07721L12.6843 2.12819V2.38309L12.6333 2.43407V2.58701L12.5824 2.63799V2.73995L12.5314 2.79093V2.89289L12.4804 2.94387V2.99485L12.4294 3.04583V3.14779L12.3784 3.19877V3.24976L12.2765 3.35172V3.4027L12.2255 3.45368V3.50466L12.1235 3.60662V3.6576L11.9706 3.81054V3.86152L11.5118 4.32034H11.4608L11.3078 4.47328H11.2569L11.1549 4.57525H11.1039L11.0529 4.62623H11.002L10.9 4.72819H10.849L10.798 4.77917H10.6961L10.6451 4.83015H10.5941L10.5431 4.88113H10.4412L10.3902 4.93211H10.2882L10.2373 4.98309H10.0843L10.0333 5.03407H9.77843L9.72745 5.08505H8.96275L8.91177 5.13603L8.96275 5.90074L9.01373 5.95172H9.26863L9.31961 6.0027H9.47255L9.52353 6.05368H9.62549L9.67647 6.10466H9.77843L9.82941 6.15564H9.88039L9.93137 6.20662H10.0333L10.0843 6.2576H10.1353L10.1863 6.30858H10.2373L10.3392 6.41054H10.3902L10.4922 6.5125H10.5431L10.6961 6.66544H10.7471L11.2059 7.12427V7.17525L11.3588 7.32819V7.37917L11.4608 7.48113V7.53211L11.5118 7.58309V7.63407L11.6137 7.73603L11.7667 7.58309H11.8176L11.8686 7.53211H11.9196L11.9706 7.48113H12.1235L12.1745 7.43015H12.6333L12.6843 7.48113H12.7863L12.8373 7.53211H12.8882L12.9392 7.58309H12.9902L13.0412 7.63407H13.0922L13.2961 7.83799V7.88897L13.398 7.99093V8.04191L13.449 8.09289V8.19485L13.5 8.24583V8.8576L13.449 8.90858V9.01054L13.398 9.06152V9.1125L13.2961 9.21446V9.26544L13.1431 9.41838V9.46936L12.9902 9.6223V9.67328L12.8373 9.82623V9.87721L12.6843 10.0301V10.0811L12.5314 10.2341V10.285L12.3784 10.438V10.489L12.2255 10.6419V10.6929L12.0725 10.8458V10.8968L11.8686 11.1007V11.1517L11.7157 11.3047V11.3556L11.5627 11.5086V11.5596L11.4098 11.7125V11.7635L11.2569 11.9164V11.9674L11.1039 12.1203V12.1713L10.951 12.3243V12.3752L10.798 12.5282V12.5792L10.6961 12.6811H10.6451L10.5941 12.7321L5.59804 12.6811L5.24118 12.6301L4.98627 12.5792L4.78235 12.5282L4.62941 12.4772L4.47647 12.4262L4.32353 12.3752L4.17059 12.3243L4.06863 12.2733L3.91569 12.2223L3.81373 12.1713L3.6098 12.1203L3.45686 12.0694L3.20196 12.0184L2.8451 11.9674H0.754902L0.703922 11.9164H0.652941L0.601961 11.8654V11.8145L0.55098 11.7635V11.6615L0.5 11.6105V8.55172L0.55098 8.50074V8.39878L0.703922 8.24583H0.805882L0.856863 8.19485H2.38627L2.43726 8.14387H2.48824L2.53922 8.09289H2.5902L2.64118 8.04191H2.69216L2.74314 7.99093H2.79412L2.8451 7.93995H2.89608L2.94706 7.88897H2.99804L3.04902 7.83799H3.1L3.15098 7.78701H3.20196L3.25294 7.73603H3.30392L3.3549 7.68505H3.40588L3.45686 7.63407H3.50784L3.55882 7.58309H3.6098L3.66078 7.53211H3.71176L3.76275 7.48113H3.86471L3.91569 7.43015H3.96667L4.01765 7.37917H4.11961L4.17059 7.32819H4.27255L4.32353 7.27721H4.47647L4.52745 7.22623H4.78235L4.83333 7.17525H5.85294L6.36275 6.66544H6.41373L6.56667 6.5125H6.61765L6.71961 6.41054H6.77059L6.82157 6.35956H6.87255L6.97451 6.2576H7.02549L7.07647 6.20662H7.17843L7.22941 6.15564H7.28039L7.33137 6.10466H7.43333L7.48431 6.05368H7.58628L7.63726 6.0027H7.7902L7.84118 5.95172H8.09608L8.14706 5.90074L8.19804 5.13603L8.14706 5.08505H7.43333L7.38235 5.03407H7.17843L7.12745 4.98309H6.97451L6.92353 4.93211H6.82157L6.77059 4.88113H6.71961L6.66863 4.83015H6.61765L6.56667 4.77917H6.51569L6.46471 4.72819H6.41373L6.31177 4.62623H6.26078L6.10784 4.47328H6.05686L5.75098 4.1674V4.11642L5.59804 3.96348V3.9125L5.49608 3.81054V3.75956L5.4451 3.70858V3.6576L5.39412 3.60662V3.55564L5.34314 3.50466V3.45368L5.29216 3.4027V3.30074L5.24118 3.24976V3.09681L5.1902 3.04583V2.84191L5.13922 2.79093V2.33211L5.1902 2.28113V2.23015L5.29216 2.12819H5.34314L5.39412 2.07721H6.61765L6.66863 2.12819H6.87255L6.92353 2.17917H7.07647L7.12745 2.23015H7.22941L7.28039 2.28113H7.33137L7.38235 2.33211H7.43333L7.48431 2.38309H7.53529L7.58628 2.43407H7.63726L7.73922 2.53603H7.7902L7.94314 2.68897H7.99412L8.3 2.99485V3.04583L8.45294 3.19877V3.24976H8.50392L8.5549 3.19877V3.14779L8.60588 3.09681V3.04583L8.70784 2.94387V2.89289L8.8098 2.79093V2.73995L8.96275 2.58701V2.53603L9.42157 2.07721H9.47255L9.62549 1.92426H9.67647L9.77843 1.8223H9.82941L9.88039 1.77132H9.93137L10.0333 1.66936H10.0843L10.1353 1.61838H10.2373L10.2882 1.5674H10.3392L10.3902 1.51642H10.4922L10.5431 1.46544H10.6451L10.6961 1.41446H10.849L10.9 1.36348H11.1549ZM11.2059 2.12819L11.2569 2.07721H11.9196V2.28113H11.8686V2.48505L11.8176 2.53603V2.58701L11.7667 2.63799V2.73995L11.7157 2.79093V2.84191L11.6647 2.89289V2.94387L11.6137 2.99485V3.04583L11.5118 3.14779V3.19877L11.3588 3.35172V3.4027L11.0529 3.70858H11.002L10.849 3.86152H10.798L10.6961 3.96348H10.6451L10.5941 4.01446H10.5431L10.4922 4.06544H10.4412L10.3902 4.11642H10.2882L10.2373 4.1674H10.1863L10.1353 4.21838H9.98235L9.93137 4.26936H9.72745L9.67647 4.32034H9.01373V4.11642L9.06471 4.06544V3.9125H9.11569V3.75956L9.16667 3.70858V3.6576L9.21765 3.60662V3.55564L9.26863 3.50466V3.45368L9.31961 3.4027V3.35172L9.42157 3.24976V3.19877L9.57451 3.04583V2.99485L9.72745 2.84191H9.77843V2.79093L9.88039 2.68897H9.93137L10.0843 2.53603H10.1353L10.2373 2.43407H10.2882L10.3392 2.38309H10.3902L10.4412 2.33211H10.4922L10.5431 2.28113H10.6451L10.6961 2.23015H10.798V2.17917H10.951L11.002 2.12819H11.2059ZM5.9549 2.84191H6.51569L6.56667 2.89289H6.77059L6.82157 2.94387H6.92353L6.97451 2.99485H7.02549L7.07647 3.04583H7.12745L7.17843 3.09681H7.22941L7.28039 3.14779H7.33137L7.48431 3.30074V3.35172H7.58628L7.63726 3.4027V3.45368L7.84118 3.6576V3.70858L7.89216 3.75956V3.81054L7.94314 3.86152V3.9125L7.99412 3.96348V4.01446L8.0451 4.06544V4.1674L8.09608 4.21838V4.32034H7.48431L7.43333 4.26936H7.28039L7.22941 4.21838H7.12745L7.07647 4.1674H7.02549L6.97451 4.11642H6.92353L6.87255 4.06544H6.82157V4.01446H6.71961L6.51569 3.81054H6.46471L6.41373 3.75956V3.70858L6.2098 3.50466V3.45368L6.15882 3.4027V3.35172L6.10784 3.30074V3.24976L6.05686 3.19877V3.14779L6.00588 3.09681V2.99485L5.9549 2.94387V2.84191ZM8.19804 6.66544L8.14706 6.71642H7.94314L7.89216 6.7674H7.73922L7.68824 6.81838H7.63726L7.58628 6.86936H7.48431L7.43333 6.92034H7.38235L7.33137 6.97132H7.28039L7.22941 7.0223H7.17843V7.07328H7.12745L7.07647 7.12427H7.02549L6.87255 7.27721H6.82157L6.77059 7.32819V7.37917L6.82157 7.43015H6.87255L6.92353 7.48113H6.97451L7.02549 7.53211H7.07647L7.12745 7.58309H7.17843L7.22941 7.63407H7.28039L7.38235 7.73603H7.43333L7.53529 7.83799H7.58628L7.7902 8.04191H7.84118L7.89216 8.09289H7.94314L7.99412 8.14387H9.57451V8.19485H9.67647L9.72745 8.24583H9.82941L9.93137 8.34779H9.98235L10.2882 8.65368V8.70466L10.3902 8.80662V8.8576H10.4922L11.002 8.34779V8.24583L10.951 8.19485V8.14387L10.9 8.09289V8.04191L10.849 7.99093V7.93995L10.7471 7.83799V7.78701L10.5941 7.63407V7.58309L10.2882 7.27721H10.2373L10.0843 7.12427H10.0333L9.93137 7.0223H9.88039L9.82941 6.97132H9.77843L9.72745 6.92034H9.67647L9.62549 6.86936H9.57451L9.52353 6.81838H9.42157L9.37059 6.7674H9.21765L9.16667 6.71642H8.96275L8.91177 6.66544H8.19804ZM4.83333 7.99093L4.88431 7.93995H5.80196L5.85294 7.99093H6.05686L6.10784 8.04191H6.2098L6.26078 8.09289H6.31177L6.41373 8.14387H6.51569L6.56667 8.19485H6.61765L6.66863 8.24583H6.71961L6.77059 8.29681H6.82157L6.92353 8.39878H6.97451L7.07647 8.50074H7.12745V8.55172L7.17843 8.6027H7.22941L7.28039 8.65368H7.33137L7.48431 8.80662H7.53529L7.58628 8.8576H7.63726L7.68824 8.90858H7.84118L7.89216 8.95956H9.42157L9.47255 9.01054H9.52353L9.62549 9.1125V9.16348L9.67647 9.21446V9.41838L9.62549 9.46936V9.52034L9.52353 9.6223H9.47255L9.42157 9.67328H6.10784L6.05686 9.72427H6.00588L5.85294 9.87721V9.97917L5.80196 10.0301V10.1321L5.85294 10.1831V10.285L5.90392 10.336V10.387H5.9549L6.00588 10.438H6.05686L6.10784 10.489H9.77843L9.82941 10.438H9.93137L9.98235 10.387H10.0843L10.1353 10.336H10.1863L10.3392 10.1831H10.3902V10.1321L10.6451 9.87721H10.6961V9.82623L11.002 9.52034V9.46936L11.6137 8.8576H11.6647V8.75564L12.1745 8.24583H12.2255L12.2765 8.19485H12.5314L12.5824 8.24583H12.6333L12.6843 8.29681V8.34779L12.7353 8.39878V8.70466L12.6843 8.75564V8.80662L12.5314 8.95956V9.01054L12.3784 9.16348V9.21446L12.2255 9.3674V9.41838L12.0725 9.57132V9.6223L11.9196 9.77525V9.82623L11.7667 9.97917V10.0301L11.5627 10.2341V10.285L11.4098 10.438V10.489L11.2569 10.6419V10.6929L11.1039 10.8458V10.8968L10.951 11.0498V11.1007L10.798 11.2537V11.3047L10.7471 11.3556H10.6961V11.4066L10.6451 11.4576V11.5086L10.5431 11.6105H10.4922V11.7125L10.2882 11.9164V11.9674H5.7L5.34314 11.8654L5.08824 11.8145L4.88431 11.7635L4.73137 11.7125L4.57843 11.6615L4.47647 11.6105L4.32353 11.5596L4.22157 11.5086L4.06863 11.4576L3.96667 11.4066L3.76275 11.3556L3.55882 11.3047L3.30392 11.2537L2.89608 11.2027H1.26471V8.95956H2.5902L2.64118 8.90858H2.69216L2.74314 8.8576H2.79412L2.8451 8.80662H2.89608L2.94706 8.75564H2.99804L3.04902 8.70466H3.1L3.15098 8.65368H3.20196L3.25294 8.6027H3.30392L3.3549 8.55172H3.40588L3.45686 8.50074H3.50784L3.55882 8.44976H3.6098L3.66078 8.39878H3.71176L3.76275 8.34779H3.81373L3.86471 8.29681H3.96667V8.24583H4.01765L4.06863 8.19485H4.11961L4.17059 8.14387H4.27255L4.32353 8.09289H4.42549L4.47647 8.04191H4.57843L4.62941 7.99093H4.83333Z" fill="white" style="fill:white;fill:white;fill-opacity:1;"/>
</svg>
