<svg width="14" height="14" viewBox="0 0 14 14" fill="none" xmlns="http://www.w3.org/2000/svg">
<path fill-rule="evenodd" clip-rule="evenodd" d="M6.5643 2.17471C6.42815 2.1965 6.17764 2.28363 5.99792 2.37077C5.81275 2.46335 5.56768 2.64852 5.41519 2.81734C5.26815 2.96983 5.08299 3.24213 4.99585 3.41641C4.86514 3.68871 4.84881 3.79218 4.84881 4.27143C4.84881 4.76158 4.86514 4.84871 5.01219 5.16458C5.12111 5.40421 5.27904 5.61116 5.50233 5.8181C5.70928 6.01961 5.93801 6.16665 6.12862 6.2429C6.292 6.3028 6.55341 6.3736 6.70046 6.39538C6.85839 6.41717 7.10891 6.40628 7.29952 6.36815C7.47924 6.33003 7.75699 6.23745 7.92037 6.15576C8.0783 6.07951 8.32882 5.88346 8.47586 5.73097C8.6229 5.57303 8.80807 5.30073 8.88976 5.13191C9.02591 4.85416 9.04225 4.75068 9.04225 4.27143C9.04225 3.79218 9.02591 3.68871 8.88976 3.41641C8.80807 3.24213 8.62835 2.97528 8.48675 2.82279C8.33971 2.6703 8.08919 2.47424 7.92581 2.39255C7.76243 2.31086 7.47924 2.21283 7.29952 2.18016C7.1198 2.14748 6.93464 2.12025 6.89107 2.1257C6.8475 2.13114 6.70046 2.15293 6.5643 2.17471ZM2.39809 4.46204C2.30551 4.48927 2.1149 4.59275 1.96241 4.69078C1.80992 4.78881 1.60842 4.99031 1.51039 5.1428C1.41236 5.29529 1.30889 5.55125 1.27621 5.71463C1.24353 5.87801 1.23264 6.12308 1.25443 6.25923C1.27621 6.39538 1.34701 6.61323 1.41236 6.74393C1.47227 6.88008 1.61386 7.07614 1.71734 7.18506C1.82081 7.28853 2.03321 7.44102 2.18025 7.51182C2.39809 7.62074 2.53424 7.64797 2.86101 7.64797C3.17687 7.64252 3.33481 7.61529 3.56354 7.51182C3.74871 7.42468 3.95021 7.27219 4.09725 7.10337C4.22796 6.95633 4.36955 6.72215 4.41857 6.586C4.46214 6.44984 4.49481 6.20477 4.49481 6.04139C4.49481 5.87801 4.45669 5.62205 4.40223 5.46956C4.34233 5.28439 4.21707 5.10468 4.01012 4.89228C3.79772 4.68533 3.618 4.56007 3.43284 4.50017C3.2858 4.44571 3.02439 4.40758 2.86101 4.41303C2.69762 4.41303 2.49068 4.44026 2.39809 4.46204ZM10.0389 4.72345C10.1478 4.64176 10.3384 4.54373 10.4582 4.49472C10.578 4.45115 10.8122 4.41303 10.9756 4.40758C11.139 4.40758 11.384 4.44571 11.5202 4.48927C11.6563 4.53829 11.8578 4.64176 11.9777 4.72345C12.092 4.80514 12.2609 4.97397 12.3425 5.10468C12.4297 5.22993 12.5386 5.4859 12.5876 5.67651C12.6421 5.8889 12.6584 6.09585 12.6366 6.232C12.6148 6.35182 12.544 6.56966 12.4787 6.7167C12.4133 6.87463 12.25 7.08703 12.092 7.23407C11.9014 7.4029 11.7108 7.51727 11.493 7.58806C11.2479 7.66431 11.0845 7.68065 10.8558 7.65342C10.6815 7.63708 10.4255 7.56083 10.2839 7.49004C10.1369 7.41924 9.92995 7.2613 9.82103 7.13604C9.70666 7.01623 9.57051 6.83107 9.5215 6.73848C9.46704 6.62956 9.42347 6.37905 9.40713 6.12308C9.39079 5.80721 9.41258 5.62749 9.47248 5.46956C9.51605 5.34975 9.61953 5.16458 9.70122 5.06111C9.77746 4.95763 9.92995 4.80514 10.0389 4.72345ZM6.50984 7.23407C6.37369 7.2613 6.10684 7.3321 5.91078 7.39745C5.71472 7.46281 5.42608 7.58806 5.2736 7.6752C5.11566 7.76778 4.83247 7.98018 4.6473 8.1599C4.45669 8.33417 4.2443 8.55746 4.1735 8.66093L4.04824 8.8461C3.32936 8.60647 3.19866 8.59013 2.80654 8.61736C2.43077 8.64459 2.27283 8.68272 1.96241 8.83521C1.75546 8.93868 1.48316 9.10751 1.36335 9.21098C1.24353 9.31446 1.04748 9.54319 0.933111 9.72291C0.813298 9.89718 0.671701 10.1804 0.617241 10.3438C0.557335 10.5071 0.50832 10.8176 0.502874 11.0354C0.491982 11.3785 0.50832 11.4439 0.617241 11.5528C0.693485 11.6345 0.802406 11.678 0.90588 11.6726C0.993017 11.6726 1.11828 11.6236 1.17818 11.5637C1.25987 11.4874 1.29799 11.3513 1.33067 11.0517C1.3579 10.7958 1.42325 10.5398 1.51039 10.371C1.58663 10.2239 1.76635 9.99521 1.9134 9.8645C2.06044 9.7338 2.31096 9.58131 2.46889 9.5214C2.62138 9.46694 2.83378 9.41793 2.9318 9.41793C3.02439 9.41793 3.19321 9.44516 3.29669 9.47239C3.40016 9.50507 3.51997 9.54319 3.5581 9.57042C3.618 9.6031 3.60711 9.68479 3.51453 9.98976C3.44918 10.1967 3.38382 10.6052 3.36749 10.8884C3.33481 11.3676 3.34026 11.4166 3.44918 11.531C3.51997 11.6018 3.63434 11.6508 3.73237 11.6508C3.84129 11.6508 3.95021 11.6018 4.0319 11.5147C4.13538 11.4112 4.16805 11.3186 4.16805 11.1225C4.16805 10.9755 4.20617 10.6869 4.24974 10.4799C4.29331 10.273 4.42946 9.90263 4.54927 9.663C4.66909 9.41793 4.89237 9.09117 5.05031 8.92234C5.20824 8.75351 5.46421 8.54112 5.61125 8.44309C5.76374 8.35051 6.04149 8.2198 6.23754 8.1599C6.45538 8.09455 6.74947 8.05642 6.99999 8.05642C7.2505 8.05642 7.54459 8.09455 7.76243 8.1599C7.95849 8.2198 8.24168 8.35051 8.38873 8.44309C8.54121 8.54112 8.76995 8.73173 8.9061 8.87333C9.04225 9.01492 9.24375 9.28723 9.35812 9.47784C9.47248 9.66845 9.61408 9.98432 9.67399 10.1804C9.73389 10.3764 9.79925 10.7304 9.81559 10.97C9.84282 11.3295 9.87549 11.4275 9.97897 11.531C10.0498 11.6018 10.1696 11.6508 10.2676 11.6508C10.3656 11.6508 10.48 11.6018 10.5508 11.531C10.6597 11.4166 10.6652 11.3676 10.6325 10.8884C10.6162 10.6052 10.5508 10.1967 10.4854 9.98976C10.3929 9.68479 10.382 9.6031 10.4419 9.56497C10.48 9.54319 10.6107 9.49962 10.7305 9.46694C10.8503 9.43427 11.0573 9.42338 11.1934 9.43971C11.3296 9.4615 11.5365 9.5214 11.6563 9.57042C11.7762 9.62488 11.9831 9.76648 12.1138 9.88629C12.2445 10.0007 12.4133 10.2239 12.4896 10.371C12.5767 10.5453 12.6421 10.7958 12.6693 11.0517C12.702 11.3567 12.7401 11.4874 12.8272 11.5691C12.8926 11.6345 13.007 11.678 13.105 11.6726C13.1976 11.6726 13.3228 11.6181 13.3882 11.5473C13.4917 11.4439 13.508 11.3785 13.4971 11.0354C13.4917 10.8176 13.4426 10.5071 13.3827 10.3438C13.3283 10.1804 13.1867 9.89718 13.0669 9.72291C12.9525 9.54319 12.7564 9.31446 12.6366 9.21098C12.5168 9.10751 12.25 8.93868 12.0376 8.83521C11.7271 8.68272 11.5692 8.64459 11.1934 8.61736C10.8013 8.59013 10.6706 8.60647 10.3438 8.71539L9.95174 8.8461C9.77746 8.59013 9.58685 8.37774 9.41258 8.20891C9.23831 8.04008 8.94967 7.81135 8.76995 7.70243C8.59023 7.59351 8.25257 7.44647 8.02384 7.37567C7.78966 7.29943 7.40844 7.22863 7.17971 7.21773C6.94553 7.2014 6.646 7.21229 6.50984 7.23407ZM6.16675 3.29113C6.28111 3.204 6.48262 3.10052 6.61877 3.0624C6.75492 3.02428 6.96187 3.00794 7.08168 3.02428C7.20149 3.04062 7.40844 3.11141 7.53915 3.17132C7.66985 3.23667 7.83323 3.36738 7.90403 3.45451C7.96938 3.5471 8.06741 3.71048 8.11098 3.82484C8.15999 3.93376 8.19812 4.14071 8.19812 4.28776C8.19812 4.46203 8.1491 4.64175 8.05107 4.84325C7.95304 5.02842 7.81689 5.19724 7.68074 5.28983C7.56093 5.37696 7.34309 5.46954 7.1906 5.50222C6.99454 5.54579 6.85295 5.54579 6.67323 5.50222C6.53708 5.46954 6.33013 5.37696 6.21032 5.28983C6.07416 5.19724 5.93801 5.02842 5.83999 4.84325C5.73651 4.6363 5.69294 4.46203 5.69294 4.27142C5.69294 4.0917 5.73651 3.90653 5.82365 3.72682C5.89445 3.57977 6.05238 3.38372 6.16675 3.29113ZM2.23471 5.61659C2.27828 5.55124 2.39809 5.44776 2.49068 5.38785C2.58871 5.32795 2.76298 5.27893 2.8719 5.27893C2.98627 5.27893 3.14965 5.31706 3.24223 5.36062C3.33481 5.40419 3.45462 5.524 3.51453 5.61659C3.58533 5.73095 3.62345 5.89433 3.62345 6.05227C3.62345 6.27011 3.59622 6.34636 3.44373 6.50974C3.35115 6.61321 3.18232 6.72758 3.07885 6.76025C2.97537 6.78748 2.80655 6.79838 2.70852 6.78204C2.61594 6.7657 2.458 6.68401 2.36542 6.59687C2.27828 6.51518 2.17481 6.36269 2.14213 6.25922C2.10946 6.15574 2.10401 5.99781 2.12035 5.90523C2.14213 5.81264 2.19115 5.68739 2.23471 5.61659ZM10.6107 5.38785C10.5127 5.44776 10.3929 5.56757 10.3493 5.66016C10.3057 5.75274 10.2676 5.92701 10.2676 6.05227C10.2676 6.18297 10.3166 6.35725 10.3711 6.44983C10.431 6.54241 10.5671 6.65678 10.6815 6.71669C10.8177 6.77659 10.9647 6.80382 11.0845 6.78748C11.188 6.77659 11.3459 6.71669 11.4331 6.66223C11.5202 6.60232 11.6237 6.48795 11.6727 6.39537C11.7163 6.30279 11.7544 6.14485 11.7544 6.04138C11.7544 5.9379 11.7108 5.76908 11.6618 5.67105C11.6128 5.57847 11.493 5.44776 11.4004 5.38785C11.2969 5.32795 11.1226 5.27893 11.0028 5.27893C10.883 5.27893 10.7087 5.32795 10.6107 5.38785Z" fill="white" style="fill:white;fill:white;fill-opacity:1;"/>
</svg>
