<svg width="16" height="16" viewBox="0 0 16 16" fill="none" xmlns="http://www.w3.org/2000/svg">
<path fill-rule="evenodd" clip-rule="evenodd" d="M7.61385 1.21462C7.22555 1.31067 6.95828 1.4273 6.58015 1.66582C6.29627 1.84492 6.21244 1.86719 5.68492 1.90376C4.58548 1.97996 3.61315 2.27437 2.83555 2.76658C0.389813 4.31468 -0.521915 7.37781 0.683056 9.9984C0.779809 10.2088 1.01473 10.6297 1.20508 10.9338C1.39537 11.2378 1.62274 11.6942 1.71037 11.948C1.85433 12.3652 1.87293 12.5154 1.90464 13.514C1.93558 14.4901 1.95267 14.6326 2.05112 14.7398C2.15658 14.8545 2.2197 14.861 3.22918 14.861C4.68212 14.861 4.56688 14.9802 4.58998 13.453L4.60794 12.2653H5.44848H6.28907L6.30797 13.453C6.33236 14.9801 6.21724 14.861 7.6686 14.861C8.70674 14.861 8.73739 14.8576 8.86135 14.7275C8.96056 14.6234 8.98852 14.5232 8.98852 14.2722C8.98852 13.7173 9.10498 12.7816 9.25982 12.0922C9.44637 11.2617 9.71692 10.5407 10.1972 9.59422C10.493 9.01133 10.5932 8.86136 10.6723 8.88334C10.7275 8.89862 10.9643 8.94148 11.1985 8.97857C11.7695 9.06902 12.1187 9.29738 12.3374 9.72314C12.4782 9.99719 12.4983 10.1025 12.4983 10.5662C12.4983 11.0149 12.4798 11.1194 12.377 11.248C12.2287 11.434 11.9521 11.4499 11.7379 11.2847C11.4331 11.0496 11.3109 11.1094 10.529 11.8759C9.64274 12.7448 9.60396 12.8406 9.9908 13.2051C10.8763 14.0396 12.3122 14.2327 13.4006 13.6637C13.863 13.4219 14.4926 12.7631 14.7422 12.2596C15.1394 11.4586 15.1399 11.4534 15.1159 8.15538C15.0955 5.35568 15.088 5.18079 14.9743 4.85303C14.724 4.13176 14.382 3.57224 13.9014 3.09837C13.1361 2.34377 12.2429 1.97465 11.0089 1.90324C10.54 1.87607 10.3231 1.83852 10.2169 1.76601C9.93552 1.57399 9.33745 1.30351 9.00589 1.21837C8.60782 1.11616 8.01847 1.11454 7.61385 1.21462ZM7.79624 2.05829C7.13113 2.22286 6.28995 2.92463 6.10042 3.47314C5.95459 3.89521 5.97629 4.51668 6.15529 5.04477C6.33453 5.57332 6.52417 5.91342 7.24526 6.99924L7.78945 7.81874L8.08188 7.59758C8.75541 7.08824 8.98852 6.49953 8.98852 5.30809C8.98852 4.73841 8.99407 4.71292 9.14265 4.59767C9.3433 4.44204 9.47146 4.44677 9.67257 4.61717C9.83093 4.75139 9.83736 4.77827 9.85567 5.38146C9.89094 6.54516 9.6146 7.33097 8.93464 8.00108C8.50299 8.42643 7.89697 8.80431 7.64643 8.80431C7.55523 8.80431 7.42794 8.75891 7.3636 8.70336C7.19893 8.56123 5.88633 6.55208 5.63532 6.05797C5.06673 4.93869 4.95009 3.8963 5.30487 3.10541C5.3691 2.9623 5.40935 2.83303 5.39431 2.81821C5.33962 2.76428 4.56079 2.93917 4.12108 3.10414C3.63994 3.28463 2.9715 3.69614 2.57466 4.0562C1.52213 5.01114 0.955241 6.45627 1.05311 7.93468C1.1123 8.82848 1.36279 9.53856 1.94214 10.4551C2.55705 11.4281 2.78577 12.2107 2.78712 13.3468L2.78788 13.9958H3.2266H3.66533L3.66814 13.6064C3.68182 11.6856 3.68147 11.6895 3.85872 11.5392C3.96413 11.4498 4.09557 11.4 4.22619 11.4C4.83877 11.4 5.34336 10.8938 5.44631 10.1759C5.48679 9.89371 5.68018 9.66955 5.88305 9.66955C6.02531 9.66955 6.23912 9.83493 6.29955 9.99171C6.38864 10.2227 6.24649 10.7923 5.95898 11.3568C5.94687 11.3805 6.14827 11.4 6.40654 11.4C6.81847 11.4 6.89627 11.4171 7.04023 11.5391L7.20437 11.6782L7.22239 12.837L7.24046 13.9958H7.67H8.0996L8.13634 13.6353C8.32856 11.7494 8.63549 10.7133 9.51703 8.9747C9.85713 8.30391 10.0095 8.06101 10.1219 8.01054C10.334 7.91524 11.7448 8.16086 12.1738 8.36782C12.5629 8.55552 12.9864 8.99749 13.1881 9.42625C13.3201 9.70693 13.3466 9.85293 13.3659 10.4059C13.3935 11.2008 13.3641 11.3683 13.1376 11.7054C12.9059 12.0504 12.4862 12.2653 12.0443 12.2653C11.8715 12.2653 11.6829 12.2403 11.625 12.2098C11.5395 12.1647 11.459 12.2138 11.1943 12.4727L10.8688 12.7912L11.0498 12.8997C11.5255 13.185 12.3702 13.1973 12.9115 12.9268C13.3392 12.7131 13.74 12.2852 14.002 11.7625L14.224 11.3197L14.2413 8.51924C14.2561 6.11663 14.2452 5.65955 14.1647 5.30267C14.0237 4.67791 13.7672 4.22152 13.2922 3.75065C12.6119 3.07617 11.9783 2.82461 10.8112 2.76572C10.093 2.72943 10.0875 2.72811 9.72902 2.49801C9.5309 2.37082 9.23818 2.21721 9.0786 2.1567C8.73599 2.0268 8.11586 1.97915 7.79624 2.05829ZM11.8841 5.40857C11.5919 5.56963 11.5336 5.87696 11.7562 6.08318C12.1453 6.44352 12.7393 5.92541 12.3959 5.52521C12.2682 5.37633 12.0378 5.32384 11.8841 5.40857Z" fill="#7A30DA" style="fill:#7A30DA;fill:color(display-p3 0.4780 0.1886 0.8542);fill-opacity:1;"/>
</svg>
