<svg width="16" height="16" viewBox="0 0 16 16" fill="none" xmlns="http://www.w3.org/2000/svg">
<path fill-rule="evenodd" clip-rule="evenodd" d="M6.35151 0.659482C6.22582 0.785116 6.20765 0.855785 6.20765 1.2188C6.20765 1.58181 6.22582 1.65248 6.35151 1.77811C6.44216 1.86882 6.56229 1.92197 6.67643 1.92197C6.79058 1.92197 6.91071 1.86882 7.00136 1.77811C7.12705 1.65248 7.14522 1.58181 7.14522 1.2188C7.14522 0.855785 7.12705 0.785116 7.00136 0.659482C6.91071 0.568773 6.79058 0.515625 6.67643 0.515625C6.56229 0.515625 6.44216 0.568773 6.35151 0.659482ZM4.0076 1.59705C3.75382 1.85077 3.80737 2.0609 4.23484 2.48843C4.66237 2.9159 4.8725 2.96946 5.12623 2.71568C5.38002 2.46195 5.32646 2.25182 4.89899 1.82429C4.47146 1.39682 4.26133 1.34326 4.0076 1.59705ZM8.45388 1.82429C8.02641 2.25182 7.97285 2.46195 8.22664 2.71568C8.48036 2.96946 8.6905 2.9159 9.11802 2.48843C9.5455 2.0609 9.59905 1.85077 9.34527 1.59705C9.09154 1.34326 8.88141 1.39682 8.45388 1.82429ZM6.20765 2.46734C5.92005 2.55799 5.42953 3.06591 5.34134 3.36441C5.30214 3.49708 5.27009 3.75321 5.27009 3.93357V4.26154L3.22339 4.27836C1.26142 4.29447 1.16995 4.30016 1.01496 4.416C0.926007 4.48245 0.798851 4.60961 0.732401 4.69862C0.61292 4.85865 0.611572 4.90858 0.611572 9.18808C0.611572 13.4676 0.61292 13.5175 0.732401 13.6775C0.996911 14.0318 1.1219 14.0794 1.84418 14.1006L2.51195 14.1203L2.65288 14.428C2.82627 14.8067 3.12659 15.1145 3.52874 15.3254C3.79214 15.4635 3.90336 15.4857 4.33253 15.4857C4.7617 15.4857 4.87291 15.4635 5.13631 15.3254C5.53999 15.1137 5.8389 14.8065 6.01446 14.423L6.15767 14.1103H8.08278H10.0079L10.1511 14.423C10.3267 14.8065 10.6256 15.1137 11.0292 15.3254C11.2926 15.4635 11.4039 15.4857 11.833 15.4857C12.2622 15.4857 12.3734 15.4635 12.6368 15.3254C13.039 15.1145 13.3393 14.8067 13.5127 14.428L13.6536 14.1203L14.3214 14.1006C15.0437 14.0794 15.1688 14.0318 15.4332 13.6774C15.5484 13.523 15.554 13.4403 15.554 11.8938V10.2721L15.3685 9.88071C15.2666 9.66548 15.0754 9.37249 14.9439 9.22975C14.6797 8.94315 14.1412 8.62924 13.7891 8.55652L13.5617 8.50952L12.858 6.93518C12.1103 5.26262 11.9189 4.96038 11.3987 4.63112C10.9104 4.32201 10.5845 4.26588 9.27882 4.26588H8.08278V3.93574C8.08278 3.42711 7.97742 3.16037 7.64529 2.82824C7.23294 2.41595 6.75302 2.29547 6.20765 2.46734ZM6.35151 3.47217C6.23338 3.59025 6.20765 3.67404 6.20765 3.94095V4.26588H6.67643H7.14522V3.94095C7.14522 3.54993 6.97563 3.32831 6.67643 3.32831C6.56229 3.32831 6.44216 3.38146 6.35151 3.47217ZM1.51984 7.78174V10.36H8.02418C11.6016 10.36 14.5285 10.3456 14.5285 10.3278C14.5285 10.2199 14.3221 9.9328 14.1203 9.76006C13.7523 9.44503 13.5995 9.42247 11.833 9.42247C10.7498 9.42247 10.1575 9.3995 9.994 9.35122C9.67212 9.25612 9.1867 8.77069 9.0916 8.44882C9.04378 8.28697 9.02034 7.71359 9.02034 6.70553V5.20344H5.27009H1.51984V7.78174ZM9.9579 6.69217V8.19726L10.1018 8.34105C10.2444 8.48374 10.2548 8.48491 11.3616 8.48491C11.9754 8.48491 12.4777 8.46511 12.4778 8.44096C12.4779 8.41682 12.2228 7.82276 11.9108 7.12093C11.2002 5.52192 11.0049 5.29509 10.2736 5.21961L9.9579 5.18703V6.69217ZM4.94517 6.28486C4.8125 6.41747 4.80131 6.47226 4.80131 6.98803V7.54735H4.24199C3.72622 7.54735 3.67143 7.55854 3.53882 7.69121C3.3485 7.88147 3.3485 8.15079 3.53882 8.34105C3.67143 8.47372 3.72622 8.48491 4.24199 8.48491H4.80131V9.04423C4.80131 9.56 4.8125 9.61479 4.94517 9.7474C5.03582 9.83811 5.15594 9.89126 5.27009 9.89126C5.38424 9.89126 5.50436 9.83811 5.59501 9.7474C5.72768 9.61479 5.73887 9.56 5.73887 9.04423V8.48491H6.29819C6.81396 8.48491 6.86875 8.47372 7.00136 8.34105C7.09207 8.2504 7.14522 8.13028 7.14522 8.01613C7.14522 7.90198 7.09207 7.78186 7.00136 7.69121C6.86875 7.55854 6.81396 7.54735 6.29819 7.54735H5.73887V6.98803C5.73887 6.47226 5.72768 6.41747 5.59501 6.28486C5.50436 6.19415 5.38424 6.141 5.27009 6.141C5.15594 6.141 5.03582 6.19415 4.94517 6.28486ZM1.51984 12.2352V13.1727H2.01364H2.50738L2.6506 12.8601C2.82615 12.4765 3.12506 12.1694 3.52874 11.9576C3.79214 11.8195 3.90336 11.7973 4.33253 11.7973C4.7617 11.7973 4.87291 11.8195 5.13631 11.9576C5.53999 12.1694 5.8389 12.4765 6.01446 12.8601L6.15767 13.1727H8.08278H10.0079L10.1511 12.8601C10.3267 12.4765 10.6256 12.1694 11.0292 11.9576C11.2926 11.8195 11.4039 11.7973 11.833 11.7973C12.2622 11.7973 12.3734 11.8195 12.6368 11.9576C13.0405 12.1694 13.3394 12.4765 13.515 12.8601L13.6582 13.1727H14.1519H14.6457V12.2352V11.2976H8.08278H1.51984V12.2352ZM3.94871 12.7864C3.35002 13.0472 3.21524 13.8431 3.69287 14.2975C4.08718 14.6726 4.60618 14.6708 4.98401 14.293C5.71127 13.5657 4.89307 12.375 3.94871 12.7864ZM11.4492 12.7864C10.8505 13.0472 10.7157 13.8431 11.1934 14.2975C11.5877 14.6726 12.1067 14.6708 12.4845 14.293C13.2118 13.5657 12.3936 12.375 11.4492 12.7864Z" fill="#FC3115" style="fill:#FC3115;fill:color(display-p3 0.9882 0.1922 0.0824);fill-opacity:1;"/>
</svg>
