<svg width="16" height="16" viewBox="0 0 16 16" fill="none" xmlns="http://www.w3.org/2000/svg">
<path fill-rule="evenodd" clip-rule="evenodd" d="M2.28067 3.07364V4.07151H1.40352H0.526367V9.06089V14.0503H8.0114H15.4964V9.06089V4.07151H14.6193H13.7421V3.07364C13.7421 2.16186 13.7333 2.07565 13.6398 2.07422C13.5835 2.07342 12.2941 2.20646 10.7744 2.36994L8.0114 2.66719L5.24837 2.36994C3.72873 2.20646 2.43926 2.07342 2.38301 2.07422C2.2895 2.07565 2.28067 2.16186 2.28067 3.07364ZM3.15782 7.13214V11.251L3.34787 11.2819C3.64342 11.33 7.24729 11.7124 7.40447 11.7124H7.54435L7.52938 7.59356L7.51435 3.47473L5.33609 3.24396L3.15782 3.01325V7.13214ZM10.6721 3.2447L8.50846 3.47285L8.49343 7.59259L8.47846 11.7124L8.63962 11.7111C8.89335 11.7091 12.8081 11.2736 12.8385 11.244C12.8535 11.2294 12.859 9.37229 12.8508 7.11703L12.8357 3.01662L10.6721 3.2447ZM1.40352 9.06089V13.195H8.0114H14.6193V9.06089V4.92684H14.1807H13.7421V8.48264V12.0384L13.198 12.0987C12.8988 12.1319 11.6084 12.2694 10.3305 12.4043L8.00719 12.6495L5.71408 12.4073C4.45285 12.2739 3.16437 12.1365 2.85082 12.1017L2.28067 12.0384V8.48264V4.92684H1.8421H1.40352V9.06089Z" fill="#FFC121" style="fill:#FFC121;fill:color(display-p3 1.0000 0.7562 0.1292);fill-opacity:1;"/>
</svg>
