<svg width="16" height="16" viewBox="0 0 16 16" fill="none" xmlns="http://www.w3.org/2000/svg">
<path fill-rule="evenodd" clip-rule="evenodd" d="M12.3387 1.51183L12.3974 1.45312H13.865L13.9237 1.51183H13.9825L14.0999 1.62924V1.68795L14.1586 1.74666V2.33372L14.0999 2.39242V2.68595L14.0412 2.74466V2.92078L13.9825 2.97949V3.0969L13.9237 3.1556V3.27302L13.865 3.33172V3.39043L13.8063 3.44913V3.56655L13.7476 3.62525V3.68396L13.6302 3.80137V3.86008L13.5715 3.91878V3.97749L13.4541 4.0949V4.15361L13.278 4.32973V4.38843L12.7496 4.91679H12.6909L12.5148 5.09291H12.4561L12.3387 5.21032H12.28L12.2213 5.26903H12.1626L12.0451 5.38644H11.9864L11.9277 5.44514H11.8103L11.7516 5.50385H11.6929L11.6342 5.56256H11.5168L11.4581 5.62126H11.3407L11.282 5.67997H11.1058L11.0471 5.73867H10.7536L10.6949 5.79738H9.81431L9.75561 5.85609L9.81431 6.73668L9.87302 6.79539H10.1666L10.2253 6.85409H10.4014L10.4601 6.9128H10.5775L10.6362 6.9715H10.7536L10.8123 7.03021H10.871L10.9297 7.08892H11.0471L11.1058 7.14762H11.1646L11.2233 7.20633H11.282L11.3994 7.32374H11.4581L11.5755 7.44115H11.6342L11.8103 7.61727H11.869L12.3974 8.14563V8.20433L12.5735 8.38045V8.43916L12.6909 8.55657V8.61528L12.7496 8.67398V8.73269L12.867 8.8501L13.0432 8.67398H13.1019L13.1606 8.61528H13.2193L13.278 8.55657H13.4541L13.5128 8.49786H14.0412L14.0999 8.55657H14.2173L14.276 8.61528H14.3347L14.3934 8.67398H14.4521L14.5108 8.73269H14.5695L14.8043 8.96751V9.02622L14.9217 9.14363V9.20234L14.9805 9.26104V9.37846L15.0392 9.43716V10.1416L14.9805 10.2003V10.3178L14.9217 10.3765V10.4352L14.8043 10.5526V10.6113L14.6282 10.7874V10.8461L14.4521 11.0222V11.0809L14.276 11.2571V11.3158L14.0999 11.4919V11.5506L13.9237 11.7267V11.7854L13.7476 11.9615V12.0202L13.5715 12.1964V12.2551L13.3954 12.4312V12.4899L13.1606 12.7247V12.7834L12.9844 12.9595V13.0182L12.8083 13.1944V13.2531L12.6322 13.4292V13.4879L12.4561 13.664V13.7227L12.28 13.8988V13.9575L12.1039 14.1337V14.1924L11.9277 14.3685V14.4272L11.8103 14.5446H11.7516L11.6929 14.6033L5.93971 14.5446L5.52876 14.4859L5.23523 14.4272L5.00041 14.3685L4.82429 14.3098L4.64817 14.2511L4.47205 14.1924L4.29594 14.1337L4.17852 14.0749L4.0024 14.0162L3.88499 13.9575L3.65017 13.8988L3.47405 13.8401L3.18052 13.7814L2.76958 13.7227H0.362623L0.303916 13.664H0.24521L0.186504 13.6053V13.5466L0.127798 13.4879V13.3705L0.0690918 13.3118V9.7894L0.127798 9.73069V9.61328L0.303916 9.43716H0.421329L0.480035 9.37846H2.24122L2.29993 9.31975H2.35863L2.41734 9.26104H2.47604L2.53475 9.20234H2.59346L2.65216 9.14363H2.71087L2.76958 9.08493H2.82828L2.88699 9.02622H2.94569L3.0044 8.96751H3.06311L3.12181 8.90881H3.18052L3.23922 8.8501H3.29793L3.35664 8.79139H3.41534L3.47405 8.73269H3.53275L3.59146 8.67398H3.65017L3.70887 8.61528H3.76758L3.82629 8.55657H3.9437L4.0024 8.49786H4.06111L4.11982 8.43916H4.23723L4.29594 8.38045H4.41335L4.47205 8.32175H4.64817L4.70688 8.26304H5.00041L5.05911 8.20433H6.23324L6.8203 7.61727H6.87901L7.05512 7.44115H7.11383L7.23124 7.32374H7.28995L7.34866 7.26503H7.40736L7.52477 7.14762H7.58348L7.64219 7.08892H7.7596L7.8183 7.03021H7.87701L7.93572 6.9715H8.05313L8.11184 6.9128H8.22925L8.28795 6.85409H8.46407L8.52278 6.79539H8.81631L8.87502 6.73668L8.93372 5.85609L8.87502 5.79738H8.05313L7.99442 5.73867H7.7596L7.70089 5.67997H7.52477L7.46607 5.62126H7.34866L7.28995 5.56256H7.23124L7.17254 5.50385H7.11383L7.05512 5.44514H6.99642L6.93771 5.38644H6.87901L6.76159 5.26903H6.70289L6.52677 5.09291H6.46806L6.11583 4.74067V4.68196L5.93971 4.50585V4.44714L5.8223 4.32973V4.27102L5.76359 4.21231V4.15361L5.70488 4.0949V4.0362L5.64618 3.97749V3.91878L5.58747 3.86008V3.74267L5.52876 3.68396V3.50784L5.47006 3.44913V3.21431L5.41135 3.1556V2.62725L5.47006 2.56854V2.50984L5.58747 2.39242H5.64618L5.70488 2.33372H7.11383L7.17254 2.39242H7.40736L7.46607 2.45113H7.64219L7.70089 2.50984H7.8183L7.87701 2.56854H7.93572L7.99442 2.62725H8.05313L8.11184 2.68595H8.17054L8.22925 2.74466H8.28795L8.40537 2.86207H8.46407L8.64019 3.03819H8.6989L9.05113 3.39043V3.44913L9.22725 3.62525V3.68396H9.28596L9.34466 3.62525V3.56655L9.40337 3.50784V3.44913L9.52078 3.33172V3.27302L9.6382 3.1556V3.0969L9.81431 2.92078V2.86207L10.3427 2.33372H10.4014L10.5775 2.1576H10.6362L10.7536 2.04019H10.8123L10.871 1.98148H10.9297L11.0471 1.86407H11.1058L11.1646 1.80536H11.282L11.3407 1.74666H11.3994L11.4581 1.68795H11.5755L11.6342 1.62924H11.7516L11.8103 1.57054H11.9864L12.0451 1.51183H12.3387ZM12.3974 2.39242L12.4561 2.33372H13.2193V2.56854H13.1606V2.80337L13.1019 2.86207V2.92078L13.0432 2.97949V3.0969L12.9844 3.1556V3.21431L12.9257 3.27302V3.33172L12.867 3.39043V3.44913L12.7496 3.56655V3.62525L12.5735 3.80137V3.86008L12.2213 4.21231H12.1626L11.9864 4.38843H11.9277L11.8103 4.50585H11.7516L11.6929 4.56455H11.6342L11.5755 4.62326H11.5168L11.4581 4.68196H11.3407L11.282 4.74067H11.2233L11.1646 4.79938H10.9884L10.9297 4.85808H10.6949L10.6362 4.91679H9.87302V4.68196L9.93173 4.62326V4.44714H9.99043V4.27102L10.0491 4.21231V4.15361L10.1078 4.0949V4.0362L10.1666 3.97749V3.91878L10.2253 3.86008V3.80137L10.3427 3.68396V3.62525L10.5188 3.44913V3.39043L10.6949 3.21431H10.7536V3.1556L10.871 3.03819H10.9297L11.1058 2.86207H11.1646L11.282 2.74466H11.3407L11.3994 2.68595H11.4581L11.5168 2.62725H11.5755L11.6342 2.56854H11.7516L11.8103 2.50984H11.9277V2.45113H12.1039L12.1626 2.39242H12.3974ZM6.35065 3.21431H6.99642L7.05512 3.27302H7.28995L7.34866 3.33172H7.46607L7.52477 3.39043H7.58348L7.64219 3.44913H7.70089L7.7596 3.50784H7.8183L7.87701 3.56655H7.93572L8.11184 3.74267V3.80137H8.22925L8.28795 3.86008V3.91878L8.52278 4.15361V4.21231L8.58148 4.27102V4.32973L8.64019 4.38843V4.44714L8.6989 4.50585V4.56455L8.7576 4.62326V4.74067L8.81631 4.79938V4.91679H8.11184L8.05313 4.85808H7.87701L7.8183 4.79938H7.70089L7.64219 4.74067H7.58348L7.52477 4.68196H7.46607L7.40736 4.62326H7.34866V4.56455H7.23124L6.99642 4.32973H6.93771L6.87901 4.27102V4.21231L6.64418 3.97749V3.91878L6.58547 3.86008V3.80137L6.52677 3.74267V3.68396L6.46806 3.62525V3.56655L6.40936 3.50784V3.39043L6.35065 3.33172V3.21431ZM8.93372 7.61727L8.87502 7.67598H8.64019L8.58148 7.73468H8.40537L8.34666 7.79339H8.28795L8.22925 7.8521H8.11184L8.05313 7.9108H7.99442L7.93572 7.96951H7.87701L7.8183 8.02821H7.7596V8.08692H7.70089L7.64219 8.14563H7.58348L7.40736 8.32175H7.34866L7.28995 8.38045V8.43916L7.34866 8.49786H7.40736L7.46607 8.55657H7.52477L7.58348 8.61528H7.64219L7.70089 8.67398H7.7596L7.8183 8.73269H7.87701L7.99442 8.8501H8.05313L8.17054 8.96751H8.22925L8.46407 9.20234H8.52278L8.58148 9.26104H8.64019L8.6989 9.31975H10.5188V9.37846H10.6362L10.6949 9.43716H10.8123L10.9297 9.55457H10.9884L11.3407 9.90681V9.96552L11.4581 10.0829V10.1416H11.5755L12.1626 9.55457V9.43716L12.1039 9.37846V9.31975L12.0451 9.26104V9.20234L11.9864 9.14363V9.08493L11.869 8.96751V8.90881L11.6929 8.73269V8.67398L11.3407 8.32175H11.282L11.1058 8.14563H11.0471L10.9297 8.02821H10.871L10.8123 7.96951H10.7536L10.6949 7.9108H10.6362L10.5775 7.8521H10.5188L10.4601 7.79339H10.3427L10.284 7.73468H10.1078L10.0491 7.67598H9.81431L9.75561 7.61727H8.93372ZM5.05911 9.14363L5.11782 9.08493H6.17453L6.23324 9.14363H6.46806L6.52677 9.20234H6.64418L6.70289 9.26104H6.76159L6.87901 9.31975H6.99642L7.05512 9.37846H7.11383L7.17254 9.43716H7.23124L7.28995 9.49587H7.34866L7.46607 9.61328H7.52477L7.64219 9.73069H7.70089V9.7894L7.7596 9.84811H7.8183L7.87701 9.90681H7.93572L8.11184 10.0829H8.17054L8.22925 10.1416H8.28795L8.34666 10.2003H8.52278L8.58148 10.259H10.3427L10.4014 10.3178H10.4601L10.5775 10.4352V10.4939L10.6362 10.5526V10.7874L10.5775 10.8461V10.9048L10.4601 11.0222H10.4014L10.3427 11.0809H6.52677L6.46806 11.1396H6.40936L6.23324 11.3158V11.4332L6.17453 11.4919V11.6093L6.23324 11.668V11.7854L6.29194 11.8441V11.9028H6.35065L6.40936 11.9615H6.46806L6.52677 12.0202H10.7536L10.8123 11.9615H10.9297L10.9884 11.9028H11.1058L11.1646 11.8441H11.2233L11.3994 11.668H11.4581V11.6093L11.7516 11.3158H11.8103V11.2571L12.1626 10.9048V10.8461L12.867 10.1416H12.9257V10.0242L13.5128 9.43716H13.5715L13.6302 9.37846H13.9237L13.9825 9.43716H14.0412L14.0999 9.49587V9.55457L14.1586 9.61328V9.96552L14.0999 10.0242V10.0829L13.9237 10.259V10.3178L13.7476 10.4939V10.5526L13.5715 10.7287V10.7874L13.3954 10.9635V11.0222L13.2193 11.1983V11.2571L13.0432 11.4332V11.4919L12.8083 11.7267V11.7854L12.6322 11.9615V12.0202L12.4561 12.1964V12.2551L12.28 12.4312V12.4899L12.1039 12.666V12.7247L11.9277 12.9008V12.9595L11.869 13.0182H11.8103V13.0769L11.7516 13.1357V13.1944L11.6342 13.3118H11.5755V13.4292L11.3407 13.664V13.7227H6.05712L5.64618 13.6053L5.35265 13.5466L5.11782 13.4879L4.9417 13.4292L4.76558 13.3705L4.64817 13.3118L4.47205 13.2531L4.35464 13.1944L4.17852 13.1357L4.06111 13.0769L3.82629 13.0182L3.59146 12.9595L3.29793 12.9008L2.82828 12.8421H0.949684V10.259H2.47604L2.53475 10.2003H2.59346L2.65216 10.1416H2.71087L2.76958 10.0829H2.82828L2.88699 10.0242H2.94569L3.0044 9.96552H3.06311L3.12181 9.90681H3.18052L3.23922 9.84811H3.29793L3.35664 9.7894H3.41534L3.47405 9.73069H3.53275L3.59146 9.67199H3.65017L3.70887 9.61328H3.76758L3.82629 9.55457H3.88499L3.9437 9.49587H4.06111V9.43716H4.11982L4.17852 9.37846H4.23723L4.29594 9.31975H4.41335L4.47205 9.26104H4.58947L4.64817 9.20234H4.76558L4.82429 9.14363H5.05911Z" fill="#039F00" style="fill:#039F00;fill:color(display-p3 0.0125 0.6235 0.0000);fill-opacity:1;"/>
</svg>
