<svg width="16" height="16" viewBox="0 0 16 16" fill="none" xmlns="http://www.w3.org/2000/svg">
<path fill-rule="evenodd" clip-rule="evenodd" d="M7.9672 2.44396C7.81042 2.46905 7.52193 2.56939 7.31498 2.66973C7.10175 2.77634 6.81954 2.98957 6.64395 3.18398C6.47462 3.35958 6.26139 3.67315 6.16105 3.87383C6.01054 4.1874 5.99173 4.30655 5.99173 4.85843C5.99173 5.42285 6.01054 5.52319 6.17987 5.88693C6.30529 6.16287 6.48716 6.40118 6.74429 6.63949C6.9826 6.87153 7.246 7.04086 7.46549 7.12866C7.65363 7.19764 7.95466 7.27917 8.12398 7.30425C8.30585 7.32934 8.59433 7.3168 8.81383 7.2729C9.02078 7.229 9.34062 7.12238 9.52876 7.02831C9.71063 6.94052 9.99911 6.71475 10.1684 6.53915C10.3378 6.35728 10.551 6.04371 10.6451 5.8493C10.8018 5.52946 10.8207 5.41031 10.8207 4.85843C10.8207 4.30655 10.8018 4.1874 10.6451 3.87383C10.551 3.67315 10.344 3.36585 10.181 3.19025C10.0117 3.01466 9.72318 2.78889 9.53504 2.69482C9.3469 2.60075 9.02078 2.48786 8.81383 2.45024C8.60688 2.41261 8.39365 2.38125 8.34348 2.38752C8.29331 2.39379 8.12398 2.41888 7.9672 2.44396ZM3.16962 5.07793C3.06301 5.10928 2.84351 5.22844 2.66792 5.34132C2.49232 5.45421 2.26028 5.68625 2.14739 5.86185C2.03451 6.03744 1.91536 6.3322 1.87773 6.52034C1.8401 6.70848 1.82756 6.99069 1.85264 7.14747C1.87773 7.30425 1.95925 7.55511 2.03451 7.70562C2.1035 7.8624 2.26655 8.08817 2.38571 8.2136C2.50486 8.33275 2.74944 8.50835 2.91877 8.58988C3.16962 8.71531 3.32641 8.74666 3.70269 8.74666C4.06643 8.74039 4.24829 8.70903 4.51169 8.58988C4.72492 8.48954 4.95696 8.31394 5.12628 8.11953C5.27679 7.9502 5.43985 7.68053 5.49629 7.52375C5.54646 7.36697 5.58409 7.08476 5.58409 6.89662C5.58409 6.70848 5.54019 6.41372 5.47748 6.23813C5.40849 6.0249 5.26425 5.81795 5.02594 5.57336C4.78136 5.33505 4.5744 5.19081 4.36118 5.12183C4.19185 5.05911 3.89083 5.01521 3.70269 5.02149C3.51455 5.02149 3.27624 5.05284 3.16962 5.07793ZM11.9683 5.37895C12.0937 5.28488 12.3132 5.172 12.4512 5.11556C12.5892 5.06538 12.8588 5.02149 13.047 5.01521C13.2351 5.01521 13.5173 5.05911 13.6741 5.10928C13.8309 5.16573 14.0629 5.28488 14.2009 5.37895C14.3326 5.47302 14.527 5.66743 14.6211 5.81795C14.7214 5.96219 14.8469 6.25694 14.9033 6.47644C14.966 6.72102 14.9848 6.95933 14.9597 7.11611C14.9347 7.25408 14.8531 7.50494 14.7779 7.67426C14.7026 7.85613 14.5145 8.10071 14.3326 8.27004C14.1131 8.46445 13.8936 8.59615 13.6428 8.67768C13.3606 8.76548 13.1724 8.78429 12.909 8.75293C12.7083 8.73412 12.4136 8.64632 12.2505 8.56479C12.0812 8.48327 11.8429 8.3014 11.7175 8.15716C11.5858 8.01919 11.429 7.80596 11.3725 7.69935C11.3098 7.57392 11.2597 7.28544 11.2408 6.99069C11.222 6.62695 11.2471 6.41999 11.3161 6.23813C11.3663 6.10016 11.4854 5.88693 11.5795 5.76778C11.6673 5.64862 11.8429 5.47302 11.9683 5.37895ZM7.90449 8.27004C7.7477 8.3014 7.44041 8.38292 7.21464 8.45818C6.98887 8.53344 6.65649 8.67768 6.48089 8.77802C6.29902 8.88463 5.97291 9.12921 5.75969 9.33617C5.54019 9.53685 5.29561 9.79398 5.21408 9.91313L5.06984 10.1264C4.24202 9.85042 4.09151 9.8316 3.63997 9.86296C3.20725 9.89432 3.02538 9.93822 2.66792 10.1138C2.42961 10.233 2.11604 10.4274 1.97807 10.5465C1.8401 10.6657 1.61433 10.9291 1.48263 11.136C1.34466 11.3367 1.18161 11.6628 1.11889 11.851C1.04991 12.0391 0.993468 12.3966 0.987197 12.6474C0.974654 13.0425 0.993468 13.1178 1.11889 13.2432C1.20669 13.3373 1.33212 13.3875 1.45128 13.3812C1.55162 13.3812 1.69586 13.3247 1.76484 13.2558C1.85891 13.168 1.90281 13.0112 1.94044 12.6663C1.9718 12.3715 2.04705 12.0767 2.14739 11.8823C2.23519 11.713 2.44215 11.4496 2.61147 11.2991C2.7808 11.1486 3.06928 10.973 3.25115 10.904C3.42675 10.8413 3.67133 10.7848 3.78421 10.7848C3.89083 10.7848 4.08524 10.8162 4.20439 10.8476C4.32355 10.8852 4.46152 10.9291 4.50542 10.9604C4.5744 10.9981 4.56186 11.0921 4.45525 11.4433C4.37999 11.6817 4.30474 12.152 4.28592 12.4781C4.24829 13.03 4.25457 13.0864 4.37999 13.2181C4.46152 13.2997 4.59322 13.3561 4.7061 13.3561C4.83153 13.3561 4.95696 13.2997 5.05103 13.1993C5.17018 13.0802 5.20781 12.9735 5.20781 12.7478C5.20781 12.5785 5.25171 12.2461 5.30188 12.0078C5.35205 11.7694 5.50883 11.343 5.6468 11.0671C5.78477 10.7848 6.0419 10.4086 6.22377 10.2142C6.40564 10.0197 6.70039 9.77516 6.86971 9.66228C7.04531 9.55567 7.36515 9.40515 7.59092 9.33617C7.84177 9.26091 8.18043 9.21701 8.46891 9.21701C8.75739 9.21701 9.09604 9.26091 9.3469 9.33617C9.57266 9.40515 9.89877 9.55567 10.0681 9.66228C10.2437 9.77516 10.5071 9.99466 10.6639 10.1577C10.8207 10.3208 11.0527 10.6343 11.1844 10.8538C11.3161 11.0733 11.4792 11.4371 11.5481 11.6628C11.6171 11.8886 11.6924 12.2962 11.7112 12.5722C11.7425 12.9861 11.7802 13.099 11.8993 13.2181C11.9809 13.2997 12.1188 13.3561 12.2317 13.3561C12.3446 13.3561 12.4763 13.2997 12.5578 13.2181C12.6832 13.0864 12.6895 13.03 12.6519 12.4781C12.6331 12.152 12.5578 11.6817 12.4826 11.4433C12.376 11.0921 12.3634 10.9981 12.4324 10.9542C12.4763 10.9291 12.6268 10.8789 12.7648 10.8413C12.9027 10.8037 13.1411 10.7911 13.2978 10.8099C13.4546 10.835 13.6929 10.904 13.8309 10.9604C13.9689 11.0232 14.2072 11.1862 14.3577 11.3242C14.5082 11.4559 14.7026 11.713 14.7904 11.8823C14.8908 12.083 14.966 12.3715 14.9974 12.6663C15.035 13.0174 15.0789 13.168 15.1792 13.262C15.2545 13.3373 15.3862 13.3875 15.4991 13.3812C15.6057 13.3812 15.7499 13.3185 15.8252 13.2369C15.9443 13.1178 15.9632 13.0425 15.9506 12.6474C15.9443 12.3966 15.8879 12.0391 15.8189 11.851C15.7562 11.6628 15.5932 11.3367 15.4552 11.136C15.3235 10.9291 15.0977 10.6657 14.9597 10.5465C14.8218 10.4274 14.5145 10.233 14.2699 10.1138C13.9124 9.93822 13.7306 9.89432 13.2978 9.86296C12.8463 9.8316 12.6958 9.85042 12.3195 9.97584L11.868 10.1264C11.6673 9.8316 11.4478 9.58702 11.2471 9.39261C11.0464 9.1982 10.714 8.9348 10.5071 8.80938C10.3001 8.68395 9.91131 8.51462 9.64792 8.43309C9.37825 8.3453 8.93926 8.26377 8.67586 8.25123C8.40619 8.23241 8.06127 8.24495 7.90449 8.27004ZM7.50883 3.72974C7.64053 3.6294 7.87257 3.51024 8.02935 3.46634C8.18614 3.42244 8.42445 3.40363 8.56242 3.42244C8.70039 3.44126 8.9387 3.52278 9.08921 3.59177C9.23972 3.66702 9.42786 3.81754 9.50939 3.91788C9.58465 4.02449 9.69753 4.21263 9.7477 4.34433C9.80414 4.46976 9.84804 4.70807 9.84804 4.87739C9.84804 5.07808 9.7916 5.28503 9.67872 5.51707C9.56583 5.73029 9.40905 5.92471 9.25226 6.03132C9.1143 6.13166 8.86344 6.23827 8.68784 6.2759C8.46208 6.32607 8.29902 6.32607 8.09207 6.2759C7.93528 6.23827 7.69697 6.13166 7.559 6.03132C7.40222 5.92471 7.24544 5.73029 7.13255 5.51707C7.0134 5.27876 6.96323 5.07808 6.96323 4.85858C6.96323 4.65162 7.0134 4.4384 7.11374 4.23144C7.19527 4.06212 7.37713 3.83635 7.50883 3.72974ZM2.98092 6.4076C3.03109 6.33234 3.16906 6.21319 3.27568 6.1442C3.38856 6.07522 3.58924 6.01878 3.71467 6.01878C3.84637 6.01878 4.03451 6.06268 4.14112 6.11285C4.24773 6.16302 4.3857 6.30099 4.45469 6.4076C4.53622 6.5393 4.58012 6.72744 4.58012 6.90931C4.58012 7.16016 4.54876 7.24796 4.37316 7.4361C4.26655 7.55525 4.07214 7.68695 3.95298 7.72458C3.83383 7.75594 3.63941 7.76848 3.52653 7.74967C3.41992 7.73085 3.23805 7.63678 3.13144 7.53644C3.03109 7.44237 2.91194 7.26677 2.87431 7.14762C2.83668 7.02846 2.83041 6.84659 2.84923 6.73998C2.87431 6.63337 2.93075 6.48913 2.98092 6.4076ZM12.6262 6.1442C12.5134 6.21319 12.3754 6.35116 12.3252 6.45777C12.2751 6.56438 12.2312 6.76507 12.2312 6.90931C12.2312 7.05982 12.2876 7.2605 12.3503 7.36712C12.4193 7.47373 12.5761 7.60543 12.7078 7.67441C12.8646 7.7434 13.0339 7.77475 13.1719 7.75594C13.291 7.74339 13.4729 7.67441 13.5732 7.6117C13.6736 7.54271 13.7927 7.41101 13.8492 7.3044C13.8993 7.19779 13.9432 7.01592 13.9432 6.89676C13.9432 6.77761 13.8931 6.5832 13.8366 6.47031C13.7802 6.3637 13.6422 6.21319 13.5356 6.1442C13.4164 6.07522 13.2158 6.01878 13.0778 6.01878C12.9398 6.01878 12.7391 6.07522 12.6262 6.1442Z" fill="#374EA9" style="fill:#374EA9;fill:color(display-p3 0.2157 0.3059 0.6627);fill-opacity:1;"/>
</svg>
