<svg width="395" height="306" viewBox="0 0 395 306" fill="none" xmlns="http://www.w3.org/2000/svg">
<g clip-path="url(#clip0_22549_63464)">
<circle cx="197.499" cy="153.001" r="153" fill="#6575B1" style="fill:#6575B1;fill:color(display-p3 0.3961 0.4588 0.6941);fill-opacity:1;"/>
<path d="M284.634 56.6569H255.809V10.6582L284.634 19.8579V56.6569Z" fill="#2F2E41" style="fill:#2F2E41;fill:color(display-p3 0.1843 0.1804 0.2549);fill-opacity:1;"/>
<path d="M289.752 290.206L283.803 290.346L280.487 263.621L289.266 263.413L289.752 290.206Z" fill="#A0616A" style="fill:#A0616A;fill:color(display-p3 0.6275 0.3804 0.4157);fill-opacity:1;"/>
<path d="M269.344 302.616C269.344 303.621 270.057 304.436 270.937 304.436H282.744C282.744 304.436 283.906 299.765 288.644 297.755L288.971 304.436H295.062L294.324 293.693C294.324 293.693 295.953 287.946 292.569 285.008C289.185 282.07 291.926 282.479 291.926 282.479L290.595 275.83L281.391 276.912L281.323 287.35L276.856 297.71L270.304 300.946C269.721 301.234 269.344 301.89 269.344 302.616Z" fill="#2F2E41" style="fill:#2F2E41;fill:color(display-p3 0.1843 0.1804 0.2549);fill-opacity:1;"/>
<path d="M259.264 290.206L253.315 290.346L249.999 263.621L258.778 263.413L259.264 290.206Z" fill="#A0616A" style="fill:#A0616A;fill:color(display-p3 0.6275 0.3804 0.4157);fill-opacity:1;"/>
<path d="M238.855 302.616C238.855 303.621 239.569 304.436 240.448 304.436H252.256C252.256 304.436 253.418 299.765 258.156 297.755L258.482 304.436H264.574L263.836 293.693C263.836 293.693 265.465 287.946 262.081 285.008C258.697 282.07 261.438 282.479 261.438 282.479L260.107 275.83L250.902 276.912L250.835 287.35L246.368 297.71L239.816 300.946C239.233 301.234 238.855 301.89 238.855 302.616Z" fill="#2F2E41" style="fill:#2F2E41;fill:color(display-p3 0.1843 0.1804 0.2549);fill-opacity:1;"/>
<path d="M286.474 106.948L248.449 129.641L239.862 164.6L244.156 272.544H262.985L267.155 168.587L275.502 272.544H294.626L299.463 155.804C300.795 147.32 299.744 138.633 296.426 130.711L286.474 106.948Z" fill="#2F2E41" style="fill:#2F2E41;fill:color(display-p3 0.1843 0.1804 0.2549);fill-opacity:1;"/>
<path d="M277.888 37.6446L261.942 36.418L257.648 45.0044L245.382 48.071L242.315 86.0966C248.382 101.858 252.19 116.919 248.449 129.642L295.061 127.189L287.278 106.145C287.278 106.145 287.087 98.3629 291.381 87.9365C295.674 77.5102 288.927 50.5242 288.927 50.5242L279.114 48.071L277.888 37.6446Z" fill="white" style="fill:white;fill:white;fill-opacity:1;"/>
<path d="M170.518 52.4351C172.071 52.4833 173.506 52.1767 174.634 51.6275L189.397 53.0201L189.854 45.9761L174.83 45.3218C173.737 44.7037 172.324 44.3089 170.771 44.2608C167.224 44.1509 164.292 45.8917 164.222 48.149C164.152 50.4062 166.971 52.3252 170.518 52.4351Z" fill="#A0616A" style="fill:#A0616A;fill:color(display-p3 0.6275 0.3804 0.4157);fill-opacity:1;"/>
<path d="M257.846 73.94C257.846 73.94 257.325 51.4998 252.403 48.1316C250.373 46.7426 219.163 46.427 218.026 46.3092C211.014 45.5825 206.025 42.7987 200.121 42.4935C185.734 41.75 178.46 45.2414 178.46 45.2414L178.206 52.4459L257.846 73.94Z" fill="white" style="fill:white;fill:white;fill-opacity:1;"/>
<path d="M268.557 35.8349C275.589 35.8349 281.29 30.1342 281.29 23.102C281.29 16.0699 275.589 10.3691 268.557 10.3691C261.525 10.3691 255.824 16.0699 255.824 23.102C255.824 30.1342 261.525 35.8349 268.557 35.8349Z" fill="#A0616A" style="fill:#A0616A;fill:color(display-p3 0.6275 0.3804 0.4157);fill-opacity:1;"/>
<path d="M264.695 4.14232C261.956 5.86873 259.951 4.63272 257.994 5.50341C254.172 7.20457 247.72 19.153 248.301 24.1553C249.126 31.2399 251.73 31.5316 251.652 36.6145C251.527 44.7764 250.879 44.7425 252.55 47.5924C254.409 50.7622 264.939 49.9015 266.894 45.6031C267.279 44.7551 262.996 45.0886 258.262 33.9634C255.887 28.3807 257.446 23.2936 258.262 21.0837C258.453 20.5664 258.541 16.8933 258.948 17.3009C262.523 20.8752 264.526 18.2624 266.684 17.9626C271.114 17.3472 274.449 20.9207 275.793 19.6378C276.793 18.6831 275.518 16.1591 276.003 15.9733C276.52 15.7753 278.232 18.5442 279.353 21.5224C280.076 23.4429 280.437 24.4032 280.4 25.5009C280.285 28.891 279.42 38.5029 277.888 41.3232C274.581 47.4136 278.746 49.7116 281.342 49.2676C283.44 48.9089 292.714 50.3212 293.221 49.2963C293.674 48.3832 292.641 38.9911 291.555 30.2596C290.251 19.7648 285.022 10.1207 276.824 3.43985C276.344 3.04807 275.985 2.77926 275.793 2.67655C275.339 2.43327 270.657 0.00229383 267.208 1.94366C265.938 2.65835 266.145 3.22851 264.695 4.14232Z" fill="#2F2E41" style="fill:#2F2E41;fill:color(display-p3 0.1843 0.1804 0.2549);fill-opacity:1;"/>
<path d="M105.641 300.148L98.5765 300.147L95.2158 272.897L105.643 272.898L105.641 300.148Z" fill="#FFB6B6" style="fill:#FFB6B6;fill:color(display-p3 1.0000 0.7137 0.7137);fill-opacity:1;"/>
<path d="M81.4356 299.988C81.2157 300.359 81.0996 301.554 81.0996 301.985C81.0996 303.309 82.1731 304.383 83.4974 304.383H105.376C106.279 304.383 107.012 303.651 107.012 302.747V301.836C107.012 301.836 108.094 299.099 105.866 295.724C105.866 295.724 103.096 298.367 98.9579 294.228L97.7375 292.018L88.904 298.478L84.0077 299.081C82.9365 299.213 81.9867 299.06 81.4356 299.988Z" fill="#2F2E41" style="fill:#2F2E41;fill:color(display-p3 0.1843 0.1804 0.2549);fill-opacity:1;"/>
<path d="M135.425 300.148L128.361 300.147L125 272.897L135.427 272.898L135.425 300.148Z" fill="#FFB6B6" style="fill:#FFB6B6;fill:color(display-p3 1.0000 0.7137 0.7137);fill-opacity:1;"/>
<path d="M111.22 299.988C111 300.359 110.884 301.554 110.884 301.985C110.884 303.309 111.957 304.383 113.282 304.383H135.16C136.063 304.383 136.796 303.651 136.796 302.747V301.836C136.796 301.836 137.878 299.099 135.65 295.724C135.65 295.724 132.88 298.367 128.742 294.228L127.522 292.018L118.688 298.478L113.792 299.081C112.721 299.213 111.771 299.06 111.22 299.988Z" fill="#2F2E41" style="fill:#2F2E41;fill:color(display-p3 0.1843 0.1804 0.2549);fill-opacity:1;"/>
<path d="M136.826 128.105L84.9991 127.51L79.6377 161.466L92.7434 278.821H109.925L113.891 169.508L121.04 280.906H138.632L146.656 154.019L136.826 128.105Z" fill="#2F2E41" style="fill:#2F2E41;fill:color(display-p3 0.1843 0.1804 0.2549);fill-opacity:1;"/>
<path d="M356.546 295.464C357.776 295.542 358.457 294.013 357.525 293.121L357.433 292.753C357.445 292.724 357.457 292.694 357.47 292.665C358.714 289.697 362.932 289.717 364.166 292.69C365.262 295.327 366.656 297.97 366.999 300.759C367.153 301.99 367.084 303.245 366.811 304.453C369.377 298.847 370.728 292.725 370.728 286.569C370.728 285.022 370.643 283.475 370.47 281.933C370.328 280.671 370.131 279.416 369.877 278.173C368.504 271.455 365.53 265.057 361.24 259.712C359.177 258.585 357.457 256.823 356.418 254.71C356.045 253.949 355.753 253.129 355.614 252.294C355.849 252.325 356.499 248.75 356.322 248.531C356.649 248.035 357.235 247.788 357.592 247.304C359.369 244.895 361.816 245.316 363.094 248.589C365.824 249.967 365.85 252.251 364.175 254.449C363.11 255.847 362.963 257.739 362.028 259.235C362.125 259.358 362.225 259.478 362.321 259.601C364.085 261.863 365.61 264.295 366.896 266.85C366.533 264.011 367.07 260.59 367.984 258.385C369.026 255.873 370.978 253.757 372.697 251.585C374.762 248.976 378.996 250.115 379.359 253.422C379.363 253.454 379.366 253.486 379.37 253.518C379.114 253.662 378.864 253.815 378.62 253.976C377.226 254.898 377.708 257.058 379.359 257.313L379.397 257.319C379.304 258.239 379.146 259.151 378.916 260.047C381.121 268.575 376.36 271.681 369.562 271.821C369.412 271.898 369.266 271.975 369.116 272.048C369.804 273.987 370.355 275.976 370.762 277.993C371.128 279.774 371.382 281.575 371.524 283.383C371.701 285.665 371.686 287.958 371.494 290.236L371.505 290.155C371.994 287.646 373.356 285.303 375.333 283.679C378.28 281.259 382.442 280.368 385.62 278.423C387.15 277.486 389.111 278.696 388.844 280.47L388.831 280.555C388.358 280.747 387.896 280.971 387.45 281.221C387.194 281.365 386.944 281.518 386.7 281.679C385.306 282.601 385.788 284.762 387.439 285.016L387.477 285.022C387.504 285.026 387.527 285.03 387.554 285.034C386.742 286.961 385.61 288.751 384.195 290.294C382.816 297.738 376.893 298.445 370.559 296.277H370.555C369.862 299.293 368.85 302.24 367.55 305.049H356.815C356.776 304.93 356.742 304.807 356.707 304.688C357.7 304.749 358.7 304.691 359.677 304.511C358.881 303.533 358.084 302.548 357.288 301.571C357.269 301.552 357.253 301.532 357.238 301.513C356.834 301.013 356.426 300.517 356.022 300.017L356.022 300.016C355.997 298.48 356.181 296.95 356.546 295.464Z" fill="#F2F2F2" style="fill:#F2F2F2;fill:color(display-p3 0.9490 0.9490 0.9490);fill-opacity:1;"/>
<path d="M20.6443 298.371C21.4955 298.424 21.9659 297.367 21.3219 296.751L21.2578 296.496C21.2662 296.475 21.2747 296.455 21.2833 296.435C22.1441 294.382 25.0615 294.396 25.9149 296.452C26.6725 298.276 27.6369 300.104 27.8744 302.033C27.9809 302.884 27.933 303.752 27.744 304.588C29.519 300.71 30.4531 296.477 30.4531 292.219C30.4531 291.149 30.3945 290.079 30.2748 289.012C30.1763 288.139 30.0406 287.272 29.865 286.412C28.915 281.766 26.8579 277.341 23.8906 273.644C22.4642 272.865 21.2747 271.646 20.5562 270.185C20.2981 269.658 20.0958 269.091 20 268.514C20.1623 268.535 20.6121 266.063 20.4897 265.911C20.7159 265.568 21.1208 265.397 21.3679 265.062C22.5966 263.397 24.2896 263.687 25.1734 265.951C27.0613 266.904 27.0796 268.484 25.9211 270.004C25.1841 270.971 25.0829 272.279 24.4362 273.314C24.5027 273.4 24.5719 273.482 24.6385 273.567C25.8585 275.132 26.9137 276.814 27.8032 278.581C27.5518 276.617 27.923 274.251 28.5557 272.726C29.276 270.989 30.6261 269.525 31.815 268.023C33.243 266.219 36.1714 267.006 36.423 269.294C36.4255 269.316 36.4278 269.338 36.4302 269.36C36.2536 269.46 36.0806 269.566 35.9116 269.677C34.9477 270.315 35.2808 271.809 36.4229 271.985L36.4488 271.989C36.3849 272.625 36.2758 273.256 36.1161 273.876C37.6414 279.774 34.3485 281.922 29.6468 282.019C29.543 282.072 29.4419 282.125 29.3381 282.176C29.8145 283.517 30.1951 284.893 30.4771 286.287C30.7299 287.519 30.9056 288.765 31.004 290.015C31.1265 291.593 31.1158 293.179 30.9827 294.755L30.9907 294.699C31.3287 292.964 32.2707 291.343 33.6386 290.22C35.6763 288.547 38.5551 287.93 40.7535 286.585C41.8117 285.937 43.1677 286.774 42.983 288.001L42.974 288.06C42.6467 288.193 42.3274 288.347 42.0186 288.52C41.8421 288.62 41.6691 288.725 41.5 288.837C40.5361 289.475 40.8693 290.969 42.0114 291.145L42.0373 291.149C42.0559 291.152 42.0719 291.154 42.0905 291.157C41.529 292.49 40.7466 293.728 39.7673 294.795C38.8136 299.944 34.7175 300.432 30.3361 298.933H30.3334C29.8544 301.019 29.1545 303.057 28.255 305H20.8303C20.8037 304.918 20.7798 304.832 20.7558 304.75C21.4424 304.792 22.1343 304.753 22.8102 304.627C22.2593 303.952 21.7085 303.27 21.1576 302.594C21.1443 302.581 21.1337 302.568 21.123 302.554C20.8436 302.209 20.5615 301.865 20.2821 301.519L20.2819 301.519C20.2644 300.457 20.392 299.398 20.6443 298.371Z" fill="#F2F2F2" style="fill:#F2F2F2;fill:color(display-p3 0.9490 0.9490 0.9490);fill-opacity:1;"/>
<path d="M0.711914 305.293C0.711914 305.686 1.02766 306.002 1.42085 306.002H393.574C393.967 306.002 394.283 305.686 394.283 305.293C394.283 304.9 393.967 304.584 393.574 304.584H1.42085C1.02766 304.584 0.711914 304.9 0.711914 305.293Z" fill="#CCCCCC" style="fill:#CCCCCC;fill:color(display-p3 0.8000 0.8000 0.8000);fill-opacity:1;"/>
<path d="M119.253 39.0449H100.807L97.2113 46.1935L79.6377 54.2638L85.8927 100.404L81.127 130.785H140.659L135.337 95.6379L142.486 53.3421L122.827 45.5978L119.253 39.0449Z" fill="#E6E6E6" style="fill:#E6E6E6;fill:color(display-p3 0.9020 0.9020 0.9020);fill-opacity:1;"/>
<path d="M180.998 150.851C180.194 149.209 179.827 147.522 179.868 146.046L171.217 130.894L178.547 126.988L186.534 142.779C187.726 143.65 188.835 144.974 189.639 146.615C191.477 150.365 191.033 154.353 188.647 155.522C186.26 156.692 182.836 154.6 180.998 150.851Z" fill="#FFB6B6" style="fill:#FFB6B6;fill:color(display-p3 1.0000 0.7137 0.7137);fill-opacity:1;"/>
<path d="M123.973 51.3079C123.973 51.3079 129.809 45.3029 136.356 49.4817C142.904 53.6606 166.787 96.4233 166.787 96.4233L185.211 133.186L172.207 139.245L156.517 104.041L123.568 68.5834L123.973 51.3079Z" fill="#E6E6E6" style="fill:#E6E6E6;fill:color(display-p3 0.9020 0.9020 0.9020);fill-opacity:1;"/>
<path d="M109.247 35.5611C118.446 35.5611 125.904 28.1037 125.904 18.9046C125.904 9.70543 118.446 2.24805 109.247 2.24805C100.048 2.24805 92.5908 9.70543 92.5908 18.9046C92.5908 28.1037 100.048 35.5611 109.247 35.5611Z" fill="#FFB6B6" style="fill:#FFB6B6;fill:color(display-p3 1.0000 0.7137 0.7137);fill-opacity:1;"/>
<path d="M104.023 32.3088C104.1 33.9407 104.138 34.7566 103.888 34.8552C103.133 35.1521 93.4152 29.413 92.2709 25.5926C91.7372 23.8108 92.1879 23.7752 91.7983 18.706C91.4257 13.8576 91.008 13.819 91.5019 12.6195C92.0507 11.2863 93.727 9.64366 97.0794 6.35842C98.3469 5.11626 98.9807 4.49517 99.3808 4.17405C100.593 3.2008 105.111 -0.424917 109.253 0.0435112C110.989 0.239865 110.693 0.933087 117.179 4.45057C117.738 4.75354 118.487 5.15348 119.521 5.61267C122.038 6.72947 123.599 7.019 124.421 7.33044C129.402 9.21793 127.94 19.7322 127.512 19.7924C127.356 19.8144 127.314 18.451 126.496 18.3383C125.76 18.2368 125.292 19.2721 124.623 19.3098C122.797 19.4127 124.825 17.6646 120.356 15.7231C118.618 14.9684 123.453 18.3714 118.851 18.3162C111.654 18.2298 116.257 18.6879 113.524 20.1236C111.53 21.1706 103.512 15.4085 103.838 17.2497C104.068 18.5484 105.01 18.9223 104.874 20.3771C104.742 21.7866 103.683 23.3058 102.749 23.3616C101.887 23.4131 101.415 22.2045 101.128 22.3202C100.816 22.446 101.159 23.9625 101.833 25.5206C102.688 27.4986 103.199 27.5141 103.65 29.0354C103.909 29.9104 103.947 30.7099 104.023 32.3088Z" fill="#2F2E41" style="fill:#2F2E41;fill:color(display-p3 0.1843 0.1804 0.2549);fill-opacity:1;"/>
<path d="M235.301 145.96L127.978 118.655C121.118 116.909 116.956 109.907 118.702 103.047L132.053 50.5698C133.799 43.7093 140.8 39.5479 147.661 41.2934L254.983 68.5991C261.844 70.3446 266.005 77.3463 264.26 84.2067L250.908 136.684C249.163 143.544 242.161 147.706 235.301 145.96Z" fill="white" style="fill:white;fill:white;fill-opacity:1;"/>
<path d="M235.303 145.958L127.98 118.652C124.55 117.779 121.794 115.592 119.826 112.693C116.962 108.474 116.215 103.163 117.472 98.2211L128.668 54.2153C129.925 49.2737 133.12 44.9653 137.652 42.6282C140.767 41.0219 144.232 40.4179 147.663 41.2907L254.985 68.5965C261.857 70.3448 266.01 77.3325 264.262 84.2041L250.91 136.681C249.165 143.542 242.163 147.703 235.303 145.958ZM147.369 42.4453C141.135 40.8593 142.764 46.505 141.178 52.7389C133.44 83.1529 149.445 114.596 178.594 126.225C194.329 132.502 207.417 137.633 207.417 137.633C229.214 143.179 251.379 130.005 256.925 108.208L263.107 83.9103C264.693 77.6765 260.925 71.3372 254.692 69.7511L147.369 42.4453Z" fill="#3F3D56" style="fill:#3F3D56;fill:color(display-p3 0.2471 0.2392 0.3373);fill-opacity:1;"/>
<path d="M197.584 83.7995C196.836 77.6515 191.246 73.2738 185.098 74.0217C179.008 74.7625 174.659 80.2545 175.303 86.3333L175.125 86.355L177.833 108.619L198.32 106.127C198.968 106.162 199.626 106.144 200.292 106.063C206.44 105.316 210.818 99.7253 210.07 93.5773C209.322 87.4293 203.732 83.0516 197.584 83.7995Z" fill="#374EA9" style="fill:#374EA9;fill:color(display-p3 0.2157 0.3059 0.6627);fill-opacity:1;"/>
<path d="M158.316 294.12C157.448 291.884 154.932 290.775 152.696 291.643C150.482 292.502 149.374 294.979 150.196 297.199L150.131 297.224L153.273 305.32L160.724 302.429C160.97 302.38 161.216 302.311 161.458 302.217C163.694 301.349 164.803 298.833 163.935 296.597C163.067 294.362 160.552 293.253 158.316 294.12Z" fill="#E6E6E6" style="fill:#E6E6E6;fill:color(display-p3 0.9020 0.9020 0.9020);fill-opacity:1;"/>
<path d="M325.115 294.12C324.247 291.884 321.731 290.775 319.495 291.643C317.281 292.502 316.173 294.979 316.995 297.199L316.93 297.224L320.072 305.32L327.523 302.429C327.769 302.38 328.015 302.311 328.257 302.217C330.493 301.349 331.602 298.833 330.734 296.597C329.866 294.362 327.35 293.253 325.115 294.12Z" fill="#E6E6E6" style="fill:#E6E6E6;fill:color(display-p3 0.9020 0.9020 0.9020);fill-opacity:1;"/>
<path d="M123.794 75.6895C122.26 76.6833 120.629 77.2483 119.158 77.3825L105.142 87.7737L100.393 80.9595L115.122 71.1524C115.846 69.865 117.028 68.607 118.562 67.6132C122.067 65.3426 126.079 65.31 127.524 67.5402C128.969 69.7704 127.299 73.4189 123.794 75.6895Z" fill="#FFB6B6" style="fill:#FFB6B6;fill:color(display-p3 1.0000 0.7137 0.7137);fill-opacity:1;"/>
<path d="M90.9652 51.4407C90.9652 51.4407 80.2423 50.2493 78.4552 54.4193C76.668 58.5893 73.0938 100.289 73.0938 100.289L79.0509 110.417L118.117 80.8499L110.206 72.9386L93.463 80.8499L90.9652 51.4407Z" fill="#E6E6E6" style="fill:#E6E6E6;fill:color(display-p3 0.9020 0.9020 0.9020);fill-opacity:1;"/>
<path d="M246.277 64.9163C247.551 66.2269 249.016 67.141 250.42 67.5993L261.77 80.8509L267.917 75.2657L255.742 62.4246C255.323 61.0084 254.451 59.5187 253.177 58.2081C250.266 55.2141 246.361 54.2887 244.456 56.1411C242.551 57.9936 243.366 61.9223 246.277 64.9163Z" fill="#A0616A" style="fill:#A0616A;fill:color(display-p3 0.6275 0.3804 0.4157);fill-opacity:1;"/>
<path d="M283.681 48.5869C283.681 48.5869 294.4 49.8134 295.213 54.2767C296.027 58.74 290.225 100.189 290.225 100.189L282.162 108.735L250.661 71.2107L260.136 65.2599L274.696 76.7012L283.681 48.5869Z" fill="white" style="fill:white;fill:white;fill-opacity:1;"/>
</g>
<defs>
<clipPath id="clip0_22549_63464">
<rect width="393.571" height="306" fill="white" style="fill:white;fill:white;fill-opacity:1;" transform="translate(0.714844)"/>
</clipPath>
</defs>
</svg>
