<svg width="395" height="306" viewBox="0 0 395 306" fill="none" xmlns="http://www.w3.org/2000/svg">
<circle cx="196.324" cy="153.001" r="153" fill="#6575B1" style="fill:#6575B1;fill:color(display-p3 0.3961 0.4588 0.6941);fill-opacity:1;"/>
<path d="M285.445 58.0136C271.513 58.0136 260.22 46.7245 260.22 32.7988C260.22 18.873 271.513 7.58398 285.445 7.58398C299.376 7.58398 310.67 18.873 310.67 32.7988C310.67 46.7245 299.376 58.0136 285.445 58.0136Z" fill="#8E8E8E" style="fill:#8E8E8E;fill:color(display-p3 0.5583 0.5583 0.5583);fill-opacity:1;"/>
<path d="M190.257 30.0041C198.365 21.5365 207.781 13.8117 218.928 9.72968C222.033 8.58778 225.253 7.78228 228.531 7.32711C228.558 7.32352 228.583 7.32883 228.609 7.32671C228.662 7.31303 228.716 7.30246 228.771 7.29506C233.356 6.71351 238.01 6.99325 242.492 8.11976C244.684 8.6673 246.822 9.40882 248.881 10.3355C250.947 11.339 252.949 12.4686 254.876 13.7178C258.953 16.1478 263.443 17.8152 268.123 18.6378C270.472 19.0589 272.851 19.2914 275.238 19.333C277.308 19.3744 279.261 19.446 281.223 20.1908C283.319 20.9754 285.201 22.2368 286.72 23.8743C288.239 25.5119 289.353 27.4803 289.972 29.6224C290.02 29.8132 290.006 30.0141 289.931 30.1962C289.857 30.3783 289.726 30.5321 289.558 30.6355C289.028 31.0139 288.51 31.4432 287.953 31.7804C287.457 32.0064 286.927 32.1502 286.384 32.2062C285.498 32.3925 284.61 32.5733 283.721 32.7486C280.447 33.3945 277.159 33.9662 273.858 34.4638C267.177 35.4706 260.461 36.1798 253.709 36.5914C240.181 37.4071 226.608 37.001 213.154 35.3779C205.593 34.4662 198.084 33.1731 190.654 31.5035C190.504 31.4597 190.367 31.378 190.258 31.2663C190.149 31.1545 190.07 31.0165 190.03 30.8656C189.99 30.7148 189.99 30.5562 190.03 30.4052C190.069 30.2543 190.148 30.1161 190.257 30.0041Z" fill="white" style="fill:white;fill:white;fill-opacity:1;"/>
<path d="M284.247 48.3455C286.804 47.4015 289.455 46.7356 292.154 46.3593C292.176 46.3563 292.196 46.3607 292.218 46.359C292.262 46.3477 292.306 46.3389 292.351 46.3328C296.127 45.852 299.959 46.0833 303.649 47.0146C305.453 47.4672 307.214 48.0802 308.909 48.8463C310.61 49.6759 312.259 50.6098 313.845 51.6425C317.202 53.6514 320.899 55.0298 324.752 55.7099C326.687 56.0579 328.646 56.2501 330.611 56.2846C332.316 56.3188 333.923 56.378 335.539 56.9937C337.264 57.6423 338.814 58.6851 340.065 60.0389C341.316 61.3926 342.233 63.0199 342.743 64.7908C342.782 64.9485 342.77 65.1146 342.709 65.2651C342.648 65.4156 342.54 65.5428 342.402 65.6283C341.965 65.9411 341.539 66.296 341.08 66.5747C340.671 66.7616 340.235 66.8805 339.788 66.9268C339.059 67.0808 338.328 67.2302 337.596 67.3752C334.9 67.9091 332.193 68.3818 329.475 68.7931C323.974 69.6254 318.444 70.2117 312.884 70.552C301.746 71.2264 290.57 70.8906 279.493 69.5488C273.267 68.7951 267.084 67.7261 260.967 66.3459C260.843 66.3097 260.731 66.2421 260.641 66.1497C260.551 66.0573 260.486 65.9432 260.453 65.8185C260.42 65.6938 260.42 65.5627 260.453 65.4379C260.485 65.3132 260.55 65.1989 260.64 65.1064C267.315 58.1062 275.069 51.7201 284.247 48.3455Z" fill="white" style="fill:white;fill:white;fill-opacity:1;"/>
<g clip-path="url(#clip0_22549_63379)">
<path d="M115.93 296.686C115.677 296.697 115.427 296.631 115.213 296.495C114.999 296.359 114.832 296.161 114.734 295.927C114.637 295.693 114.613 295.435 114.667 295.187C114.721 294.94 114.849 294.715 115.035 294.542L115.12 294.206C115.109 294.179 115.098 294.152 115.086 294.125C114.832 293.522 114.405 293.008 113.86 292.648C113.314 292.287 112.675 292.096 112.021 292.099C111.368 292.101 110.73 292.297 110.188 292.662C109.645 293.026 109.222 293.543 108.972 294.148C107.972 296.56 106.698 298.977 106.385 301.528C106.247 302.656 106.305 303.799 106.557 304.906C104.208 299.774 102.989 294.196 102.981 288.55C102.98 287.133 103.059 285.717 103.216 284.309C103.346 283.155 103.526 282.009 103.757 280.871C105.016 274.697 107.719 268.911 111.644 263.986C113.544 262.948 115.08 261.351 116.046 259.412C116.396 258.714 116.643 257.97 116.78 257.202C116.566 257.23 115.972 253.961 116.134 253.76C115.835 253.306 115.301 253.08 114.975 252.637C113.353 250.434 111.118 250.819 109.951 253.813C107.458 255.073 107.434 257.163 108.964 259.172C109.937 260.451 110.07 262.181 110.924 263.55C110.836 263.663 110.745 263.772 110.657 263.884C109.051 265.952 107.652 268.173 106.479 270.514C106.764 267.891 106.424 265.238 105.486 262.772C104.535 260.475 102.752 258.539 101.183 256.553C99.2976 254.167 95.4317 255.208 95.0996 258.233C95.0964 258.262 95.0932 258.291 95.0902 258.321C95.3233 258.452 95.5515 258.592 95.7748 258.74C96.0553 258.928 96.2726 259.196 96.3984 259.51C96.5241 259.823 96.5523 260.168 96.4793 260.498C96.4064 260.827 96.2356 261.128 95.9894 261.359C95.7433 261.59 95.4332 261.741 95.0997 261.792L95.0656 261.798C95.1487 262.639 95.2955 263.473 95.5047 264.293C93.4912 272.093 97.8382 274.933 104.045 275.061C104.182 275.131 104.316 275.202 104.453 275.269C103.274 278.614 102.535 282.099 102.254 285.636C102.094 287.722 102.104 289.818 102.282 291.903L102.271 291.829C101.821 289.511 100.587 287.419 98.7755 285.907C96.0854 283.693 92.2849 282.878 89.3828 281.099C89.0744 280.901 88.7158 280.795 88.3492 280.794C87.9827 280.793 87.6236 280.897 87.3142 281.094C87.0048 281.291 86.7581 281.572 86.6031 281.905C86.4481 282.238 86.3914 282.608 86.4395 282.972C86.4434 282.998 86.4473 283.023 86.4514 283.049C86.884 283.226 87.3052 283.429 87.7126 283.658C87.9457 283.79 88.1739 283.93 88.3972 284.078C88.6777 284.265 88.895 284.534 89.0207 284.847C89.1465 285.161 89.1747 285.505 89.1017 285.835C89.0287 286.165 88.858 286.465 88.6118 286.696C88.3657 286.927 88.0555 287.078 87.7221 287.13L87.688 287.135C87.6634 287.138 87.6423 287.142 87.6177 287.145C88.3569 288.913 89.3944 290.541 90.6847 291.956C91.9437 298.765 97.3511 299.411 103.135 297.428H103.139C103.773 300.191 104.693 302.88 105.883 305.452H115.684C115.719 305.343 115.751 305.23 115.783 305.121C114.875 305.178 113.965 305.124 113.071 304.959C113.798 304.065 114.525 303.164 115.252 302.27C115.268 302.254 115.284 302.236 115.298 302.218C115.667 301.76 116.039 301.306 116.408 300.849L116.408 300.848C116.428 299.446 116.267 298.047 115.93 296.686Z" fill="#F2F2F2" style="fill:#F2F2F2;fill:color(display-p3 0.9490 0.9490 0.9490);fill-opacity:1;"/>
<path d="M40.5371 281.834L43.2416 284.697L55.7992 275.378L51.8078 271.152L40.5371 281.834Z" fill="#C78F8F" style="fill:#C78F8F;fill:color(display-p3 0.7804 0.5608 0.5608);fill-opacity:1;"/>
<path d="M44.9715 283.419L41.9098 280.538L41.1579 279.832L33.3633 286.074L35.3909 288.221L37.7776 286.688L36.6811 289.587L42.057 295.279C42.3146 295.552 42.6525 295.735 43.0215 295.802C43.3904 295.869 43.7711 295.816 44.108 295.651C44.4448 295.486 44.7202 295.217 44.8939 294.884C45.0676 294.552 45.1305 294.172 45.0734 293.801L43.9132 286.282L45.9577 284.345L44.9715 283.419Z" fill="#2F2E41" style="fill:#2F2E41;fill:color(display-p3 0.1843 0.1804 0.2549);fill-opacity:1;"/>
<path d="M99.9745 177.587L99.117 186.964C99.117 186.964 97.6203 194.028 98.6567 193.456C99.693 192.883 97.8349 195.46 98.3243 197.695C98.8136 199.93 94.1442 216.595 96.2591 214.869C98.374 213.142 95.0369 225.069 92.9263 230.953C92.2801 232.772 91.616 234.613 90.9477 236.441C90.8159 236.811 90.6839 237.176 90.5478 237.546C89.6815 239.924 88.8152 242.267 87.9844 244.478C87.8657 244.787 87.7513 245.095 87.6371 245.399C87.6325 245.407 87.6326 245.416 87.6283 245.416C84.8934 252.626 82.5499 258.299 81.6134 259.237C81.1254 259.726 73.3827 265.328 65.5784 270.939C57.3872 276.827 49.1299 282.729 49.1299 282.729L41.418 274.625C41.418 274.625 41.6026 274.572 41.95 274.467C42.5919 274.282 43.7791 273.934 45.3356 273.471C51.8251 271.555 43.5812 268.574 49.473 266.442C51.1349 265.843 52.2429 265.376 52.4935 265.13C53.9576 263.698 55.9231 260.285 56.8507 261.716C57.7784 263.148 61.9863 252.512 63.1997 251.459C63.8504 250.891 65.9741 248.235 67.7944 245.901C69.3595 243.893 70.7049 242.118 70.7049 242.118C70.7049 242.118 70.7313 241.166 70.7708 239.651C70.8282 237.41 70.9117 233.926 70.9997 230.438C70.9952 230.433 70.9952 230.433 70.9997 230.433C71.0304 229.121 71.0611 227.808 71.092 226.562C71.1139 225.597 71.1358 224.668 71.1579 223.809C71.215 221.237 71.2545 219.291 71.2545 218.806C71.2545 217.216 71.2545 218.454 72.5077 217.494C72.6948 217.346 72.8725 217.188 73.0397 217.018C73.3076 216.776 73.5547 216.513 73.7784 216.23C73.8708 216.032 73.2947 216.3 72.5472 216.151C72.1424 216.069 71.768 215.877 71.4656 215.595C69.8915 214.177 71.5888 209.817 71.5888 209.817C68.0098 202.647 68.2693 196.767 69.9443 192.236C71.1969 188.983 73.185 186.066 75.7525 183.714C76.7296 182.781 77.7943 181.944 78.9315 181.216L79.0415 180.622L80.2506 174.064C80.8936 173.71 81.5623 173.405 82.251 173.152C84.3986 172.38 86.703 172.15 88.9604 172.483C91.204 172.808 93.3761 173.512 95.3843 174.566C97.0257 175.392 98.5661 176.406 99.9745 177.587Z" fill="#2F2E41" style="fill:#2F2E41;fill:color(display-p3 0.1843 0.1804 0.2549);fill-opacity:1;"/>
<path d="M66.2061 296.443L70.124 296.808L73.4256 281.506L67.6425 280.968L66.2061 296.443Z" fill="#C78F8F" style="fill:#C78F8F;fill:color(display-p3 0.7804 0.5608 0.5608);fill-opacity:1;"/>
<path d="M77.4905 302.44L71.6691 297.556L71.9329 294.746L70.5789 294.702L66.3844 294.566H66.3799L65.3511 294.53L63.6055 304.369L66.5469 304.642L67.3251 301.912L68.4112 304.819L69.9677 304.964L76.1979 305.545C76.2507 305.55 76.3078 305.554 76.3606 305.554C76.6083 305.554 76.8532 305.502 77.0791 305.4C77.305 305.298 77.5067 305.15 77.6709 304.964C77.9259 304.684 78.0819 304.328 78.1149 303.951C78.1406 303.667 78.0973 303.382 77.9885 303.119C77.8798 302.855 77.7089 302.623 77.4905 302.44Z" fill="#2F2E41" style="fill:#2F2E41;fill:color(display-p3 0.1843 0.1804 0.2549);fill-opacity:1;"/>
<path d="M87.9862 244.477C86.4956 252.603 80.1862 271.655 76.3699 282.807C74.6331 287.902 73.4196 291.351 73.4196 291.351L71.4411 290.726H71.4366L68.0907 289.668L66.8728 289.281H66.8683L65.391 288.81C65.391 288.81 65.5625 279.711 65.5801 270.937C65.5932 267.26 65.5756 263.635 65.5054 260.764C65.4262 257.632 65.2899 255.391 65.0657 254.946C64.1379 253.122 65.69 252.929 67.33 252.471C68.9743 252.008 67.6905 251.312 67.0529 249.833C66.6222 248.846 67.4707 247.529 68.0731 246.78C68.2393 246.57 68.4169 246.368 68.6051 246.177C68.6051 246.177 68.3148 246.076 67.7961 245.899C69.3612 243.891 70.7067 242.116 70.7067 242.116C70.7067 242.116 70.7331 241.165 70.7726 239.65C70.8299 237.408 70.9134 233.924 71.0014 230.436C70.9969 230.432 70.9969 230.432 71.0014 230.432C71.0321 229.119 71.0628 227.807 71.0938 226.561C73.6086 228.494 76.0532 230.388 78.2692 232.141C78.2719 232.143 78.2741 232.146 78.2757 232.149C78.2772 232.152 78.278 232.155 78.278 232.158C83.6025 236.373 87.5993 239.756 88.162 240.83C88.417 241.315 88.329 242.61 87.9862 244.477Z" fill="#2F2E41" style="fill:#2F2E41;fill:color(display-p3 0.1843 0.1804 0.2549);fill-opacity:1;"/>
<path d="M322.851 305.845H5.96116C5.84455 305.845 5.73272 305.798 5.65026 305.716C5.56781 305.633 5.52148 305.521 5.52148 305.404C5.52148 305.287 5.56781 305.175 5.65026 305.093C5.73272 305.01 5.84455 304.964 5.96116 304.964H322.851C322.968 304.964 323.079 305.01 323.162 305.093C323.244 305.175 323.291 305.287 323.291 305.404C323.291 305.521 323.244 305.633 323.162 305.716C323.079 305.798 322.968 305.845 322.851 305.845Z" fill="#E6E6E6" style="fill:#E6E6E6;fill:color(display-p3 0.9020 0.9020 0.9020);fill-opacity:1;"/>
<path d="M78.0312 161.735L78.8552 169.391L78.3707 179.429L100.568 176.788L102.653 161.735L99.9958 161.762L78.0312 161.735Z" fill="#FFB6B6" style="fill:#FFB6B6;fill:color(display-p3 1.0000 0.7137 0.7137);fill-opacity:1;"/>
<path d="M96.9119 137.011L88.558 130.405L84.1728 130.149L77.6659 134.325L76.0725 142.467L72.3043 151.636L77.8313 176.38C77.8313 176.38 78.3496 178.155 76.9912 178.368C75.6329 178.582 75.7957 181.199 75.7957 181.199C75.7957 181.199 76.0724 183.467 74.7533 183.667C73.4343 183.867 69.917 183.867 72.9948 187.831C76.0725 191.794 100.416 176.803 100.416 176.803L103.951 158.219C103.951 158.219 110.808 148.994 103.424 143.711L96.9119 137.011Z" fill="white" style="fill:white;fill:white;fill-opacity:1;"/>
<path d="M60.443 193.19C60.0749 192.73 59.812 192.194 59.6728 191.622C59.5336 191.049 59.5215 190.452 59.6373 189.874C59.7532 189.296 59.9941 188.75 60.3433 188.276C60.6924 187.801 61.1412 187.409 61.658 187.127L72.1659 151.803L78.7364 155.116L67.2931 188.974C67.7088 189.875 67.78 190.898 67.4933 191.848C67.2067 192.798 66.5819 193.61 65.7376 194.13C64.8932 194.649 63.8879 194.841 62.912 194.668C61.9362 194.494 61.0577 193.969 60.443 193.19Z" fill="#C78F8F" style="fill:#C78F8F;fill:color(display-p3 0.7804 0.5608 0.5608);fill-opacity:1;"/>
<path d="M79.1755 133.996C79.1755 133.996 77.2973 132.996 76.0125 137.323C74.984 140.787 66.6383 161.42 66.5318 166.436C65.845 166.582 65.2261 166.953 64.7727 167.49C64.3193 168.027 64.057 168.699 64.0273 169.402L74.3461 170.787C76.1492 169.264 76.6222 167.206 75.9246 166.596L78.165 160.466L87.5119 140.965L80.546 134.695L79.1755 133.996Z" fill="white" style="fill:white;fill:white;fill-opacity:1;"/>
<path d="M134.312 181.578C134.445 181.003 134.451 180.407 134.33 179.83C134.208 179.253 133.961 178.71 133.607 178.239C133.253 177.768 132.8 177.38 132.281 177.103C131.761 176.827 131.187 176.667 130.599 176.637L106.494 149.061L101.381 155.172L126.316 180.743C126.33 181.736 126.707 182.689 127.376 183.421C128.044 184.154 128.958 184.615 129.944 184.718C130.93 184.821 131.919 184.558 132.724 183.979C133.529 183.401 134.094 182.546 134.312 181.578Z" fill="#C78F8F" style="fill:#C78F8F;fill:color(display-p3 0.7804 0.5608 0.5608);fill-opacity:1;"/>
<path d="M91.8677 136.322C91.8677 136.322 93.1296 134.606 96.1559 137.951C98.5787 140.629 115.011 155.618 117.273 160.095C117.955 159.929 118.673 159.995 119.314 160.282C119.954 160.57 120.481 161.063 120.811 161.684L112.105 167.402C109.822 166.81 108.507 165.16 108.872 164.307L104.206 159.751L87.3594 146.216L90.9336 137.545L91.8677 136.322Z" fill="white" style="fill:white;fill:white;fill-opacity:1;"/>
<path d="M207.941 194.028C207.246 193.787 206.671 193.284 206.34 192.625C206.009 191.967 205.948 191.205 206.169 190.501C206.216 190.359 206.275 190.221 206.345 190.089L199.688 182.804L202.189 178.12L210.232 189.086C210.758 189.419 211.159 189.918 211.373 190.503C211.586 191.089 211.6 191.729 211.413 192.323C211.303 192.66 211.127 192.973 210.897 193.242C210.667 193.511 210.385 193.733 210.069 193.893C209.754 194.054 209.409 194.15 209.056 194.178C208.703 194.205 208.348 194.162 208.011 194.052C207.988 194.044 207.965 194.036 207.941 194.028Z" fill="#FFB6B6" style="fill:#FFB6B6;fill:color(display-p3 1.0000 0.7137 0.7137);fill-opacity:1;"/>
<path d="M165.261 138.7C165.041 139.728 165.017 140.789 165.192 141.827C165.238 142.12 165.301 142.411 165.382 142.696C165.68 143.765 165.963 144.75 166.236 145.638C166.397 146.19 166.562 146.71 166.72 147.193C167.631 150.01 168.343 151.606 168.847 151.941C169.092 152.106 169.337 152.256 169.575 152.403C170.796 153.151 171.68 153.693 171.088 155.073C171.003 155.271 170.9 155.46 170.783 155.641C170.587 155.944 170.371 156.233 170.135 156.507C170.001 156.661 169.877 156.825 169.764 156.996C169.617 157.214 169.553 157.398 169.632 157.565C169.732 157.77 170.01 157.872 170.605 157.9C170.699 157.905 170.808 157.91 170.924 157.91C170.962 157.912 171.001 157.911 171.044 157.911C171.121 157.912 171.207 157.913 171.296 157.91C172.031 157.896 172.981 158.283 173.996 158.876C176.994 160.625 180.527 164.145 180.57 164.189L202.628 186.782L203.058 186.494L204.079 185.807L204.432 185.571L204.835 185.299L206.589 184.123L207.476 183.53L201.786 173.066L201.167 171.929L200.636 170.947L189.774 150.966L185.46 144.097L184.497 142.566L180.394 136.04C179.815 135.116 179.06 134.316 178.172 133.685C177.283 133.054 176.28 132.604 175.219 132.361C174.157 132.119 173.058 132.088 171.985 132.271C170.911 132.453 169.884 132.846 168.962 133.426C168.9 133.466 168.838 133.506 168.777 133.546C166.982 134.742 165.721 136.59 165.261 138.7Z" fill="white" style="fill:white;fill:white;fill-opacity:1;"/>
<path d="M166.725 296.583L162.684 296.548L160.895 280.57L166.859 280.621L166.725 296.583Z" fill="#FFB6B6" style="fill:#FFB6B6;fill:color(display-p3 1.0000 0.7137 0.7137);fill-opacity:1;"/>
<path d="M167.796 294.717L166.741 294.646L162.437 294.351L161.052 294.259L161.025 297.152L154.571 301.539C154.252 301.756 154.011 302.069 153.883 302.433C153.754 302.797 153.745 303.193 153.857 303.562C153.969 303.931 154.196 304.255 154.505 304.486C154.814 304.717 155.188 304.844 155.573 304.846L163.606 304.913L165.013 302.059L165.528 304.93L168.561 304.956L167.796 294.717Z" fill="#2F2E41" style="fill:#2F2E41;fill:color(display-p3 0.1843 0.1804 0.2549);fill-opacity:1;"/>
<path d="M209.272 293.626L205.409 294.815L198.889 280.124L204.59 278.368L209.272 293.626Z" fill="#FFB6B6" style="fill:#FFB6B6;fill:color(display-p3 1.0000 0.7137 0.7137);fill-opacity:1;"/>
<path d="M209.734 291.523L208.705 291.775L204.515 292.792L203.165 293.122L204.014 295.893L199.182 302.023C198.943 302.326 198.807 302.698 198.794 303.083C198.781 303.469 198.891 303.849 199.109 304.167C199.326 304.486 199.639 304.727 200.003 304.854C200.366 304.982 200.761 304.99 201.13 304.877L208.811 302.512L209.29 299.363L210.648 301.944L213.546 301.05L209.734 291.523Z" fill="#2F2E41" style="fill:#2F2E41;fill:color(display-p3 0.1843 0.1804 0.2549);fill-opacity:1;"/>
<path d="M158.594 162.232L150.882 184.682L150.627 186.479C148.684 188.327 151.125 188.936 150.21 189.423C149.295 189.911 148.679 191.277 149.912 191.521C151.146 191.765 155.123 279.329 160.368 282.729C165.614 286.129 168.806 288.588 167.843 283.61C167.455 281.604 168.004 270.85 168.798 258.723C168.888 257.348 170.31 255.893 169.076 254.557C167.843 253.221 169.228 252.341 169.306 251.232C170.412 235.396 171.69 219.762 171.69 219.762C171.69 219.762 179.865 247.886 181.988 245.709C184.111 243.532 183.271 248.892 183.919 250.494C184.462 251.832 182.148 254.461 185.548 254.502C188.947 254.542 196.931 281.879 197.741 281.848C199.346 281.787 203.856 281.96 206.535 281.408C207.857 281.135 201.986 260.438 197.083 242.566C196.692 241.14 194.564 241.107 195.933 238.356C197.301 235.604 190.492 217.799 191.076 216.976C192.627 214.79 193.218 213.84 191.688 213.697C190.159 213.554 189.707 214.394 189.624 212.274C189.542 210.154 189.278 204.926 189.278 204.926C189.278 204.926 188.17 184.248 180.411 172.825L179.75 166.037L158.594 162.232Z" fill="#2F2E41" style="fill:#2F2E41;fill:color(display-p3 0.1843 0.1804 0.2549);fill-opacity:1;"/>
<path d="M177.861 119.368L167.634 120.827L167.017 128.245L161.97 136.153C161.97 136.153 150.752 144.06 158.576 156.552C155.599 167.313 152.639 177.633 149.816 184.513C147.618 198.166 167.313 199.475 189.827 194.643C189.827 194.643 189.517 188.805 187.474 185.999C185.43 183.192 186.543 182.579 186.543 182.579L185.115 177.336C185.923 169.757 183.195 169.077 181.913 165.575L185.805 129.243L177.861 119.368Z" fill="white" style="fill:white;fill:white;fill-opacity:1;"/>
<path d="M128.764 182.874C128.873 182.144 129.261 181.486 129.846 181.039C130.432 180.592 131.168 180.392 131.899 180.48C132.047 180.5 132.194 180.533 132.337 180.578L138.261 172.684L143.317 174.285L134.035 184.22C133.804 184.8 133.389 185.286 132.854 185.604C132.319 185.922 131.693 186.054 131.075 185.978C130.366 185.885 129.723 185.513 129.288 184.944C128.852 184.376 128.66 183.657 128.754 182.947C128.757 182.923 128.76 182.898 128.764 182.874Z" fill="#FFB6B6" style="fill:#FFB6B6;fill:color(display-p3 1.0000 0.7137 0.7137);fill-opacity:1;"/>
<path d="M181.386 133.725C181.241 133.544 181.082 133.368 180.915 133.196C179.754 131.997 178.258 131.178 176.624 130.844C174.99 130.511 173.293 130.68 171.757 131.329C171.607 131.39 171.458 131.461 171.313 131.531C166.058 134.117 163.223 135.839 162.88 136.645C162.761 136.918 162.66 137.186 162.559 137.446C162.462 137.702 162.37 137.944 162.273 138.164C161.868 139.107 161.402 139.692 160.215 139.428C159.821 139.332 159.442 139.185 159.085 138.992C158.923 138.913 158.773 138.829 158.632 138.75C158.122 138.468 157.753 138.266 157.502 138.45C157.261 138.631 157.252 139.089 157.472 140.15C157.544 140.593 157.532 141.046 157.436 141.485C157.146 142.764 156.69 144 156.082 145.162C155.171 146.984 154.146 148.746 153.013 150.439L142.553 165.378L141.845 166.386L141.072 167.492L134.898 176.309L135.263 176.683L136.793 178.247L137.132 178.595L137.44 178.912L138.236 179.727L138.983 180.488L155.66 166.879L157.52 165.36L160.853 162.638L167.681 157.067L180.603 145.088C181.419 144.337 182.075 143.43 182.532 142.42C182.989 141.409 183.238 140.317 183.263 139.208C183.263 139.133 183.268 139.062 183.268 138.988C183.272 137.067 182.607 135.205 181.386 133.725Z" fill="white" style="fill:white;fill:white;fill-opacity:1;"/>
<path d="M171.723 119.1C178.035 119.1 183.151 113.975 183.151 107.652C183.151 101.33 178.035 96.2051 171.723 96.2051C165.411 96.2051 160.295 101.33 160.295 107.652C160.295 113.975 165.411 119.1 171.723 119.1Z" fill="#FFB6B6" style="fill:#FFB6B6;fill:color(display-p3 1.0000 0.7137 0.7137);fill-opacity:1;"/>
<path d="M186.867 123.524C188.4 125.723 189.426 128.236 189.87 130.882C188.634 131.674 187.195 132.09 185.728 132.079C185.678 131.887 185.628 131.694 185.571 131.502C185.146 130.011 184.514 128.588 183.692 127.274C183.805 128.691 183.613 130.116 183.13 131.452C182.355 131.099 181.524 130.884 180.675 130.818C179.983 130.818 179.301 130.979 178.682 131.288C177.963 128.9 177.301 126.704 176.832 125.129C176.817 129.078 171.038 132.521 164.733 132.022C164.505 131.88 166.789 125.385 166.569 125.235C166.063 124.9 165.572 124.537 165.081 124.18C167.145 120.986 169.387 117.565 169.003 117.051C169.031 117.686 166.768 120.737 164.306 123.617C162.939 122.612 170.704 106.258 166.868 104.932C166.804 105.509 165.957 105.509 164.925 105.388C164.652 104.435 164.248 103.526 163.722 102.686C163.79 103.532 163.689 104.383 163.423 105.188C162.404 105.189 161.388 105.296 160.391 105.509C160.161 105.146 159.906 104.798 159.63 104.468C159.657 104.87 159.645 105.274 159.594 105.673C158.576 105.894 157.736 106.151 157.615 106.358C156.818 106.065 158.178 104.746 157.68 104.062C156.413 102.351 158.292 99.8559 159.48 98.0879C161.921 94.4663 167.281 93.2116 171.074 95.3859C171.245 94.7942 172.12 94.4021 173.245 94.1383C173.721 94.0331 174.209 93.9876 174.697 94.0029C179.536 94.0884 186.255 98.0878 186.518 102.929C186.539 103.413 186.575 103.941 186.611 104.504C186.952 109.922 186.532 114.92 190.226 118.883C191.564 120.316 191.578 127.103 191.066 130.597C189.735 129.192 188.788 123.731 186.867 123.524Z" fill="#2F2E41" style="fill:#2F2E41;fill:color(display-p3 0.1843 0.1804 0.2549);fill-opacity:1;"/>
<path d="M76.5807 112.411C75.5769 114.915 72.7449 119.84 72.3613 122.526L72.534 122.356C72.8633 122.92 73.2376 123.456 73.6531 123.959C74.3978 123.176 75.2973 122.556 76.2942 122.14C75.7498 123.259 75.4345 124.476 75.3669 125.718C76.4357 129.074 81.3765 127.58 84.2713 127.213C87.1621 130.526 91.0082 131.39 96.0446 129.486C97.4532 129.631 99.0301 129.719 100.017 128.885C101.004 128.052 100.416 126.508 100.947 125.34C104.73 117.022 101.239 114.021 98.2731 110.249C97.6204 109.419 97.6232 108.18 96.8289 107.388C95.727 106.29 94.0377 105.953 92.4803 105.682C92.8849 105.704 93.2881 105.62 93.6512 105.44C94.0143 105.26 94.3251 104.99 94.5535 104.655C94.754 104.317 94.8574 103.93 94.8524 103.538C94.8474 103.145 94.7342 102.761 94.5253 102.429C93.9683 101.504 92.8109 100.966 91.6943 100.831C90.5942 100.757 89.4891 100.852 88.4179 101.114C87.724 101.205 87.0521 101.42 86.4339 101.749C86.1422 101.905 85.905 102.146 85.7539 102.441C85.6028 102.735 85.5452 103.069 85.5886 103.397C85.6816 103.7 85.8418 103.978 86.0571 104.211C86.2725 104.444 86.5375 104.624 86.8323 104.74C87.2819 104.93 87.7547 105.06 88.2384 105.125C86.0167 104.837 83.76 105.232 81.7683 106.26C79.2723 107.593 77.588 109.908 76.5807 112.411Z" fill="#2F2E41" style="fill:#2F2E41;fill:color(display-p3 0.1843 0.1804 0.2549);fill-opacity:1;"/>
<path d="M90.0952 126.451C95.0228 126.451 99.0174 122.449 99.0174 117.514C99.0174 112.578 95.0228 108.576 90.0952 108.576C85.1675 108.576 81.1729 112.578 81.1729 117.514C81.1729 122.449 85.1675 126.451 90.0952 126.451Z" fill="#C78F8F" style="fill:#C78F8F;fill:color(display-p3 0.7804 0.5608 0.5608);fill-opacity:1;"/>
<path d="M81.5091 112.722C82.0265 114.288 83.5048 114.792 84.8712 115.107C85.3021 115.208 85.7356 115.302 86.1731 115.385C86.3345 115.183 86.5062 114.985 86.6855 114.797C87.4302 114.014 88.3296 113.394 89.3265 112.978C88.8954 113.862 88.6089 114.81 88.478 115.784C89.304 115.904 90.1347 116.003 90.9699 116.079C91.6765 116.229 92.4139 116.102 93.0297 115.724C93.6455 115.345 94.0926 114.744 94.2786 114.045C95.0389 115.291 95.938 116.464 97.1674 116.958C97.8705 117.211 98.6359 117.232 99.3516 117.018C100.067 116.803 100.696 116.365 101.144 115.766C101.853 114.791 102.345 113.674 102.586 112.491C102.935 111.104 103.128 109.507 102.443 108.627C101.895 107.915 100.948 107.902 100.074 107.965C98.1466 108.113 96.239 108.46 94.3819 108.999L94.2247 109.353C94.5438 107.432 93.8515 105.584 92.5707 104.927C91.7067 104.488 90.6672 104.562 89.6573 104.651C88.36 104.709 87.0782 104.957 85.8529 105.388C84.4472 105.929 83.2429 106.893 82.4048 108.146C81.5084 109.51 81.0628 111.369 81.5091 112.722Z" fill="#2F2E41" style="fill:#2F2E41;fill:color(display-p3 0.1843 0.1804 0.2549);fill-opacity:1;"/>
<path d="M94.231 104.37C94.143 104.344 94.3711 104.377 94.292 104.379C94.3313 104.377 94.3703 104.372 94.4087 104.363C94.4153 104.362 94.5041 104.333 94.4451 104.354C94.5776 104.314 94.6958 104.237 94.7854 104.132C94.995 103.872 95.1594 103.579 95.2718 103.265C95.4136 102.849 95.6415 102.468 95.9405 102.148C96.0254 102.062 96.1292 101.998 96.2435 101.96C96.3577 101.923 96.4792 101.912 96.5981 101.931C96.7171 101.949 96.83 101.995 96.9279 102.065C97.0257 102.135 97.1057 102.227 97.1612 102.334C97.2741 102.746 97.2354 103.186 97.0523 103.572C96.9244 103.965 96.7341 104.334 96.4887 104.667C96.0774 105.21 95.5173 105.621 94.8765 105.851C94.1349 106.121 93.3262 106.144 92.5703 105.917C92.4705 105.876 92.3848 105.806 92.3238 105.717C92.2628 105.627 92.2291 105.522 92.2267 105.414C92.2243 105.306 92.2535 105.199 92.3105 105.107C92.3676 105.015 92.4501 104.942 92.5481 104.896L93.8086 104.379C93.8749 104.349 93.9464 104.333 94.0189 104.331C94.0915 104.33 94.1637 104.342 94.2314 104.368C94.2991 104.394 94.361 104.434 94.4135 104.484C94.4661 104.534 94.5083 104.594 94.5376 104.66C94.567 104.727 94.583 104.798 94.5847 104.871C94.5865 104.944 94.5739 105.016 94.5477 105.084C94.5215 105.152 94.4822 105.214 94.4321 105.266C94.382 105.319 94.322 105.361 94.2556 105.39L94.2533 105.391L92.9927 105.908L92.9705 104.887C93.1278 104.932 93.2896 104.96 93.453 104.969C93.6274 104.987 93.8034 104.979 93.9757 104.947C94.1407 104.925 94.3028 104.886 94.4593 104.829C94.5595 104.792 94.6577 104.751 94.7537 104.704C94.7886 104.687 94.8231 104.669 94.8573 104.651C94.8549 104.653 95.0016 104.567 94.9372 104.607C95.1003 104.503 95.2532 104.383 95.3941 104.251C95.4439 104.204 95.4897 104.152 95.5312 104.098C95.603 104.01 95.6696 103.917 95.7306 103.821C95.8548 103.617 95.9531 103.399 96.0234 103.171C96.0555 103.075 96.0825 102.978 96.1044 102.879C96.1105 102.825 96.1203 102.771 96.1337 102.718C96.1805 102.593 96.1248 102.792 96.1786 102.846L96.411 103.018C96.4546 103.031 96.5006 103.034 96.5456 103.027C96.5905 103.02 96.6333 103.002 96.6707 102.976C96.6982 102.938 96.6922 102.944 96.6527 102.996C96.6066 103.056 96.5645 103.12 96.5265 103.186C96.4432 103.342 96.3679 103.502 96.3008 103.665C96.1621 104.013 95.9868 104.345 95.7778 104.655C95.573 104.969 95.2745 105.21 94.9249 105.344C94.5753 105.477 94.1925 105.497 93.8309 105.4C93.6952 105.346 93.5862 105.241 93.5274 105.107C93.4686 104.973 93.4646 104.821 93.5165 104.685C93.5719 104.55 93.6773 104.442 93.8105 104.383C93.9436 104.324 94.0943 104.32 94.231 104.37Z" fill="#2F2E41" style="fill:#2F2E41;fill:color(display-p3 0.1843 0.1804 0.2549);fill-opacity:1;"/>
<path d="M245.386 243.595C245.955 243.178 246.538 242.791 247.132 242.424C247.489 242.192 247.856 241.976 248.223 241.765C248.273 241.734 248.324 241.704 248.374 241.674C250.216 240.63 252.153 239.761 254.158 239.079C256.103 238.416 258.105 237.934 260.138 237.64C260.17 237.633 260.202 237.628 260.234 237.625C260.782 237.545 261.335 237.479 261.893 237.434C262.281 237.394 262.673 237.364 263.065 237.349C263.568 237.313 264.071 237.293 264.584 237.288C264.735 237.283 264.891 237.283 265.047 237.283C266.69 237.282 268.331 237.402 269.956 237.64C270.313 237.691 270.67 237.746 271.022 237.806C271.259 237.852 271.49 237.897 271.721 237.942C272.682 238.138 273.626 238.371 274.553 238.641C274.976 238.767 275.393 238.898 275.81 239.039C276.374 239.225 276.927 239.426 277.475 239.647C277.963 239.833 278.441 240.039 278.914 240.251C282.809 242.006 286.337 244.48 289.315 247.544C290.492 248.746 291.576 250.036 292.559 251.401C293.027 252.05 293.471 252.717 293.892 253.403C294.669 254.654 295.362 255.957 295.964 257.301C297.195 260.033 298.054 262.917 298.519 265.877C298.794 267.627 298.932 269.396 298.932 271.168C298.932 271.49 298.927 271.812 298.917 272.128C298.719 279.471 296.124 286.547 291.528 292.277C291.035 292.901 290.517 293.504 289.979 294.088C289.441 294.671 288.882 295.239 288.304 295.783C287.595 296.457 286.861 297.09 286.101 297.699C281.437 301.411 275.873 303.824 269.975 304.692C264.078 305.56 258.055 304.853 252.518 302.643C251.754 302.341 251.004 302.014 250.275 301.652C250.818 301.059 251.335 300.442 251.824 299.801C252.554 300.143 253.293 300.455 254.052 300.737C259.298 302.688 264.968 303.206 270.48 302.24C275.992 301.274 281.148 298.858 285.417 295.239C286.081 294.676 286.73 294.083 287.343 293.464C288.033 292.775 288.691 292.056 289.31 291.306C289.843 290.668 290.356 290.004 290.834 289.32C294.901 283.56 296.917 276.603 296.559 269.561C296.2 262.52 293.488 255.802 288.857 250.486C288.576 250.159 288.289 249.842 287.997 249.535C287.399 248.907 286.78 248.298 286.136 247.72C283.111 244.991 279.586 242.875 275.755 241.488C275.72 241.473 275.68 241.463 275.645 241.448C275.524 241.403 275.398 241.362 275.272 241.317C274.078 240.908 272.86 240.57 271.626 240.306C271.178 240.21 270.726 240.125 270.273 240.05C270.263 240.05 270.258 240.044 270.248 240.044C268.969 239.835 267.679 239.703 266.385 239.647C265.942 239.627 265.495 239.617 265.047 239.617C264.494 239.617 263.936 239.632 263.387 239.667C262.995 239.682 262.598 239.713 262.211 239.748C261.868 239.778 261.526 239.813 261.189 239.858C257.271 240.334 253.479 241.55 250.014 243.439C249.119 243.924 248.25 244.453 247.408 245.024C246.734 245.482 246.076 245.964 245.442 246.467C244.788 245.99 244.109 245.537 243.415 245.114C244.054 244.581 244.712 244.068 245.386 243.595Z" fill="#3F3D56" style="fill:#3F3D56;fill:color(display-p3 0.2471 0.2392 0.3373);fill-opacity:1;"/>
<path d="M260.365 192.924L262.196 224.035H298.144C301.263 224.005 304.281 225.146 306.6 227.233C308.682 229.134 309.976 231.746 310.226 234.555L306.124 236.015C306.131 235.544 306.083 235.073 305.98 234.613C305.696 233.379 304.909 231.131 302.794 229.869C301.865 229.341 300.81 229.072 299.741 229.09H258.994L256.704 196.608H242.983V192.924H260.365Z" fill="#3F3D56" style="fill:#3F3D56;fill:color(display-p3 0.2471 0.2392 0.3373);fill-opacity:1;"/>
<path d="M224.679 208.492L224.689 208.739L225.806 238.096L225.896 240.43C226.223 240.42 226.55 240.415 226.882 240.415C227.526 240.415 228.165 240.435 228.798 240.476C231.905 240.655 234.967 241.301 237.882 242.392C238.636 242.673 239.381 242.985 240.105 243.322C241.244 243.851 242.349 244.449 243.414 245.113C244.109 245.535 244.788 245.988 245.441 246.466C248.225 248.498 250.659 250.97 252.649 253.784C253.346 254.763 253.983 255.784 254.555 256.842L257.216 256.867L275.383 257.068L285.93 257.189H285.935L293.368 257.269L295.964 257.3H296.15L298.519 257.325L303.634 257.385L306.013 257.41L309.312 257.445L307.255 238.001L289.315 238.992L286.136 239.168L285.301 239.213L277.475 239.646L275.795 239.736L271.641 239.968L270.248 240.043L263.493 240.415L263.387 239.666L263.186 238.217L263.065 237.347L262.416 232.665L262.21 231.196L261.918 229.088V229.073L261.893 228.882L261.219 224.034L260.671 220.116L260.163 216.469V216.454L259.353 210.595L259.217 209.634L257.618 209.579L251.401 209.377L248.655 209.287L240.019 209L227.973 208.603H227.969L226.973 208.568L226.736 208.558H226.731L224.679 208.492Z" fill="#2F2E41" style="fill:#2F2E41;fill:color(display-p3 0.1843 0.1804 0.2549);fill-opacity:1;"/>
<path d="M226.882 278.193C223.44 278.193 220.65 275.403 220.65 271.961C220.65 268.52 223.44 265.729 226.882 265.729C230.323 265.729 233.113 268.52 233.113 271.961C233.113 275.403 230.323 278.193 226.882 278.193Z" fill="#3F3D56" style="fill:#3F3D56;fill:color(display-p3 0.2471 0.2392 0.3373);fill-opacity:1;"/>
<path d="M268.408 276.39C266.042 276.39 264.124 274.472 264.124 272.106C264.124 269.739 266.042 267.821 268.408 267.821C270.774 267.821 272.692 269.739 272.692 272.106C272.692 274.472 270.774 276.39 268.408 276.39Z" fill="#3F3D56" style="fill:#3F3D56;fill:color(display-p3 0.2471 0.2392 0.3373);fill-opacity:1;"/>
<path d="M239.419 240.485C240.178 240.782 240.928 241.114 241.662 241.471C242.948 242.099 244.193 242.807 245.389 243.594C246.083 244.041 246.757 244.517 247.411 245.022C250.589 247.448 253.317 250.414 255.468 253.784H252.652C250.662 250.97 248.227 248.498 245.444 246.466C244.79 245.988 244.111 245.535 243.417 245.113C242.352 244.449 241.246 243.851 240.108 243.322C239.384 242.985 238.639 242.673 237.885 242.392C234.97 241.301 231.908 240.655 228.801 240.475V238.131C232.445 238.333 236.031 239.128 239.419 240.485ZM257.913 258.356H255.343C255.096 257.843 254.834 257.335 254.558 256.842L257.219 256.867C257.465 257.355 257.696 257.853 257.913 258.356ZM224.682 238.152C225.054 238.121 225.431 238.106 225.809 238.096C226.166 238.081 226.523 238.076 226.885 238.076C227.529 238.076 228.168 238.096 228.801 238.131C232.445 238.333 236.031 239.128 239.419 240.485C240.178 240.782 240.928 241.114 241.662 241.471C242.948 242.099 244.193 242.807 245.389 243.594C246.083 244.041 246.757 244.517 247.411 245.022C251.539 248.173 254.893 252.224 257.219 256.867C257.465 257.355 257.696 257.853 257.913 258.356C258.658 260.039 259.26 261.782 259.713 263.566C260.013 264.723 260.248 265.895 260.417 267.077C260.568 268.113 260.671 269.161 260.724 270.22C260.754 270.799 260.77 271.377 260.77 271.961C260.769 273.245 260.696 274.527 260.553 275.803C259.876 281.743 257.633 287.396 254.055 292.185C253.567 292.839 253.054 293.477 252.521 294.091C248.873 298.318 244.237 301.577 239.025 303.579C233.813 305.581 228.188 306.264 222.648 305.568C217.109 304.871 211.827 302.816 207.274 299.585C202.72 296.354 199.036 292.048 196.548 287.05C194.061 282.051 192.847 276.515 193.016 270.935C193.184 265.354 194.729 259.902 197.514 255.062C200.298 250.223 204.235 246.147 208.975 243.197C213.715 240.246 219.111 238.513 224.682 238.152ZM226.885 303.506C231.296 303.509 235.658 302.583 239.688 300.79C243.718 298.998 247.326 296.378 250.278 293.1C250.821 292.507 251.337 291.89 251.827 291.249C255.882 286.034 258.187 279.67 258.411 273.067C258.426 272.7 258.431 272.333 258.431 271.961C258.435 267.251 257.38 262.601 255.343 258.356C255.096 257.843 254.834 257.335 254.558 256.842C253.986 255.784 253.349 254.763 252.652 253.784C250.662 250.97 248.227 248.498 245.444 246.466C244.79 245.988 244.111 245.535 243.417 245.113C242.352 244.449 241.246 243.851 240.108 243.322C239.384 242.985 238.639 242.673 237.885 242.392C234.97 241.301 231.908 240.655 228.801 240.475C228.168 240.435 227.529 240.415 226.885 240.415C226.553 240.415 226.226 240.42 225.899 240.43C225.492 240.445 225.084 240.465 224.682 240.49C216.525 241.06 208.908 244.775 203.437 250.851C197.965 256.927 195.067 264.891 195.353 273.062C195.638 281.234 199.086 288.975 204.968 294.655C210.851 300.334 218.708 303.508 226.885 303.506ZM258.411 273.067C258.426 272.7 258.431 272.333 258.431 271.961C258.435 267.251 257.38 262.601 255.343 258.356H257.913C258.658 260.039 259.26 261.782 259.713 263.566C259.636 263.893 259.597 264.227 259.598 264.562C259.597 265.466 259.884 266.347 260.417 267.077C260.568 268.113 260.671 269.161 260.724 270.22C260.754 270.799 260.77 271.377 260.77 271.961C260.769 273.245 260.696 274.527 260.553 275.803C259.876 281.743 257.633 287.396 254.055 292.185C253.296 291.903 252.556 291.591 251.827 291.249C255.882 286.034 258.187 279.67 258.411 273.067Z" fill="#3F3D56" style="fill:#3F3D56;fill:color(display-p3 0.2471 0.2392 0.3373);fill-opacity:1;"/>
<path opacity="0.1" d="M246.243 224.47C245.95 224.47 245.713 224.233 245.713 223.941C245.713 223.648 245.95 223.411 246.243 223.411C246.535 223.411 246.772 223.648 246.772 223.941C246.772 224.233 246.535 224.47 246.243 224.47Z" fill="black" style="fill:black;fill:black;fill-opacity:1;"/>
<path opacity="0.1" d="M248.041 233.247C247.748 233.247 247.511 233.01 247.511 232.717C247.511 232.425 247.748 232.188 248.041 232.188C248.333 232.188 248.57 232.425 248.57 232.717C248.57 233.01 248.333 233.247 248.041 233.247Z" fill="black" style="fill:black;fill:black;fill-opacity:1;"/>
<path d="M315.297 288.251L320.072 288.25L322.344 269.833L315.297 269.834L315.297 288.251Z" fill="#FFB7B7" style="fill:#FFB7B7;fill:color(display-p3 1.0000 0.7176 0.7176);fill-opacity:1;"/>
<path d="M315.298 286.694L320.262 286.689H323.481C324.269 286.689 325.048 286.844 325.776 287.145C326.503 287.446 327.165 287.888 327.721 288.445C328.278 289.002 328.72 289.663 329.021 290.39C329.322 291.118 329.477 291.897 329.477 292.685V292.881H314.081V286.694H315.298Z" fill="#2F2E41" style="fill:#2F2E41;fill:color(display-p3 0.1843 0.1804 0.2549);fill-opacity:1;"/>
<path d="M299.487 290.544L304.262 290.446L306.156 271.986L299.11 272.131L299.487 290.544Z" fill="#FFB7B7" style="fill:#FFB7B7;fill:color(display-p3 1.0000 0.7176 0.7176);fill-opacity:1;"/>
<path d="M299.454 288.988L304.423 288.887L307.637 288.822C308.424 288.804 309.206 288.942 309.94 289.227C310.674 289.513 311.344 289.94 311.912 290.485C312.48 291.03 312.935 291.681 313.251 292.402C313.567 293.123 313.738 293.899 313.753 294.686L313.758 294.882L298.362 295.199L298.337 293.927L298.236 289.013L299.454 288.988Z" fill="#2F2E41" style="fill:#2F2E41;fill:color(display-p3 0.1843 0.1804 0.2549);fill-opacity:1;"/>
<path d="M282.856 224.569L310.442 233.669C312.081 234.073 313.571 234.934 314.739 236.153C315.906 237.371 316.703 238.897 317.037 240.551L325.371 281.894L312.012 282.103L303.568 247.358L285.338 239.899L299.307 247.983C300.568 248.983 301.544 250.297 302.137 251.793L310.357 282.477H295.623L287.249 257.94L250.907 237.225L282.856 224.569Z" fill="#2F2E41" style="fill:#2F2E41;fill:color(display-p3 0.1843 0.1804 0.2549);fill-opacity:1;"/>
<path d="M255.028 181.407L272.492 183.526C272.492 183.526 282.744 188.125 282.744 190.461C282.744 192.798 286.824 226.295 286.824 226.295C286.824 226.295 290.454 228.535 276.278 232.477C262.101 236.419 259.558 241.862 259.558 241.862L258.479 246.409L242.238 240.704L239.512 201.756L236.4 186.591L246.912 180.725L255.028 181.407Z" fill="#CBCBCB" style="fill:#CBCBCB;fill:color(display-p3 0.7961 0.7961 0.7961);fill-opacity:1;"/>
<path d="M262.522 178.015C255.627 178.015 250.038 172.425 250.038 165.53C250.038 158.635 255.627 153.046 262.522 153.046C269.417 153.046 275.007 158.635 275.007 165.53C275.007 172.425 269.417 178.015 262.522 178.015Z" fill="#FFB7B7" style="fill:#FFB7B7;fill:color(display-p3 1.0000 0.7176 0.7176);fill-opacity:1;"/>
<path d="M253.963 152.713L253.714 151.376L257.058 150.755C257.058 150.755 261.787 146.419 267.213 149.562C272.638 152.705 275.017 154.339 275.017 154.339L277.519 156.642L275.637 157.683L278.016 159.316L276.01 159.689L277.719 161.447L274.902 167.157C274.902 167.157 274.376 162.067 270.364 162.812C266.352 163.557 260.678 159.076 260.678 159.076L252.013 168.293C252.013 168.293 251.94 164.176 249.598 164.601C249.598 164.601 246.731 154.747 253.963 152.713Z" fill="#2F2E41" style="fill:#2F2E41;fill:color(display-p3 0.1843 0.1804 0.2549);fill-opacity:1;"/>
<path d="M250.757 208.051C250.333 207.416 249.775 206.882 249.122 206.486C248.47 206.09 247.738 205.842 246.98 205.76C246.221 205.677 245.453 205.762 244.731 206.008C244.008 206.254 243.349 206.656 242.798 207.185L226.27 198.756L227.342 208.337L242.873 214.872C243.822 215.738 245.057 216.226 246.341 216.243C247.626 216.259 248.873 215.804 249.845 214.963C250.816 214.123 251.446 212.955 251.614 211.681C251.782 210.407 251.477 209.115 250.757 208.051Z" fill="#FFB7B7" style="fill:#FFB7B7;fill:color(display-p3 1.0000 0.7176 0.7176);fill-opacity:1;"/>
<path d="M240.458 187.324L236.403 186.591L214.771 196.266L213.299 205.747L226.273 209.157L233.061 200.426L242.997 203.184L248.862 194.357L240.458 187.324Z" fill="#CBCBCB" style="fill:#CBCBCB;fill:color(display-p3 0.7961 0.7961 0.7961);fill-opacity:1;"/>
<path d="M259.748 198.18L260.249 220.101C260.262 220.664 259.816 221.132 259.252 221.144L249.954 221.357C249.391 221.37 248.924 220.924 248.911 220.36L248.409 198.44C248.397 197.876 248.843 197.409 249.407 197.396L258.704 197.183C259.268 197.17 259.735 197.617 259.748 198.18Z" fill="#3F3D56" style="fill:#3F3D56;fill:color(display-p3 0.2471 0.2392 0.3373);fill-opacity:1;"/>
<path d="M254.056 206.128C253.071 206.128 252.273 205.329 252.273 204.345C252.273 203.36 253.071 202.562 254.056 202.562C255.04 202.562 255.839 203.36 255.839 204.345C255.839 205.329 255.04 206.128 254.056 206.128Z" fill="white" style="fill:white;fill:white;fill-opacity:1;"/>
<path d="M259.417 210.564C260.083 210.27 260.805 210.126 261.533 210.142C262.261 210.157 262.977 210.332 263.63 210.654C264.283 210.977 264.858 211.438 265.313 212.006C265.769 212.574 266.094 213.235 266.266 213.943L283.887 215.624L278.117 222.787L262.268 220.093C261.061 220.303 259.818 220.064 258.775 219.419C257.732 218.774 256.962 217.77 256.61 216.595C256.259 215.421 256.35 214.158 256.868 213.047C257.385 211.935 258.292 211.052 259.417 210.564Z" fill="#FFB7B7" style="fill:#FFB7B7;fill:color(display-p3 1.0000 0.7176 0.7176);fill-opacity:1;"/>
<path d="M277.331 193.797L278.254 210.949L274.792 212.044L276.28 224.001L285.17 225.344L281.46 194.388L277.331 193.797Z" fill="#CBCBCB" style="fill:#CBCBCB;fill:color(display-p3 0.7961 0.7961 0.7961);fill-opacity:1;"/>
<path d="M226.056 192.921L226.403 198.821L226.538 201.124V201.154L226.961 208.271L226.976 208.568L227.886 224.034H263.964C267.04 224.035 270.007 225.174 272.293 227.233C272.669 227.576 273.022 227.944 273.349 228.334C273.553 228.576 273.744 228.828 273.922 229.089C274.152 229.41 274.364 229.744 274.556 230.09C275.007 230.905 275.354 231.773 275.587 232.675C275.613 232.747 275.633 232.821 275.648 232.896C275.783 233.442 275.875 233.996 275.924 234.556L275.813 239.037L275.798 239.737L275.758 241.487L275.527 251.254L275.386 257.069L275.255 262.546C278.56 262.465 284.238 264.216 287.522 275.945C288.247 278.53 288.83 280.788 289.313 282.755C289.559 283.756 289.782 284.683 289.982 285.536C290.319 286.995 290.596 288.247 290.837 289.319C291.104 290.526 291.325 291.496 291.531 292.276C292.25 294.922 292.824 295.258 294.639 294.574C295.85 294.243 297.09 294.026 298.341 293.926C302.068 293.483 307.837 293.076 313.395 292.749C313.626 292.739 313.853 292.724 314.084 292.708C322.016 292.246 329.313 291.954 329.313 291.954V296.521L294.639 299.639C294.639 299.639 291.063 301.244 288.307 295.782C287.93 295.033 287.609 294.258 287.346 293.463C287.17 292.965 287.004 292.427 286.849 291.848C286.602 290.953 286.354 290.053 286.104 289.147C285.878 288.328 285.646 287.503 285.42 286.688C283.926 281.316 282.488 276.272 281.643 273.37C281.321 272.196 280.745 271.107 279.956 270.181C279.167 269.254 278.184 268.512 277.076 268.008C276.302 267.645 275.456 267.461 274.601 267.47L270.507 267.289L270.92 258.356H255.343C255.096 257.843 254.835 257.335 254.558 256.842C253.986 255.785 253.35 254.764 252.652 253.784H271.096L271.292 248.84L271.629 240.305L271.644 239.968L271.724 237.941L271.8 236.015C271.811 235.538 271.763 235.062 271.659 234.596C271.619 234.42 271.568 234.219 271.503 234.008C271.245 233.106 270.829 232.256 270.276 231.498C269.885 230.964 269.411 230.495 268.873 230.11C268.745 230.017 268.612 229.932 268.475 229.853C267.692 229.41 266.819 229.148 265.92 229.089C265.756 229.074 265.592 229.069 265.427 229.074H228.802V240.476C228.168 240.436 227.529 240.416 226.885 240.416C226.553 240.416 226.226 240.421 225.9 240.431C225.492 240.446 225.085 240.466 224.682 240.491V228.963L223.234 208.357L222.404 196.593H208.678L208.673 192.921H226.056Z" fill="#3F3D56" style="fill:#3F3D56;fill:color(display-p3 0.2471 0.2392 0.3373);fill-opacity:1;"/>
</g>
<path d="M383.311 295.05L379.742 297.374L369.092 284.691L374.36 281.26L383.311 295.05Z" fill="#A0616A" style="fill:#A0616A;fill:color(display-p3 0.6275 0.3804 0.4157);fill-opacity:1;"/>
<path d="M385.86 298.698L374.885 305.846L374.794 305.707C374.058 304.572 373.801 303.191 374.081 301.867C374.362 300.542 375.155 299.384 376.288 298.646L377.304 295.816L382.034 294.903L382.992 294.279L385.86 298.698Z" fill="#2F2E41" style="fill:#2F2E41;fill:color(display-p3 0.1843 0.1804 0.2549);fill-opacity:1;"/>
<path d="M322.147 301.141L317.89 301.14L315.865 284.691L322.148 284.692L322.147 301.141Z" fill="#A0616A" style="fill:#A0616A;fill:color(display-p3 0.6275 0.3804 0.4157);fill-opacity:1;"/>
<path d="M322.295 305.59L309.203 305.589V305.423C309.203 304.07 309.74 302.771 310.696 301.814C311.651 300.857 312.947 300.319 314.299 300.319L316.69 298.502L321.152 300.32H322.295L322.295 305.59Z" fill="#2F2E41" style="fill:#2F2E41;fill:color(display-p3 0.1843 0.1804 0.2549);fill-opacity:1;"/>
<path d="M366.212 200.522L328.035 201.363L324.251 206.101C324.251 206.101 324.578 204.43 324.287 206.265C323.996 208.1 316.631 244.683 318.023 245.91C319.415 247.137 315.383 255.608 315.087 256.125C314.791 256.641 311.599 282.14 315.087 284.237L316.397 293.138H322.494C322.494 293.138 328.601 286.058 327.372 284.774C326.143 283.491 329.659 279.223 329.793 276.935C329.927 274.646 331.211 264.267 330.216 262.603C329.222 260.938 327.878 254.693 330.4 252.271C332.923 249.85 344.689 220.096 344.689 220.096C344.689 220.096 348.108 254.978 348.1 257.717C348.09 261.279 350.425 259.516 350.425 262.643C350.425 263.275 358.029 279.512 363.139 284.588L373.706 292.731L378.584 289.066V283.774C378.584 283.774 374.064 273.953 372.487 272.374C370.91 270.794 365.089 265.96 365.089 263.749C365.089 261.537 362.348 260.767 364.191 257.836C366.035 254.904 365.404 253.64 364.773 252.377C364.142 251.113 365.338 199.344 365.338 199.344L366.212 200.522Z" fill="#2F2E41" style="fill:#2F2E41;fill:color(display-p3 0.1843 0.1804 0.2549);fill-opacity:1;"/>
<path d="M350.294 123.76C356.665 123.76 361.83 118.586 361.83 112.204C361.83 105.822 356.665 100.648 350.294 100.648C343.923 100.648 338.758 105.822 338.758 112.204C338.758 118.586 343.923 123.76 350.294 123.76Z" fill="#A0616A" style="fill:#A0616A;fill:color(display-p3 0.6275 0.3804 0.4157);fill-opacity:1;"/>
<path d="M359.51 204.938L362.758 195.146L368.601 196.224L364.8 206.454C365.031 207.054 365.09 207.706 364.972 208.337C364.853 208.969 364.561 209.555 364.128 210.029C363.695 210.503 363.139 210.847 362.522 211.022C361.905 211.197 361.251 211.196 360.634 211.019C360.018 210.843 359.462 210.497 359.031 210.021C358.6 209.546 358.309 208.959 358.192 208.327C358.076 207.696 358.137 207.044 358.37 206.445C358.603 205.846 358.998 205.325 359.51 204.938Z" fill="#A0616A" style="fill:#A0616A;fill:color(display-p3 0.6275 0.3804 0.4157);fill-opacity:1;"/>
<path d="M292.163 186.016L300.119 179.463L304.49 183.494L295.832 190.122C295.709 190.752 295.412 191.336 294.976 191.807C294.54 192.278 293.981 192.618 293.362 192.788C292.744 192.959 292.09 192.953 291.475 192.771C290.86 192.59 290.307 192.24 289.879 191.762C289.451 191.283 289.165 190.694 289.053 190.061C288.941 189.429 289.007 188.777 289.245 188.18C289.482 187.583 289.881 187.064 290.396 186.682C290.912 186.3 291.523 186.069 292.163 186.016Z" fill="#A0616A" style="fill:#A0616A;fill:color(display-p3 0.6275 0.3804 0.4157);fill-opacity:1;"/>
<path d="M336.48 110.181C337.724 110.568 338.923 110.796 339.732 109.774C340.541 108.752 340.33 107.584 341.533 107.091C342.539 106.753 343.635 106.804 344.605 107.233C344.78 107.299 344.951 107.372 345.118 107.445C345.211 107.364 345.305 107.286 345.406 107.213C346.171 106.668 347.115 106.438 348.044 106.57C347.365 106.898 346.806 107.433 346.447 108.097C346.78 108.264 347.117 108.43 347.459 108.573C348.893 109.161 350.445 109.406 351.991 109.289C353.537 109.171 355.034 108.695 356.364 107.897C355.031 111.415 356.067 112.669 358.022 115.881L358.1 116.068C357.904 115.226 360.461 114.252 360.461 115.474C360.349 116.725 360.075 117.957 359.648 119.138C362.156 115.356 363.635 110.93 362.664 106.684C362.457 105.792 362.363 104.835 361.798 104.111C361.233 103.39 360.193 102.967 359.372 103.374C359.27 101.993 358.797 100.666 358.002 99.5329C357.207 98.4 356.121 97.5041 354.858 96.9403C353.596 96.3765 352.205 96.166 350.832 96.331C349.46 96.496 348.158 97.0304 347.064 97.8775C346.048 98.6633 345.248 99.6933 344.341 100.609C343.435 101.525 342.362 102.36 341.094 102.588C340.289 102.731 339.383 102.645 338.74 103.154C337.997 103.744 337.988 104.783 337.992 105.78C338.72 105.759 339.438 105.956 340.053 106.346C339.3 106.365 338.572 106.621 337.972 107.079C337.961 107.086 337.95 107.094 337.94 107.103C337.72 108.781 337.81 109.135 336.48 110.181Z" fill="#2F2E41" style="fill:#2F2E41;fill:color(display-p3 0.1843 0.1804 0.2549);fill-opacity:1;"/>
<path d="M377.069 148.06C376.801 146.771 376.269 145.551 375.508 144.478C374.747 143.404 373.773 142.499 372.647 141.82C372.563 141.389 372.414 141.113 372.184 141.031C368.905 139.864 359.751 134.469 359.751 134.469L358.984 128.301L342.42 127.504L338.181 134.469C338.181 134.469 327.202 135.575 327.405 139.601C324.746 142.923 312.91 157.768 305.815 167.585C302.425 172.277 300.116 175.821 300.412 176.408C301.411 178.385 300.008 177.051 298.439 177.408C296.87 177.766 297.63 178.694 297.666 180.064C297.702 181.433 292.305 184.315 292.305 184.315C295.597 185.494 299.722 190.34 299.722 190.34C299.722 190.34 303.717 186.125 304.442 185.684C305.167 185.244 305.571 184.601 307.865 183.803C310.16 183.005 309.197 182.398 309.363 180.707C309.53 179.016 310.088 180.267 313.31 178.707C316.532 177.147 313.916 177.742 314.808 175.611C315.7 173.479 315.414 174.646 318.315 172.884C320.058 171.825 321.79 170.269 324.199 167.585C325.799 165.803 327.696 163.524 330.096 160.56C330.112 160.54 330.127 160.519 330.144 160.499C330.305 162.902 330.429 165.306 330.503 167.585C330.713 174.06 330.512 179.521 329.571 181.024C328.251 183.135 326.015 190.198 324.198 196.399C323.846 197.602 323.784 198.871 324.016 200.102C324.249 201.334 324.77 202.492 325.536 203.483C326.303 204.473 327.293 205.268 328.425 205.801C329.557 206.334 330.8 206.59 332.05 206.549C343.324 206.177 359.822 205.315 363.037 203.425C364.786 203.676 366.514 204.056 368.207 204.563C368.207 204.563 369.345 198.865 369.724 198.105C370.103 197.345 370.103 196.585 371.62 194.685C373.137 192.786 372 192.786 371.241 191.266C370.482 189.746 371.62 190.506 373.517 187.467C375.413 184.428 373.517 186.327 373.137 184.048C372.758 181.768 373.137 182.908 374.655 179.868C375.912 177.35 376.648 174.046 377.511 167.585C377.689 166.248 377.873 164.78 378.068 163.152C378.712 157.774 377.897 152.031 377.069 148.06Z" fill="white" style="fill:white;fill:white;fill-opacity:1;"/>
<defs>
<clipPath id="clip0_22549_63379">
<rect width="380" height="212" fill="white" style="fill:white;fill:white;fill-opacity:1;" transform="translate(6 94)"/>
</clipPath>
</defs>
</svg>
