<svg width="454" height="306" viewBox="0 0 454 306" fill="none" xmlns="http://www.w3.org/2000/svg">
<ellipse cx="227" cy="153" rx="153" ry="153" fill="#6575B1" style="fill:#6575B1;fill:color(display-p3 0.3961 0.4588 0.6941);fill-opacity:1;"/>
<path d="M34.9268 254.211L33.5553 261.092C33.452 261.618 33.3439 262.153 33.2265 262.684C32.0802 262.447 30.8917 262.513 29.779 262.877C30.6618 264.138 31.4529 265.462 32.1462 266.836C31.282 269.5 30.0138 271.961 27.8908 273.741C26.4729 274.903 24.7793 275.681 22.9735 275.998C21.1677 276.316 19.3105 276.163 17.581 275.554L17.6421 275.281C15.3594 270.852 16.5994 265.268 19.4363 261.177C20.8833 259.158 22.5977 257.346 24.5325 255.789C26.4488 254.192 28.5202 252.76 30.5727 251.346C31.0337 251.029 31.5788 250.856 32.1382 250.851C32.6977 250.845 33.2462 251.006 33.7135 251.314C34.1809 251.621 34.546 252.061 34.7621 252.577C34.9782 253.093 35.0355 253.662 34.9268 254.211Z" fill="#E4E4E4" style="fill:#E4E4E4;fill:color(display-p3 0.8941 0.8941 0.8941);fill-opacity:1;"/>
<path d="M18.0697 292.11C17.4925 287.905 16.8988 283.646 17.3037 279.396C17.6634 275.621 18.8147 271.935 21.1594 268.912C22.4038 267.31 23.9181 265.938 25.6341 264.857C26.0817 264.575 26.4932 265.284 26.0479 265.565C23.0789 267.441 20.7824 270.212 19.4896 273.478C18.0617 277.109 17.8325 281.068 18.0805 284.926C18.2294 287.259 18.5446 289.576 18.8626 291.892C18.8882 291.996 18.8728 292.107 18.8195 292.201C18.7662 292.295 18.6791 292.364 18.5761 292.396C18.4712 292.424 18.3594 292.41 18.2649 292.356C18.1705 292.303 18.101 292.214 18.0716 292.11L18.0697 292.11Z" fill="#F2F2F2" style="fill:#F2F2F2;fill:color(display-p3 0.9490 0.9490 0.9490);fill-opacity:1;"/>
<path d="M23.0236 81.1922C43.144 80.8423 63.2665 80.792 83.3912 81.0414C103.513 81.2922 123.628 81.844 143.736 82.6967C155.02 83.1752 166.299 83.7484 177.573 84.4164C178.479 84.47 178.476 83.0608 177.573 83.0074C157.485 81.8187 137.382 80.9292 117.265 80.339C97.1499 79.7504 77.0293 79.4627 56.903 79.476C45.6092 79.4835 34.3161 79.5859 23.0236 79.7831C22.1179 79.7988 22.115 81.2079 23.0236 81.1922Z" fill="#E6E6E6" style="fill:#E6E6E6;fill:color(display-p3 0.9020 0.9020 0.9020);fill-opacity:1;"/>
<path d="M163.243 72.3563L172.041 71.7015C172.94 71.6346 172.947 70.2249 172.041 70.2924L163.243 70.9472C162.344 71.0141 162.337 72.4237 163.243 72.3563Z" fill="#E6E6E6" style="fill:#E6E6E6;fill:color(display-p3 0.9020 0.9020 0.9020);fill-opacity:1;"/>
<path d="M163.243 80.8113L172.041 80.1565C172.94 80.0896 172.947 78.68 172.041 78.7475L163.243 79.4023C162.344 79.4692 162.337 80.8788 163.243 80.8113Z" fill="#E6E6E6" style="fill:#E6E6E6;fill:color(display-p3 0.9020 0.9020 0.9020);fill-opacity:1;"/>
<path d="M162.581 76.9496L175.09 78.0861C175.993 78.1681 175.987 76.7585 175.09 76.677L162.581 75.5406C161.678 75.4585 161.684 76.8681 162.581 76.9496Z" fill="#E6E6E6" style="fill:#E6E6E6;fill:color(display-p3 0.9020 0.9020 0.9020);fill-opacity:1;"/>
<path d="M28.2299 70.459C27.6181 70.4553 27.0187 70.6316 26.5064 70.9662C25.9941 71.3008 25.5917 71.7787 25.3492 72.3404C25.0779 72.8902 24.9942 73.5137 25.1108 74.1156C25.2274 74.7174 25.5379 75.2646 25.9949 75.6733C26.4244 76.0387 26.9396 76.2893 27.4923 76.4016C28.045 76.5139 28.6172 76.4842 29.1553 76.3153C29.7056 76.1231 30.1829 75.7651 30.5213 75.2904C30.8597 74.8158 31.0427 74.2479 31.0451 73.665C31.0696 73.0183 30.8944 72.3797 30.5433 71.8361C30.1921 71.2924 29.682 70.8701 29.0824 70.6266C28.9023 70.5776 28.7101 70.6019 28.5477 70.6941C28.3854 70.7863 28.266 70.9389 28.2157 71.1187C28.1713 71.2986 28.1976 71.4888 28.2891 71.65C28.3806 71.8113 28.5305 71.9312 28.7078 71.9853C28.8306 72.0328 28.5957 71.925 28.7103 71.9874C28.7575 72.0131 28.8055 72.0363 28.8518 72.0637C28.8911 72.087 28.9288 72.1126 28.9671 72.1375C29.0986 72.2234 28.9029 72.0745 28.9869 72.1517C29.0598 72.2186 29.1321 72.2839 29.1983 72.3577C29.2234 72.3857 29.3215 72.4633 29.2453 72.409C29.1869 72.3675 29.2228 72.3773 29.2452 72.4106C29.2623 72.4359 29.2804 72.4605 29.2972 72.486C29.3521 72.5691 29.4021 72.6554 29.4467 72.7445C29.4571 72.7651 29.4666 72.7862 29.4771 72.8067C29.4968 72.8451 29.5254 72.8552 29.479 72.807C29.4347 72.761 29.4629 72.7642 29.4788 72.8084C29.4892 72.8375 29.5006 72.8662 29.5107 72.8954C29.5438 72.9905 29.5715 73.0873 29.5938 73.1854C29.6041 73.2307 29.6124 73.2764 29.6213 73.322C29.6528 73.4838 29.6167 73.2214 29.6243 73.3416C29.6307 73.4419 29.6381 73.5412 29.6363 73.6419C29.6355 73.688 29.6335 73.7341 29.6303 73.7801C29.6287 73.803 29.6261 73.8259 29.6246 73.8488C29.6173 73.9594 29.6171 73.8084 29.6326 73.7981C29.6004 73.892 29.579 73.9892 29.5689 74.0879C29.5563 74.1317 29.5413 74.1746 29.5272 74.2179C29.4782 74.369 29.5733 74.1355 29.521 74.2388C29.478 74.3275 29.43 74.4138 29.3771 74.497C29.3541 74.5319 29.2676 74.6106 29.3384 74.5558C29.4152 74.4963 29.2981 74.5987 29.2731 74.6251C29.241 74.6589 29.2077 74.6916 29.1732 74.7231C29.1511 74.7447 29.1278 74.7649 29.1033 74.7838C29.0988 74.7816 29.221 74.7022 29.1552 74.7442C29.0714 74.7976 28.9922 74.8547 28.904 74.9012C28.8937 74.9066 28.7809 74.9589 28.7814 74.9607C28.7765 74.9417 28.9264 74.908 28.8235 74.9412C28.8019 74.9482 28.7807 74.9566 28.7592 74.9639C28.6655 74.9954 28.5699 75.0209 28.473 75.0401C28.4508 75.0445 28.4273 75.0468 28.4054 75.0524C28.3326 75.0713 28.475 75.0414 28.4793 75.0438C28.4255 75.0415 28.3716 75.0463 28.319 75.058C28.219 75.0638 28.1188 75.0638 28.0189 75.058C27.9957 75.0567 27.9726 75.0544 27.9495 75.053C27.8958 75.0499 27.8564 75.0112 27.9279 75.0532C27.983 75.0856 27.9784 75.062 27.9296 75.053C27.9068 75.0487 27.8838 75.0452 27.861 75.0409C27.762 75.0224 27.6642 74.9984 27.5679 74.9691C27.5161 74.9533 27.4653 74.935 27.4142 74.9171C27.3919 74.9106 27.3702 74.9023 27.3494 74.8921C27.349 74.8863 27.4811 74.9552 27.4114 74.9177C27.3234 74.8702 27.2324 74.8305 27.1464 74.7786C27.1006 74.751 27.0565 74.7209 27.0119 74.6913C26.9923 74.6795 26.9737 74.6661 26.9562 74.6514C26.9577 74.6454 27.0654 74.7453 27.0088 74.6913C26.9373 74.6232 26.8608 74.5621 26.793 74.4895C26.7775 74.4729 26.7629 74.4556 26.7474 74.4389L26.7325 74.4218C26.6943 74.3752 26.6936 74.3754 26.7304 74.4225C26.7677 74.4335 26.766 74.4745 26.7306 74.4213C26.7179 74.4023 26.7045 74.3839 26.6919 74.3649C26.6347 74.2834 26.5859 74.1962 26.5463 74.1048C26.5497 74.1022 26.6073 74.2744 26.5633 74.1444C26.555 74.1199 26.5456 74.0957 26.5375 74.0711C26.5213 74.0223 26.507 73.9729 26.4947 73.923C26.4825 73.8736 26.4763 73.8226 26.464 73.7734C26.4433 73.6904 26.4761 73.8389 26.4724 73.8352C26.4606 73.8236 26.4656 73.7516 26.4647 73.7344C26.4591 73.6238 26.4717 73.5165 26.4737 73.4066C26.4752 73.3215 26.4666 73.473 26.4648 73.4685C26.4653 73.443 26.4698 73.4178 26.4782 73.3937C26.491 73.3358 26.5028 73.2779 26.5184 73.2206C26.5363 73.1549 26.5569 73.0901 26.5802 73.0261C26.5889 73.0021 26.5995 72.9785 26.6076 72.9544C26.6372 72.8659 26.5489 73.0612 26.5976 72.9815C26.6646 72.8717 26.7146 72.7529 26.7857 72.6445C26.8026 72.6188 26.9051 72.4757 26.8507 72.548C26.7965 72.6199 26.9064 72.4835 26.9272 72.4603C27.0136 72.3641 27.1152 72.2851 27.2047 72.193C27.2577 72.1384 27.1678 72.2198 27.1625 72.2236C27.1902 72.2038 27.2173 72.1833 27.2454 72.1639C27.2943 72.1302 27.3444 72.0983 27.3957 72.0683C27.4535 72.0344 27.5188 72.0092 27.5749 71.9733C27.641 71.931 27.5243 71.9919 27.5222 71.9932C27.5524 71.9782 27.584 71.9662 27.6165 71.9572C27.6711 71.9379 27.9084 71.8355 27.9581 71.8675C27.9559 71.8661 27.778 71.8818 27.9218 71.8726C27.9558 71.8704 27.9896 71.8671 28.0237 71.8657C28.0925 71.8628 28.1611 71.8646 28.2299 71.8681C28.4164 71.8669 28.5949 71.7923 28.7267 71.6604C28.8586 71.5286 28.9332 71.3501 28.9345 71.1636C28.9305 70.978 28.855 70.8011 28.7237 70.6698C28.5924 70.5386 28.4155 70.463 28.2299 70.459Z" fill="#E6E6E6" style="fill:#E6E6E6;fill:color(display-p3 0.9020 0.9020 0.9020);fill-opacity:1;"/>
<path d="M38.0932 70.459C37.4814 70.4553 36.8819 70.6316 36.3697 70.9662C35.8574 71.3008 35.455 71.7787 35.2125 72.3404C34.9412 72.8902 34.8575 73.5137 34.9741 74.1156C35.0907 74.7174 35.4012 75.2646 35.8581 75.6733C36.2877 76.0387 36.8029 76.2893 37.3556 76.4016C37.9083 76.5139 38.4805 76.4842 39.0186 76.3153C39.5689 76.1231 40.0461 75.7651 40.3846 75.2904C40.723 74.8158 40.906 74.2479 40.9083 73.665C40.9329 73.0183 40.7577 72.3797 40.4066 71.8361C40.0554 71.2924 39.5453 70.8701 38.9457 70.6266C38.7655 70.5776 38.5733 70.6019 38.411 70.6941C38.2487 70.7863 38.1293 70.9389 38.079 71.1187C38.0346 71.2986 38.0608 71.4888 38.1524 71.65C38.2439 71.8113 38.3938 71.9312 38.5711 71.9853C38.6939 72.0328 38.4589 71.925 38.5736 71.9874C38.6207 72.0131 38.6688 72.0363 38.715 72.0637C38.7544 72.087 38.7921 72.1126 38.8304 72.1375C38.9619 72.2234 38.7662 72.0745 38.8502 72.1517C38.9231 72.2186 38.9953 72.2839 39.0616 72.3577C39.0867 72.3857 39.1848 72.4633 39.1085 72.409C39.0502 72.3675 39.086 72.3773 39.1085 72.4106C39.1256 72.4359 39.1436 72.4605 39.1605 72.486C39.2154 72.5691 39.2654 72.6554 39.31 72.7445C39.3204 72.7651 39.3298 72.7862 39.3404 72.8067C39.3601 72.8451 39.3887 72.8552 39.3423 72.807C39.298 72.761 39.3262 72.7642 39.3421 72.8084C39.3525 72.8375 39.3639 72.8662 39.374 72.8954C39.4071 72.9905 39.4348 73.0873 39.4571 73.1854C39.4674 73.2307 39.4757 73.2764 39.4846 73.322C39.5161 73.4838 39.48 73.2214 39.4876 73.3416C39.494 73.4419 39.5014 73.5412 39.4996 73.6419C39.4988 73.688 39.4968 73.7341 39.4936 73.7801C39.492 73.803 39.4894 73.8259 39.4879 73.8488C39.4806 73.9594 39.4804 73.8084 39.4959 73.7981C39.4636 73.892 39.4423 73.9892 39.4322 74.0879C39.4196 74.1317 39.4046 74.1746 39.3905 74.2179C39.3415 74.369 39.4366 74.1355 39.3843 74.2388C39.3413 74.3275 39.2933 74.4138 39.2404 74.497C39.2174 74.5319 39.1309 74.6106 39.2016 74.5558C39.2784 74.4963 39.1614 74.5987 39.1364 74.6251C39.1043 74.6589 39.071 74.6916 39.0365 74.7231C39.0144 74.7447 38.991 74.7649 38.9666 74.7838C38.9621 74.7816 39.0843 74.7022 39.0184 74.7442C38.9347 74.7976 38.8555 74.8547 38.7672 74.9012C38.757 74.9066 38.6442 74.9589 38.6446 74.9607C38.6398 74.9417 38.7896 74.908 38.6868 74.9412C38.6652 74.9482 38.644 74.9566 38.6225 74.9639C38.5288 74.9954 38.4332 75.0209 38.3363 75.0401C38.3141 75.0445 38.2906 75.0468 38.2687 75.0524C38.1959 75.0713 38.3383 75.0414 38.3426 75.0438C38.2888 75.0415 38.2349 75.0463 38.1823 75.058C38.0823 75.0638 37.9821 75.0638 37.8821 75.058C37.859 75.0567 37.8359 75.0544 37.8128 75.053C37.7591 75.0499 37.7197 75.0112 37.7912 75.0532C37.8463 75.0856 37.8417 75.062 37.7929 75.053C37.77 75.0487 37.7471 75.0452 37.7243 75.0409C37.6253 75.0224 37.5275 74.9984 37.4312 74.9691C37.3793 74.9533 37.3286 74.935 37.2775 74.9171C37.2552 74.9106 37.2335 74.9023 37.2126 74.8921C37.2123 74.8863 37.3444 74.9552 37.2747 74.9177C37.1867 74.8702 37.0957 74.8305 37.0097 74.7786C36.9639 74.751 36.9198 74.7209 36.8752 74.6913C36.8556 74.6795 36.837 74.6661 36.8195 74.6514C36.8209 74.6454 36.9287 74.7453 36.8721 74.6913C36.8006 74.6232 36.7241 74.5621 36.6563 74.4895C36.6408 74.4729 36.6262 74.4556 36.6107 74.4389L36.5958 74.4218C36.5576 74.3752 36.5569 74.3754 36.5936 74.4225C36.631 74.4335 36.6293 74.4745 36.5939 74.4213C36.5812 74.4023 36.5678 74.3839 36.5552 74.3649C36.498 74.2834 36.4492 74.1962 36.4096 74.1048C36.413 74.1022 36.4706 74.2744 36.4266 74.1444C36.4182 74.1199 36.4089 74.0957 36.4007 74.0711C36.3845 74.0223 36.3703 73.9729 36.358 73.923C36.3458 73.8736 36.3396 73.8226 36.3273 73.7734C36.3066 73.6904 36.3394 73.8389 36.3356 73.8352C36.3239 73.8236 36.3289 73.7516 36.328 73.7344C36.3224 73.6238 36.335 73.5165 36.3369 73.4066C36.3385 73.3215 36.3299 73.473 36.3281 73.4685C36.3286 73.443 36.3331 73.4178 36.3415 73.3937C36.3542 73.3358 36.3661 73.2779 36.3817 73.2206C36.3996 73.1549 36.4202 73.0901 36.4435 73.0261C36.4522 73.0021 36.4628 72.9785 36.4709 72.9544C36.5005 72.8659 36.4122 73.0612 36.4609 72.9815C36.5279 72.8717 36.5778 72.7529 36.649 72.6445C36.6659 72.6188 36.7684 72.4757 36.714 72.548C36.6598 72.6199 36.7697 72.4835 36.7905 72.4603C36.8769 72.3641 36.9785 72.2851 37.068 72.193C37.121 72.1384 37.031 72.2198 37.0257 72.2236C37.0534 72.2038 37.0806 72.1833 37.1086 72.1639C37.1575 72.1302 37.2077 72.0983 37.259 72.0683C37.3168 72.0344 37.3821 72.0092 37.4381 71.9733C37.5043 71.931 37.3875 71.9919 37.3854 71.9932C37.4157 71.9782 37.4473 71.9662 37.4798 71.9572C37.5344 71.9379 37.7716 71.8355 37.8214 71.8675C37.8192 71.8661 37.6413 71.8818 37.7851 71.8726C37.8191 71.8704 37.8529 71.8671 37.887 71.8657C37.9558 71.8628 38.0244 71.8646 38.0932 71.8681C38.2797 71.8669 38.4582 71.7923 38.59 71.6604C38.7219 71.5286 38.7965 71.3501 38.7977 71.1636C38.7937 70.978 38.7182 70.8011 38.587 70.6698C38.4557 70.5386 38.2788 70.463 38.0932 70.459Z" fill="#E6E6E6" style="fill:#E6E6E6;fill:color(display-p3 0.9020 0.9020 0.9020);fill-opacity:1;"/>
<path d="M47.9584 70.459C47.3466 70.4553 46.7472 70.6316 46.2349 70.9662C45.7227 71.3008 45.3202 71.7787 45.0777 72.3404C44.8064 72.8902 44.7227 73.5137 44.8393 74.1156C44.9559 74.7174 45.2664 75.2646 45.7234 75.6733C46.1529 76.0387 46.6681 76.2893 47.2208 76.4016C47.7736 76.5139 48.3457 76.4842 48.8838 76.3153C49.4342 76.1231 49.9114 75.7651 50.2498 75.2904C50.5882 74.8158 50.7712 74.2479 50.7736 73.665C50.7981 73.0183 50.6229 72.3797 50.2718 71.8361C49.9206 71.2924 49.4106 70.8701 48.8109 70.6266C48.6308 70.5776 48.4386 70.6019 48.2762 70.6941C48.1139 70.7863 47.9946 70.9389 47.9443 71.1187C47.8998 71.2986 47.9261 71.4888 48.0176 71.65C48.1092 71.8113 48.259 71.9312 48.4363 71.9853C48.5591 72.0328 48.3242 71.925 48.4388 71.9874C48.486 72.0131 48.534 72.0363 48.5803 72.0637C48.6196 72.087 48.6573 72.1126 48.6956 72.1375C48.8271 72.2234 48.6314 72.0745 48.7155 72.1517C48.7884 72.2186 48.8606 72.2839 48.9268 72.3577C48.9519 72.3857 49.0501 72.4633 48.9738 72.409C48.9154 72.3675 48.9513 72.3773 48.9738 72.4106C48.9908 72.4359 49.0089 72.4605 49.0257 72.486C49.0807 72.5691 49.1306 72.6554 49.1753 72.7445C49.1856 72.7651 49.1951 72.7862 49.2056 72.8067C49.2253 72.8451 49.2539 72.8552 49.2076 72.807C49.1632 72.761 49.1915 72.7642 49.2073 72.8084C49.2177 72.8375 49.2291 72.8662 49.2393 72.8954C49.2723 72.9905 49.3 73.0873 49.3223 73.1854C49.3327 73.2307 49.341 73.2764 49.3498 73.322C49.3813 73.4838 49.3452 73.2214 49.3528 73.3416C49.3592 73.4419 49.3666 73.5412 49.3649 73.6419C49.3641 73.688 49.3621 73.7341 49.3588 73.7801C49.3572 73.803 49.3547 73.8259 49.3532 73.8488C49.3458 73.9594 49.3456 73.8084 49.3611 73.7981C49.3289 73.892 49.3075 73.9892 49.2974 74.0879C49.2848 74.1317 49.2698 74.1746 49.2558 74.2179C49.2067 74.369 49.3018 74.1355 49.2495 74.2388C49.2065 74.3275 49.1585 74.4138 49.1056 74.497C49.0827 74.5319 48.9961 74.6106 49.0669 74.5558C49.1437 74.4963 49.0266 74.5987 49.0016 74.6251C48.9695 74.6589 48.9362 74.6916 48.9017 74.7231C48.8796 74.7447 48.8563 74.7649 48.8318 74.7838C48.8273 74.7816 48.9495 74.7022 48.8837 74.7442C48.8 74.7976 48.7207 74.8547 48.6325 74.9012C48.6222 74.9066 48.5094 74.9589 48.5099 74.9607C48.505 74.9417 48.6549 74.908 48.552 74.9412C48.5304 74.9482 48.5092 74.9566 48.4877 74.9639C48.394 74.9954 48.2984 75.0209 48.2015 75.0401C48.1793 75.0445 48.1558 75.0468 48.134 75.0524C48.0611 75.0713 48.2036 75.0414 48.2078 75.0438C48.154 75.0415 48.1001 75.0463 48.0475 75.058C47.9475 75.0638 47.8473 75.0638 47.7474 75.058C47.7242 75.0567 47.7012 75.0544 47.678 75.053C47.6244 75.0499 47.585 75.0112 47.6564 75.0532C47.7115 75.0856 47.7069 75.062 47.6581 75.053C47.6353 75.0487 47.6123 75.0452 47.5895 75.0409C47.4905 75.0224 47.3927 74.9984 47.2964 74.9691C47.2446 74.9533 47.1938 74.935 47.1427 74.9171C47.1204 74.9106 47.0987 74.9023 47.0779 74.8921C47.0776 74.8863 47.2096 74.9552 47.1399 74.9177C47.0519 74.8702 46.9609 74.8305 46.875 74.7786C46.8291 74.751 46.785 74.7209 46.7405 74.6913C46.7208 74.6795 46.7022 74.6661 46.6847 74.6514C46.6862 74.6454 46.7939 74.7453 46.7374 74.6913C46.6658 74.6232 46.5893 74.5621 46.5216 74.4895C46.5061 74.4729 46.4914 74.4556 46.476 74.4389L46.461 74.4218C46.4228 74.3752 46.4221 74.3754 46.4589 74.4225C46.4962 74.4335 46.4945 74.4745 46.4591 74.4213C46.4465 74.4023 46.433 74.3839 46.4204 74.3649C46.3632 74.2834 46.3144 74.1962 46.2748 74.1048C46.2782 74.1022 46.3358 74.2744 46.2918 74.1444C46.2835 74.1199 46.2741 74.0957 46.266 74.0711C46.2498 74.0223 46.2355 73.9729 46.2232 73.923C46.211 73.8736 46.2048 73.8226 46.1925 73.7734C46.1718 73.6904 46.2046 73.8389 46.2009 73.8352C46.1891 73.8236 46.1941 73.7516 46.1932 73.7344C46.1876 73.6238 46.2002 73.5165 46.2022 73.4066C46.2037 73.3215 46.1951 73.473 46.1934 73.4685C46.1938 73.443 46.1983 73.4178 46.2067 73.3937C46.2195 73.3358 46.2313 73.2779 46.247 73.2206C46.2648 73.1549 46.2854 73.0901 46.3087 73.0261C46.3174 73.0021 46.328 72.9785 46.3361 72.9544C46.3658 72.8659 46.2774 73.0612 46.3261 72.9815C46.3931 72.8717 46.4431 72.7529 46.5142 72.6445C46.5311 72.6188 46.6336 72.4757 46.5792 72.548C46.525 72.6199 46.6349 72.4835 46.6557 72.4603C46.7421 72.3641 46.8438 72.2851 46.9332 72.193C46.9862 72.1384 46.8963 72.2198 46.891 72.2236C46.9187 72.2038 46.9458 72.1833 46.9739 72.1639C47.0228 72.1302 47.0729 72.0983 47.1242 72.0683C47.182 72.0344 47.2474 72.0092 47.3034 71.9733C47.3696 71.931 47.2528 71.9919 47.2507 71.9932C47.2809 71.9782 47.3125 71.9662 47.3451 71.9572C47.3996 71.9379 47.6369 71.8355 47.6867 71.8675C47.6844 71.8661 47.5065 71.8818 47.6503 71.8726C47.6843 71.8704 47.7181 71.8671 47.7522 71.8657C47.821 71.8628 47.8897 71.8646 47.9584 71.8681C48.1449 71.8669 48.3234 71.7923 48.4553 71.6604C48.5871 71.5286 48.6617 71.3501 48.663 71.1636C48.659 70.978 48.5835 70.8011 48.4522 70.6698C48.3209 70.5386 48.144 70.463 47.9584 70.459Z" fill="#E6E6E6" style="fill:#E6E6E6;fill:color(display-p3 0.9020 0.9020 0.9020);fill-opacity:1;"/>
<path d="M190.449 226.498H17.6462C15.4611 226.495 13.3661 225.626 11.821 224.081C10.2759 222.536 9.40676 220.441 9.4043 218.256V64.2409C9.40675 62.0558 10.2759 59.9608 11.821 58.4157C13.3661 56.8706 15.461 56.0015 17.6462 55.999H190.449C192.634 56.0015 194.729 56.8706 196.274 58.4157C197.819 59.9608 198.688 62.0558 198.691 64.2409V218.256C198.688 220.441 197.819 222.536 196.274 224.081C194.729 225.626 192.634 226.495 190.449 226.498ZM17.6462 56.9384C15.7101 56.9406 13.854 57.7107 12.485 59.0797C11.116 60.4487 10.3459 62.3048 10.3437 64.2409V218.256C10.3459 220.192 11.116 222.048 12.485 223.417C13.854 224.786 15.7101 225.556 17.6462 225.558H190.449C192.385 225.556 194.241 224.786 195.61 223.417C196.979 222.048 197.749 220.192 197.751 218.256V64.2409C197.749 62.3048 196.979 60.4487 195.61 59.0797C194.241 57.7107 192.385 56.9406 190.449 56.9384H17.6462Z" fill="#E6E6E6" style="fill:#E6E6E6;fill:color(display-p3 0.9020 0.9020 0.9020);fill-opacity:1;"/>
<path d="M17.3602 160.791L78.1287 160.606L138.587 160.422L172.692 160.318C172.875 160.312 173.048 160.235 173.175 160.103C173.302 159.972 173.372 159.796 173.372 159.614C173.372 159.431 173.302 159.255 173.175 159.124C173.048 158.993 172.875 158.916 172.692 158.909L111.923 159.094L51.465 159.278L17.3602 159.382C17.1776 159.388 17.0046 159.465 16.8776 159.596C16.7506 159.728 16.6797 159.903 16.6797 160.086C16.6797 160.269 16.7506 160.445 16.8776 160.576C17.0046 160.707 17.1776 160.784 17.3602 160.791Z" fill="#E6E6E6" style="fill:#E6E6E6;fill:color(display-p3 0.9020 0.9020 0.9020);fill-opacity:1;"/>
<path d="M48.0156 159.649L48.3914 137.463C48.4068 136.556 46.9977 136.555 46.9823 137.463L46.6066 159.649C46.5912 160.557 48.0003 160.557 48.0156 159.649Z" fill="#E6E6E6" style="fill:#E6E6E6;fill:color(display-p3 0.9020 0.9020 0.9020);fill-opacity:1;"/>
<path d="M77.0599 159.887L77.9756 131.999L78.2373 124.031C78.267 123.124 76.8579 123.125 76.8282 124.031L75.9125 151.919L75.6509 159.887C75.6211 160.794 77.0302 160.793 77.0599 159.887Z" fill="#E6E6E6" style="fill:#E6E6E6;fill:color(display-p3 0.9020 0.9020 0.9020);fill-opacity:1;"/>
<path d="M106.026 110.812C105.474 120.69 104.452 149.825 103.899 159.703C103.849 160.609 105.258 160.606 105.308 159.703C105.861 149.825 106.883 120.69 107.435 110.812C107.486 109.906 106.076 109.909 106.026 110.812Z" fill="#E6E6E6" style="fill:#E6E6E6;fill:color(display-p3 0.9020 0.9020 0.9020);fill-opacity:1;"/>
<path d="M134.851 149.793L134.678 159.287C134.662 160.194 136.071 160.194 136.087 159.287C136.291 148.074 136.815 148.44 136.872 145.275C136.889 144.368 135.48 144.368 135.463 145.275C135.463 145.275 135.055 138.58 134.851 149.793Z" fill="#E6E6E6" style="fill:#E6E6E6;fill:color(display-p3 0.9020 0.9020 0.9020);fill-opacity:1;"/>
<path d="M163.086 124.85L163.245 151.486L163.291 159.113C163.297 159.296 163.374 159.469 163.506 159.596C163.637 159.723 163.813 159.794 163.995 159.794C164.178 159.794 164.354 159.723 164.485 159.596C164.617 159.469 164.694 159.296 164.7 159.113L164.541 132.477L164.495 124.85C164.489 124.668 164.412 124.495 164.28 124.368C164.149 124.241 163.973 124.17 163.79 124.17C163.608 124.17 163.432 124.241 163.301 124.368C163.169 124.495 163.092 124.668 163.086 124.85Z" fill="#E6E6E6" style="fill:#E6E6E6;fill:color(display-p3 0.9020 0.9020 0.9020);fill-opacity:1;"/>
<path d="M17.4735 159.997C16.3071 156.792 18.9363 153.709 21.6379 152.324C24.8746 150.664 28.5979 150.288 31.8689 148.688C36.7454 146.303 40.2973 142.022 43.4578 137.738C46.7108 133.328 49.6872 128.595 53.8207 124.93C55.9988 122.957 58.5714 121.468 61.3681 120.563C64.8918 119.463 68.6289 119.388 72.27 119.831C79.7939 120.746 86.7685 123.854 94.0281 125.829C100.872 127.691 108.414 128.738 115.132 125.843C118.545 124.371 121.336 121.904 124.334 119.769C127.235 117.681 130.479 116.116 133.92 115.145C140.663 113.27 148.028 113.77 154.307 116.94C160.078 119.817 164.648 124.64 167.209 130.558C170.186 137.668 169.798 145.614 168.826 153.099C168.574 155.033 168.275 156.961 167.973 158.888C167.834 159.775 169.191 160.157 169.332 159.263C170.543 151.545 171.749 143.584 170.243 135.818C168.94 129.036 165.212 122.962 159.754 118.732C154.274 114.49 147.461 112.34 140.539 112.667C136.911 112.836 133.34 113.63 129.983 115.015C126.498 116.457 123.547 118.593 120.549 120.841C117.468 123.152 114.291 125.064 110.465 125.818C106.753 126.549 102.893 126.275 99.1975 125.585C91.5733 124.16 84.4667 120.895 76.9072 119.222C69.9033 117.672 62.3455 117.517 56.0738 121.473C51.2494 124.517 47.8404 129.242 44.5688 133.805C41.3258 138.327 38.0419 143.163 33.2998 146.253C30.4071 148.137 27.1554 148.833 23.9194 149.893C20.6751 150.955 17.5606 152.748 16.2377 156.072C15.6676 157.441 15.6238 158.972 16.1147 160.371C16.4224 161.217 17.7846 160.852 17.4735 159.997Z" fill="#E6E6E6" style="fill:#E6E6E6;fill:color(display-p3 0.9020 0.9020 0.9020);fill-opacity:1;"/>
<path d="M47.549 134.392L47.5474 134.392L47.5507 134.392H47.549Z" fill="#E6E6E6" style="fill:#E6E6E6;fill:color(display-p3 0.9020 0.9020 0.9020);fill-opacity:1;"/>
<path d="M49.9944 133.094C49.6688 132.517 49.1492 132.075 48.5281 131.845C47.9069 131.615 47.2244 131.613 46.6018 131.839C46.2922 131.952 46.0085 132.125 45.7674 132.35C45.5262 132.574 45.3326 132.845 45.1978 133.146C45.1708 133.21 45.1551 133.277 45.1331 133.342C45.1025 133.392 45.0658 133.436 45.0385 133.488C44.7464 134.07 44.6665 134.735 44.8124 135.37C44.9582 136.005 45.3208 136.568 45.8377 136.964C46.3546 137.36 46.9933 137.564 47.644 137.539C48.2946 137.515 48.9164 137.265 49.4023 136.831C49.913 136.37 50.2502 135.747 50.3579 135.067C50.4656 134.387 50.3374 133.691 49.9944 133.094ZM48.2297 134.291C48.2333 134.359 48.2354 134.326 48.2297 134.291V134.291ZM48.0503 133.883C48.0434 133.875 48.0442 133.876 48.0503 133.883V133.883ZM47.2596 134.201C47.248 134.182 47.249 134.185 47.2596 134.201V134.201ZM47.447 134.36C47.474 134.372 47.4917 134.375 47.447 134.36V134.36ZM47.5307 134.4L47.5493 134.391C47.5447 134.392 47.5402 134.391 47.5361 134.389L47.5367 134.388L47.5512 134.39L47.5539 134.389L47.5455 134.387C47.5528 134.387 47.5534 134.388 47.5539 134.389C47.6378 134.351 47.5812 134.369 47.5326 134.384L47.5294 134.383C47.499 134.368 47.4664 134.357 47.4328 134.352C47.4297 134.351 47.426 134.349 47.4234 134.347C47.3964 134.328 47.26 134.222 47.3865 134.333C47.359 134.309 47.3318 134.285 47.3059 134.259C47.2906 134.243 47.2768 134.226 47.2646 134.208C47.248 134.18 47.2319 134.151 47.2163 134.122L47.2139 134.106C47.2119 134.093 47.2103 134.088 47.2086 134.08C47.2094 134.072 47.2107 134.064 47.212 134.055C47.2214 134.03 47.2274 134.003 47.2299 133.976L47.2353 133.969C47.2556 133.941 47.2733 133.908 47.2926 133.879C47.1905 134.034 47.3325 133.862 47.3431 133.84C47.3449 133.836 47.3418 133.838 47.3426 133.836C47.3467 133.833 47.3454 133.835 47.3504 133.832C47.3821 133.813 47.4121 133.793 47.4442 133.775C47.4825 133.754 47.6332 133.711 47.4769 133.756C47.5124 133.745 47.5465 133.733 47.5824 133.723C47.5889 133.722 47.6415 133.714 47.6699 133.709C47.6948 133.708 47.7189 133.708 47.7215 133.708C47.7332 133.708 47.7449 133.709 47.7566 133.71C47.7306 133.713 47.8456 133.738 47.8797 133.743C47.8847 133.747 47.8872 133.75 47.8939 133.755C47.9228 133.776 47.9579 133.794 47.9884 133.814C47.8521 133.726 47.9901 133.821 48.0162 133.847C48.0317 133.863 48.0461 133.879 48.0607 133.896C48.0741 133.911 48.0863 133.928 48.097 133.946C48.1193 133.986 48.1431 134.028 48.1666 134.068L48.1731 134.078C48.173 134.08 48.1729 134.081 48.1729 134.082C48.1851 134.148 48.2032 134.212 48.2268 134.274C48.228 134.279 48.2289 134.285 48.2295 134.29C48.2317 134.326 48.2347 134.361 48.2348 134.397L48.2344 134.405C48.1259 134.348 48.0055 134.318 47.8832 134.317C47.7608 134.316 47.64 134.345 47.5307 134.4Z" fill="#E6E6E6" style="fill:#E6E6E6;fill:color(display-p3 0.9020 0.9020 0.9020);fill-opacity:1;"/>
<path d="M47.5527 134.392L47.5508 134.392C47.5532 134.392 47.5527 134.392 47.5527 134.392Z" fill="#E6E6E6" style="fill:#E6E6E6;fill:color(display-p3 0.9020 0.9020 0.9020);fill-opacity:1;"/>
<path d="M77.6106 121.24L77.6089 121.241L77.6122 121.24H77.6106Z" fill="#E6E6E6" style="fill:#E6E6E6;fill:color(display-p3 0.9020 0.9020 0.9020);fill-opacity:1;"/>
<path d="M80.0535 119.946C79.7278 119.369 79.2083 118.926 78.5871 118.697C77.966 118.467 77.2835 118.464 76.6608 118.69C76.3513 118.803 76.0676 118.977 75.8264 119.202C75.5853 119.426 75.3916 119.697 75.2569 119.997C75.2299 120.061 75.2141 120.128 75.1921 120.194C75.1616 120.243 75.1249 120.288 75.0976 120.339C74.8055 120.921 74.7256 121.587 74.8714 122.222C75.0173 122.856 75.3799 123.42 75.8968 123.816C76.4136 124.212 77.0524 124.415 77.7031 124.391C78.3537 124.367 78.9755 124.116 79.4614 123.683C79.972 123.221 80.3093 122.599 80.417 121.919C80.5247 121.239 80.3964 120.543 80.0535 119.946ZM78.2887 121.142C78.2924 121.211 78.2945 121.178 78.2887 121.142V121.142ZM78.1094 120.734C78.1025 120.727 78.1033 120.727 78.1094 120.734V120.734ZM77.3187 121.052C77.3071 121.033 77.3081 121.036 77.3187 121.052V121.052ZM77.5061 121.211C77.5331 121.223 77.5507 121.226 77.5061 121.211V121.211ZM77.5898 121.251L77.6083 121.243C77.6038 121.243 77.5992 121.242 77.5952 121.24L77.5957 121.24L77.6103 121.242L77.613 121.241L77.6046 121.239C77.6119 121.238 77.6125 121.239 77.613 121.241C77.6968 121.202 77.6402 121.221 77.5917 121.236L77.5884 121.235C77.5581 121.219 77.5254 121.209 77.4918 121.204C77.4887 121.202 77.485 121.201 77.4824 121.199C77.4554 121.18 77.3191 121.073 77.4456 121.185C77.4181 121.161 77.3909 121.137 77.365 121.111C77.3497 121.095 77.3359 121.078 77.3236 121.06C77.307 121.031 77.2909 121.003 77.2753 120.974L77.273 120.958C77.2709 120.945 77.2694 120.94 77.2677 120.932C77.2685 120.924 77.2698 120.915 77.271 120.907C77.2805 120.881 77.2865 120.855 77.2889 120.828L77.2944 120.821C77.3146 120.793 77.3323 120.76 77.3516 120.731C77.2495 120.886 77.3916 120.713 77.4022 120.692C77.404 120.688 77.4008 120.69 77.4016 120.687C77.4057 120.685 77.4045 120.687 77.4095 120.684C77.4411 120.665 77.4711 120.644 77.5032 120.626C77.5415 120.605 77.6923 120.562 77.5359 120.607C77.5714 120.597 77.6055 120.584 77.6414 120.575C77.6479 120.573 77.7006 120.566 77.7289 120.561C77.7538 120.56 77.778 120.559 77.7805 120.559C77.7922 120.559 77.8039 120.561 77.8156 120.561C77.7897 120.565 77.9046 120.59 77.9388 120.595C77.9437 120.599 77.9462 120.601 77.953 120.606C77.9818 120.627 78.0169 120.646 78.0474 120.666C77.9112 120.578 78.0492 120.673 78.0752 120.699C78.0908 120.714 78.1051 120.731 78.1198 120.747C78.1332 120.763 78.1453 120.78 78.1561 120.797C78.1784 120.838 78.2022 120.879 78.2256 120.92L78.2321 120.93C78.232 120.931 78.2319 120.933 78.2319 120.934C78.2442 120.999 78.2622 121.063 78.2859 121.126C78.2871 121.131 78.288 121.136 78.2886 121.141C78.2907 121.177 78.2937 121.213 78.2938 121.249L78.2935 121.256C78.185 121.2 78.0646 121.17 77.9422 121.169C77.8199 121.168 77.6991 121.196 77.5898 121.251Z" fill="#E6E6E6" style="fill:#E6E6E6;fill:color(display-p3 0.9020 0.9020 0.9020);fill-opacity:1;"/>
<path d="M77.6132 121.24L77.6113 121.241C77.6137 121.241 77.6132 121.24 77.6132 121.24Z" fill="#E6E6E6" style="fill:#E6E6E6;fill:color(display-p3 0.9020 0.9020 0.9020);fill-opacity:1;"/>
<path d="M109.174 106.794C108.848 106.218 108.329 105.775 107.708 105.545C107.087 105.315 106.404 105.313 105.781 105.539C105.472 105.652 105.188 105.826 104.947 106.05C104.706 106.275 104.512 106.545 104.377 106.846C104.351 106.91 104.335 106.977 104.313 107.043C104.282 107.092 104.246 107.136 104.218 107.188C103.926 107.77 103.846 108.436 103.992 109.07C104.138 109.705 104.501 110.269 105.017 110.665C105.534 111.061 106.173 111.264 106.824 111.24C107.474 111.215 108.096 110.965 108.582 110.531C109.093 110.07 109.43 109.447 109.538 108.767C109.645 108.088 109.517 107.391 109.174 106.794ZM107.409 107.991C107.413 108.059 107.415 108.027 107.409 107.991V107.991ZM107.23 107.583C107.223 107.575 107.224 107.576 107.23 107.583V107.583ZM106.439 107.901C106.428 107.882 106.429 107.885 106.439 107.901V107.901ZM106.627 108.06C106.654 108.072 106.671 108.075 106.627 108.06V108.06ZM106.71 108.1L106.729 108.091C106.724 108.092 106.72 108.091 106.716 108.089L106.716 108.089L106.731 108.09L106.734 108.089L106.725 108.087C106.732 108.087 106.733 108.088 106.734 108.089C106.817 108.051 106.761 108.069 106.712 108.084L106.709 108.083C106.679 108.068 106.646 108.058 106.612 108.052C106.609 108.051 106.606 108.049 106.603 108.048C106.576 108.028 106.44 107.922 106.566 108.034C106.539 108.009 106.511 107.985 106.486 107.959C106.47 107.943 106.456 107.926 106.444 107.908C106.428 107.88 106.412 107.851 106.396 107.822L106.394 107.807C106.392 107.794 106.39 107.788 106.388 107.78C106.389 107.772 106.39 107.764 106.392 107.755C106.401 107.73 106.407 107.703 106.41 107.677L106.415 107.67C106.435 107.641 106.453 107.608 106.472 107.579C106.37 107.734 106.512 107.562 106.523 107.54C106.525 107.536 106.521 107.539 106.522 107.536C106.526 107.534 106.525 107.535 106.53 107.532C106.562 107.514 106.592 107.493 106.624 107.475C106.662 107.454 106.813 107.411 106.657 107.456C106.692 107.446 106.726 107.433 106.762 107.423C106.769 107.422 106.821 107.414 106.85 107.409C106.874 107.409 106.899 107.408 106.901 107.408C106.913 107.408 106.925 107.409 106.936 107.41C106.91 107.413 107.025 107.438 107.059 107.444C107.064 107.447 107.067 107.45 107.074 107.455C107.102 107.476 107.138 107.495 107.168 107.514C107.032 107.426 107.17 107.521 107.196 107.547C107.211 107.563 107.226 107.58 107.24 107.596C107.254 107.612 107.266 107.628 107.277 107.646C107.299 107.687 107.323 107.728 107.346 107.768L107.353 107.779C107.353 107.78 107.353 107.781 107.353 107.783C107.365 107.848 107.383 107.912 107.407 107.974C107.408 107.979 107.409 107.985 107.409 107.99C107.411 108.026 107.414 108.062 107.414 108.098L107.414 108.105C107.306 108.048 107.185 108.018 107.063 108.017C106.94 108.017 106.82 108.045 106.71 108.1Z" fill="#E6E6E6" style="fill:#E6E6E6;fill:color(display-p3 0.9020 0.9020 0.9020);fill-opacity:1;"/>
<path d="M106.731 127.819L106.729 127.82L106.732 127.819H106.731Z" fill="#E6E6E6" style="fill:#E6E6E6;fill:color(display-p3 0.9020 0.9020 0.9020);fill-opacity:1;"/>
<path d="M106.735 127.819L106.733 127.82C106.736 127.82 106.735 127.819 106.735 127.819Z" fill="#E6E6E6" style="fill:#E6E6E6;fill:color(display-p3 0.9020 0.9020 0.9020);fill-opacity:1;"/>
<path d="M138.765 142.959C138.439 142.383 137.92 141.94 137.299 141.71C136.677 141.48 135.995 141.478 135.372 141.704C135.063 141.817 134.779 141.991 134.538 142.215C134.297 142.44 134.103 142.71 133.968 143.011C133.941 143.075 133.926 143.142 133.904 143.208C133.873 143.257 133.836 143.302 133.809 143.353C133.517 143.935 133.437 144.601 133.583 145.235C133.729 145.87 134.091 146.434 134.608 146.83C135.125 147.226 135.764 147.429 136.414 147.405C137.065 147.38 137.687 147.13 138.173 146.696C138.683 146.235 139.021 145.612 139.128 144.932C139.236 144.253 139.108 143.556 138.765 142.959ZM137 144.156C137.004 144.224 137.006 144.192 137 144.156V144.156ZM136.821 143.748C136.814 143.74 136.815 143.741 136.821 143.748V143.748ZM136.03 144.066C136.019 144.047 136.02 144.05 136.03 144.066V144.066ZM136.218 144.225C136.245 144.237 136.262 144.24 136.218 144.225V144.225ZM136.301 144.265L136.32 144.256C136.315 144.257 136.311 144.256 136.307 144.254L136.307 144.254L136.322 144.255L136.324 144.254L136.316 144.252C136.323 144.252 136.324 144.253 136.324 144.254C136.408 144.216 136.352 144.234 136.303 144.249L136.3 144.249C136.269 144.233 136.237 144.223 136.203 144.218C136.2 144.216 136.196 144.215 136.194 144.213C136.167 144.193 136.031 144.087 136.157 144.199C136.129 144.174 136.102 144.15 136.076 144.124C136.061 144.109 136.047 144.092 136.035 144.073C136.018 144.045 136.002 144.016 135.987 143.987L135.984 143.972C135.982 143.959 135.981 143.953 135.979 143.945C135.98 143.937 135.981 143.929 135.982 143.92C135.992 143.895 135.998 143.869 136 143.842L136.006 143.835C136.026 143.806 136.044 143.774 136.063 143.744C135.961 143.899 136.103 143.727 136.114 143.705C136.115 143.702 136.112 143.704 136.113 143.701C136.117 143.699 136.116 143.7 136.121 143.697C136.153 143.679 136.183 143.658 136.215 143.64C136.253 143.619 136.404 143.576 136.247 143.621C136.283 143.611 136.317 143.598 136.353 143.588C136.359 143.587 136.412 143.579 136.44 143.574C136.465 143.574 136.489 143.573 136.492 143.573C136.504 143.573 136.515 143.575 136.527 143.575C136.501 143.579 136.616 143.603 136.65 143.609C136.655 143.612 136.658 143.615 136.664 143.62C136.693 143.641 136.728 143.66 136.759 143.679C136.623 143.591 136.761 143.686 136.787 143.712C136.802 143.728 136.817 143.745 136.831 143.761C136.845 143.777 136.857 143.793 136.867 143.811C136.89 143.852 136.914 143.893 136.937 143.933L136.944 143.944C136.943 143.945 136.943 143.946 136.943 143.948C136.956 144.013 136.974 144.077 136.997 144.139C136.998 144.145 136.999 144.15 137 144.155C137.002 144.191 137.005 144.227 137.005 144.263L137.005 144.27C136.896 144.213 136.776 144.183 136.654 144.182C136.531 144.182 136.411 144.21 136.301 144.265Z" fill="#E6E6E6" style="fill:#E6E6E6;fill:color(display-p3 0.9020 0.9020 0.9020);fill-opacity:1;"/>
<path d="M136.321 113.257L136.319 113.258L136.323 113.257H136.321Z" fill="#E6E6E6" style="fill:#E6E6E6;fill:color(display-p3 0.9020 0.9020 0.9020);fill-opacity:1;"/>
<path d="M136.326 113.257L136.324 113.257C136.326 113.257 136.326 113.257 136.326 113.257Z" fill="#E6E6E6" style="fill:#E6E6E6;fill:color(display-p3 0.9020 0.9020 0.9020);fill-opacity:1;"/>
<path d="M166.477 121.355C166.151 120.778 165.632 120.336 165.01 120.106C164.389 119.876 163.707 119.874 163.084 120.099C162.775 120.212 162.491 120.386 162.25 120.611C162.009 120.835 161.815 121.106 161.68 121.407C161.653 121.47 161.637 121.538 161.615 121.603C161.585 121.652 161.548 121.697 161.521 121.749C161.229 122.331 161.149 122.996 161.295 123.631C161.441 124.265 161.803 124.829 162.32 125.225C162.837 125.621 163.476 125.824 164.126 125.8C164.777 125.776 165.399 125.525 165.885 125.092C166.395 124.63 166.733 124.008 166.84 123.328C166.948 122.648 166.82 121.952 166.477 121.355ZM164.712 122.552C164.716 122.62 164.718 122.587 164.712 122.552V122.552ZM164.533 122.144C164.526 122.136 164.527 122.137 164.533 122.144V122.144ZM163.742 122.462C163.73 122.443 163.731 122.445 163.742 122.462V122.462ZM163.929 122.62C163.956 122.632 163.974 122.636 163.929 122.62V122.62ZM164.013 122.66L164.032 122.652C164.027 122.652 164.023 122.651 164.019 122.649L164.019 122.649L164.034 122.651L164.036 122.65L164.028 122.648C164.035 122.648 164.036 122.649 164.036 122.65C164.12 122.611 164.064 122.63 164.015 122.645L164.012 122.644C163.981 122.629 163.949 122.618 163.915 122.613C163.912 122.611 163.908 122.61 163.906 122.608C163.879 122.589 163.742 122.482 163.869 122.594C163.841 122.57 163.814 122.546 163.788 122.52C163.773 122.504 163.759 122.487 163.747 122.469C163.73 122.44 163.714 122.412 163.699 122.383L163.696 122.367C163.694 122.354 163.693 122.349 163.691 122.341C163.692 122.333 163.693 122.324 163.694 122.316C163.704 122.291 163.71 122.264 163.712 122.237L163.718 122.23C163.738 122.202 163.756 122.169 163.775 122.14C163.673 122.295 163.815 122.123 163.826 122.101C163.827 122.097 163.824 122.099 163.825 122.096C163.829 122.094 163.828 122.096 163.833 122.093C163.864 122.074 163.894 122.053 163.927 122.036C163.965 122.014 164.116 121.972 163.959 122.016C163.995 122.006 164.029 121.993 164.065 121.984C164.071 121.982 164.124 121.975 164.152 121.97C164.177 121.969 164.201 121.968 164.204 121.968C164.216 121.969 164.227 121.97 164.239 121.971C164.213 121.974 164.328 121.999 164.362 122.004C164.367 122.008 164.37 122.01 164.376 122.015C164.405 122.036 164.44 122.055 164.471 122.075C164.334 121.987 164.473 122.082 164.499 122.108C164.514 122.124 164.528 122.14 164.543 122.156C164.557 122.172 164.569 122.189 164.579 122.206C164.602 122.247 164.626 122.289 164.649 122.329L164.655 122.339C164.655 122.341 164.655 122.342 164.655 122.343C164.668 122.409 164.686 122.473 164.709 122.535C164.71 122.54 164.711 122.545 164.712 122.551C164.714 122.586 164.717 122.622 164.717 122.658L164.717 122.665C164.608 122.609 164.488 122.579 164.366 122.578C164.243 122.577 164.122 122.605 164.013 122.66Z" fill="#E6E6E6" style="fill:#E6E6E6;fill:color(display-p3 0.9020 0.9020 0.9020);fill-opacity:1;"/>
<path d="M164.033 122.651L164.031 122.652L164.035 122.651H164.033Z" fill="#E6E6E6" style="fill:#E6E6E6;fill:color(display-p3 0.9020 0.9020 0.9020);fill-opacity:1;"/>
<path d="M164.037 122.651L164.035 122.652C164.038 122.652 164.037 122.651 164.037 122.651Z" fill="#E6E6E6" style="fill:#E6E6E6;fill:color(display-p3 0.9020 0.9020 0.9020);fill-opacity:1;"/>
<path d="M156.439 144.173L134.6 145.387C134.477 145.394 134.356 145.353 134.262 145.274C134.168 145.194 134.108 145.081 134.095 144.959C134.081 144.836 134.115 144.713 134.19 144.615C134.265 144.517 134.374 144.451 134.496 144.431L156.818 140.799L156.439 144.173Z" fill="#3F3D56" style="fill:#3F3D56;fill:color(display-p3 0.2471 0.2392 0.3373);fill-opacity:1;"/>
<path d="M184.194 192.795L192.424 178.949L198.507 181.822C198.507 181.822 188.026 194.913 187.692 195.29C187.835 195.926 187.781 196.591 187.538 197.196C187.295 197.801 186.874 198.318 186.331 198.679C185.787 199.04 185.147 199.227 184.495 199.216C183.843 199.205 183.21 198.997 182.679 198.618C182.148 198.239 181.745 197.708 181.522 197.095C181.299 196.482 181.268 195.816 181.432 195.185C181.597 194.554 181.949 193.987 182.442 193.561C182.935 193.134 183.546 192.867 184.194 192.795Z" fill="#FFB6B6" style="fill:#FFB6B6;fill:color(display-p3 1.0000 0.7137 0.7137);fill-opacity:1;"/>
<path d="M187.618 160.632L200.951 167.588C201.785 168.189 202.484 168.956 203.003 169.842C203.523 170.728 203.852 171.712 203.97 172.732C204.087 173.753 203.991 174.786 203.686 175.767C203.382 176.748 202.876 177.654 202.201 178.428L193.009 188.972L189.005 183.546L192.091 177.093L186.115 175.517L187.618 160.632Z" fill="white" style="fill:white;fill:white;fill-opacity:1;"/>
<path d="M149.621 144.403L148.119 160.44L141.392 160.451C141.392 160.451 145.252 144.131 145.392 143.648C144.99 143.134 144.754 142.511 144.714 141.86C144.674 141.209 144.833 140.561 145.169 140.002C145.505 139.444 146.003 139 146.597 138.73C147.191 138.461 147.853 138.378 148.495 138.493C149.137 138.607 149.729 138.914 150.193 139.373C150.656 139.831 150.97 140.42 151.092 141.06C151.214 141.701 151.139 142.363 150.876 142.96C150.614 143.557 150.176 144.06 149.621 144.403Z" fill="#FFB6B6" style="fill:#FFB6B6;fill:color(display-p3 1.0000 0.7137 0.7137);fill-opacity:1;"/>
<path d="M163.012 177.195L147.529 174.355C141.009 173.571 138.333 169.281 139.51 165.097L143.296 151.631L149.239 154.817L149.216 161.971L157.536 160.833L163.012 177.195Z" fill="white" style="fill:white;fill:white;fill-opacity:1;"/>
<path d="M156.676 288.022H152.418L150.393 271.601H156.677L156.676 288.022Z" fill="#FFB6B6" style="fill:#FFB6B6;fill:color(display-p3 1.0000 0.7137 0.7137);fill-opacity:1;"/>
<path d="M156.823 292.464L143.731 292.463V292.298C143.731 290.946 144.268 289.65 145.224 288.694C146.179 287.739 147.475 287.202 148.827 287.202L151.218 285.388L155.68 287.202L156.823 287.202L156.823 292.464Z" fill="#2F2E41" style="fill:#2F2E41;fill:color(display-p3 0.1843 0.1804 0.2549);fill-opacity:1;"/>
<path d="M186.797 288.022H191.055L193.08 271.601H186.796L186.797 288.022Z" fill="#FFB6B6" style="fill:#FFB6B6;fill:color(display-p3 1.0000 0.7137 0.7137);fill-opacity:1;"/>
<path d="M186.648 292.464L199.74 292.463V292.298C199.74 290.946 199.203 289.65 198.247 288.694C197.292 287.739 195.996 287.202 194.644 287.202L192.253 285.388L187.791 287.202L186.648 287.202L186.648 292.464Z" fill="#2F2E41" style="fill:#2F2E41;fill:color(display-p3 0.1843 0.1804 0.2549);fill-opacity:1;"/>
<path d="M150.204 259.537C150.266 258.6 150.766 253.418 150.766 253.418L151.964 242.428L154.074 213.297L155.955 205.64L165.268 209.267L172.823 205.645L181.804 208.516L188.798 211.138C188.798 211.138 188.81 212.261 188.863 213.617C188.935 215.392 189.061 217.569 189.36 218.134C189.86 219.134 189.735 224.502 189.735 224.502C189.735 224.502 190.231 235.423 190.857 236.62C191.483 237.818 191.609 240.311 191.42 240.811C191.231 241.311 192.046 254.426 192.046 254.426C192.046 254.426 194.136 277.635 192.824 281.135C191.513 284.635 186.558 282.342 186.558 282.342C186.558 282.342 186.798 281.408 185.361 280.968C183.924 280.528 179.547 247.619 179.547 247.619C179.547 247.619 178.733 240.871 177.984 238.937C177.236 237.003 176.548 231.57 176.548 231.57C176.548 231.57 171.925 222.577 171.865 220.577C171.865 220.577 171.261 218.706 170.689 220.766C170.117 222.825 168.432 227.759 168.432 227.759L166.788 233.818L164.854 242.871L163.603 250.493C163.603 250.493 161.729 260.608 161.43 261.045C161.13 261.482 161.43 270.724 161.43 270.724C161.43 270.724 159.981 278.594 157.933 279.968C155.885 281.342 150.46 279.99 150.46 279.99C150.46 279.99 150.141 260.474 150.204 259.537Z" fill="#2F2E41" style="fill:#2F2E41;fill:color(display-p3 0.1843 0.1804 0.2549);fill-opacity:1;"/>
<path d="M157.166 180.998L155.976 196.412L154.188 198.263C154.027 198.429 153.901 198.627 153.818 198.844C153.735 199.06 153.697 199.291 153.705 199.523C153.714 199.755 153.769 199.983 153.867 200.193C153.966 200.403 154.106 200.591 154.279 200.745L153.294 202.434L152.945 207.756C152.845 208.17 152.839 208.601 152.925 209.018C153.011 209.435 153.189 209.828 153.444 210.168C153.7 210.509 154.028 210.789 154.404 210.988C154.781 211.187 155.196 211.301 155.622 211.321L186.449 212.769C186.872 212.789 187.294 212.716 187.685 212.555C188.077 212.393 188.428 212.148 188.715 211.836C189.001 211.524 189.216 211.153 189.343 210.749C189.47 210.346 189.507 209.919 189.452 209.499L186.83 189.765V188.29L185.657 185.44L186.26 175.894L187.663 160.742L179.508 158.636L175.086 155.594L167.405 155.716L162.744 159.544L156.529 160.517L151.829 161.452L151.23 162.753L152.427 162.493L156.768 179.421L157.166 180.998Z" fill="white" style="fill:white;fill:white;fill-opacity:1;"/>
<path d="M171.073 153.528C176.07 153.528 180.122 149.476 180.122 144.479C180.122 139.481 176.07 135.43 171.073 135.43C166.075 135.43 162.023 139.481 162.023 144.479C162.023 149.476 166.075 153.528 171.073 153.528Z" fill="#FFB6B6" style="fill:#FFB6B6;fill:color(display-p3 1.0000 0.7137 0.7137);fill-opacity:1;"/>
<path d="M168.89 152.947L175.428 152.614C176.266 152.571 177.18 152.497 177.79 151.92C178.117 151.564 178.369 151.145 178.531 150.689C179.135 149.285 179.74 147.881 180.329 146.471C181.143 144.52 181.943 142.459 181.735 140.355C181.687 139.394 181.284 138.486 180.604 137.805C180.258 137.476 179.812 137.272 179.337 137.224C178.862 137.176 178.384 137.286 177.979 137.538C177.878 136.873 177.627 136.239 177.245 135.685C176.864 135.13 176.361 134.67 175.775 134.339C174.592 133.685 173.241 133.399 171.894 133.516C169.94 133.642 168.075 134.377 166.56 135.618C166.134 136.011 165.679 136.372 165.199 136.696C164.958 136.858 164.686 136.968 164.401 137.021C164.115 137.074 163.822 137.068 163.539 137.004C163.258 136.929 163.014 136.755 162.852 136.514C162.69 136.273 162.62 135.982 162.656 135.694C162.196 136.038 161.88 136.541 161.771 137.106C161.661 137.67 161.766 138.255 162.065 138.747C161.725 138.889 161.355 138.941 160.99 138.898C160.624 138.854 160.276 138.717 159.979 138.5C159.661 138.658 159.38 138.88 159.153 139.153C158.926 139.426 158.758 139.743 158.661 140.085C158.563 140.426 158.538 140.784 158.587 141.136C158.636 141.487 158.758 141.825 158.945 142.127C159.132 142.428 159.38 142.688 159.673 142.888C159.966 143.089 160.298 143.226 160.647 143.291C160.996 143.355 161.355 143.347 161.7 143.265C162.046 143.183 162.37 143.03 162.653 142.816C163.05 143.371 162.902 144.127 162.851 144.808C162.799 145.488 162.981 146.335 163.638 146.523C164.525 146.777 165.244 145.582 166.167 145.595C166.395 145.614 166.615 145.688 166.807 145.812C166.999 145.936 167.157 146.105 167.268 146.305C167.486 146.706 167.635 147.141 167.709 147.591L168.89 152.91" fill="white" style="fill:white;fill:white;fill-opacity:1;"/>
<path d="M423.814 234.31C423.814 232.908 423.343 231.771 422.765 231.769H265.256C264.676 231.771 264.208 232.908 264.205 234.31V291.992C264.205 292.123 264.157 292.248 264.07 292.344C263.982 292.441 263.862 292.501 263.732 292.514C263.31 292.554 262.887 292.592 262.464 292.627C262.454 292.627 262.443 292.63 262.433 292.63C262.203 292.65 261.973 292.666 261.743 292.684H261.74C261.622 292.466 261.505 292.245 261.389 292.022C261.35 291.947 261.33 291.864 261.33 291.779V231.013C261.33 230.626 261.345 230.237 261.371 229.852C261.409 229.325 261.474 228.799 261.567 228.279C262.009 225.85 263.008 224.205 264.143 224.2H423.876C424.042 224.201 424.206 224.236 424.357 224.302C424.58 224.401 424.782 224.542 424.951 224.718C425.18 224.956 425.376 225.224 425.534 225.515C426.185 226.812 426.56 228.23 426.634 229.68C426.634 229.695 426.637 229.711 426.637 229.727C426.674 230.15 426.692 230.582 426.689 231.013L426.726 236.615L426.75 239.957L426.82 250.44L426.846 254.163L426.961 292.384C426.961 292.522 426.906 292.655 426.808 292.754C426.71 292.852 426.577 292.907 426.438 292.907H424.337C424.198 292.907 424.065 292.852 423.967 292.754C423.869 292.655 423.814 292.522 423.814 292.384V234.31Z" fill="#E6E6E6" style="fill:#E6E6E6;fill:color(display-p3 0.9020 0.9020 0.9020);fill-opacity:1;"/>
<path d="M381.013 197.985H364.041C363.801 197.986 363.571 198.081 363.402 198.251C363.232 198.421 363.137 198.652 363.137 198.892V225.702H381.92V198.892C381.92 198.773 381.896 198.655 381.851 198.545C381.805 198.435 381.739 198.335 381.654 198.251C381.57 198.167 381.47 198.1 381.36 198.054C381.25 198.009 381.132 197.985 381.013 197.985ZM372.584 213.219C372.054 213.216 371.545 213.004 371.17 212.629C370.795 212.254 370.583 211.745 370.58 211.215V208.122C370.58 207.591 370.791 207.081 371.167 206.705C371.543 206.329 372.053 206.118 372.584 206.118C373.116 206.118 373.626 206.329 374.001 206.705C374.377 207.081 374.588 207.591 374.588 208.122V211.215C374.586 211.745 374.374 212.254 373.999 212.629C373.623 213.004 373.115 213.216 372.584 213.219Z" fill="#CCCCCC" style="fill:#CCCCCC;fill:color(display-p3 0.8000 0.8000 0.8000);fill-opacity:1;"/>
<path d="M363.08 224.846V227.432C363.08 227.566 363.133 227.695 363.228 227.79C363.323 227.884 363.451 227.938 363.585 227.938H381.473C381.607 227.937 381.735 227.884 381.83 227.789C381.924 227.695 381.978 227.566 381.979 227.432V224.846H363.08Z" fill="#3F3D56" style="fill:#3F3D56;fill:color(display-p3 0.2471 0.2392 0.3373);fill-opacity:1;"/>
<path d="M409.117 156.144H336.569C335.945 156.145 335.348 156.393 334.907 156.833C334.466 157.274 334.218 157.872 334.217 158.495V207.451C334.218 208.074 334.466 208.672 334.907 209.113C335.347 209.553 335.945 209.801 336.569 209.802H409.117C409.74 209.801 410.338 209.553 410.779 209.113C411.22 208.672 411.467 208.074 411.468 207.451V158.495C411.467 157.872 411.219 157.274 410.778 156.833C410.338 156.393 409.74 156.145 409.117 156.144Z" fill="#E6E6E6" style="fill:#E6E6E6;fill:color(display-p3 0.9020 0.9020 0.9020);fill-opacity:1;"/>
<path d="M408.511 157.847H337.175C336.841 157.847 336.521 157.98 336.286 158.217C336.05 158.453 335.918 158.773 335.917 159.107V206.849C335.918 207.182 336.051 207.502 336.286 207.738C336.522 207.973 336.842 208.106 337.175 208.107H408.511C408.845 208.106 409.164 207.973 409.4 207.738C409.636 207.502 409.768 207.182 409.769 206.849V159.107C409.769 158.773 409.636 158.453 409.401 158.217C409.165 157.98 408.845 157.847 408.511 157.847Z" fill="white" style="fill:white;fill:white;fill-opacity:1;"/>
<path d="M394.617 228.839H352.175C352.059 228.839 351.944 228.813 351.84 228.763C351.735 228.713 351.642 228.64 351.569 228.55C351.496 228.46 351.444 228.354 351.416 228.241C351.389 228.128 351.387 228.011 351.411 227.897L352.07 224.769C352.107 224.594 352.204 224.437 352.342 224.325C352.481 224.212 352.655 224.15 352.834 224.149H393.958C394.137 224.15 394.31 224.212 394.449 224.325C394.588 224.437 394.685 224.594 394.722 224.769L395.381 227.897C395.404 228.011 395.403 228.128 395.375 228.241C395.348 228.354 395.296 228.46 395.223 228.55C395.15 228.64 395.057 228.713 394.952 228.763C394.847 228.813 394.733 228.839 394.617 228.839Z" fill="#CCCCCC" style="fill:#CCCCCC;fill:color(display-p3 0.8000 0.8000 0.8000);fill-opacity:1;"/>
<path d="M354.213 224.715H353.364C353.237 224.715 353.135 224.818 353.135 224.944V225.27C353.135 225.396 353.237 225.499 353.364 225.499H354.213C354.339 225.499 354.442 225.396 354.442 225.27V224.944C354.442 224.818 354.339 224.715 354.213 224.715Z" fill="#E6E6E6" style="fill:#E6E6E6;fill:color(display-p3 0.9020 0.9020 0.9020);fill-opacity:1;"/>
<path d="M356.829 224.715H355.98C355.854 224.715 355.751 224.818 355.751 224.944V225.27C355.751 225.396 355.854 225.499 355.98 225.499H356.829C356.955 225.499 357.058 225.396 357.058 225.27V224.944C357.058 224.818 356.955 224.715 356.829 224.715Z" fill="#E6E6E6" style="fill:#E6E6E6;fill:color(display-p3 0.9020 0.9020 0.9020);fill-opacity:1;"/>
<path d="M359.441 224.715H358.592C358.465 224.715 358.363 224.818 358.363 224.944V225.27C358.363 225.396 358.465 225.499 358.592 225.499H359.441C359.567 225.499 359.67 225.396 359.67 225.27V224.944C359.67 224.818 359.567 224.715 359.441 224.715Z" fill="#E6E6E6" style="fill:#E6E6E6;fill:color(display-p3 0.9020 0.9020 0.9020);fill-opacity:1;"/>
<path d="M362.057 224.715H361.208C361.082 224.715 360.979 224.818 360.979 224.944V225.27C360.979 225.396 361.082 225.499 361.208 225.499H362.057C362.183 225.499 362.286 225.396 362.286 225.27V224.944C362.286 224.818 362.183 224.715 362.057 224.715Z" fill="#E6E6E6" style="fill:#E6E6E6;fill:color(display-p3 0.9020 0.9020 0.9020);fill-opacity:1;"/>
<path d="M364.671 224.715H363.823C363.696 224.715 363.593 224.818 363.593 224.944V225.27C363.593 225.396 363.696 225.499 363.823 225.499H364.671C364.798 225.499 364.9 225.396 364.9 225.27V224.944C364.9 224.818 364.798 224.715 364.671 224.715Z" fill="#E6E6E6" style="fill:#E6E6E6;fill:color(display-p3 0.9020 0.9020 0.9020);fill-opacity:1;"/>
<path d="M367.285 224.715H366.437C366.31 224.715 366.208 224.818 366.208 224.944V225.27C366.208 225.396 366.31 225.499 366.437 225.499H367.285C367.412 225.499 367.515 225.396 367.515 225.27V224.944C367.515 224.818 367.412 224.715 367.285 224.715Z" fill="#E6E6E6" style="fill:#E6E6E6;fill:color(display-p3 0.9020 0.9020 0.9020);fill-opacity:1;"/>
<path d="M369.898 224.715H369.05C368.923 224.715 368.82 224.818 368.82 224.944V225.27C368.82 225.396 368.923 225.499 369.05 225.499H369.898C370.025 225.499 370.127 225.396 370.127 225.27V224.944C370.127 224.818 370.025 224.715 369.898 224.715Z" fill="#E6E6E6" style="fill:#E6E6E6;fill:color(display-p3 0.9020 0.9020 0.9020);fill-opacity:1;"/>
<path d="M372.513 224.715H371.664C371.538 224.715 371.435 224.818 371.435 224.944V225.27C371.435 225.396 371.538 225.499 371.664 225.499H372.513C372.64 225.499 372.742 225.396 372.742 225.27V224.944C372.742 224.818 372.64 224.715 372.513 224.715Z" fill="#E6E6E6" style="fill:#E6E6E6;fill:color(display-p3 0.9020 0.9020 0.9020);fill-opacity:1;"/>
<path d="M375.128 224.715H374.28C374.153 224.715 374.05 224.818 374.05 224.944V225.27C374.05 225.396 374.153 225.499 374.28 225.499H375.128C375.255 225.499 375.357 225.396 375.357 225.27V224.944C375.357 224.818 375.255 224.715 375.128 224.715Z" fill="#E6E6E6" style="fill:#E6E6E6;fill:color(display-p3 0.9020 0.9020 0.9020);fill-opacity:1;"/>
<path d="M377.742 224.715H376.893C376.767 224.715 376.664 224.818 376.664 224.944V225.27C376.664 225.396 376.767 225.499 376.893 225.499H377.742C377.869 225.499 377.971 225.396 377.971 225.27V224.944C377.971 224.818 377.869 224.715 377.742 224.715Z" fill="#E6E6E6" style="fill:#E6E6E6;fill:color(display-p3 0.9020 0.9020 0.9020);fill-opacity:1;"/>
<path d="M380.355 224.715H379.507C379.38 224.715 379.277 224.818 379.277 224.944V225.27C379.277 225.396 379.38 225.499 379.507 225.499H380.355C380.482 225.499 380.584 225.396 380.584 225.27V224.944C380.584 224.818 380.482 224.715 380.355 224.715Z" fill="#E6E6E6" style="fill:#E6E6E6;fill:color(display-p3 0.9020 0.9020 0.9020);fill-opacity:1;"/>
<path d="M382.971 224.715H382.122C381.996 224.715 381.893 224.818 381.893 224.944V225.27C381.893 225.396 381.996 225.499 382.122 225.499H382.971C383.098 225.499 383.2 225.396 383.2 225.27V224.944C383.2 224.818 383.098 224.715 382.971 224.715Z" fill="#E6E6E6" style="fill:#E6E6E6;fill:color(display-p3 0.9020 0.9020 0.9020);fill-opacity:1;"/>
<path d="M385.587 224.715H384.738C384.611 224.715 384.509 224.818 384.509 224.944V225.27C384.509 225.396 384.611 225.499 384.738 225.499H385.587C385.713 225.499 385.816 225.396 385.816 225.27V224.944C385.816 224.818 385.713 224.715 385.587 224.715Z" fill="#E6E6E6" style="fill:#E6E6E6;fill:color(display-p3 0.9020 0.9020 0.9020);fill-opacity:1;"/>
<path d="M388.199 224.715H387.35C387.224 224.715 387.121 224.818 387.121 224.944V225.27C387.121 225.396 387.224 225.499 387.35 225.499H388.199C388.326 225.499 388.428 225.396 388.428 225.27V224.944C388.428 224.818 388.326 224.715 388.199 224.715Z" fill="#E6E6E6" style="fill:#E6E6E6;fill:color(display-p3 0.9020 0.9020 0.9020);fill-opacity:1;"/>
<path d="M390.813 224.715H389.965C389.838 224.715 389.735 224.818 389.735 224.944V225.27C389.735 225.396 389.838 225.499 389.965 225.499H390.813C390.94 225.499 391.043 225.396 391.043 225.27V224.944C391.043 224.818 390.94 224.715 390.813 224.715Z" fill="#E6E6E6" style="fill:#E6E6E6;fill:color(display-p3 0.9020 0.9020 0.9020);fill-opacity:1;"/>
<path d="M393.429 224.715H392.58C392.454 224.715 392.351 224.818 392.351 224.944V225.27C392.351 225.396 392.454 225.499 392.58 225.499H393.429C393.556 225.499 393.658 225.396 393.658 225.27V224.944C393.658 224.818 393.556 224.715 393.429 224.715Z" fill="#E6E6E6" style="fill:#E6E6E6;fill:color(display-p3 0.9020 0.9020 0.9020);fill-opacity:1;"/>
<path d="M354.182 226.022H353.334C353.207 226.022 353.104 226.125 353.104 226.252V226.577C353.104 226.704 353.207 226.807 353.334 226.807H354.182C354.309 226.807 354.412 226.704 354.412 226.577V226.252C354.412 226.125 354.309 226.022 354.182 226.022Z" fill="#E6E6E6" style="fill:#E6E6E6;fill:color(display-p3 0.9020 0.9020 0.9020);fill-opacity:1;"/>
<path d="M356.797 226.022H355.949C355.822 226.022 355.719 226.125 355.719 226.252V226.577C355.719 226.704 355.822 226.807 355.949 226.807H356.797C356.924 226.807 357.026 226.704 357.026 226.577V226.252C357.026 226.125 356.924 226.022 356.797 226.022Z" fill="#E6E6E6" style="fill:#E6E6E6;fill:color(display-p3 0.9020 0.9020 0.9020);fill-opacity:1;"/>
<path d="M359.411 226.022H358.563C358.436 226.022 358.333 226.125 358.333 226.252V226.577C358.333 226.704 358.436 226.807 358.563 226.807H359.411C359.538 226.807 359.641 226.704 359.641 226.577V226.252C359.641 226.125 359.538 226.022 359.411 226.022Z" fill="#E6E6E6" style="fill:#E6E6E6;fill:color(display-p3 0.9020 0.9020 0.9020);fill-opacity:1;"/>
<path d="M362.027 226.022H361.179C361.052 226.022 360.949 226.125 360.949 226.252V226.577C360.949 226.704 361.052 226.807 361.179 226.807H362.027C362.154 226.807 362.256 226.704 362.256 226.577V226.252C362.256 226.125 362.154 226.022 362.027 226.022Z" fill="#E6E6E6" style="fill:#E6E6E6;fill:color(display-p3 0.9020 0.9020 0.9020);fill-opacity:1;"/>
<path d="M364.639 226.022H363.791C363.664 226.022 363.562 226.125 363.562 226.252V226.577C363.562 226.704 363.664 226.807 363.791 226.807H364.639C364.766 226.807 364.869 226.704 364.869 226.577V226.252C364.869 226.125 364.766 226.022 364.639 226.022Z" fill="#E6E6E6" style="fill:#E6E6E6;fill:color(display-p3 0.9020 0.9020 0.9020);fill-opacity:1;"/>
<path d="M367.253 226.022H366.405C366.278 226.022 366.175 226.125 366.175 226.252V226.577C366.175 226.704 366.278 226.807 366.405 226.807H367.253C367.38 226.807 367.482 226.704 367.482 226.577V226.252C367.482 226.125 367.38 226.022 367.253 226.022Z" fill="#E6E6E6" style="fill:#E6E6E6;fill:color(display-p3 0.9020 0.9020 0.9020);fill-opacity:1;"/>
<path d="M369.868 226.022H369.019C368.893 226.022 368.79 226.125 368.79 226.252V226.577C368.79 226.704 368.893 226.807 369.019 226.807H369.868C369.995 226.807 370.097 226.704 370.097 226.577V226.252C370.097 226.125 369.995 226.022 369.868 226.022Z" fill="#E6E6E6" style="fill:#E6E6E6;fill:color(display-p3 0.9020 0.9020 0.9020);fill-opacity:1;"/>
<path d="M372.482 226.022H371.633C371.506 226.022 371.404 226.125 371.404 226.252V226.577C371.404 226.704 371.506 226.807 371.633 226.807H372.482C372.608 226.807 372.711 226.704 372.711 226.577V226.252C372.711 226.125 372.608 226.022 372.482 226.022Z" fill="#E6E6E6" style="fill:#E6E6E6;fill:color(display-p3 0.9020 0.9020 0.9020);fill-opacity:1;"/>
<path d="M375.096 226.022H374.248C374.121 226.022 374.019 226.125 374.019 226.252V226.577C374.019 226.704 374.121 226.807 374.248 226.807H375.096C375.223 226.807 375.326 226.704 375.326 226.577V226.252C375.326 226.125 375.223 226.022 375.096 226.022Z" fill="#E6E6E6" style="fill:#E6E6E6;fill:color(display-p3 0.9020 0.9020 0.9020);fill-opacity:1;"/>
<path d="M377.711 226.022H376.862C376.735 226.022 376.633 226.125 376.633 226.252V226.577C376.633 226.704 376.735 226.807 376.862 226.807H377.711C377.837 226.807 377.94 226.704 377.94 226.577V226.252C377.94 226.125 377.837 226.022 377.711 226.022Z" fill="#E6E6E6" style="fill:#E6E6E6;fill:color(display-p3 0.9020 0.9020 0.9020);fill-opacity:1;"/>
<path d="M380.326 226.022H379.478C379.351 226.022 379.249 226.125 379.249 226.252V226.577C379.249 226.704 379.351 226.807 379.478 226.807H380.326C380.453 226.807 380.556 226.704 380.556 226.577V226.252C380.556 226.125 380.453 226.022 380.326 226.022Z" fill="#E6E6E6" style="fill:#E6E6E6;fill:color(display-p3 0.9020 0.9020 0.9020);fill-opacity:1;"/>
<path d="M382.941 226.022H382.092C381.965 226.022 381.863 226.125 381.863 226.252V226.577C381.863 226.704 381.965 226.807 382.092 226.807H382.941C383.067 226.807 383.17 226.704 383.17 226.577V226.252C383.17 226.125 383.067 226.022 382.941 226.022Z" fill="#E6E6E6" style="fill:#E6E6E6;fill:color(display-p3 0.9020 0.9020 0.9020);fill-opacity:1;"/>
<path d="M385.554 226.022H384.706C384.579 226.022 384.477 226.125 384.477 226.252V226.577C384.477 226.704 384.579 226.807 384.706 226.807H385.554C385.681 226.807 385.784 226.704 385.784 226.577V226.252C385.784 226.125 385.681 226.022 385.554 226.022Z" fill="#E6E6E6" style="fill:#E6E6E6;fill:color(display-p3 0.9020 0.9020 0.9020);fill-opacity:1;"/>
<path d="M388.169 226.022H387.321C387.194 226.022 387.091 226.125 387.091 226.252V226.577C387.091 226.704 387.194 226.807 387.321 226.807H388.169C388.296 226.807 388.398 226.704 388.398 226.577V226.252C388.398 226.125 388.296 226.022 388.169 226.022Z" fill="#E6E6E6" style="fill:#E6E6E6;fill:color(display-p3 0.9020 0.9020 0.9020);fill-opacity:1;"/>
<path d="M390.783 226.022H389.935C389.808 226.022 389.706 226.125 389.706 226.252V226.577C389.706 226.704 389.808 226.807 389.935 226.807H390.783C390.91 226.807 391.013 226.704 391.013 226.577V226.252C391.013 226.125 390.91 226.022 390.783 226.022Z" fill="#E6E6E6" style="fill:#E6E6E6;fill:color(display-p3 0.9020 0.9020 0.9020);fill-opacity:1;"/>
<path d="M393.397 226.022H392.549C392.422 226.022 392.319 226.125 392.319 226.252V226.577C392.319 226.704 392.422 226.807 392.549 226.807H393.397C393.524 226.807 393.626 226.704 393.626 226.577V226.252C393.626 226.125 393.524 226.022 393.397 226.022Z" fill="#E6E6E6" style="fill:#E6E6E6;fill:color(display-p3 0.9020 0.9020 0.9020);fill-opacity:1;"/>
<path d="M375.882 227.587H365.883C365.756 227.587 365.654 227.69 365.654 227.816V228.142C365.654 228.269 365.756 228.371 365.883 228.371H375.882C376.008 228.371 376.111 228.269 376.111 228.142V227.816C376.111 227.69 376.008 227.587 375.882 227.587Z" fill="#E6E6E6" style="fill:#E6E6E6;fill:color(display-p3 0.9020 0.9020 0.9020);fill-opacity:1;"/>
<path d="M404.926 164.424H338.177C338.107 164.423 338.041 164.394 337.993 164.345C337.944 164.295 337.917 164.228 337.917 164.159C337.917 164.09 337.944 164.023 337.993 163.973C338.041 163.924 338.107 163.895 338.177 163.894H404.926C404.995 163.895 405.061 163.924 405.11 163.973C405.158 164.023 405.185 164.09 405.185 164.159C405.185 164.228 405.158 164.295 405.11 164.345C405.061 164.394 404.995 164.423 404.926 164.424Z" fill="#CACACA" style="fill:#CACACA;fill:color(display-p3 0.7922 0.7922 0.7922);fill-opacity:1;"/>
<path d="M342.722 162.536C343.581 162.536 344.278 161.824 344.278 160.946C344.278 160.067 343.581 159.355 342.722 159.355C341.863 159.355 341.167 160.067 341.167 160.946C341.167 161.824 341.863 162.536 342.722 162.536Z" fill="#CCCCCC" style="fill:#CCCCCC;fill:color(display-p3 0.8000 0.8000 0.8000);fill-opacity:1;"/>
<path d="M348.095 162.536C348.954 162.536 349.65 161.824 349.65 160.946C349.65 160.067 348.954 159.355 348.095 159.355C347.236 159.355 346.539 160.067 346.539 160.946C346.539 161.824 347.236 162.536 348.095 162.536Z" fill="#CCCCCC" style="fill:#CCCCCC;fill:color(display-p3 0.8000 0.8000 0.8000);fill-opacity:1;"/>
<path d="M353.468 162.536C354.327 162.536 355.023 161.824 355.023 160.946C355.023 160.067 354.327 159.355 353.468 159.355C352.609 159.355 351.912 160.067 351.912 160.946C351.912 161.824 352.609 162.536 353.468 162.536Z" fill="#CCCCCC" style="fill:#CCCCCC;fill:color(display-p3 0.8000 0.8000 0.8000);fill-opacity:1;"/>
<path d="M401.692 159.747H397.874C397.799 159.749 397.726 159.78 397.673 159.834C397.621 159.888 397.591 159.96 397.591 160.036C397.591 160.112 397.621 160.184 397.673 160.239C397.726 160.293 397.799 160.324 397.874 160.325H401.692C401.767 160.324 401.839 160.293 401.892 160.239C401.945 160.184 401.975 160.112 401.975 160.036C401.975 159.96 401.945 159.888 401.892 159.834C401.839 159.78 401.767 159.749 401.692 159.747Z" fill="#CCCCCC" style="fill:#CCCCCC;fill:color(display-p3 0.8000 0.8000 0.8000);fill-opacity:1;"/>
<path d="M401.692 160.837H397.874C397.798 160.838 397.726 160.87 397.673 160.924C397.62 160.978 397.591 161.05 397.591 161.126C397.591 161.202 397.62 161.274 397.673 161.328C397.726 161.382 397.798 161.413 397.874 161.415H401.691C401.767 161.413 401.839 161.382 401.892 161.328C401.945 161.274 401.975 161.202 401.975 161.126C401.975 161.05 401.945 160.978 401.892 160.924C401.839 160.87 401.767 160.838 401.692 160.837Z" fill="#CCCCCC" style="fill:#CCCCCC;fill:color(display-p3 0.8000 0.8000 0.8000);fill-opacity:1;"/>
<path d="M401.692 161.917H397.874C397.799 161.918 397.726 161.95 397.673 162.004C397.621 162.058 397.591 162.13 397.591 162.206C397.591 162.282 397.621 162.354 397.673 162.408C397.726 162.462 397.799 162.494 397.874 162.495H401.692C401.767 162.494 401.839 162.462 401.892 162.408C401.945 162.354 401.975 162.282 401.975 162.206C401.975 162.13 401.945 162.058 401.892 162.004C401.839 161.95 401.767 161.918 401.692 161.917Z" fill="#CCCCCC" style="fill:#CCCCCC;fill:color(display-p3 0.8000 0.8000 0.8000);fill-opacity:1;"/>
<path d="M376.941 178.883H368.6C367.974 178.883 367.466 179.391 367.466 180.017C367.466 180.644 367.974 181.151 368.6 181.151H376.941C377.567 181.151 378.075 180.644 378.075 180.017C378.075 179.391 377.567 178.883 376.941 178.883Z" fill="white" style="fill:white;fill:white;fill-opacity:1;"/>
<path d="M382.329 183.423H363.212C362.585 183.423 362.078 183.931 362.078 184.557C362.078 185.184 362.585 185.692 363.212 185.692H382.329C382.955 185.692 383.463 185.184 383.463 184.557C383.463 183.931 382.955 183.423 382.329 183.423Z" fill="#E6E6E6" style="fill:#E6E6E6;fill:color(display-p3 0.9020 0.9020 0.9020);fill-opacity:1;"/>
<path d="M382.329 187.959H363.212C362.585 187.959 362.078 188.467 362.078 189.093C362.078 189.72 362.585 190.228 363.212 190.228H382.329C382.955 190.228 383.463 189.72 383.463 189.093C383.463 188.467 382.955 187.959 382.329 187.959Z" fill="#E6E6E6" style="fill:#E6E6E6;fill:color(display-p3 0.9020 0.9020 0.9020);fill-opacity:1;"/>
<path d="M253.536 258.648L249.691 256.809L254.973 240.737L260.648 243.451L253.536 258.648Z" fill="#FFB6B6" style="fill:#FFB6B6;fill:color(display-p3 1.0000 0.7137 0.7137);fill-opacity:1;"/>
<path d="M279.312 256.058C279.033 256.233 278.753 256.405 278.471 256.578C277.909 256.922 277.341 257.261 276.773 257.594C276.488 257.761 276.2 257.928 275.915 258.092V258.1L275.898 258.103L275.892 258.106L275.457 258.213L274.833 256.564L274.545 255.804L274.138 254.728L273.393 252.759L269.467 242.394L275.57 240.889L275.799 241.824H275.802L275.915 242.287L278.047 250.935L278.482 252.703L278.496 252.756L278.759 253.813L278.985 254.728L279.236 255.75L279.312 256.058Z" fill="#FFB6B6" style="fill:#FFB6B6;fill:color(display-p3 1.0000 0.7137 0.7137);fill-opacity:1;"/>
<path d="M315.724 219.656C315.337 220.277 314.941 220.896 314.543 221.509C313.803 222.65 313.044 223.774 312.264 224.881C312.264 224.884 312.261 224.884 312.258 224.887C311.804 225.308 311.301 225.675 310.762 225.98C310.739 225.996 310.714 226.008 310.691 226.022C310.293 226.242 309.87 226.411 309.431 226.527C309.273 226.567 309.112 226.607 308.954 226.646C308.383 226.782 307.819 226.897 307.257 226.999C306.257 227.177 305.268 227.304 304.285 227.383C304.206 227.392 304.127 227.397 304.048 227.403C300.007 227.7 296.072 227.222 291.966 226.44C289.938 226.056 287.868 225.595 285.724 225.118C285.024 224.96 284.32 224.805 283.609 224.649C283.555 224.638 283.499 224.624 283.442 224.613C282.425 224.389 281.392 224.169 280.332 223.952C278.999 223.678 277.624 223.412 276.195 223.161L276.297 225.175C276.381 226.724 276.703 228.251 277.251 229.702C277.861 231.487 278.344 232.899 277.325 235.839L276.833 237.263C277.088 237.969 277.175 238.726 277.089 239.472C277.002 240.218 276.743 240.934 276.333 241.564L276.234 241.714L280.332 252.082L280.598 252.754H278.499L275.918 252.757H271.543L265.231 240.093L264.929 239.488V239.457L265.581 215.12C265.59 214.905 265.607 214.688 265.635 214.473C265.75 213.498 266.058 212.554 266.542 211.699C267.025 210.844 267.674 210.093 268.451 209.491C269.195 208.91 270.047 208.482 270.958 208.233C271.869 207.983 272.821 207.918 273.757 208.04L275.918 208.319L280.332 208.89L283.442 209.294L283.504 209.302L292.675 210.488L293.333 207.805L293.454 207.76L297.315 206.345L310.668 201.45L310.702 201.439L311.581 201.117L311.685 201.287C311.716 201.337 311.747 201.388 311.775 201.439C312.644 202.996 313.35 204.636 313.885 206.337C314.784 209.114 315.525 211.94 316.102 214.801C316.128 214.925 316.15 215.038 316.17 215.14L316.179 215.171C316.187 215.219 316.193 215.25 316.195 215.258C316.46 216.739 316.297 218.265 315.724 219.656Z" fill="#2F2E41" style="fill:#2F2E41;fill:color(display-p3 0.1843 0.1804 0.2549);fill-opacity:1;"/>
<path d="M316.285 210.689C316.243 210.508 316.189 210.325 316.133 210.147C315.684 208.799 315.162 207.477 314.568 206.187C313.902 204.719 313.102 203.145 312.15 201.442C311.69 200.618 311.195 199.76 310.665 198.869C310.399 198.423 310.124 197.968 309.837 197.505C309.826 197.484 309.814 197.463 309.801 197.443L309.719 197.308L296.507 199.076L291.587 199.734L291.293 202.185L291.222 202.792C291.22 202.792 291.22 202.792 291.222 202.795L291.025 204.45V204.453L290.762 206.639L290.739 206.636L283.439 205.69L275.915 204.716L271.873 204.193C270.936 204.071 269.985 204.137 269.074 204.386C268.163 204.635 267.31 205.063 266.566 205.645C265.79 206.247 265.141 206.998 264.657 207.853C264.174 208.708 263.866 209.651 263.75 210.627C263.725 210.825 263.708 211.028 263.7 211.229L259.887 220.264C257.605 225.667 256.152 231.384 255.577 237.221L252.781 246.16L253.179 246.196L259.104 246.747L260.669 246.894L264.115 241.864C264.507 241.291 264.88 240.7 265.227 240.096C265.799 239.109 266.308 238.086 266.75 237.034L274.203 219.298C274.779 219.397 275.35 219.491 275.915 219.58C278.527 220.004 281.035 220.349 283.439 220.617C291.253 221.489 298.02 221.557 304.045 220.817C305.736 220.611 307.372 220.34 308.951 220.004C309.53 219.882 310.101 219.751 310.665 219.611C310.798 219.58 310.928 219.549 311.057 219.515C312.225 219.214 313.298 218.625 314.179 217.802C315.059 216.979 315.72 215.948 316.099 214.804C316.552 213.478 316.616 212.051 316.285 210.689Z" fill="#2F2E41" style="fill:#2F2E41;fill:color(display-p3 0.1843 0.1804 0.2549);fill-opacity:1;"/>
<path d="M254.764 256.021L250.604 254.027L249.951 253.714L248.909 256.273L241.634 257.874C241.274 257.953 240.949 258.145 240.706 258.422C240.463 258.698 240.315 259.046 240.283 259.412C240.252 259.779 240.338 260.147 240.53 260.461C240.723 260.775 241.01 261.02 241.351 261.159L248.46 264.059L250.716 262.029L250.163 264.754L252.84 265.847L255.775 256.507L254.764 256.021Z" fill="#2F2E41" style="fill:#2F2E41;fill:color(display-p3 0.1843 0.1804 0.2549);fill-opacity:1;"/>
<path d="M280.33 252.083L280.596 252.755H280.33V252.083Z" fill="#2F2E41" style="fill:#2F2E41;fill:color(display-p3 0.1843 0.1804 0.2549);fill-opacity:1;"/>
<path d="M278.883 252.896L274.524 254.407L273.84 254.643L274.9 257.195L270.857 263.452C270.657 263.761 270.561 264.126 270.583 264.493C270.605 264.861 270.744 265.212 270.98 265.495C271.215 265.778 271.535 265.978 271.893 266.066C272.251 266.154 272.627 266.125 272.967 265.984L280.059 263.044L280.234 260.013L281.758 262.339L284.43 261.232L279.943 252.53L278.883 252.896Z" fill="#2F2E41" style="fill:#2F2E41;fill:color(display-p3 0.1843 0.1804 0.2549);fill-opacity:1;"/>
<path d="M252.425 159.448C252.631 159.85 252.924 160.203 253.281 160.48C253.639 160.758 254.053 160.953 254.494 161.053C254.936 161.153 255.394 161.155 255.836 161.059C256.278 160.963 256.694 160.771 257.054 160.497L266.221 166.582L266.238 160.865L257.531 155.963C257.03 155.389 256.336 155.018 255.58 154.921C254.825 154.824 254.059 155.008 253.43 155.437C252.801 155.867 252.351 156.512 252.165 157.251C251.98 157.991 252.072 158.772 252.425 159.448Z" fill="#FFB6B6" style="fill:#FFB6B6;fill:color(display-p3 1.0000 0.7137 0.7137);fill-opacity:1;"/>
<path d="M259.274 162.091L263.551 157.226L280.964 167.563L304.047 165.449C305.188 165.345 306.338 165.493 307.416 165.883C308.493 166.273 309.472 166.895 310.281 167.706C311.091 168.516 311.713 169.495 312.102 170.573C312.49 171.651 312.637 172.801 312.532 173.942C312.339 176.002 311.336 177.902 309.744 179.224C308.152 180.547 306.101 181.183 304.04 180.995L278.042 178.588L259.274 162.091Z" fill="#CCCCCC" style="fill:#CCCCCC;fill:color(display-p3 0.8000 0.8000 0.8000);fill-opacity:1;"/>
<path d="M312.849 162.164L312.809 162.114C309.562 161.793 306.291 162.422 303.394 163.923C300.497 165.424 298.097 167.734 296.486 170.571L294.527 174.022C288.191 181.769 292.795 187.111 293.071 187.906L290.872 198.047L291.365 201.441L291.611 202.449L316.718 215.568C318.147 208.7 316.765 202.848 311.557 198.377L316.596 182.699C317.713 179.233 317.956 175.544 317.302 171.961C316.648 168.378 315.119 165.013 312.849 162.164Z" fill="#CCCCCC" style="fill:#CCCCCC;fill:color(display-p3 0.8000 0.8000 0.8000);fill-opacity:1;"/>
<path d="M292.885 238.329H284.832C284.389 238.329 283.961 238.168 283.627 237.878C283.292 237.587 283.074 237.186 283.012 236.747C282.514 233.088 282.514 229.378 283.012 225.719C283.073 225.286 283.287 224.889 283.615 224.599C283.943 224.309 284.363 224.146 284.801 224.138C287.335 223.002 290.064 223.002 292.913 224.138C293.178 224.141 293.44 224.203 293.679 224.318C293.918 224.433 294.129 224.6 294.297 224.805C294.472 225.019 294.597 225.269 294.664 225.537C294.73 225.805 294.736 226.085 294.681 226.356C294.034 229.575 294.034 232.891 294.681 236.111C294.736 236.381 294.73 236.661 294.664 236.929C294.597 237.198 294.472 237.448 294.297 237.661C294.126 237.87 293.91 238.039 293.666 238.154C293.422 238.27 293.155 238.329 292.885 238.329Z" fill="white" style="fill:white;fill:white;fill-opacity:1;"/>
<path d="M292.042 228.342H285.263C285.207 228.343 285.152 228.332 285.1 228.311C285.048 228.29 285.001 228.259 284.961 228.22C284.922 228.18 284.89 228.133 284.869 228.082C284.847 228.03 284.836 227.975 284.836 227.919C284.836 227.863 284.847 227.807 284.869 227.756C284.89 227.704 284.922 227.657 284.961 227.618C285.001 227.579 285.048 227.547 285.1 227.526C285.152 227.505 285.207 227.495 285.263 227.495H292.042C292.098 227.495 292.153 227.505 292.205 227.526C292.257 227.547 292.304 227.579 292.344 227.618C292.383 227.657 292.415 227.704 292.436 227.756C292.458 227.807 292.469 227.863 292.469 227.919C292.469 227.975 292.458 228.03 292.436 228.082C292.415 228.133 292.383 228.18 292.344 228.22C292.304 228.259 292.257 228.29 292.205 228.311C292.153 228.332 292.098 228.343 292.042 228.342Z" fill="white" style="fill:white;fill:white;fill-opacity:1;"/>
<path d="M292.042 231.73H285.263C285.207 231.731 285.152 231.72 285.1 231.699C285.048 231.678 285.001 231.647 284.961 231.607C284.922 231.568 284.89 231.521 284.869 231.469C284.847 231.418 284.836 231.362 284.836 231.306C284.836 231.251 284.847 231.195 284.869 231.143C284.89 231.092 284.922 231.045 284.961 231.006C285.001 230.966 285.048 230.935 285.1 230.914C285.152 230.893 285.207 230.882 285.263 230.883H292.042C292.098 230.882 292.153 230.893 292.205 230.914C292.257 230.935 292.304 230.966 292.344 231.006C292.383 231.045 292.415 231.092 292.436 231.143C292.458 231.195 292.469 231.251 292.469 231.306C292.469 231.362 292.458 231.418 292.436 231.469C292.415 231.521 292.383 231.568 292.344 231.607C292.304 231.647 292.257 231.678 292.205 231.699C292.153 231.72 292.098 231.731 292.042 231.73Z" fill="white" style="fill:white;fill:white;fill-opacity:1;"/>
<path d="M292.042 235.12H285.264C285.208 235.12 285.152 235.11 285.1 235.089C285.048 235.068 285.001 235.037 284.961 234.997C284.922 234.958 284.89 234.911 284.869 234.859C284.847 234.808 284.836 234.752 284.836 234.696C284.836 234.64 284.847 234.585 284.869 234.533C284.89 234.481 284.922 234.435 284.961 234.395C285.001 234.356 285.048 234.325 285.1 234.304C285.152 234.283 285.208 234.272 285.264 234.272H292.042C292.098 234.272 292.153 234.283 292.205 234.304C292.257 234.325 292.304 234.356 292.344 234.395C292.384 234.435 292.415 234.481 292.437 234.533C292.458 234.585 292.47 234.64 292.47 234.696C292.47 234.752 292.458 234.808 292.437 234.859C292.415 234.911 292.384 234.958 292.344 234.997C292.304 235.037 292.257 235.068 292.205 235.089C292.153 235.11 292.098 235.12 292.042 235.12Z" fill="white" style="fill:white;fill:white;fill-opacity:1;"/>
<path d="M253.901 162.241H245.847C245.405 162.241 244.977 162.08 244.642 161.79C244.308 161.499 244.089 161.098 244.027 160.659C243.53 157 243.53 153.291 244.027 149.631C244.089 149.198 244.303 148.801 244.631 148.511C244.959 148.221 245.379 148.058 245.817 148.05C248.35 146.914 251.079 146.914 253.929 148.05C254.194 148.053 254.455 148.115 254.694 148.23C254.933 148.346 255.144 148.512 255.312 148.717C255.487 148.931 255.613 149.181 255.679 149.449C255.746 149.718 255.751 149.997 255.696 150.268C255.049 153.487 255.049 156.803 255.696 160.023C255.751 160.293 255.746 160.573 255.679 160.841C255.613 161.11 255.487 161.36 255.312 161.573C255.141 161.783 254.926 161.951 254.682 162.066C254.438 162.182 254.171 162.241 253.901 162.241Z" fill="white" style="fill:white;fill:white;fill-opacity:1;"/>
<path d="M253.057 152.255H246.279C246.223 152.255 246.168 152.244 246.116 152.223C246.064 152.202 246.017 152.171 245.977 152.132C245.937 152.092 245.906 152.046 245.884 151.994C245.863 151.942 245.852 151.887 245.852 151.831C245.852 151.775 245.863 151.72 245.884 151.668C245.906 151.616 245.937 151.569 245.977 151.53C246.017 151.491 246.064 151.459 246.116 151.438C246.168 151.417 246.223 151.407 246.279 151.407H253.057C253.113 151.407 253.169 151.417 253.221 151.438C253.272 151.459 253.32 151.491 253.359 151.53C253.399 151.569 253.431 151.616 253.452 151.668C253.474 151.72 253.485 151.775 253.485 151.831C253.485 151.887 253.474 151.942 253.452 151.994C253.431 152.046 253.399 152.092 253.359 152.132C253.32 152.171 253.272 152.202 253.221 152.223C253.169 152.244 253.113 152.255 253.057 152.255Z" fill="white" style="fill:white;fill:white;fill-opacity:1;"/>
<path d="M253.057 155.644H246.279C246.223 155.645 246.168 155.634 246.116 155.613C246.064 155.592 246.017 155.561 245.977 155.521C245.937 155.482 245.906 155.435 245.884 155.384C245.863 155.332 245.852 155.276 245.852 155.221C245.852 155.165 245.863 155.109 245.884 155.058C245.906 155.006 245.937 154.959 245.977 154.92C246.017 154.88 246.064 154.849 246.116 154.828C246.168 154.807 246.223 154.796 246.279 154.797H253.057C253.113 154.796 253.169 154.807 253.221 154.828C253.272 154.849 253.32 154.88 253.359 154.92C253.399 154.959 253.431 155.006 253.452 155.058C253.474 155.109 253.485 155.165 253.485 155.221C253.485 155.276 253.474 155.332 253.452 155.384C253.431 155.435 253.399 155.482 253.359 155.521C253.32 155.561 253.272 155.592 253.221 155.613C253.169 155.634 253.113 155.645 253.057 155.644Z" fill="white" style="fill:white;fill:white;fill-opacity:1;"/>
<path d="M253.058 159.034H246.279C246.223 159.034 246.168 159.024 246.116 159.003C246.064 158.982 246.017 158.951 245.977 158.911C245.937 158.872 245.906 158.825 245.884 158.773C245.863 158.722 245.852 158.666 245.852 158.61C245.852 158.554 245.863 158.499 245.884 158.447C245.906 158.395 245.937 158.349 245.977 158.309C246.017 158.27 246.064 158.239 246.116 158.218C246.168 158.197 246.223 158.186 246.279 158.187H253.058C253.113 158.186 253.169 158.197 253.221 158.218C253.273 158.239 253.32 158.27 253.36 158.309C253.399 158.349 253.431 158.395 253.453 158.447C253.474 158.499 253.485 158.554 253.485 158.61C253.485 158.666 253.474 158.722 253.453 158.773C253.431 158.825 253.399 158.872 253.36 158.911C253.32 158.951 253.273 158.982 253.221 159.003C253.169 159.024 253.113 159.034 253.058 159.034Z" fill="white" style="fill:white;fill:white;fill-opacity:1;"/>
<path d="M112.523 182.905H104.47C104.027 182.905 103.599 182.745 103.264 182.454C102.93 182.163 102.712 181.762 102.649 181.323C102.152 177.664 102.152 173.955 102.649 170.295C102.711 169.862 102.925 169.465 103.253 169.175C103.581 168.885 104.001 168.722 104.439 168.714C106.973 167.578 109.701 167.578 112.551 168.714C112.816 168.717 113.077 168.779 113.316 168.894C113.556 169.01 113.766 169.176 113.934 169.381C114.11 169.595 114.235 169.845 114.301 170.113C114.368 170.382 114.374 170.661 114.318 170.932C113.671 174.151 113.671 177.467 114.318 180.687C114.374 180.958 114.368 181.237 114.301 181.505C114.235 181.774 114.11 182.024 113.934 182.238C113.763 182.447 113.548 182.615 113.304 182.73C113.06 182.846 112.793 182.906 112.523 182.905Z" fill="white" style="fill:white;fill:white;fill-opacity:1;"/>
<path d="M111.681 172.92H104.902C104.847 172.92 104.791 172.909 104.739 172.888C104.687 172.867 104.64 172.836 104.601 172.797C104.561 172.757 104.529 172.711 104.508 172.659C104.486 172.607 104.475 172.552 104.475 172.496C104.475 172.44 104.486 172.385 104.508 172.333C104.529 172.281 104.561 172.234 104.601 172.195C104.64 172.156 104.687 172.125 104.739 172.103C104.791 172.082 104.847 172.072 104.902 172.072H111.681C111.737 172.072 111.792 172.082 111.844 172.103C111.896 172.125 111.943 172.156 111.983 172.195C112.023 172.234 112.054 172.281 112.076 172.333C112.097 172.385 112.108 172.44 112.108 172.496C112.108 172.552 112.097 172.607 112.076 172.659C112.054 172.711 112.023 172.757 111.983 172.797C111.943 172.836 111.896 172.867 111.844 172.888C111.792 172.909 111.737 172.92 111.681 172.92Z" fill="white" style="fill:white;fill:white;fill-opacity:1;"/>
<path d="M111.681 176.307H104.902C104.847 176.308 104.791 176.297 104.739 176.276C104.687 176.255 104.64 176.224 104.601 176.185C104.561 176.145 104.529 176.098 104.508 176.047C104.486 175.995 104.475 175.94 104.475 175.884C104.475 175.828 104.486 175.772 104.508 175.721C104.529 175.669 104.561 175.622 104.601 175.583C104.64 175.543 104.687 175.512 104.739 175.491C104.791 175.47 104.847 175.459 104.902 175.46H111.681C111.737 175.459 111.792 175.47 111.844 175.491C111.896 175.512 111.943 175.543 111.983 175.583C112.023 175.622 112.054 175.669 112.076 175.721C112.097 175.772 112.108 175.828 112.108 175.884C112.108 175.94 112.097 175.995 112.076 176.047C112.054 176.098 112.023 176.145 111.983 176.185C111.943 176.224 111.896 176.255 111.844 176.276C111.792 176.297 111.737 176.308 111.681 176.307Z" fill="white" style="fill:white;fill:white;fill-opacity:1;"/>
<path d="M111.679 179.696H104.9C104.844 179.696 104.789 179.686 104.737 179.665C104.685 179.644 104.638 179.613 104.598 179.573C104.558 179.534 104.527 179.487 104.505 179.435C104.484 179.384 104.473 179.328 104.473 179.272C104.473 179.216 104.484 179.161 104.505 179.109C104.527 179.058 104.558 179.011 104.598 178.971C104.638 178.932 104.685 178.901 104.737 178.88C104.789 178.859 104.844 178.848 104.9 178.849H111.679C111.735 178.848 111.79 178.859 111.842 178.88C111.894 178.901 111.941 178.932 111.981 178.971C112.021 179.011 112.052 179.058 112.074 179.109C112.095 179.161 112.106 179.216 112.106 179.272C112.106 179.328 112.095 179.384 112.074 179.435C112.052 179.487 112.021 179.534 111.981 179.573C111.941 179.613 111.894 179.644 111.842 179.665C111.79 179.686 111.735 179.696 111.679 179.696Z" fill="white" style="fill:white;fill:white;fill-opacity:1;"/>
<path d="M295.247 228.036C295.637 227.806 295.971 227.493 296.227 227.12C296.483 226.746 296.653 226.321 296.727 225.874C296.801 225.428 296.776 224.971 296.653 224.535C296.531 224.099 296.315 223.695 296.02 223.352L301.551 213.841L295.842 214.163L291.466 223.145C290.922 223.679 290.593 224.394 290.541 225.154C290.489 225.915 290.718 226.667 291.184 227.27C291.65 227.873 292.321 228.284 293.07 228.425C293.819 228.566 294.593 228.428 295.247 228.036Z" fill="#FFB6B6" style="fill:#FFB6B6;fill:color(display-p3 1.0000 0.7137 0.7137);fill-opacity:1;"/>
<path d="M297.477 221.042L292.366 217.062L301.653 199.066L298.173 176.148C298.001 175.015 298.081 173.859 298.406 172.76C298.731 171.661 299.294 170.648 300.056 169.792C300.817 168.935 301.757 168.257 302.81 167.804C303.863 167.352 305.002 167.137 306.147 167.175C308.215 167.246 310.171 168.134 311.586 169.644C313 171.155 313.757 173.165 313.691 175.234L312.832 201.328L297.477 221.042Z" fill="#CCCCCC" style="fill:#CCCCCC;fill:color(display-p3 0.8000 0.8000 0.8000);fill-opacity:1;"/>
<path d="M50.4691 216.124C50.791 215.801 51.0381 215.41 51.1928 214.981C51.3476 214.552 51.4064 214.094 51.365 213.639C51.3236 213.185 51.1831 212.745 50.9533 212.351C50.7235 211.956 50.4101 211.617 50.035 211.357L55.0053 186.67L49.5166 188.432L45.5381 212.311C45.143 212.97 45.0033 213.751 45.1456 214.506C45.2878 215.261 45.7021 215.938 46.3099 216.408C46.9177 216.878 47.6768 217.108 48.4434 217.056C49.21 217.004 49.9308 216.672 50.4691 216.124Z" fill="#9E616A" style="fill:#9E616A;fill:color(display-p3 0.6196 0.3804 0.4157);fill-opacity:1;"/>
<path d="M57.8068 163.897L54.4013 161.326C54.4013 161.326 51.3971 161.114 50.865 166.531C50.3329 171.949 49.2404 182.507 49.2404 182.507L44.0293 206.643L51.2429 208.226L56.8244 182.18L60.1727 174.445L57.8068 163.897Z" fill="#CCCCCC" style="fill:#CCCCCC;fill:color(display-p3 0.8000 0.8000 0.8000);fill-opacity:1;"/>
<path d="M52.1929 203.304L71.3831 202.984L72.9824 189.871H52.1929V203.304Z" fill="#9E616A" style="fill:#9E616A;fill:color(display-p3 0.6196 0.3804 0.4157);fill-opacity:1;"/>
<path d="M69.4633 284.004H73.8935L76.001 266.916L69.4624 266.916L69.4633 284.004Z" fill="#9E616A" style="fill:#9E616A;fill:color(display-p3 0.6196 0.3804 0.4157);fill-opacity:1;"/>
<path d="M41.709 284.413L46.1391 284.381L48.1269 267.279L42.3651 268.601L41.709 284.413Z" fill="#9E616A" style="fill:#9E616A;fill:color(display-p3 0.6196 0.3804 0.4157);fill-opacity:1;"/>
<path d="M55.5667 178.58L54.563 181.19L54.7635 183.8L74.4094 190.604L73.4348 179.182L71.2263 176.572L55.5667 178.58Z" fill="#FFB6B6" style="fill:#FFB6B6;fill:color(display-p3 1.0000 0.7137 0.7137);fill-opacity:1;"/>
<path d="M63.9947 155.095C67.87 155.095 71.0114 151.953 71.0114 148.078C71.0114 144.203 67.87 141.062 63.9947 141.062C60.1195 141.062 56.978 144.203 56.978 148.078C56.978 151.953 60.1195 155.095 63.9947 155.095Z" fill="#9E616A" style="fill:#9E616A;fill:color(display-p3 0.6196 0.3804 0.4157);fill-opacity:1;"/>
<path d="M68.3635 281.814L75.3667 281.396V284.397L82.0248 288.995C82.3537 289.222 82.6014 289.549 82.7317 289.926C82.862 290.304 82.8682 290.714 82.7492 291.095C82.6303 291.477 82.3925 291.81 82.0706 292.047C81.7487 292.284 81.3595 292.412 80.9598 292.412H72.6223L71.1852 289.444L70.6241 292.412H67.4805L68.3635 281.814Z" fill="#2F2E41" style="fill:#2F2E41;fill:color(display-p3 0.1843 0.1804 0.2549);fill-opacity:1;"/>
<path d="M40.1936 282.237L47.1937 281.77L47.2147 284.77L53.9049 289.322C54.2353 289.546 54.4853 289.871 54.6182 290.248C54.7512 290.625 54.7602 291.034 54.6439 291.417C54.5277 291.799 54.2922 292.134 53.972 292.373C53.6517 292.612 53.2635 292.743 52.8638 292.745L44.5265 292.804L43.0686 289.846L42.5283 292.818L39.3848 292.84L40.1936 282.237Z" fill="#2F2E41" style="fill:#2F2E41;fill:color(display-p3 0.1843 0.1804 0.2549);fill-opacity:1;"/>
<path d="M40.3332 271.312L43.559 245.526L47.3971 218.34C44.5864 213.12 50.9153 196.911 50.9153 196.911L51.8087 196.954L72.029 200.769L72.0246 200.749C76.1603 212.029 77.5305 217.602 77.3039 229.614L76.4891 272.795H76.7447C77.1688 272.795 77.5756 272.964 77.8755 273.264C78.1754 273.564 78.3439 273.97 78.3439 274.394C78.3439 274.819 78.1754 275.225 77.8755 275.525C77.5756 275.825 77.1688 275.994 76.7447 275.994H68.7488C68.5385 275.994 68.3303 275.953 68.1359 275.873C67.9416 275.793 67.765 275.675 67.6162 275.526C67.4674 275.378 67.3494 275.201 67.2688 275.007C67.1883 274.813 67.1468 274.605 67.1468 274.394C67.1468 274.184 67.1883 273.976 67.2688 273.782C67.3494 273.588 67.4674 273.411 67.6162 273.263C67.765 273.114 67.9416 272.996 68.1359 272.916C68.3303 272.836 68.5385 272.795 68.7488 272.795H68.9549L61.6156 221.379L55.393 242.968L48.3566 271.113C50.9153 270.474 50.518 271.956 50.518 272.795C50.518 273.219 50.3495 273.626 50.0496 273.926C49.7497 274.226 49.343 274.394 48.9188 274.394H40.9229C40.551 274.395 40.1906 274.265 39.9039 274.029C39.6172 273.792 39.4221 273.462 39.3522 273.097C39.2823 272.732 39.3421 272.354 39.5211 272.028C39.7002 271.702 39.9874 271.449 40.3332 271.312Z" fill="#2F2E41" style="fill:#2F2E41;fill:color(display-p3 0.1843 0.1804 0.2549);fill-opacity:1;"/>
<path d="M49.3406 197.747L49.9803 191.351C50.0467 191.09 50.1941 190.856 50.4012 190.684C50.6083 190.512 50.8646 190.41 51.1333 190.393C51.3999 187.346 52.5212 174.2 52.5882 173.626L52.5908 173.602L53.1007 162.709C53.1193 162.314 53.2829 161.939 53.5603 161.656C53.8378 161.373 54.2096 161.203 54.6048 161.177L57.2981 161.001C57.335 161 57.37 160.984 57.3957 160.958C57.4214 160.931 57.4358 160.896 57.4358 160.859C57.4358 160.561 57.4944 160.267 57.6082 159.992C57.722 159.717 57.8888 159.467 58.0992 159.257C58.3095 159.047 58.5591 158.88 58.8339 158.766C59.1087 158.652 59.4032 158.594 59.7007 158.594H67.6746C68.1911 158.594 68.6897 158.783 69.077 159.124C69.4642 159.466 69.7134 159.938 69.7777 160.45C69.7813 160.485 69.798 160.518 69.8245 160.541C69.8511 160.565 69.8856 160.578 69.921 160.577H69.922C70.828 160.558 71.7107 160.865 72.41 161.441C73.1092 162.018 73.5786 162.826 73.733 163.719C74.8231 170.062 77.0078 184.457 75.9277 192.46C75.5516 195.246 76.3622 193.04 76.5044 195.371C76.5186 195.596 76.4881 195.822 76.4148 196.035C76.3415 196.249 76.2268 196.446 76.0772 196.615C76.3834 196.726 76.6333 196.954 76.7727 197.248C76.9121 197.542 76.9298 197.88 76.8219 198.187L76.962 198.152C76.921 198.315 76.8482 198.469 76.7479 198.603C76.6476 198.738 76.5218 198.852 76.3775 198.938C76.2333 199.024 76.0735 199.081 75.9073 199.105C75.7411 199.13 75.5717 199.121 75.4087 199.08L54.547 201.907C53.8619 201.734 49.1679 198.432 49.3406 197.747Z" fill="#CCCCCC" style="fill:#CCCCCC;fill:color(display-p3 0.8000 0.8000 0.8000);fill-opacity:1;"/>
<path d="M105.085 171.738C104.954 172.176 104.729 172.579 104.426 172.92C104.122 173.261 103.748 173.531 103.329 173.712C102.91 173.892 102.456 173.979 102 173.965C101.544 173.951 101.096 173.837 100.689 173.632L92.6236 180.992L91.5527 175.328L99.3806 169.225C99.7712 168.563 100.391 168.068 101.122 167.832C101.854 167.597 102.646 167.638 103.349 167.948C104.052 168.258 104.617 168.815 104.937 169.513C105.257 170.212 105.31 171.004 105.085 171.738Z" fill="#9E616A" style="fill:#9E616A;fill:color(display-p3 0.6196 0.3804 0.4157);fill-opacity:1;"/>
<path d="M77.0124 166.114C77.0124 166.114 74.2002 159.758 70.6483 161.022C67.0965 162.285 68.9303 168.451 68.9303 168.451L82.2748 188.559C82.2748 188.559 101.522 176.212 99.1819 176.125C96.8414 176.038 96.1413 171.781 96.1413 171.781L85.9686 176.864L85.6244 175.054L85.0727 175.606L83.6491 174.486L77.0124 166.114Z" fill="#CCCCCC" style="fill:#CCCCCC;fill:color(display-p3 0.8000 0.8000 0.8000);fill-opacity:1;"/>
<path d="M307.06 159.134C312.471 159.134 316.857 154.748 316.857 149.337C316.857 143.927 312.471 139.541 307.06 139.541C301.65 139.541 297.264 143.927 297.264 149.337C297.264 154.748 301.65 159.134 307.06 159.134Z" fill="#FFB6B6" style="fill:#FFB6B6;fill:color(display-p3 1.0000 0.7137 0.7137);fill-opacity:1;"/>
<path d="M338.5 163.75C337.369 165.352 335.719 166.514 333.83 167.038C333.073 167.263 332.293 167.396 331.505 167.433C331.407 166.542 331.174 165.671 330.814 164.85C330.85 165.724 330.729 166.596 330.455 167.427C329.272 167.36 328.115 167.05 327.056 166.516C326.017 165.993 325.113 165.235 324.418 164.302C323.722 163.369 323.254 162.287 323.049 161.141C322.634 158.462 323.849 155.83 324.288 153.155C324.729 150.48 323.901 147.091 321.282 146.388C319.288 145.852 319.512 146.084 317.853 147.315C319.578 149.865 313.208 159.21 310.601 158.395C309.127 157.934 308.183 156.582 307.879 156.582C305.83 160.112 309.688 166.059 305.8 167.294L306.12 166.973C308.467 164.086 303.562 157.976 305.909 155.089C306.563 154.281 307.26 153.324 307.067 152.303C306.884 151.332 305.343 150.818 304.891 151.616C305.703 149.756 304.504 147.274 302.52 146.797C300.757 146.372 300.789 146.895 299.021 147.123C298.905 146.359 298.689 145.613 298.378 144.905C298.41 145.668 298.321 146.431 298.114 147.165C297.489 147.153 296.886 146.935 296.398 146.545C294.955 145.382 295.247 142.941 296.535 141.609C297.824 140.277 299.74 139.798 301.567 139.488C302.098 135.789 312.304 135.403 313.657 139.099C314.233 136.339 317.688 134.906 320.374 135.763C323.059 136.619 324.923 139.127 325.904 141.77C326.885 144.411 327.159 147.254 327.764 150.006C328.368 152.758 329.389 155.56 331.493 157.436C333.596 159.31 337.023 159.93 339.239 158.19C339.561 159.109 339.662 160.092 339.534 161.058C339.405 162.024 339.051 162.946 338.5 163.75Z" fill="#2F2E41" style="fill:#2F2E41;fill:color(display-p3 0.1843 0.1804 0.2549);fill-opacity:1;"/>
<path d="M430.407 186.109L429.036 192.99C428.932 193.516 428.824 194.052 428.707 194.583C427.561 194.345 426.372 194.411 425.259 194.775C426.142 196.037 426.933 197.36 427.627 198.735C426.762 201.398 425.494 203.859 423.371 205.639C421.953 206.802 420.26 207.579 418.454 207.897C416.648 208.214 414.791 208.061 413.062 207.452L413.123 207.18C410.84 202.751 412.08 197.166 414.917 193.075C416.364 191.057 418.078 189.244 420.013 187.688C421.929 186.091 424.001 184.658 426.053 183.244C426.514 182.927 427.059 182.755 427.619 182.749C428.178 182.743 428.727 182.905 429.194 183.212C429.661 183.52 430.026 183.96 430.243 184.476C430.459 184.992 430.516 185.561 430.407 186.109Z" fill="#E4E4E4" style="fill:#E4E4E4;fill:color(display-p3 0.8941 0.8941 0.8941);fill-opacity:1;"/>
<path d="M413.552 224.008C412.975 219.803 412.381 215.545 412.786 211.294C413.146 207.52 414.297 203.833 416.642 200.81C417.886 199.209 419.401 197.837 421.117 196.755C421.564 196.474 421.976 197.182 421.53 197.463C418.561 199.34 416.265 202.11 414.972 205.376C413.544 209.008 413.315 212.967 413.563 216.824C413.712 219.157 414.027 221.474 414.345 223.79C414.371 223.895 414.355 224.005 414.302 224.099C414.249 224.193 414.162 224.263 414.058 224.294C413.954 224.323 413.842 224.309 413.747 224.255C413.653 224.201 413.583 224.113 413.554 224.008L413.552 224.008Z" fill="#F2F2F2" style="fill:#F2F2F2;fill:color(display-p3 0.9490 0.9490 0.9490);fill-opacity:1;"/>
<path d="M446.21 293.187L7.6343 293.331C7.48626 293.331 7.34443 293.272 7.23989 293.167C7.13536 293.062 7.07666 292.92 7.07666 292.772C7.07666 292.624 7.13536 292.482 7.23989 292.377C7.34443 292.272 7.48626 292.213 7.6343 292.213L446.21 292.068C446.358 292.069 446.5 292.128 446.604 292.233C446.709 292.338 446.768 292.48 446.768 292.628C446.768 292.776 446.709 292.918 446.604 293.023C446.5 293.127 446.358 293.186 446.21 293.187Z" fill="#CACACA" style="fill:#CACACA;fill:color(display-p3 0.7922 0.7922 0.7922);fill-opacity:1;"/>
<path d="M55.7349 143.78C54.6588 144.296 53.4542 143.519 52.5251 142.749L52.8574 143.036C51.2154 144.634 50.4477 146.932 50.0725 149.195C49.6971 151.455 49.6552 153.767 49.1824 156.011C48.7093 158.253 47.7278 160.505 45.8945 161.878C43.4384 163.717 40.0511 163.599 37.037 163.035C36.9969 163.027 36.9595 163.021 36.9193 163.013C37.7303 160.671 38.06 158.19 37.8885 155.718C37.0806 158.195 35.7053 160.45 33.872 162.301C31.8737 161.752 29.9232 161.041 28.0395 160.176C26.8207 159.615 25.5084 158.848 25.1701 157.549C24.831 156.26 25.6185 154.908 26.6715 154.094C27.7244 153.28 29.0168 152.856 30.2164 152.276C31.414 151.699 32.5991 150.876 33.0787 149.634C34.1847 146.776 31.034 143.497 32.2619 140.688C32.8674 139.307 34.3505 138.555 35.7445 137.976C37.8725 137.094 40.0578 136.357 42.2853 135.77C44.2407 135.254 46.2824 134.853 48.2744 135.191C50.2664 135.529 52.218 136.741 52.9349 138.633C54.1311 139.037 55.4011 139.493 56.1688 140.5C56.9362 141.504 56.8743 143.234 55.7349 143.78Z" fill="#2F2E41" style="fill:#2F2E41;fill:color(display-p3 0.1843 0.1804 0.2549);fill-opacity:1;"/>
<path d="M65.3111 140.47C62.2325 138.039 59.7434 138.454 57.8231 139.964C57.5003 139.605 56.1266 140.593 55.6614 140.451L53.979 143.61C53.1133 145.137 52.7581 146.697 52.8981 147.574C51.3056 152.04 55.0819 155.056 59.5478 156.648C61.3297 157.288 63.274 157.316 65.0737 156.728L65.1286 155.967L65.4668 156.591C65.4668 156.591 69.5494 164.997 70.5141 165.375C69.9288 163.856 68.3848 156.639 67.9539 155.135C67.363 153.088 67.7666 149.836 68.1139 147.842C68.3304 146.613 68.3417 145.356 68.1475 144.124L68.1389 144.07L69.0941 145.998L71.2373 144.65C70.4182 142.264 70.4018 139.41 65.3111 140.47Z" fill="#2F2E41" style="fill:#2F2E41;fill:color(display-p3 0.1843 0.1804 0.2549);fill-opacity:1;"/>
</svg>
