<svg width="394" height="306" viewBox="0 0 394 306" fill="none" xmlns="http://www.w3.org/2000/svg">
<ellipse cx="195.374" cy="153" rx="153" ry="153" fill="#6575B1" style="fill:#6575B1;fill:color(display-p3 0.3961 0.4588 0.6941);fill-opacity:1;"/>
<g clip-path="url(#clip0_22549_63146)">
<path d="M297.503 282.49L297.937 272.753C302.468 270.34 307.521 269.066 312.658 269.04C305.588 274.8 306.472 285.902 301.678 293.648C300.165 296.052 298.127 298.086 295.718 299.599C293.308 301.112 290.587 302.066 287.757 302.389L281.841 305.998C281.029 301.489 281.208 296.857 282.365 292.423C283.523 287.989 285.631 283.858 288.546 280.313C290.2 278.341 292.097 276.585 294.193 275.085C295.61 278.808 297.503 282.49 297.503 282.49Z" fill="#F2F2F2" style="fill:#F2F2F2;fill:color(display-p3 0.9490 0.9490 0.9490);fill-opacity:1;"/>
<path d="M94.3766 195.93C93.9856 195.575 93.6777 195.138 93.4744 194.652C93.2711 194.165 93.1774 193.639 93.2 193.112C93.2225 192.585 93.3607 192.07 93.6049 191.602C93.849 191.134 94.1931 190.725 94.613 190.404L90.5596 178.238L97.016 179.967L99.8754 191.255C100.37 191.993 100.575 192.887 100.453 193.766C100.33 194.646 99.8881 195.45 99.2103 196.026C98.5325 196.603 97.6661 196.911 96.7752 196.893C95.8843 196.876 95.0309 196.533 94.3766 195.93Z" fill="#A0616A" style="fill:#A0616A;fill:color(display-p3 0.6275 0.3804 0.4157);fill-opacity:1;"/>
<path d="M106.077 129.83C107.148 130.442 113.487 128.925 114.725 129.357C114.041 133.511 117.753 131.952 113.723 137.408C109.692 142.863 101.575 159.221 99.7308 165.334C97.8868 171.448 99.712 180.063 99.4358 182.961C99.3023 184.64 99.3106 186.327 99.4607 188.004C97.2832 187.977 95.1369 188.427 92.9254 188.139C90.5669 181.49 88.9812 172.025 87.9044 166.794C86.8277 161.563 86.7883 163.775 87.2821 161.159C87.776 158.544 87.8956 160.445 87.3768 157.942C86.858 155.44 88.9561 152.296 90.8947 150.503C91.7305 148.108 92.8107 145.874 93.6382 143.504C99.7021 138.233 100.101 135.188 106.077 129.83Z" fill="white" style="fill:white;fill:white;fill-opacity:1;"/>
<path d="M282.259 299.252H276.902L274.354 278.662H282.261L282.259 299.252Z" fill="#FFB6B6" style="fill:#FFB6B6;fill:color(display-p3 1.0000 0.7137 0.7137);fill-opacity:1;"/>
<path d="M283.623 304.43L266.349 304.429V304.212C266.349 302.435 267.057 300.731 268.318 299.475C269.579 298.218 271.289 297.512 273.072 297.512L276.228 295.127L282.116 297.513L283.624 297.513L283.623 304.43Z" fill="#2F2E41" style="fill:#2F2E41;fill:color(display-p3 0.1843 0.1804 0.2549);fill-opacity:1;"/>
<path d="M257.371 299.252H252.013L249.465 278.662H257.372L257.371 299.252Z" fill="#FFB6B6" style="fill:#FFB6B6;fill:color(display-p3 1.0000 0.7137 0.7137);fill-opacity:1;"/>
<path d="M258.737 304.43L241.463 304.429V304.212C241.463 302.435 242.171 300.731 243.432 299.475C244.693 298.218 246.403 297.512 248.187 297.512L251.343 295.127L257.23 297.513L258.738 297.513L258.737 304.43Z" fill="#2F2E41" style="fill:#2F2E41;fill:color(display-p3 0.1843 0.1804 0.2549);fill-opacity:1;"/>
<path d="M255.052 186.685L289.899 187.553C296.517 191.134 296.618 198.887 294.449 208.091C294.449 208.091 295.181 213.561 293.717 215.02C292.253 216.479 291.521 216.479 292.253 219.032C292.985 221.585 289.117 225.755 289.587 226.223C290.057 226.691 291.155 229.244 291.155 229.244L287.495 250.032C287.495 250.032 284.933 286.138 284.201 286.868C283.468 287.597 282.736 286.868 283.469 288.691C284.201 290.515 284.933 289.785 284.201 290.515C283.552 291.211 282.941 291.942 282.37 292.703H273.521C273.521 292.703 272.854 289.056 272.854 288.691C272.854 288.326 272.122 286.138 272.122 285.773C272.122 285.409 272.769 284.764 272.769 284.764C272.992 284.023 273.143 283.261 273.22 282.491C273.22 281.762 275.416 253.679 275.416 253.679L271.024 217.208L260.409 252.95C260.409 252.95 260.409 284.315 259.677 285.044C258.945 285.773 258.945 285.409 259.311 286.868C259.677 288.326 261.141 287.962 260.043 289.056C258.945 290.15 258.579 288.326 258.945 290.15L259.311 291.973L248.33 292.13C248.33 292.13 246.866 289.056 247.598 287.962C248.33 286.868 248.286 287.166 247.393 285.376C246.5 283.585 246.134 283.22 246.5 282.856C246.866 282.491 246.866 280.551 246.866 280.551L248.696 245.656C248.696 245.656 249.062 208.82 249.062 207.726C249.09 207.163 248.986 206.601 248.758 206.085V204.6L250.16 199.338L255.052 186.685Z" fill="#2F2E41" style="fill:#2F2E41;fill:color(display-p3 0.1843 0.1804 0.2549);fill-opacity:1;"/>
<path d="M275.981 114.484C281.961 114.484 286.809 109.654 286.809 103.695C286.809 97.7373 281.961 92.9072 275.981 92.9072C270.002 92.9072 265.154 97.7373 265.154 103.695C265.154 109.654 270.002 114.484 275.981 114.484Z" fill="#FFB6B6" style="fill:#FFB6B6;fill:color(display-p3 1.0000 0.7137 0.7137);fill-opacity:1;"/>
<path d="M270.571 121.614C268.238 122.995 266.843 125.534 266.042 128.117C264.559 132.9 263.666 137.845 263.384 142.843L262.538 157.806L252.06 189.667C261.14 197.323 295.274 191.407 295.274 191.407C295.274 191.407 296.322 191.059 295.274 190.015C294.226 188.971 293.206 189.896 294.254 188.852C295.302 187.808 294.58 188.971 294.23 187.927C293.881 186.883 294.23 187.579 294.58 187.231C294.929 186.883 291.876 183.751 291.876 183.751L294.67 165.463L298.162 128.574C293.971 123.354 285.542 120.276 285.542 120.276L283.364 116.37L272.475 117.238L270.571 121.614Z" fill="#3F3D56" style="fill:#3F3D56;fill:color(display-p3 0.2471 0.2392 0.3373);fill-opacity:1;"/>
<path d="M269.085 97.3657C269.504 97.369 269.921 97.4235 270.326 97.528C271.126 97.7196 271.938 97.8553 272.756 97.9341C275.263 98.1691 277.618 99.2342 279.446 100.959C281.273 102.684 282.468 104.97 282.839 107.451C283.469 106.905 284.9 105.899 286.074 106.834C286.091 106.848 286.102 106.856 286.143 106.837C286.922 106.468 288.306 101.934 288.348 97.9423C288.37 95.8235 288.035 93.1179 286.315 92.2611L286.225 92.2159L286.201 92.1178C286.086 91.6412 284.802 90.8276 282.571 90.1944C278.516 89.0436 272.592 88.8773 269.188 92.1763C268.931 93.2885 267.973 93.5932 267.127 93.863C266.189 94.1616 265.38 94.4193 265.252 95.565C265.146 97.1953 265.153 98.8311 265.275 100.46C265.593 99.4635 266.216 98.5908 267.058 97.9655C267.656 97.5641 268.364 97.3548 269.085 97.3657Z" fill="#2F2E41" style="fill:#2F2E41;fill:color(display-p3 0.1843 0.1804 0.2549);fill-opacity:1;"/>
<path d="M248.932 156.979L266.618 145.693L257.71 133.894L248.914 144.675L221.507 146.35C220.787 145.64 219.874 145.154 218.881 144.952C217.888 144.75 216.857 144.84 215.915 145.211C214.972 145.583 214.158 146.219 213.573 147.044C212.987 147.868 212.655 148.844 212.616 149.853C212.578 150.862 212.835 151.861 213.356 152.727C213.877 153.593 214.64 154.29 215.552 154.731C216.463 155.173 217.484 155.341 218.49 155.214C219.495 155.088 220.442 154.672 221.215 154.019L248.932 156.979Z" fill="#FFB6B6" style="fill:#FFB6B6;fill:color(display-p3 1.0000 0.7137 0.7137);fill-opacity:1;"/>
<path d="M283.036 129.937C284.063 136.127 264.678 147.947 264.678 147.947C264.678 146.494 253.108 157.463 252.586 156.258C251.101 152.833 250.058 144.722 247.984 143.424C246.798 142.681 255.127 135.706 255.127 135.706C255.127 135.706 259.487 131.33 265.209 125.809C266.797 124.219 268.764 123.054 270.926 122.425C273.087 121.795 275.374 121.721 277.572 122.209C277.572 122.209 282.01 123.748 283.036 129.937Z" fill="#3F3D56" style="fill:#3F3D56;fill:color(display-p3 0.2471 0.2392 0.3373);fill-opacity:1;"/>
<path d="M263.327 201.008C263.335 207.632 262.221 214.21 260.034 220.466C259.934 220.756 259.829 221.043 259.725 221.334C255.247 233.45 246.918 243.778 236.007 250.743C235.262 251.22 234.508 251.676 233.742 252.119C225.024 257.154 215.156 259.877 205.08 260.027C204.749 260.031 204.418 260.035 204.087 260.035C203.66 260.035 203.237 260.031 202.815 260.022C192.726 259.823 182.857 257.046 174.153 251.958C173.387 251.511 172.632 251.047 171.888 250.565C159.774 242.74 150.941 230.78 147.046 216.929C143.15 203.077 144.461 188.285 150.732 175.327C150.871 175.037 151.015 174.75 151.163 174.459C156.101 164.694 163.664 156.487 173.009 150.752C182.353 145.018 193.112 141.981 204.087 141.981C215.061 141.981 225.82 145.018 235.165 150.752C244.51 156.487 252.072 164.694 257.011 174.459C257.159 174.75 257.303 175.037 257.442 175.327C261.329 183.334 263.341 192.115 263.327 201.008Z" fill="#B5B9C5" style="fill:#B5B9C5;fill:color(display-p3 0.7098 0.7251 0.7708);fill-opacity:1;"/>
<path d="M244.998 220.466V221.334H250.304V220.466H244.998ZM234.387 220.466V221.334H239.693V220.466H234.387ZM223.776 220.466V221.334H229.082V220.466H223.776ZM213.165 220.466V221.334H218.471V220.466H213.165ZM202.554 220.466V221.334H207.86V220.466H202.554ZM191.943 220.466V221.334H197.249V220.466H191.943ZM181.332 220.466V221.334H186.638V220.466H181.332ZM170.726 220.466V221.334H176.027V220.466H170.726ZM160.115 220.466V221.334H165.42V220.466H160.115ZM149.504 220.466V221.334H154.809V220.466H149.504ZM260.035 220.466H255.609V221.334H259.725L260.035 220.466Z" fill="#E6E6E6" style="fill:#E6E6E6;fill:color(display-p3 0.9020 0.9020 0.9020);fill-opacity:1;"/>
<path d="M255.607 214.386V215.254H260.913V214.386H255.607ZM244.996 214.386V215.254H250.302V214.386H244.996ZM234.385 214.386V215.254H239.691V214.386H234.385ZM223.774 214.386V215.254H229.08V214.386H223.774ZM213.163 214.386V215.254H218.469V214.386H213.163ZM202.552 214.386V215.254H207.858V214.386H202.552ZM191.941 214.386V215.254H197.247V214.386H191.941ZM181.33 214.386V215.254H186.636V214.386H181.33ZM170.724 214.386V215.254H176.025V214.386H170.724ZM160.113 214.386V215.254H165.418V214.386H160.113ZM149.502 214.386V215.254H154.807V214.386H149.502Z" fill="#E6E6E6" style="fill:#E6E6E6;fill:color(display-p3 0.9020 0.9020 0.9020);fill-opacity:1;"/>
<path d="M255.607 201.803V202.671H260.913V201.803H255.607ZM244.996 201.803V202.671H250.302V201.803H244.996ZM234.385 201.803V202.671H239.691V201.803H234.385ZM223.774 201.803V202.671H229.08V201.803H223.774ZM213.163 201.803V202.671H218.469V201.803H213.163ZM202.552 201.803V202.671H207.858V201.803H202.552ZM191.941 201.803V202.671H197.247V201.803H191.941ZM181.33 201.803V202.671H186.636V201.803H181.33ZM170.724 201.803V202.671H176.025V201.803H170.724ZM160.113 201.803V202.671H165.418V201.803H160.113ZM149.502 201.803V202.671H154.807V201.803H149.502Z" fill="#E6E6E6" style="fill:#E6E6E6;fill:color(display-p3 0.9020 0.9020 0.9020);fill-opacity:1;"/>
<path d="M255.609 193.121V193.989H260.915V193.121H255.609ZM244.998 193.121V193.989H250.304V193.121H244.998ZM234.387 193.121V193.989H239.693V193.121H234.387ZM223.776 193.121V193.989H229.082V193.121H223.776ZM213.165 193.121V193.989H218.471V193.121H213.165ZM202.554 193.121V193.989H207.86V193.121H202.554ZM191.943 193.121V193.989H197.249V193.121H191.943ZM181.332 193.121V193.989H186.638V193.121H181.332ZM170.726 193.121V193.989H176.027V193.121H170.726ZM160.115 193.121V193.989H165.42V193.121H160.115ZM149.504 193.121V193.989H154.809V193.121H149.504Z" fill="#E6E6E6" style="fill:#E6E6E6;fill:color(display-p3 0.9020 0.9020 0.9020);fill-opacity:1;"/>
<path d="M257.013 174.457H255.61V175.325H257.444C257.305 175.034 257.161 174.748 257.013 174.457ZM244.999 174.457V175.325H250.305V174.457H244.999ZM234.388 174.457V175.325H239.694V174.457H234.388ZM223.777 174.457V175.325H229.083V174.457H223.777ZM213.166 174.457V175.325H218.472V174.457H213.166ZM202.555 174.457V175.325H207.861V174.457H202.555ZM191.944 174.457V175.325H197.25V174.457H191.944ZM181.334 174.457V175.325H186.639V174.457H181.334ZM170.727 174.457V175.325H176.028V174.457H170.727ZM160.116 174.457V175.325H165.421V174.457H160.116ZM151.165 174.457C151.017 174.748 150.873 175.034 150.733 175.325H154.811V174.457H151.165Z" fill="#E6E6E6" style="fill:#E6E6E6;fill:color(display-p3 0.9020 0.9020 0.9020);fill-opacity:1;"/>
<path d="M236.007 177.384V250.742C235.262 251.22 234.508 251.675 233.742 252.118V177.384H236.007Z" fill="#3F3D56" style="fill:#3F3D56;fill:color(display-p3 0.2471 0.2392 0.3373);fill-opacity:1;"/>
<path d="M205.079 201.69V260.027C204.748 260.032 204.417 260.036 204.086 260.036C203.659 260.036 203.237 260.032 202.814 260.023V201.69H205.079Z" fill="#3F3D56" style="fill:#3F3D56;fill:color(display-p3 0.2471 0.2392 0.3373);fill-opacity:1;"/>
<path d="M174.151 177.384V251.957C173.384 251.51 172.629 251.046 171.886 250.564V177.384H174.151Z" fill="#3F3D56" style="fill:#3F3D56;fill:color(display-p3 0.2471 0.2392 0.3373);fill-opacity:1;"/>
<path d="M63.1635 277.231L62.2995 265.257C56.6397 262.438 50.3748 261.038 44.0488 261.179C52.9486 268.033 52.2358 281.733 58.3994 291.109C60.3442 294.018 62.9213 296.454 65.9395 298.237C68.9577 300.019 72.3398 301.102 75.835 301.404L83.2418 305.65C84.0891 300.07 83.7122 294.374 82.1372 288.953C80.5623 283.532 77.8266 278.516 74.1187 274.25C72.0148 271.878 69.6194 269.779 66.989 268.002C65.3701 272.634 63.1635 277.231 63.1635 277.231Z" fill="#F2F2F2" style="fill:#F2F2F2;fill:color(display-p3 0.9490 0.9490 0.9490);fill-opacity:1;"/>
<path d="M234.577 183.211C239.148 183.211 242.853 179.519 242.853 174.964C242.853 170.41 239.148 166.718 234.577 166.718C230.006 166.718 226.301 170.41 226.301 174.964C226.301 179.519 230.006 183.211 234.577 183.211Z" fill="#374EA9" style="fill:#374EA9;fill:color(display-p3 0.2157 0.3059 0.6627);fill-opacity:1;"/>
<path d="M238.826 171.53C238.702 171.412 238.536 171.346 238.364 171.346C238.192 171.346 238.027 171.412 237.902 171.53C236.146 172.926 234.569 174.531 233.206 176.31C232.871 175.665 232.536 175.02 232.202 174.374C231.816 173.63 230.687 174.288 231.073 175.032C231.563 175.975 232.052 176.919 232.542 177.862C232.601 177.959 232.684 178.038 232.782 178.094C232.881 178.149 232.993 178.178 233.106 178.178C233.219 178.178 233.331 178.149 233.429 178.094C233.528 178.038 233.611 177.959 233.67 177.862C235.123 175.824 236.859 174.002 238.826 172.451C238.948 172.328 239.016 172.163 239.016 171.99C239.016 171.818 238.948 171.653 238.826 171.53Z" fill="white" style="fill:white;fill:white;fill-opacity:1;"/>
<path d="M204.084 207.517C208.655 207.517 212.36 203.825 212.36 199.271C212.36 194.716 208.655 191.024 204.084 191.024C199.513 191.024 195.808 194.716 195.808 199.271C195.808 203.825 199.513 207.517 204.084 207.517Z" fill="#374EA9" style="fill:#374EA9;fill:color(display-p3 0.2157 0.3059 0.6627);fill-opacity:1;"/>
<path d="M208.337 195.836C208.212 195.717 208.047 195.651 207.875 195.651C207.703 195.651 207.537 195.717 207.413 195.836C205.657 197.231 204.079 198.837 202.716 200.616C202.382 199.97 202.047 199.325 201.713 198.68C201.326 197.935 200.198 198.593 200.584 199.337C201.074 200.281 201.563 201.225 202.052 202.168C202.111 202.264 202.194 202.344 202.293 202.399C202.392 202.455 202.503 202.484 202.617 202.484C202.73 202.484 202.841 202.455 202.94 202.399C203.039 202.344 203.122 202.264 203.181 202.168C204.633 200.13 206.369 198.308 208.337 196.756C208.458 196.634 208.527 196.468 208.527 196.296C208.527 196.124 208.458 195.958 208.337 195.836Z" fill="white" style="fill:white;fill:white;fill-opacity:1;"/>
<path d="M173.159 184.949C177.73 184.949 181.435 181.257 181.435 176.702C181.435 172.148 177.73 168.456 173.159 168.456C168.588 168.456 164.883 172.148 164.883 176.702C164.883 181.257 168.588 184.949 173.159 184.949Z" fill="#374EA9" style="fill:#374EA9;fill:color(display-p3 0.2157 0.3059 0.6627);fill-opacity:1;"/>
<path d="M177.409 173.263C177.285 173.145 177.119 173.079 176.947 173.079C176.775 173.079 176.61 173.145 176.485 173.263C174.729 174.659 173.152 176.264 171.789 178.043C171.454 177.398 171.119 176.753 170.785 176.108C170.399 175.363 169.271 176.021 169.656 176.765C170.146 177.709 170.635 178.652 171.125 179.596C171.184 179.692 171.267 179.772 171.365 179.827C171.464 179.882 171.576 179.911 171.689 179.911C171.802 179.911 171.914 179.882 172.012 179.827C172.111 179.772 172.194 179.692 172.253 179.596C173.706 177.558 175.442 175.735 177.409 174.184C177.531 174.062 177.599 173.896 177.599 173.724C177.599 173.551 177.531 173.386 177.409 173.263Z" fill="white" style="fill:white;fill:white;fill-opacity:1;"/>
<path d="M291.848 170.839L297.296 150.629L282.737 147.883L283.52 161.755L264.39 181.382C263.377 181.341 262.374 181.594 261.503 182.111C260.632 182.628 259.931 183.386 259.486 184.293C259.04 185.2 258.868 186.216 258.992 187.219C259.116 188.221 259.53 189.166 260.184 189.938C260.838 190.71 261.703 191.276 262.673 191.566C263.644 191.857 264.679 191.86 265.651 191.575C266.623 191.289 267.491 190.729 268.149 189.96C268.807 189.192 269.227 188.25 269.357 187.248L291.848 170.839Z" fill="#FFB6B6" style="fill:#FFB6B6;fill:color(display-p3 1.0000 0.7137 0.7137);fill-opacity:1;"/>
<path d="M298.786 127.964C303.728 131.852 297.385 153.596 297.385 153.596C296.403 152.522 295.262 168.394 294.061 167.854C290.65 166.318 284.396 161.021 281.986 161.453C280.607 161.7 282.052 150.955 282.052 150.955C282.052 150.955 282.317 144.794 282.816 136.873C282.916 134.632 283.583 132.451 284.756 130.536C285.928 128.62 287.568 127.031 289.523 125.916C289.523 125.916 293.844 124.077 298.786 127.964Z" fill="#3F3D56" style="fill:#3F3D56;fill:color(display-p3 0.2471 0.2392 0.3373);fill-opacity:1;"/>
<path d="M128.09 173.343L134.08 199.977L95.6963 197.598L106.134 171.44L128.09 173.343Z" fill="#A0616A" style="fill:#A0616A;fill:color(display-p3 0.6275 0.3804 0.4157);fill-opacity:1;"/>
<path d="M121.697 296.271L126.009 296.271L128.06 279.7H121.696L121.697 296.271Z" fill="#A0616A" style="fill:#A0616A;fill:color(display-p3 0.6275 0.3804 0.4157);fill-opacity:1;"/>
<path d="M120.238 294.151L127.054 293.746V296.656L133.534 301.115C133.854 301.335 134.095 301.652 134.222 302.018C134.349 302.384 134.355 302.781 134.239 303.151C134.123 303.521 133.892 303.845 133.579 304.075C133.265 304.304 132.887 304.428 132.498 304.428H124.383L122.984 301.55L122.438 304.428H119.379L120.238 294.151Z" fill="#2F2E41" style="fill:#2F2E41;fill:color(display-p3 0.1843 0.1804 0.2549);fill-opacity:1;"/>
<path d="M80.9463 294.133L85.1602 295.043L90.6904 279.283L84.4715 277.938L80.9463 294.133Z" fill="#A0616A" style="fill:#A0616A;fill:color(display-p3 0.6275 0.3804 0.4157);fill-opacity:1;"/>
<path d="M79.9718 291.751L86.7189 292.795L86.0998 295.638L91.4836 301.365C91.7496 301.648 91.9179 302.008 91.9639 302.393C92.0099 302.777 91.9312 303.167 91.7394 303.504C91.5475 303.841 91.2525 304.108 90.8975 304.267C90.5424 304.425 90.1459 304.466 89.7658 304.384L81.8358 302.67L81.0813 299.561L79.9352 302.259L76.9453 301.612L79.9718 291.751Z" fill="#2F2E41" style="fill:#2F2E41;fill:color(display-p3 0.1843 0.1804 0.2549);fill-opacity:1;"/>
<path d="M135.057 222.248C132.031 238.818 131.275 245.972 131.275 245.972C131.275 245.972 133.544 248.608 132.031 250.116C130.518 251.623 132.031 254.634 132.031 254.634L128.629 291.164L125.89 290.722L119.293 289.665L116.914 289.282L118.427 255.013C118.427 255.013 116.914 251.998 117.67 251.244C118.427 250.49 116.914 245.972 116.914 245.972L115.025 210.196L103.306 249.362C103.306 249.362 104.443 250.869 103.306 251.998C102.173 253.127 99.9079 258.778 99.9079 258.778L92.9389 283.075L92.3472 285.138L88.7128 284.46L84.7571 283.719L84.0302 283.584L82.7369 283.34L81.9044 283.184L81.6212 283.134L80.252 282.877L80.6661 281.045L80.8816 280.081L86.7772 253.99L86.9124 253.388L87.0561 252.752C87.0561 252.752 86.2996 250.869 87.4322 249.737C87.7636 249.392 88.0056 248.971 88.1374 248.512C88.2692 248.053 88.2868 247.568 88.1887 247.101C88.1516 247.061 88.1177 247.019 88.0873 246.974C87.9535 246.791 87.8612 246.582 87.8168 246.36C87.7154 245.888 87.8041 245.227 88.5691 244.465C88.7845 244.237 88.9653 243.978 89.1058 243.698C90.2553 241.53 90.8343 236.935 90.8343 236.935C90.8343 236.935 91.8571 200.548 95.2042 194.99C95.3817 194.699 98.9349 189.121 99.1209 189.008C102.899 186.751 132.335 189.868 132.335 189.868C132.335 189.868 134.118 194.64 134.198 195.137C134.633 197.929 137.622 208.191 135.057 222.248Z" fill="#2F2E41" style="fill:#2F2E41;fill:color(display-p3 0.1843 0.1804 0.2549);fill-opacity:1;"/>
<path d="M126.115 134.603C126.115 134.603 126.752 131.309 120.632 125.211C117.392 124.134 111.778 124.762 109.832 125.211C100.831 137.048 102.443 134.96 100.1 141.574C99.4923 143.289 99.1885 144.937 99.4585 146.282C100.539 151.663 102.292 179.284 101.932 180.719C101.572 182.154 99.0519 183.947 101.572 183.947C104.092 183.947 136.591 183.38 135.871 182.304C135.151 181.228 126.115 134.603 126.115 134.603Z" fill="white" style="fill:white;fill:white;fill-opacity:1;"/>
<path d="M164.712 178.371C164.218 178.562 163.689 178.642 163.161 178.607C162.633 178.571 162.119 178.421 161.656 178.166C161.192 177.911 160.79 177.558 160.479 177.132C160.167 176.706 159.953 176.217 159.852 175.699L147.114 173.896L151.543 168.906L162.96 171.383C163.844 171.271 164.738 171.486 165.474 171.987C166.209 172.488 166.735 173.24 166.951 174.102C167.167 174.963 167.058 175.874 166.646 176.66C166.233 177.447 165.545 178.056 164.712 178.371Z" fill="#A0616A" style="fill:#A0616A;fill:color(display-p3 0.6275 0.3804 0.4157);fill-opacity:1;"/>
<path d="M110.825 132.481C111.852 131.797 113.019 131.477 113.958 130.564C117.386 133.024 117.638 129.019 120.746 135.045C123.853 141.07 134.935 155.597 139.607 159.965C144.279 164.333 152.834 166.543 155.314 168.08C156.763 168.946 158.283 169.69 159.857 170.304C158.862 172.234 158.311 174.349 157.068 176.194C150.042 175.336 140.831 172.535 135.651 171.166C130.471 169.797 132.441 170.817 130.311 169.211C128.181 167.606 129.942 168.346 127.462 167.694C124.983 167.042 123.092 163.77 122.345 161.242C120.565 159.43 119.039 157.471 117.278 155.677C115.242 147.92 112.978 140.199 110.825 132.481Z" fill="white" style="fill:white;fill:white;fill-opacity:1;"/>
<path d="M118.866 120.619C124.624 120.619 129.291 115.969 129.291 110.232C129.291 104.495 124.624 99.8447 118.866 99.8447C113.109 99.8447 108.441 104.495 108.441 110.232C108.441 115.969 113.109 120.619 118.866 120.619Z" fill="#A0616A" style="fill:#A0616A;fill:color(display-p3 0.6275 0.3804 0.4157);fill-opacity:1;"/>
<path d="M125.831 129.218C125.337 128.515 121.643 121.543 120.545 118.906C120.432 119.477 120.36 120.056 120.331 120.637L120.32 120.853L120.104 120.881C119.78 120.923 112.113 121.85 108.122 117.342C105.758 114.671 105.222 110.666 106.527 105.434C106.289 105.387 106.062 105.3 105.855 105.176C105.51 104.938 105.221 104.628 105.009 104.267C104.796 103.907 104.665 103.504 104.625 103.088L104.404 103.147C97.3051 99.7052 103.421 89.6364 109.905 94.6424C110.474 94.5158 111.067 94.5497 111.617 94.7404C112.148 94.9556 112.61 95.3099 112.956 95.7658C113.301 96.2217 113.516 96.7621 113.578 97.3298C116.928 95.574 121.362 95.8597 123.655 97.1771C124.615 97.7287 125.166 98.4235 125.264 99.1986C127.973 99.3493 130.886 101.978 130.886 105.703V105.962H130.626C129.536 105.985 128.473 106.303 127.551 106.882C126.629 107.461 125.882 108.279 125.39 109.248C124.724 110.447 124.395 111.803 124.436 113.173C124.478 114.543 124.889 115.876 125.626 117.033C126.428 118.26 126.976 119.635 127.237 121.076C127.498 122.518 127.467 123.997 127.146 125.426L126.168 129.697L125.831 129.218Z" fill="#2F2E41" style="fill:#2F2E41;fill:color(display-p3 0.1843 0.1804 0.2549);fill-opacity:1;"/>
<path d="M156.083 304.511C156.083 304.579 156.07 304.646 156.044 304.709C156.018 304.771 155.98 304.828 155.932 304.876C155.884 304.924 155.826 304.962 155.763 304.988C155.7 305.014 155.633 305.027 155.565 305.027H33.4734C33.336 305.027 33.2041 304.973 33.1069 304.876C33.0097 304.779 32.9551 304.648 32.9551 304.511C32.9551 304.374 33.0097 304.242 33.1069 304.145C33.2041 304.049 33.336 303.994 33.4734 303.994H155.565C155.633 303.994 155.7 304.007 155.763 304.033C155.826 304.059 155.884 304.097 155.932 304.145C155.98 304.193 156.018 304.25 156.044 304.313C156.07 304.375 156.083 304.443 156.083 304.511Z" fill="#CCCCCC" style="fill:#CCCCCC;fill:color(display-p3 0.8000 0.8000 0.8000);fill-opacity:1;"/>
<path d="M322.479 304.511C322.479 304.579 322.466 304.646 322.44 304.709C322.414 304.771 322.375 304.828 322.327 304.876C322.279 304.924 322.222 304.962 322.159 304.988C322.096 305.014 322.028 305.027 321.96 305.027H199.869C199.731 305.027 199.6 304.973 199.502 304.876C199.405 304.779 199.351 304.648 199.351 304.511C199.351 304.374 199.405 304.242 199.502 304.145C199.6 304.049 199.731 303.994 199.869 303.994H321.96C322.028 303.994 322.096 304.007 322.159 304.033C322.222 304.059 322.279 304.097 322.327 304.145C322.375 304.193 322.414 304.25 322.44 304.313C322.466 304.375 322.479 304.443 322.479 304.511Z" fill="#CCCCCC" style="fill:#CCCCCC;fill:color(display-p3 0.8000 0.8000 0.8000);fill-opacity:1;"/>
<path d="M172.903 267.289C175.451 267.289 177.516 265.231 177.516 262.692C177.516 260.154 175.451 258.096 172.903 258.096C170.355 258.096 168.29 260.154 168.29 262.692C168.29 265.231 170.355 267.289 172.903 267.289Z" fill="#E6E6E6" style="fill:#E6E6E6;fill:color(display-p3 0.9020 0.9020 0.9020);fill-opacity:1;"/>
<path d="M203.83 272.061C206.378 272.061 208.443 270.003 208.443 267.465C208.443 264.926 206.378 262.868 203.83 262.868C201.282 262.868 199.217 264.926 199.217 267.465C199.217 270.003 201.282 272.061 203.83 272.061Z" fill="#E6E6E6" style="fill:#E6E6E6;fill:color(display-p3 0.9020 0.9020 0.9020);fill-opacity:1;"/>
<path d="M234.758 266.42C237.305 266.42 239.371 264.362 239.371 261.823C239.371 259.284 237.305 257.227 234.758 257.227C232.21 257.227 230.145 259.284 230.145 261.823C230.145 264.362 232.21 266.42 234.758 266.42Z" fill="#E6E6E6" style="fill:#E6E6E6;fill:color(display-p3 0.9020 0.9020 0.9020);fill-opacity:1;"/>
</g>
<g clip-path="url(#clip1_22549_63146)">
<path d="M196.729 109.603C219.14 109.603 237.308 91.2408 237.308 68.59C237.308 45.9392 219.14 27.5771 196.729 27.5771C174.317 27.5771 156.149 45.9392 156.149 68.59C156.149 91.2408 174.317 109.603 196.729 109.603Z" fill="#E6E6E6" style="fill:#E6E6E6;fill:color(display-p3 0.9020 0.9020 0.9020);fill-opacity:1;"/>
<path d="M231.647 68.5909C231.651 74.0975 230.378 79.5284 227.931 84.4481C225.483 89.3678 221.929 93.6394 217.553 96.9204C217.261 97.1416 216.963 97.3572 216.663 97.567C210.811 101.678 203.856 103.881 196.73 103.881C189.604 103.881 182.648 101.678 176.797 97.567C176.497 97.3572 176.198 97.1416 175.906 96.9204C171.533 93.6366 167.981 89.3644 165.534 84.4453C163.087 79.5263 161.812 74.0968 161.812 68.5909C161.812 63.0851 163.087 57.6556 165.534 52.7366C167.981 47.8175 171.533 43.5453 175.906 40.2615C176.198 40.0402 176.497 39.8247 176.797 39.6149C182.648 35.5041 189.604 33.3008 196.73 33.3008C203.856 33.3008 210.811 35.5041 216.663 39.6149C216.963 39.8247 217.261 40.0402 217.553 40.2615C221.929 43.5424 225.483 47.814 227.931 52.7337C230.378 57.6535 231.651 63.0844 231.647 68.5909Z" fill="white" style="fill:white;fill:white;fill-opacity:1;"/>
<path d="M196.727 100.83C214.344 100.83 228.625 86.3961 228.625 68.5916C228.625 50.787 214.344 36.3535 196.727 36.3535C179.111 36.3535 164.83 50.787 164.83 68.5916C164.83 86.3961 179.111 100.83 196.727 100.83Z" fill="#797D88" style="fill:#797D88;fill:color(display-p3 0.4733 0.4883 0.5333);fill-opacity:1;"/>
<path opacity="0.2" d="M196.813 36.4473C196.329 36.4473 195.849 36.46 195.37 36.4816C203.432 37.1976 210.923 40.984 216.326 47.0738C221.729 53.1636 224.639 61.1014 224.467 69.2789C224.296 77.4565 221.055 85.2623 215.401 91.1149C209.748 96.9675 202.104 100.429 194.02 100.799C194.94 100.88 195.871 100.923 196.813 100.923C205.272 100.923 213.386 97.5268 219.367 91.481C225.349 85.4352 228.71 77.2354 228.71 68.6853C228.71 60.1353 225.349 51.9354 219.367 45.8896C213.386 39.8438 205.272 36.4473 196.813 36.4473Z" fill="black" style="fill:black;fill:black;fill-opacity:1;"/>
<path d="M196.824 34.0664C196.549 34.0669 196.285 34.1776 196.09 34.3742C195.896 34.5709 195.786 34.8375 195.786 35.1156V39.6938C195.786 39.972 195.895 40.2389 196.09 40.4356C196.284 40.6324 196.548 40.7429 196.824 40.7429C197.099 40.7429 197.363 40.6324 197.558 40.4356C197.752 40.2389 197.862 39.972 197.862 39.6938V35.1156C197.861 34.8375 197.752 34.5709 197.557 34.3742C197.363 34.1776 197.099 34.0669 196.824 34.0664Z" fill="white" style="fill:white;fill:white;fill-opacity:1;"/>
<path d="M217.552 40.2631C217.26 40.0419 216.962 39.8263 216.662 39.6165C216.482 39.6046 216.301 39.6404 216.139 39.7204C215.977 39.8003 215.838 39.9217 215.737 40.0724L213.187 43.8551C213.032 44.0851 212.974 44.3678 213.025 44.6411C213.076 44.9144 213.233 45.1559 213.461 45.3125C213.688 45.4691 213.968 45.5279 214.238 45.476C214.509 45.4242 214.748 45.2658 214.903 45.0359L217.452 41.2532C217.549 41.1097 217.609 40.9439 217.627 40.771C217.644 40.5981 217.619 40.4235 217.552 40.2631Z" fill="white" style="fill:white;fill:white;fill-opacity:1;"/>
<path d="M229.136 57.5108C229.085 57.3833 229.009 57.2672 228.913 57.1692C228.818 57.0713 228.704 56.9933 228.578 56.9398C228.453 56.8863 228.318 56.8583 228.182 56.8574C228.046 56.8566 227.911 56.8828 227.784 56.9348L223.587 58.6573C223.332 58.7622 223.129 58.965 223.022 59.2213C222.915 59.4775 222.913 59.7661 223.017 60.0237C223.12 60.2813 223.321 60.4868 223.574 60.5951C223.828 60.7034 224.113 60.7055 224.368 60.6011L228.566 58.8786C228.821 58.7731 229.023 58.57 229.13 58.3137C229.237 58.0573 229.239 57.7687 229.136 57.5108Z" fill="white" style="fill:white;fill:white;fill-opacity:1;"/>
<path d="M180.27 43.8551L177.72 40.0724C177.618 39.9217 177.479 39.8003 177.317 39.7204C177.155 39.6404 176.975 39.6046 176.795 39.6165C176.495 39.8263 176.197 40.0419 175.904 40.2631C175.838 40.4235 175.812 40.5981 175.83 40.771C175.847 40.9439 175.907 41.1097 176.004 41.2532L178.554 45.0359C178.709 45.2658 178.948 45.4242 179.218 45.476C179.489 45.5279 179.768 45.4691 179.996 45.3125C180.223 45.1559 180.38 44.9144 180.431 44.6411C180.483 44.3678 180.425 44.0851 180.27 43.8551Z" fill="white" style="fill:white;fill:white;fill-opacity:1;"/>
<path d="M169.867 58.657L165.669 56.9345C165.414 56.8298 165.128 56.8318 164.875 56.9401C164.621 57.0483 164.421 57.2539 164.317 57.5116C164.213 57.7693 164.215 58.0581 164.322 58.3144C164.429 58.5707 164.633 58.7735 164.888 58.8783L169.085 60.6009C169.34 60.7053 169.626 60.7031 169.879 60.5948C170.133 60.4866 170.333 60.2811 170.437 60.0234C170.54 59.7658 170.539 59.4772 170.432 59.221C170.325 58.9648 170.122 58.7619 169.867 58.657Z" fill="white" style="fill:white;fill:white;fill-opacity:1;"/>
<path d="M196.824 96.4443C196.549 96.4448 196.285 96.5555 196.09 96.7522C195.896 96.9488 195.786 97.2154 195.786 97.4935V102.072C195.786 102.35 195.895 102.617 196.09 102.814C196.284 103.01 196.548 103.121 196.824 103.121C197.099 103.121 197.363 103.01 197.558 102.814C197.752 102.617 197.862 102.35 197.862 102.072V97.4935C197.861 97.2154 197.752 96.9488 197.557 96.7522C197.363 96.5555 197.099 96.4448 196.824 96.4443Z" fill="white" style="fill:white;fill:white;fill-opacity:1;"/>
<path d="M217.453 95.9317L214.903 92.149C214.827 92.0351 214.729 91.9376 214.615 91.8621C214.501 91.7866 214.373 91.7345 214.239 91.7088C214.105 91.6831 213.968 91.6844 213.834 91.7124C213.701 91.7405 213.574 91.7948 213.461 91.8724C213.349 91.9499 213.252 92.0491 213.178 92.1643C213.103 92.2795 213.051 92.4084 213.026 92.5438C213.001 92.6791 213.002 92.8182 213.03 92.953C213.057 93.0879 213.111 93.2159 213.188 93.3298L215.738 97.1125C215.839 97.2632 215.978 97.3845 216.14 97.4645C216.302 97.5444 216.482 97.5803 216.663 97.5684C216.963 97.3586 217.261 97.143 217.553 96.9217C217.62 96.7614 217.645 96.5868 217.628 96.4139C217.61 96.2409 217.55 96.0752 217.453 95.9317Z" fill="white" style="fill:white;fill:white;fill-opacity:1;"/>
<path d="M228.567 78.3055L224.369 76.5829C224.114 76.4783 223.828 76.4803 223.575 76.5885C223.321 76.6967 223.12 76.9023 223.017 77.16C222.913 77.4178 222.915 77.7066 223.022 77.9629C223.129 78.2192 223.333 78.422 223.588 78.5267L227.785 80.2493C228.04 80.3537 228.326 80.3516 228.579 80.2433C228.833 80.135 229.033 79.9295 229.137 79.6719C229.24 79.4143 229.238 79.1256 229.131 78.8694C229.024 78.6132 228.821 78.4104 228.567 78.3055Z" fill="white" style="fill:white;fill:white;fill-opacity:1;"/>
<path d="M179.996 91.8723C179.768 91.7158 179.489 91.657 179.218 91.7088C178.948 91.7607 178.709 91.919 178.554 92.1489L176.004 95.9316C175.907 96.0751 175.847 96.2409 175.83 96.4138C175.812 96.5867 175.838 96.7612 175.904 96.9216C176.197 97.1429 176.495 97.3585 176.795 97.5683C176.975 97.5802 177.155 97.5443 177.317 97.4644C177.479 97.3844 177.618 97.2631 177.72 97.1124L180.27 93.3297C180.346 93.2158 180.4 93.0878 180.428 92.9529C180.456 92.8181 180.457 92.679 180.431 92.5437C180.406 92.4083 180.354 92.2794 180.28 92.1642C180.205 92.049 180.109 91.9498 179.996 91.8723Z" fill="white" style="fill:white;fill:white;fill-opacity:1;"/>
<path d="M170.438 77.1593C170.387 77.0317 170.311 76.9157 170.215 76.8177C170.12 76.7197 170.006 76.6417 169.88 76.5882C169.755 76.5347 169.62 76.5067 169.484 76.5059C169.348 76.505 169.213 76.5313 169.087 76.5832L164.889 78.3057C164.634 78.4106 164.431 78.6135 164.324 78.8697C164.217 79.1259 164.215 79.4145 164.319 79.6721C164.423 79.9298 164.623 80.1353 164.876 80.2436C165.13 80.3518 165.415 80.354 165.67 80.2495L169.868 78.527C170.123 78.4216 170.326 78.2185 170.433 77.9621C170.539 77.7058 170.541 77.4171 170.438 77.1593Z" fill="white" style="fill:white;fill:white;fill-opacity:1;"/>
<path d="M198.17 68.0726C198.265 68.646 198.132 69.2345 197.799 69.7089C197.466 70.1833 196.961 70.5049 196.394 70.6031L177.973 73.7699C177.692 73.8182 177.404 73.8101 177.126 73.746C176.849 73.682 176.586 73.5632 176.353 73.3966C176.121 73.2299 175.923 73.0186 175.771 72.7747C175.62 72.5308 175.517 72.2591 175.469 71.9751C175.421 71.6911 175.429 71.4004 175.493 71.1195C175.556 70.8386 175.674 70.5731 175.839 70.3381C176.003 70.1031 176.213 69.9033 176.454 69.75C176.695 69.5967 176.964 69.4929 177.245 69.4446L195.666 66.2778C196.233 66.1809 196.816 66.3154 197.285 66.6519C197.754 66.9884 198.072 67.4993 198.17 68.0726Z" fill="#3F3D56" style="fill:#3F3D56;fill:color(display-p3 0.2471 0.2392 0.3373);fill-opacity:1;"/>
<path d="M217.555 88.6978C217.29 88.9667 216.931 89.1186 216.556 89.1201C216.18 89.1216 215.82 88.9726 215.553 88.7057L195.723 68.8214C195.457 68.554 195.307 68.1908 195.306 67.8116C195.304 67.4324 195.452 67.0682 195.716 66.799C195.981 66.5298 196.34 66.3777 196.715 66.376C197.09 66.3743 197.451 66.5233 197.717 66.7901L217.547 86.6745C217.813 86.9419 217.963 87.3052 217.965 87.6845C217.966 88.0638 217.819 88.4282 217.555 88.6978Z" fill="#3F3D56" style="fill:#3F3D56;fill:color(display-p3 0.2471 0.2392 0.3373);fill-opacity:1;"/>
<path d="M196.727 71.073C198.082 71.073 199.181 69.9627 199.181 68.5931C199.181 67.2235 198.082 66.1133 196.727 66.1133C195.372 66.1133 194.273 67.2235 194.273 68.5931C194.273 69.9627 195.372 71.073 196.727 71.073Z" fill="#CCCCCC" style="fill:#CCCCCC;fill:color(display-p3 0.8000 0.8000 0.8000);fill-opacity:1;"/>
<path d="M179.829 25.5915C176.063 31.576 170.316 35.5476 163.229 38.1568C163.089 38.2628 162.93 38.3399 162.76 38.3836C162.591 38.4274 162.414 38.437 162.241 38.4119C162.068 38.3867 161.901 38.3274 161.751 38.2372C161.6 38.147 161.469 38.0277 161.364 37.8862C157.515 32.6914 158.384 25.267 163.464 21.2976C164.693 20.3396 166.097 19.6377 167.596 19.2327C169.095 18.8277 170.658 18.7277 172.196 18.9385C173.733 19.1492 175.214 19.6665 176.552 20.4604C177.89 21.2542 179.059 22.3088 179.99 23.5628L180.097 23.7065C180.202 23.848 180.278 24.0091 180.321 24.1804C180.364 24.3517 180.374 24.53 180.349 24.705C180.324 24.8801 180.265 25.0484 180.176 25.2005C180.087 25.3526 179.969 25.4855 179.829 25.5915Z" fill="#E6E6E6" style="fill:#E6E6E6;fill:color(display-p3 0.9020 0.9020 0.9020);fill-opacity:1;"/>
<path d="M213.466 23.5628C214.398 22.3088 215.566 21.2542 216.904 20.4604C218.242 19.6665 219.723 19.1492 221.26 18.9385C222.798 18.7277 224.361 18.8277 225.86 19.2327C227.359 19.6377 228.764 20.3396 229.992 21.2976C235.073 25.267 235.942 32.6914 232.092 37.8862C231.987 38.0277 231.856 38.147 231.705 38.2372C231.555 38.3274 231.388 38.3867 231.215 38.4119C231.042 38.437 230.866 38.4274 230.696 38.3836C230.527 38.3399 230.367 38.2628 230.227 38.1568C223.648 35.611 218.253 31.2057 213.627 25.5915C213.345 25.3774 213.157 25.0585 213.107 24.705C213.057 24.3515 213.148 23.9923 213.36 23.7065L213.466 23.5628Z" fill="#E6E6E6" style="fill:#E6E6E6;fill:color(display-p3 0.9020 0.9020 0.9020);fill-opacity:1;"/>
<path d="M211.818 104.125C211.578 104.261 211.402 104.488 211.327 104.756C211.252 105.023 211.285 105.31 211.419 105.553L217.41 116.373C217.545 116.616 217.769 116.795 218.034 116.87C218.299 116.946 218.583 116.912 218.823 116.776C219.063 116.64 219.24 116.414 219.315 116.146C219.39 115.878 219.356 115.591 219.222 115.349L213.231 104.528C213.096 104.286 212.872 104.107 212.607 104.032C212.342 103.956 212.058 103.99 211.818 104.125Z" fill="#E6E6E6" style="fill:#E6E6E6;fill:color(display-p3 0.9020 0.9020 0.9020);fill-opacity:1;"/>
<path d="M180.225 104.529L174.234 115.349C174.1 115.592 174.066 115.879 174.141 116.147C174.216 116.415 174.393 116.641 174.633 116.777C174.873 116.913 175.157 116.947 175.422 116.871C175.687 116.796 175.911 116.617 176.046 116.374L182.037 105.554C182.104 105.434 182.146 105.301 182.162 105.165C182.178 105.028 182.167 104.889 182.13 104.756C182.093 104.624 182.031 104.5 181.946 104.392C181.862 104.283 181.757 104.193 181.638 104.126C181.519 104.059 181.388 104.016 181.253 103.999C181.117 103.983 180.98 103.994 180.849 104.032C180.718 104.069 180.595 104.132 180.488 104.218C180.381 104.303 180.292 104.409 180.225 104.529Z" fill="#E6E6E6" style="fill:#E6E6E6;fill:color(display-p3 0.9020 0.9020 0.9020);fill-opacity:1;"/>
<path d="M218.623 119.144C220.395 119.144 221.831 117.692 221.831 115.901C221.831 114.11 220.395 112.658 218.623 112.658C216.851 112.658 215.414 114.11 215.414 115.901C215.414 117.692 216.851 119.144 218.623 119.144Z" fill="#E6E6E6" style="fill:#E6E6E6;fill:color(display-p3 0.9020 0.9020 0.9020);fill-opacity:1;"/>
<path d="M220.887 36.1635C222.659 36.1635 224.096 34.7116 224.096 32.9206C224.096 31.1296 222.659 29.6777 220.887 29.6777C219.115 29.6777 217.679 31.1296 217.679 32.9206C217.679 34.7116 219.115 36.1635 220.887 36.1635Z" fill="#E6E6E6" style="fill:#E6E6E6;fill:color(display-p3 0.9020 0.9020 0.9020);fill-opacity:1;"/>
<path d="M196.541 28.5317C198.313 28.5317 199.749 27.0798 199.749 25.2888C199.749 23.4978 198.313 22.0459 196.541 22.0459C194.769 22.0459 193.332 23.4978 193.332 25.2888C193.332 27.0798 194.769 28.5317 196.541 28.5317Z" fill="#E6E6E6" style="fill:#E6E6E6;fill:color(display-p3 0.9020 0.9020 0.9020);fill-opacity:1;"/>
<path d="M173.324 35.7797C175.096 35.7797 176.532 34.3278 176.532 32.5368C176.532 30.7458 175.096 29.2939 173.324 29.2939C171.552 29.2939 170.115 30.7458 170.115 32.5368C170.115 34.3278 171.552 35.7797 173.324 35.7797Z" fill="#E6E6E6" style="fill:#E6E6E6;fill:color(display-p3 0.9020 0.9020 0.9020);fill-opacity:1;"/>
<path d="M175.402 119.144C177.174 119.144 178.611 117.692 178.611 115.901C178.611 114.11 177.174 112.658 175.402 112.658C173.63 112.658 172.193 114.11 172.193 115.901C172.193 117.692 173.63 119.144 175.402 119.144Z" fill="#E6E6E6" style="fill:#E6E6E6;fill:color(display-p3 0.9020 0.9020 0.9020);fill-opacity:1;"/>
</g>
<defs>
<clipPath id="clip0_22549_63146">
<rect width="289.523" height="216.554" fill="white" style="fill:white;fill:white;fill-opacity:1;" transform="translate(32.9551 89.4443)"/>
</clipPath>
<clipPath id="clip1_22549_63146">
<rect width="82.3846" height="101.215" fill="white" style="fill:white;fill:white;fill-opacity:1;" transform="translate(155.353 18.8311)"/>
</clipPath>
</defs>
</svg>
